<?xml version="1.0" encoding="UTF-8"?>
<svg width="50px" height="50px" viewBox="0 0 50 50" version="1.1" xmlns="http://www.w3.org/2000/svg" xmlns:xlink="http://www.w3.org/1999/xlink">
    <!-- Generator: Sketch 47 (45396) - http://www.bohemiancoding.com/sketch -->
    <title>toolbar/icon/user-avatar/filled</title>
    <desc>Created with Sketch.</desc>
    <defs>
        <path d="M25,0 C38.8,0 50,11.2 50,25 C50,38.8 38.8,50 25,50 C11.2,50 0,38.8 0,25 C0,11.2 11.2,0 25,0 Z M25,9.09090909 C21.2272727,9.09090909 18.1818182,12.1363636 18.1818182,15.9090909 C18.1818182,19.6818182 21.2272727,22.7272727 25,22.7272727 C28.7727273,22.7272727 31.8181818,19.6818182 31.8181818,15.9090909 C31.8181818,12.1363636 28.7727273,9.09090909 25,9.09090909 Z M25,41.3636364 C30.6818182,41.3636364 35.7045455,38.4545455 38.6363636,34.0454545 C38.5681818,29.5227273 29.5227273,27.0454545 25,27.0454545 C20.4545455,27.0454545 11.4318182,29.5227273 11.3636364,34.0454545 C14.2954545,38.4545455 19.3181818,41.3636364 25,41.3636364 Z" id="path-1"></path>
    </defs>
    <g id="Symbols" stroke="none" stroke-width="1" fill="none" fill-rule="evenodd">
        <g id="toolbar/icon/user-avatar/filled">
            <mask id="mask-2" fill="white">
                <use xlink:href="#path-1"></use>
            </mask>
            <use id="Shape" fill="#FFFFFF" fill-rule="nonzero" xlink:href="#path-1"></use>
            <g id="icon-color/default" mask="url(#mask-2)" fill="#414756">
                <rect id="Rectangle-15" x="0" y="0" width="50" height="50"></rect>
            </g>
        </g>
    </g>
</svg>