<?xml version="1.0" encoding="UTF-8"?>
<svg width="35px" height="33px" viewBox="0 0 35 33" version="1.1" xmlns="http://www.w3.org/2000/svg" xmlns:xlink="http://www.w3.org/1999/xlink">
    <title>Gear icon</title>
    <defs>
        <path d="M11.5436537,7.55120792 C10.723842,6.25622087 8.99694192,5.86399224 7.68778125,6.67674237 C6.38106778,7.48792664 5.98636753,9.19229085 6.80464263,10.4849753 C7.6244639,11.7799773 9.35136395,12.1722059 10.6605008,11.3594706 C11.9672513,10.5481385 12.361932,8.84389724 11.5436537,7.55120792 Z M12.2315322,7.11575671 C13.2922097,8.79138045 12.7803562,11.0015767 11.0899173,12.0511323 C9.40177837,13.0991589 7.17600688,12.5936222 6.11676416,10.9204265 C5.05608582,9.2448013 5.56796329,7.03445149 7.25838853,5.98506583 C8.9465275,4.93703926 11.172299,5.44257594 12.2315322,7.11575671 Z M16.0247865,3.14698677 L17.4967161,5.47243545 L16.4676713,7.1775274 C16.5781993,7.60702997 16.6493123,8.04465601 16.6808078,8.48583058 L18.1700032,9.72202133 L17.5499794,12.3992601 L15.6115523,12.882647 C15.3811541,13.2599026 15.1165181,13.6169162 14.8202683,13.9495085 L14.9916101,15.8767135 L12.6469019,17.3324357 L10.8745991,16.2834555 C10.4750204,16.3751659 10.0678165,16.4337742 9.65633321,16.459495 L8.3525713,18 L8.1114202,17.9452076 L7.00597334,17.6940372 L5.65735332,17.3878296 L5.12788086,15.305778 C4.8250074,15.1146426 4.53588947,14.9017089 4.26262581,14.6682433 L2.14537812,14.8529903 L0.673285468,12.5273882 L1.82387232,10.6209943 C1.75306861,10.3037348 1.70333626,9.98562713 1.67523899,9.66839236 L0,8.27796488 L0.62002497,5.60072097 L2.79750677,5.0576008 C2.97164465,4.78150995 3.16236719,4.51838378 3.36926079,4.26969195 L3.17839398,2.12309649 L5.5231237,0.667535687 L7.38946839,1.77223096 C7.74450606,1.68637966 8.10520217,1.62664881 8.46912725,1.59306845 L9.81741285,0 L10.0585273,0.0547456379 L11.1641901,0.30578912 L12.5126652,0.612003793 L13.0197328,2.60622667 C13.3739008,2.81466246 13.7119399,3.05366343 14.0306188,3.3209035 L16.0247865,3.14698677 Z M13.7574723,4.16193755 L13.6267636,4.04709431 C13.2676908,3.73160618 12.880003,3.45765044 12.4698491,3.22947396 L12.3164834,3.14415365 L11.8464462,1.29556606 L10.9839185,1.0997014 L10.1193814,0.903406103 L8.87021678,2.3793581 L8.69870989,2.39124473 C8.26999595,2.4209576 7.8459937,2.49106521 7.43153185,2.60147393 L7.26643554,2.64545403 L5.53317436,1.6195313 L4.0337187,2.55036306 L4.21070133,4.54080914 L4.09634539,4.67165054 C3.84016221,4.96476489 3.60978099,5.28251649 3.40617756,5.62182161 L3.31936105,5.76650131 L1.30069322,6.27000918 L0.906457127,7.97230544 L2.46321228,9.26439281 L2.47428675,9.43974784 C2.49842195,9.82190868 2.55843193,10.2072713 2.65327265,10.5919486 L2.69359695,10.7555054 L1.63034737,12.5171912 L2.56824544,13.9988763 L4.54044489,13.8267859 L4.67180233,13.9445446 C4.98777183,14.2278034 5.32895873,14.4793066 5.69109614,14.6964963 L5.83490628,14.7827456 L6.32355056,16.704248 L7.18629379,16.900136 L8.05064965,17.0965278 L9.26458663,15.6621585 L9.44366316,15.6551724 C9.91735695,15.6366927 10.3847156,15.5698714 10.8395696,15.454425 L11.0024403,15.4130868 L12.6368153,16.3804312 L14.1362924,15.4494744 L13.977376,13.6620274 L14.1017508,13.5291316 C14.4464555,13.1608109 14.7461313,12.7568662 14.9961067,12.3248624 L15.0825238,12.1755176 L16.8693177,11.7299436 L17.263555,10.0276422 L15.8866609,8.88467355 L15.8782802,8.70520619 C15.8549378,8.20534296 15.7746402,7.70987684 15.6377508,7.22697566 L15.5895507,7.05694156 L16.5396663,5.48263256 L15.6018944,4.00108053 L13.7574723,4.16193755 Z" id="path-1"></path>
        <rect id="path-3" x="0" y="0" width="18" height="20"></rect>
    </defs>
    <g id="Gear-icon" stroke="none" stroke-width="1" fill="none" fill-rule="evenodd">
        <g id="header-icon/settings/default-copy" transform="translate(7.000000, 8.000000)">
            <mask id="mask-2" fill="white">
                <use xlink:href="#path-1"></use>
            </mask>
            <use id="Fill-5-Copy" fill="#52585B" fill-rule="nonzero" xlink:href="#path-1"></use>
            <g id="Group" mask="url(#mask-2)">
                <g id="↳-Tonal-Palette">
                    <mask id="mask-4" fill="white">
                        <use xlink:href="#path-3"></use>
                    </mask>
                    <g id="Background"></g>
                    <g id="Group" mask="url(#mask-4)" fill="#007DB6">
                        <g id="↳-Tonal-Palette">
                            <rect id="Rectangle-13" x="0" y="0" width="18" height="20"></rect>
                        </g>
                    </g>
                </g>
            </g>
        </g>
    </g>
</svg>