<?xml version="1.0" encoding="utf-8"?>
<!-- Generator: Adobe Illustrator 21.1.0, SVG Export Plug-In . SVG Version: 6.00 Build 0)  -->
<svg version="1.1" id="Layer_1" xmlns="http://www.w3.org/2000/svg" xmlns:xlink="http://www.w3.org/1999/xlink" x="0px" y="0px"
	 viewBox="0 0 24 24" style="enable-background:new 0 0 24 24;" xml:space="preserve">
<style type="text/css">
	.st0{fill:none;stroke:#19495D;stroke-width:1.5;}
</style>
<g id="Unity-Next-Click-_x26_-Drag">
	<g id="welcome-copy-2" transform="translate(-1157.000000, -9.000000)">
		<path id="Shape" class="st0" d="M1172.7,21c0-1-0.4-1.9-1.1-2.6c-0.7-0.7-1.6-1.1-2.6-1.1c-1,0-1.9,0.4-2.6,1.1
			c-0.7,0.7-1.1,1.6-1.1,2.6c0,1,0.4,1.9,1.1,2.6c0.7,0.7,1.6,1.1,2.6,1.1c1,0,1.9-0.4,2.6-1.1C1172.4,22.9,1172.7,22,1172.7,21z
			 M1180.1,19.4v3.2c0,0.1,0,0.2-0.1,0.3c-0.1,0.1-0.2,0.2-0.3,0.2l-2.7,0.4c-0.2,0.5-0.4,1-0.6,1.3c0.3,0.5,0.9,1.1,1.6,2
			c0.1,0.1,0.1,0.2,0.1,0.4c0,0.1,0,0.2-0.1,0.3c-0.3,0.4-0.7,0.9-1.4,1.6c-0.7,0.7-1.1,1-1.4,1c-0.1,0-0.2,0-0.4-0.1l-2-1.6
			c-0.4,0.2-0.9,0.4-1.3,0.6c-0.2,1.3-0.3,2.2-0.4,2.7c-0.1,0.3-0.2,0.4-0.5,0.4h-3.2c-0.1,0-0.3,0-0.4-0.1
			c-0.1-0.1-0.2-0.2-0.2-0.3l-0.4-2.7c-0.5-0.2-0.9-0.3-1.3-0.5l-2,1.5c-0.1,0.1-0.2,0.1-0.4,0.1c-0.1,0-0.3-0.1-0.4-0.2
			c-1.2-1.1-2-1.9-2.4-2.4c-0.1-0.1-0.1-0.2-0.1-0.3c0-0.1,0-0.2,0.1-0.3c0.1-0.2,0.4-0.5,0.7-1c0.3-0.4,0.6-0.8,0.8-1
			c-0.3-0.5-0.5-1-0.6-1.4l-2.7-0.4c-0.1,0-0.2-0.1-0.3-0.2c-0.1-0.1-0.1-0.2-0.1-0.3v-3.2c0-0.1,0-0.2,0.1-0.3
			c0.1-0.1,0.2-0.2,0.3-0.2l2.7-0.4c0.1-0.4,0.3-0.9,0.6-1.3c-0.4-0.6-0.9-1.2-1.6-2c-0.1-0.1-0.1-0.2-0.1-0.3c0-0.1,0-0.2,0.1-0.3
			c0.3-0.3,0.7-0.9,1.4-1.6c0.7-0.7,1.2-1,1.4-1c0.1,0,0.3,0,0.4,0.1l2,1.5c0.4-0.2,0.9-0.4,1.3-0.6c0.2-1.3,0.3-2.2,0.4-2.7
			c0.1-0.3,0.2-0.4,0.5-0.4h3.2c0.1,0,0.3,0,0.4,0.1c0.1,0.1,0.2,0.2,0.2,0.3l0.4,2.7c0.5,0.2,0.9,0.3,1.3,0.5l2.1-1.5
			c0.1-0.1,0.2-0.1,0.3-0.1c0.1,0,0.2,0,0.4,0.1c1.2,1.1,2,2,2.4,2.5c0.1,0.1,0.1,0.2,0.1,0.3c0,0.1,0,0.2-0.1,0.3
			c-0.1,0.2-0.4,0.5-0.7,1c-0.3,0.4-0.6,0.8-0.8,1c0.3,0.5,0.4,1,0.6,1.4l2.7,0.4c0.1,0,0.2,0.1,0.3,0.2
			C1180.1,19.2,1180.1,19.3,1180.1,19.4z"/>
	</g>
</g>
</svg>
