<?xml version="1.0" encoding="utf-8"?>
<!-- Generator: Adobe Illustrator 21.1.0, SVG Export Plug-In . SVG Version: 6.00 Build 0)  -->
<svg version="1.1" id="Layer_1" xmlns="http://www.w3.org/2000/svg" xmlns:xlink="http://www.w3.org/1999/xlink" x="0px" y="0px"
	 viewBox="0 0 24 24" style="enable-background:new 0 0 24 24;" xml:space="preserve">
<style type="text/css">
	.st0{fill:#19495D;}
</style>
<g id="Unity-Next-Click-_x26_-Drag_1_">
	<g id="welcome-copy-2_1_" transform="translate(-1227.000000, -9.000000)">
		<path id="Shape_1_" class="st0" d="M1244.2,24.1h-1.1l-0.4-0.4c1.3-1.6,2.2-3.6,2.2-5.8c0-4.9-4-8.9-8.9-8.9s-8.9,4-8.9,8.9
			s4,8.9,8.9,8.9c2.2,0,4.2-0.8,5.8-2.2l0.4,0.4v1.1l6.9,6.8l2-2L1244.2,24.1L1244.2,24.1z M1235.9,24.1c-3.4,0-6.2-2.8-6.2-6.2
			s2.8-6.2,6.2-6.2c3.4,0,6.2,2.8,6.2,6.2S1239.3,24.1,1235.9,24.1z"/>
	</g>
</g>
</svg>
