<?xml version="1.0" encoding="utf-8"?>
<!-- Generator: Adobe Illustrator 21.1.0, SVG Export Plug-In . SVG Version: 6.00 Build 0)  -->
<svg version="1.1" id="Layer_1" xmlns="http://www.w3.org/2000/svg" xmlns:xlink="http://www.w3.org/1999/xlink" x="0px" y="0px"
	 viewBox="0 0 24 24" style="enable-background:new 0 0 24 24;" xml:space="preserve">
<style type="text/css">
	.st0{fill:#19495D;}
</style>
<g id="Unity-Next-Click-_x26_-Drag">
	<g id="welcome-copy-2" transform="translate(-1193.000000, -9.000000)">
		<g id="bell_icon" transform="translate(1193.000000, 9.000000)">
			<path id="Shape" class="st0" d="M12.2,22.7c0-0.1-0.1-0.2-0.2-0.2c-0.5,0-1-0.2-1.4-0.6c-0.4-0.4-0.6-0.8-0.6-1.4
				c0-0.1-0.1-0.2-0.2-0.2c-0.1,0-0.2,0.1-0.2,0.2c0,0.6,0.2,1.2,0.7,1.7c0.5,0.5,1,0.7,1.7,0.7C12.1,22.9,12.2,22.8,12.2,22.7z
				 M3.3,18.8h17.4c-2.4-2.7-3.6-6.4-3.6-11.1c0-0.5-0.1-0.9-0.3-1.4S16.2,5.4,15.8,5c-0.4-0.4-0.9-0.8-1.6-1.1
				c-0.7-0.3-1.4-0.4-2.3-0.4s-1.6,0.1-2.3,0.4C9,4.2,8.5,4.5,8.1,5C7.7,5.4,7.4,5.8,7.2,6.3C6.9,6.8,6.8,7.3,6.8,7.7
				C6.8,12.5,5.6,16.2,3.3,18.8z M23.1,18.8c0,0.5-0.2,0.9-0.5,1.2c-0.3,0.3-0.7,0.5-1.2,0.5h-6c0,0.9-0.3,1.7-1,2.4
				c-0.7,0.7-1.5,1-2.4,1s-1.7-0.3-2.4-1c-0.7-0.7-1-1.5-1-2.4h-6c-0.5,0-0.9-0.2-1.2-0.5c-0.3-0.3-0.5-0.7-0.5-1.2
				c0.4-0.4,0.8-0.8,1.2-1.2s0.7-0.9,1.1-1.6c0.4-0.7,0.7-1.4,1-2.1s0.5-1.7,0.7-2.7S5.1,9,5.1,7.7c0-1.4,0.5-2.6,1.6-3.8
				s2.4-1.9,4.1-2.1c-0.1-0.2-0.1-0.3-0.1-0.5c0-0.4,0.1-0.7,0.4-0.9C11.3,0.2,11.6,0,12,0s0.7,0.1,0.9,0.4s0.4,0.6,0.4,0.9
				c0,0.2,0,0.4-0.1,0.5c1.7,0.2,3.1,1,4.1,2.1s1.6,2.4,1.6,3.8c0,1.2,0.1,2.4,0.3,3.5s0.4,2,0.7,2.7s0.6,1.5,1,2.1
				c0.4,0.7,0.8,1.2,1.1,1.6S22.6,18.5,23.1,18.8z"/>
		</g>
	</g>
</g>
</svg>
