<?xml version="1.0" encoding="UTF-8"?>
<svg width="93px" height="26px" viewBox="0 0 93 26" version="1.1" xmlns="http://www.w3.org/2000/svg" xmlns:xlink="http://www.w3.org/1999/xlink">
    <!-- Generator: Sketch 46 (44423) - http://www.bohemiancoding.com/sketch -->
    <title>BR_Logo_RGB</title>
    <desc>Created with Sketch.</desc>
    <defs>
        <polygon id="path-1" points="0 25.85442 0 0.168976362 92.7308186 0.168976362 92.7308186 25.85442"></polygon>
    </defs>
    <g id="Symbols" stroke="none" stroke-width="1" fill="none" fill-rule="evenodd">
        <g id="BR_Logo_RGB">
            <g id="BR_Logo_RGB-Copy">
                <g id="Group-3">
                    <mask id="mask-2" fill="white">
                        <use xlink:href="#path-1"></use>
                    </mask>
                    <g id="Clip-2"></g>
                    <path d="M79.0833324,0.168976362 L17.1300118,0.173123021 L12.9778091,0.173123021 C3.29513885,0.542175689 -0.0471026685,7.86206582 -3.04829187e-13,13.3398026 C0.00102397105,14.7589967 0.210938037,16.0714144 0.589807327,17.1578391 C1.74279873,21.8394173 6.62509272,25.7227636 13.5266576,25.9166199 L78.0931524,25.9166199 C78.1351352,25.9155833 78.179166,25.9166199 78.2375323,25.9166199 L78.3163781,25.9166199 C86.3668385,25.9166199 90.6163184,21.800024 92.1655866,17.3319987 C92.47073,16.3637538 92.7287707,14.8719932 92.7308186,13.118993 C92.7287707,10.5076344 92.150227,7.31159682 90.1166205,4.7116415 C88.0860859,2.1085762 84.5963926,0.209406289 79.0905002,0.168976362 L79.0833324,0.168976362" id="Fill-1" fill="#0FA50F" mask="url(#mask-2)"></path>
                </g>
                <polyline id="Fill-4" fill="#FFFFFE" points="25.5491018 19.2850752 22.0952474 19.2850752 24.7944351 6.85442764 28.191971 6.85442764 25.5491018 19.2850752"></polyline>
                <path d="M36.7984478,14.9362664 C35.8871135,16.3658272 34.8969335,16.6757899 34.4484342,16.7950064 C33.0558336,17.0572826 32.1741945,16.6001134 31.7963492,15.911768 C31.1215522,14.8367466 31.5649317,11.6023524 32.9800597,10.1510217 C33.9620479,8.9464172 36.0755242,8.64060109 37.2080362,9.73013579 C38.4593288,10.9440703 37.6288883,13.5232923 36.7984478,14.9362664 Z M40.8124143,8.68828767 C40.0956345,7.46605987 38.8453659,6.73521119 37.6565355,6.41073511 C35.127327,5.93283263 32.3769407,6.28115201 30.527649,8.0776921 C28.4510357,10.140655 27.3615305,12.9686766 27.7762388,15.911768 C28.1161972,17.3827953 29.0101239,18.6941763 30.8901348,19.2747086 C33.7285825,19.959944 37.4537892,19.4467949 39.4914916,16.8281797 C41.2844649,14.6688069 42.2469977,11.3069029 40.8124143,8.68828767 L40.8124143,8.68828767 Z" id="Fill-5" fill="#FFFFFE"></path>
                <path d="M20.0196581,12.6234672 C20.020682,12.6224306 20.02273,12.6213939 20.023754,12.6213939 C20.021706,12.6151739 20.0176101,12.6182839 20.0196581,12.6058439 C20.0370656,12.6110273 20.0104423,12.6317606 20.0196581,12.6234672" id="Fill-6" fill="#FFFFFE"></path>
                <path d="M20.023754,12.6213939 C20.0288738,12.6193206 20.0329697,12.6162106 20.0370656,12.6151739 C20.0309218,12.6120639 20.0258019,12.6089539 20.0196581,12.6058439 C20.0176101,12.6182839 20.021706,12.6151739 20.023754,12.6213939" id="Fill-7" fill="#FFFFFE"></path>
                <path d="M17.4853297,11.6002791 C16.5176771,11.6002791 13.8881194,11.6002791 13.8993831,11.6127191 L14.3949851,9.10399025 C14.4042008,9.1143569 17.4003401,9.10917357 17.4003401,9.10917357 C19.7800488,9.10917357 18.7591497,11.5525925 17.4853297,11.6002791 Z M16.6835604,16.7846397 C16.6835604,16.7836031 12.8027101,16.7846397 12.7904224,16.7846397 C12.8027101,16.7721998 13.4273324,13.8819783 13.4273324,13.8819783 L16.4234717,13.8819783 C19.5496554,13.7866051 19.1963853,16.9650194 16.6835604,16.7846397 Z M21.9467716,10.9451069 C22.887801,9.08014696 22.0860317,6.78808109 19.1605464,6.78808109 L11.5872564,6.78289777 L9.00377747,19.2798919 L16.093753,19.2798919 C17.8426956,19.2601953 18.6014582,19.1316488 19.5773026,18.685883 C22.0624803,17.553845 22.9021366,13.8052651 20.0370656,12.6151739 C20.0329697,12.6162106 20.0288738,12.6193206 20.023754,12.6213939 C20.0268259,12.6276139 20.0268259,12.6410905 20.0298978,12.6400539 C20.0268259,12.6410905 20.0268259,12.6276139 20.023754,12.6213939 C20.02273,12.6213939 20.020682,12.6224306 20.0196581,12.6234672 C20.0104423,12.6317606 20.0370656,12.6110273 20.0196581,12.6058439 C20.0145382,12.6110273 20.0124903,12.6193206 20.0124903,12.6224306 C20.0124903,12.6193206 20.0145382,12.6110273 20.0196581,12.6058439 C20.0258019,12.6089539 20.0309218,12.6120639 20.0370656,12.6151739 C20.7005988,12.3414944 21.4747209,11.8822519 21.9467716,10.9451069 L21.9467716,10.9451069 Z" id="Fill-8" fill="#FFFFFE"></path>
                <path d="M76.9370891,16.9619094 C76.941185,16.9608727 74.9188421,16.9608727 74.9188421,16.9619094 L76.5602677,9.1319802 C76.5746033,9.13612686 78.780237,9.1288702 78.7771651,9.1288702 C82.5054437,9.1288702 82.4102144,16.8903795 76.9370891,16.9619094 Z M63.6787119,14.6688069 L66.2970059,10.1323617 L67.2216517,14.6688069 L63.6787119,14.6688069 Z M54.831602,11.8034654 C54.8551533,11.851152 51.3767236,11.7941354 51.3767236,11.8179787 L51.965507,9.15375016 C51.965507,9.15375016 54.6657187,9.15064017 54.6657187,9.1527135 C56.9778453,9.29577324 56.5068186,11.7319355 54.831602,11.8034654 Z M84.7407725,10.6268508 C84.3608792,8.92153725 83.2130077,7.0410273 80.0980877,6.82540103 L73.6562858,6.82540103 L71.3533749,17.7591046 C70.6529787,14.4490339 69.0351045,6.80052107 69.0351045,6.80881439 C69.0187209,6.80363106 65.1214871,6.81503438 65.1173912,6.80881439 L58.6295106,17.7321514 C58.6592058,15.9231713 58.403213,14.0944946 56.8324414,13.5989688 C60.2576246,12.6390172 61.9799439,6.66782798 55.821782,6.76320114 L49.1106757,6.76320114 L47.9658761,11.7848054 L44.3563781,11.7848054 L43.8239132,14.2821309 L47.4497947,14.2873142 C47.4395549,14.2976809 46.4411832,19.2912952 46.4268476,19.2830019 L49.8018562,19.2830019 C50.16127,17.6201916 50.8596183,14.2966442 50.8514265,14.2873142 L53.62946,14.2873142 C56.458692,14.1680978 54.6042804,18.6247197 54.5684414,19.2923319 L58.5598806,19.2912952 L58.5598806,19.2892219 L60.9273017,19.2892219 C60.9273017,19.2560486 62.2103374,17.1536924 62.2011217,17.1298491 L67.7510448,17.1298491 C67.7807399,17.1536924 68.2538146,19.2591586 68.2538146,19.2519019 L71.0390158,19.2550119 L77.6917558,19.2550119 C84.7704676,19.1357955 85.2568539,13.474569 84.7407725,10.6268508 L84.7407725,10.6268508 Z" id="Fill-9" fill="#FFFFFE"></path>
            </g>
        </g>
    </g>
</svg>