<?xml version="1.0" encoding="UTF-8"?>

<svg>
  <defs>
    <svg id="lab" width="50px" height="50px" viewBox="0 0 50 50" version="1.1" xmlns="http://www.w3.org/2000/svg" xmlns:xlink="http://www.w3.org/1999/xlink">
      <!-- Generator: Sketch 47 (45396) - http://www.bohemiancoding.com/sketch -->
      <title>toolbar/icon/lab/default</title>
      <desc>Created with Sketch.</desc>
      <g id="Symbols" stroke="none" stroke-width="1" fill="none" fill-rule="evenodd">
          <g id="toolbar/icon/lab/default">
              <mask id="mask-1" fill="white">
                <path d="M45.4524293,46.1713522 C44.4052944,48.4937108 42.0981677,49.9904093 39.5461086,50 L9.52037729,50 C7.79107081,50 6.13259223,49.3130357 4.90978789,48.0902313 C3.68698355,46.867427 3.00001923,45.2089484 3.00002366,43.482922 C2.996323,42.1149577 3.42686766,40.7811134 4.16237986,39.7770094 L17.9051604,16.0658739 L17.9051604,11.2956901 C15.6557201,10.0778233 14.3918601,7.53343058 14.8537527,4.95226568 C15.3675584,2.08099838 17.8685371,-0.00702960169 20.7824748,1.7785679e-05 L28.1243901,2.13281201e-05 C31.0412587,-0.00702960169 33.5422374,2.08099838 34.0560431,4.95226568 C34.5179358,7.53343058 33.2540757,10.0778233 31.0046354,11.2956901 L31.0046354,16.0654656 L44.4950239,39.3074779 C46.1065004,41.217265 46.4825592,43.8867078 45.4524293,46.1713522 Z M42.5908552,40.8122234 L42.4538934,40.6215373 L28.5796703,16.7182327 L28.5796703,9.66938664 L29.3744265,9.37771972 C31.0080601,8.77819393 31.9755256,7.09238078 31.668996,5.37942147 C31.3624665,3.66646215 29.8704164,2.42077285 28.127321,2.42498288 L20.7795439,2.42497934 C19.0393794,2.42077285 17.5473293,3.66646215 17.2407998,5.37942147 C16.9342702,7.09238078 17.9017357,8.77819393 19.5353693,9.37771972 L20.3301255,9.66938664 L20.3301255,16.7178244 L20.166664,16.9998532 L6.19314535,41.0965552 C5.69163416,41.7885115 5.42266804,42.6217791 5.42498432,43.4796419 C5.42498432,44.5658077 5.85646198,45.6074869 6.62449715,46.3755221 C7.39253232,47.1435572 8.43421155,47.5750349 9.52037729,47.5750349 L39.541548,47.5750435 C41.1387602,47.5690358 42.5852657,46.6306466 43.2417907,45.1745911 C43.8983158,43.7185355 43.6438509,42.013191 42.5908552,40.8122234 Z M20.4743957,26.2185557 L28.5327589,26.2185557 L28.5327589,26.2185557 C28.8523842,26.2185557 29.1480306,26.3880757 29.3094886,26.6639229 L38.319583,42.0574623 L38.319583,42.0574623 C38.5706698,42.4864383 38.4264621,43.0377381 37.9974861,43.2888248 C37.8595729,43.3695477 37.7026539,43.4120951 37.5428533,43.4120951 L11.572962,43.4120951 L11.572962,43.4120951 C11.0759058,43.4120951 10.672962,43.0091514 10.672962,42.5120951 C10.672962,42.3539045 10.714657,42.1985082 10.7938455,42.0615649 L19.6952792,26.6680255 L19.6952792,26.6680255 C19.8561286,26.3898634 20.1530755,26.2185557 20.4743957,26.2185557 Z"></path>
              </mask>
              <g id="icon-color/default" mask="url(#mask-1)" fill="#414756">
                  <rect id="Rectangle-15" x="0" y="0" width="50" height="50"></rect>
              </g>
          </g>
      </g>
  </svg>

    <svg id="notification" width="50px" height="50px" viewBox="0 0 50 50" version="1.1" xmlns="http://www.w3.org/2000/svg" xmlns:xlink="http://www.w3.org/1999/xlink">
      <!-- Generator: Sketch 47 (45396) - http://www.bohemiancoding.com/sketch -->
      <title>toolbar/icon/notification/default</title>
      <desc>Created with Sketch.</desc>
      <g id="Symbols" stroke="none" stroke-width="1" fill="none" fill-rule="evenodd">
          <g id="toolbar/icon/notification/default">
              <mask id="mask-2" fill="white">
                  <path d="M29.8694156,42.8416154 L29.8691456,42.8205497 C29.8691456,42.8249888 29.8691397,42.8294266 29.8691279,42.833863 C29.8691741,42.8351488 29.86927,42.8377329 29.8694156,42.8416154 Z M20.1873503,42.8205497 L20.1870803,42.8416154 C20.1872186,42.8378977 20.1872986,42.8357917 20.187368,42.833863 C20.1873562,42.8294266 20.1873503,42.8249888 20.1873503,42.8205497 Z M20.3153143,43.9370845 C20.8173338,46.0875493 22.7376746,47.6875219 25.0282479,47.6875219 C27.3188213,47.6875219 29.2391621,46.0875493 29.7411816,43.9370845 L20.3153143,43.9370845 Z M17.885417,41.6246064 L32.1710789,41.6246064 L32.1805126,42.7615773 C32.1811343,42.7781937 32.1811503,42.7795753 32.1816237,42.8205497 C32.1816237,46.7845326 28.9800761,50 25.0282479,50 C21.0764197,50 17.8748721,46.7845326 17.8748721,42.8205497 C17.8753456,42.7795753 17.8753616,42.7781937 17.8759833,42.7615773 L17.885417,41.6246064 Z M42.9667588,39.0138553 L37.3702342,30.7569346 L37.3702342,20.4671005 C37.3702342,14.4026964 33.0919637,9.22468525 27.2463019,8.05738327 L26.3164786,7.87170975 L26.3164786,6.92352936 L26.3164786,3.86428637 C26.3164154,3.0061422 25.6257542,2.31247813 24.7763682,2.31247813 C23.9269866,2.31247813 23.2363679,3.00611909 23.2363679,3.86420123 L23.2363679,7.87180403 L22.3065637,8.05749005 C16.4608876,9.22489748 12.1826123,14.4029143 12.1826123,20.4672111 L12.1826123,30.7570452 L6.58602932,39.014052 C6.2570262,39.4994303 6.22218175,40.1286093 6.49570231,40.6479324 C6.76830855,41.1655196 7.30208514,41.4883914 7.88283449,41.4883914 L41.6699019,41.4883914 C42.2505842,41.4883914 42.7844235,41.1654639 43.0570585,40.6478861 C43.3306164,40.128549 43.2957714,39.4993415 42.9667588,39.0138553 Z M39.6827123,29.981885 L44.881011,37.7164757 C45.6890189,38.9087607 45.7744282,40.4510225 45.1030479,41.725607 C44.430834,43.0017567 43.1098009,43.8008695 41.6699019,43.8008695 L7.88283449,43.8008695 C6.44287053,43.8008695 5.12184493,43.001805 4.44966107,41.7255549 C3.77836542,40.4509913 3.86377802,38.9087135 4.67183553,37.7165863 L9.87013415,30.0471945 C9.87013415,28.3744328 9.87013415,28.1655875 9.87013415,24.9680973 L9.87013415,20.4672111 C9.87013415,13.6218233 14.4819031,7.72985081 20.9238897,6.00671985 L20.9238897,3.86420123 C20.9238897,1.73122765 22.6475743,-3.55271368e-15 24.7763682,-3.55271368e-15 C26.9051236,-3.55271368e-15 28.6287997,1.73117033 28.6289568,3.86420123 L28.6289568,6.00659472 C35.0709449,7.72962898 39.6827123,13.6216103 39.6827123,20.4671005 L39.6827123,25.7746914 C39.6827123,28.2303768 39.6827123,28.4187332 39.6827123,29.981885 Z" ></path>
              </mask>
              <g id="icon-color/default" mask="url(#mask-2)" fill="#414756">
                  <rect id="Rectangle-15" x="0" y="0" width="50" height="50"></rect>
              </g>
          </g>
      </g>
  </svg>

  <!-- Settings -->
    <svg id="settings" width="50px" height="50px" viewBox="0 0 50 50" version="1.1" xmlns="http://www.w3.org/2000/svg" xmlns:xlink="http://www.w3.org/1999/xlink">
    <!-- Generator: Sketch 47 (45396) - http://www.bohemiancoding.com/sketch -->
    <title>toolbar/icon/settings/default</title>
    <desc>Created with Sketch.</desc>
    <g id="Symbols" stroke="none" stroke-width="1" fill="none" fill-rule="evenodd">
        <g id="toolbar/icon/settings/default">
            <mask id="mask-3" fill="white">
                <path d="M32.0657048,20.9755775 C29.7884499,17.3783913 24.9915053,16.2888673 21.3549479,18.5465066 C17.7251883,20.7997962 16.6287987,25.5341412 18.9017851,29.1249313 C21.1790664,32.7221592 25.976011,33.8116831 29.6125021,31.554085 C33.2423646,29.3003847 34.3386999,24.5663812 32.0657048,20.9755775 Z M33.9764784,19.7659909 C36.9228046,24.4205013 35.5009894,30.5599353 30.8053259,33.4753676 C26.116051,36.3865525 19.9333524,34.982284 16.9910115,30.3345179 C14.0446828,25.6800036 15.4665647,19.540143 20.1621904,16.6251829 C24.8514653,13.7139979 31.0341638,15.1182665 33.9764784,19.7659909 Z M44.5132957,8.74162991 L48.6019892,15.2012096 L45.7435314,19.9375761 C46.0505535,21.1306388 46.2480896,22.3462667 46.3355771,23.5717516 L50.472231,27.0056148 L48.7499427,34.4423892 L43.365423,35.7851305 C42.725428,36.8330628 41.9903281,37.8247672 41.1674119,38.7486347 L41.6433615,44.1019821 L35.130283,48.1456548 L30.2072198,45.2318209 C29.0972789,45.486572 27.9661571,45.6493728 26.8231478,45.7208195 L23.2015869,50 L22.5317228,49.847799 L19.4610371,49.1501032 L15.7148703,48.2995267 L14.2441135,42.5160499 C13.4027983,41.9851182 12.599693,41.3936357 11.8406273,40.7451202 L5.95938366,41.2583064 L1.87023741,34.7983007 L5.066312,29.502762 C4.86963504,28.6214855 4.73148962,27.7378531 4.65344165,26.8566454 L0,22.9943469 L1.72229158,15.5575583 L7.77085214,14.0488911 C8.25456847,13.2819721 8.7843533,12.551066 9.35905776,11.8602554 L8.82887217,5.89749026 L15.3420103,1.8542658 L20.5263011,4.92286378 C21.5125168,4.68438794 22.5144505,4.51846893 23.5253535,4.42519014 L27.2705913,0 L27.9403536,0.152071216 L31.0116392,0.849414222 L34.7574033,1.70001053 L36.1659245,7.23951852 C37.1497244,7.81850684 38.0887219,8.48239841 38.9739411,9.22473195 L44.5132957,8.74162991 Z M38.215201,11.5609376 L37.852121,11.2419286 C36.8546967,10.3655727 35.7777862,9.60458456 34.6384698,8.97076099 L34.2124538,8.73376013 L32.9067949,3.5987946 L30.5108849,3.05472611 L28.1093929,2.5094614 L24.639491,6.60932806 L24.163083,6.64234646 C22.972211,6.72488223 21.7944269,6.91962558 20.643144,7.22631646 L20.1845432,7.3484834 L15.3699288,4.49869805 L11.2047742,7.08434182 L11.6963926,12.6133587 L11.3787372,12.9768071 C10.6671172,13.7910136 10.0271694,14.6736569 9.46160433,15.6161711 L9.22044737,16.0180592 L3.61303673,17.4166922 L2.51793646,22.1452929 L6.84225633,25.7344245 L6.87301875,26.2215218 C6.94006098,27.2830797 7.10675536,28.3535315 7.37020182,29.4220795 L7.48221374,29.8764038 L4.52874269,34.7699756 L7.13401512,38.8857674 L12.6123469,38.4077385 L12.9772287,38.734846 C13.8549217,39.5216761 14.8026631,40.2202962 15.8086004,40.8236009 L16.208073,41.0631821 L17.5654182,46.4006888 L19.9619272,46.9448222 L22.3629157,47.4903549 L25.7349629,43.5059959 L26.2323977,43.48659 C27.5482137,43.4352574 28.8464321,43.2496428 30.1099155,42.9289584 L30.5623342,42.8141301 L35.1022647,45.5011977 L39.267479,42.9152066 L38.8260445,37.9500761 L39.1715299,37.5809212 C40.129043,36.5578082 40.961476,35.4357395 41.6558518,34.235729 L41.8958993,33.8208822 L46.8592158,32.5831767 L47.9543193,27.8545617 L44.1296137,24.6796487 L44.106334,24.1811283 C44.0414939,22.7926193 43.8184449,21.4163245 43.4381965,20.0749324 L43.3043075,19.6026154 L45.9435175,15.2295349 L43.3385957,11.1141126 L38.215201,11.5609376 Z"></path>
            </mask>
            <g id="icon-color/default" mask="url(#mask-3)" fill="#414756">
                <rect id="Rectangle-15" x="0" y="0" width="50" height="50"></rect>
            </g>
        </g>
    </g>
  </svg>


<!-- User/Avatar -->
   <svg id="avatar" width="50px" height="50px" viewBox="0 0 50 50" version="1.1" xmlns="http://www.w3.org/2000/svg" xmlns:xlink="http://www.w3.org/1999/xlink">
    <!-- Generator: Sketch 47 (45396) - http://www.bohemiancoding.com/sketch -->
    <title>toolbar/icon/user-avatar/default</title>
    <desc>Created with Sketch.</desc>

    <g id="Symbols" stroke="none" stroke-width="1" fill="none" fill-rule="evenodd">
        <g id="toolbar/icon/user-avatar/default">
            <mask id="mask-4" fill="white">
              <path d="M25,9.09090909 C28.7727273,9.09090909 31.8181818,12.1363636 31.8181818,15.9090909 C31.8181818,19.6818182 28.7727273,22.7272727 25,22.7272727 C21.2272727,22.7272727 18.1818182,19.6818182 18.1818182,15.9090909 C18.1818182,12.1363636 21.2272727,9.09090909 25,9.09090909 Z M25,41.3636364 C19.3181818,41.3636364 14.2954545,38.4545455 11.3636364,34.0454545 C11.4318182,29.5227273 20.4545455,27.0454545 25,27.0454545 C29.5227273,27.0454545 38.5681818,29.5227273 38.6363636,34.0454545 C35.7045455,38.4545455 30.6818182,41.3636364 25,41.3636364 Z M25,3.40909091 C13.0827889,3.40909091 3.40909091,13.0827889 3.40909091,25 C3.40909091,36.9172111 13.0827889,46.5909091 25,46.5909091 C36.9172111,46.5909091 46.5909091,36.9172111 46.5909091,25 C46.5909091,13.0827889 36.9172111,3.40909091 25,3.40909091 Z M25,0 C38.8,0 50,11.2 50,25 C50,38.8 38.8,50 25,50 C11.2,50 0,38.8 0,25 C0,11.2 11.2,0 25,0 Z"></path>
            </mask>
            <g id="icon-color/default" mask="url(#mask-4)" fill="#414756">
                <rect id="Rectangle-15" x="0" y="0" width="50" height="50"></rect>
            </g>
        </g>
    </g>
</svg>
</defs>
</svg>
