<?xml version="1.0" encoding="UTF-8"?>
<svg width="50px" height="38px" viewBox="0 0 50 38" version="1.1" xmlns="http://www.w3.org/2000/svg" xmlns:xlink="http://www.w3.org/1999/xlink">
    <!-- Generator: Sketch 47 (45396) - http://www.bohemiancoding.com/sketch -->
    <title>icon/instruments</title>
    <desc>Created with Sketch.</desc>
    <defs>
        <path d="M2,15.5172414 L48,15.5172414 L48,15.5172414 C49.1045695,15.5172414 50,16.4126719 50,17.5172414 L50,35.9310345 L50,35.9310345 C50,37.035604 49.1045695,37.9310345 48,37.9310345 L2,37.9310345 L2,37.9310345 C0.8954305,37.9310345 1.3527075e-16,37.035604 0,35.9310345 L0,17.5172414 L0,17.5172414 C-1.3527075e-16,16.4126719 0.8954305,15.5172414 2,15.5172414 Z" id="path-1"></path>
        <path d="M16.1734355,0.295618437 L43.1150776,0.295618437 L43.1150776,0.295618437 C44.2196471,0.295618437 45.1150776,1.19104894 45.1150776,2.29561844 L45.1150776,11.7931034 L45.1150776,11.7931034 C45.1150776,12.8976729 44.2196471,13.7931034 43.1150776,13.7931034 L16.1734355,13.7931034 L16.1734355,13.7931034 C15.068866,13.7931034 14.1734355,12.8976729 14.1734355,11.7931034 L14.1734355,2.29561844 L14.1734355,2.29561844 C14.1734355,1.19104894 15.068866,0.295618437 16.1734355,0.295618437 Z" id="path-2"></path>
    </defs>
    <g id="Symbols" stroke="none" stroke-width="1" fill="none" fill-rule="evenodd">
        <g id="icon/instruments" transform="translate(0.000000, -6.000000)">
            <g transform="translate(0.000000, 6.000000)">
                <g id="Rectangle-13">
                    <use fill="#FFFFFF" fill-rule="evenodd" xlink:href="#path-1"></use>
                    <path stroke="#434958" stroke-width="1" d="M2,16.0172414 C1.17157288,16.0172414 0.5,16.6888143 0.5,17.5172414 L0.5,35.9310345 C0.5,36.7594616 1.17157288,37.4310345 2,37.4310345 L48,37.4310345 C48.8284271,37.4310345 49.5,36.7594616 49.5,35.9310345 L49.5,17.5172414 C49.5,16.6888143 48.8284271,16.0172414 48,16.0172414 L2,16.0172414 Z"></path>
                </g>
                <g id="Rectangle-13-Copy">
                    <use fill="#FFFFFF" fill-rule="evenodd" xlink:href="#path-2"></use>
                    <path stroke="#434958" stroke-width="1" d="M16.1734355,0.795618437 C15.3450083,0.795618437 14.6734355,1.46719131 14.6734355,2.29561844 L14.6734355,11.7931034 C14.6734355,12.6215306 15.3450083,13.2931034 16.1734355,13.2931034 L43.1150776,13.2931034 C43.9435047,13.2931034 44.6150776,12.6215306 44.6150776,11.7931034 L44.6150776,2.29561844 C44.6150776,1.46719131 43.9435047,0.795618437 43.1150776,0.795618437 L16.1734355,0.795618437 Z"></path>
                </g>
                <path d="M21.5517241,13.9310345 L21.5517241,15.6551724" id="Line-2" stroke="#434958" stroke-linecap="round"></path>
                <path d="M38.7931034,13.9310345 L38.7931034,15.6551724" id="Line-2-Copy" stroke="#434958" stroke-linecap="round"></path>
                <path d="M39.6551724,6.89655172 L29.3103448,6.89655172" id="Line-2-Copy-3" stroke="#434958" stroke-linecap="round"></path>
                <path d="M17.2413793,24.137931 L6.89655172,24.137931" id="Line-2-Copy-4" stroke="#434958" stroke-linecap="round"></path>
                <path d="M17.2413793,29.3103448 L6.89655172,29.3103448" id="Line-2-Copy-5" stroke="#434958" stroke-linecap="round"></path>
                <circle id="Oval-3" fill="#434958" cx="21.9149357" cy="4.6735564" r="1.22528053"></circle>
                <circle id="Oval-3-Copy" fill="#434958" cx="21.9149357" cy="8.12183226" r="1.22528053"></circle>
            </g>
        </g>
    </g>
</svg>