<svg id="Слой_1" xmlns="http://www.w3.org/2000/svg" viewBox="0 0 53 47"><style>.st0{fill:#757C7F;}</style><title>Page 1 Copy</title><path class="st0" d="M52.6 32.1L45.7 27h-.3l-12.6-.6-3.8-2.3c.9-1.6 2.1-3 3.2-4.4 2.2-2.7 4.3-5.2 4.3-9.1 0-3-1.3-5.9-3.5-7.8-2.2-2-5.1-2.8-8-2.4-5.3.7-9.3 5.6-8.9 11 .3 3.5 2.2 5.8 4.3 8.3 2.3 2.8 4.7 5.7 4.9 10.4 0 .3.2.5.5.5h1.1c.3 0 .5-.2.5-.5.1-2 .5-3.6 1.2-5.1l3.9 2.3c.1 0 .1.1.2.1l11 .5-13.8 7.8c-.2.1-.3.4-.2.7.1.2.3.3.4.3.1 0 .2 0 .2-.1L45 28.3c.1-.1.2-.2.2-.4h.1l6.1 4.5L27 45.7l-2.5-5.3c-.1-.2-.2-.3-.4-.3l-12.5-1.4 8.5-5.1c.2-.1.3-.4.2-.7-.1-.2-.4-.3-.7-.2L10 38.5l-8.1-4.7 15.8-8.4c.2-.1.3-.4.2-.7s-.4-.3-.7-.2L.7 33.3c-.2.1-.3.3-.3.4 0 .2.1.3.2.4l9.1 5.3c.1 0 .1 0 .2.1L23.6 41l2.6 5.5.3.3h.2c.1 0 .2 0 .2-.1L52.6 33c.2-.1.2-.2.3-.4s-.1-.4-.3-.5zm-26.3-2.5h-.1c-.3-4.8-2.8-7.8-5.1-10.5-2-2.4-3.8-4.6-4.1-7.8-.4-4.9 3.2-9.4 8-10 2.7-.3 5.2.4 7.2 2.2 2 1.8 3.2 4.4 3.2 7.1 0 3.5-2 5.9-4.1 8.4-2.2 2.8-4.7 5.8-5 10.6z"/><path class="st0" d="M26.3 7.3c-1.9 0-3.4 1.6-3.4 3.5s1.5 3.5 3.4 3.5 3.4-1.6 3.4-3.5c0-2-1.5-3.5-3.4-3.5zm0 6c-1.3 0-2.4-1.1-2.4-2.5s1.1-2.5 2.4-2.5 2.4 1.1 2.4 2.5c0 1.3-1.1 2.5-2.4 2.5z"/></svg>