<?xml version="1.0" encoding="UTF-8"?>
<svg width="50px" height="50px" viewBox="0 0 50 50" version="1.1" xmlns="http://www.w3.org/2000/svg" xmlns:xlink="http://www.w3.org/1999/xlink">
    <!-- Generator: Sketch 47 (45396) - http://www.bohemiancoding.com/sketch -->
    <title>toolbar/icon/settings/default</title>
    <desc>Created with Sketch.</desc>
    <defs>
        <path d="M32.0657048,20.9755775 C29.7884499,17.3783913 24.9915053,16.2888673 21.3549479,18.5465066 C17.7251883,20.7997962 16.6287987,25.5341412 18.9017851,29.1249313 C21.1790664,32.7221592 25.976011,33.8116831 29.6125021,31.554085 C33.2423646,29.3003847 34.3386999,24.5663812 32.0657048,20.9755775 Z M33.9764784,19.7659909 C36.9228046,24.4205013 35.5009894,30.5599353 30.8053259,33.4753676 C26.116051,36.3865525 19.9333524,34.982284 16.9910115,30.3345179 C14.0446828,25.6800036 15.4665647,19.540143 20.1621904,16.6251829 C24.8514653,13.7139979 31.0341638,15.1182665 33.9764784,19.7659909 Z M44.5132957,8.74162991 L48.6019892,15.2012096 L45.7435314,19.9375761 C46.0505535,21.1306388 46.2480896,22.3462667 46.3355771,23.5717516 L50.472231,27.0056148 L48.7499427,34.4423892 L43.365423,35.7851305 C42.725428,36.8330628 41.9903281,37.8247672 41.1674119,38.7486347 L41.6433615,44.1019821 L35.130283,48.1456548 L30.2072198,45.2318209 C29.0972789,45.486572 27.9661571,45.6493728 26.8231478,45.7208195 L23.2015869,50 L22.5317228,49.847799 L19.4610371,49.1501032 L15.7148703,48.2995267 L14.2441135,42.5160499 C13.4027983,41.9851182 12.599693,41.3936357 11.8406273,40.7451202 L5.95938366,41.2583064 L1.87023741,34.7983007 L5.066312,29.502762 C4.86963504,28.6214855 4.73148962,27.7378531 4.65344165,26.8566454 L0,22.9943469 L1.72229158,15.5575583 L7.77085214,14.0488911 C8.25456847,13.2819721 8.7843533,12.551066 9.35905776,11.8602554 L8.82887217,5.89749026 L15.3420103,1.8542658 L20.5263011,4.92286378 C21.5125168,4.68438794 22.5144505,4.51846893 23.5253535,4.42519014 L27.2705913,0 L27.9403536,0.152071216 L31.0116392,0.849414222 L34.7574033,1.70001053 L36.1659245,7.23951852 C37.1497244,7.81850684 38.0887219,8.48239841 38.9739411,9.22473195 L44.5132957,8.74162991 Z M38.215201,11.5609376 L37.852121,11.2419286 C36.8546967,10.3655727 35.7777862,9.60458456 34.6384698,8.97076099 L34.2124538,8.73376013 L32.9067949,3.5987946 L30.5108849,3.05472611 L28.1093929,2.5094614 L24.639491,6.60932806 L24.163083,6.64234646 C22.972211,6.72488223 21.7944269,6.91962558 20.643144,7.22631646 L20.1845432,7.3484834 L15.3699288,4.49869805 L11.2047742,7.08434182 L11.6963926,12.6133587 L11.3787372,12.9768071 C10.6671172,13.7910136 10.0271694,14.6736569 9.46160433,15.6161711 L9.22044737,16.0180592 L3.61303673,17.4166922 L2.51793646,22.1452929 L6.84225633,25.7344245 L6.87301875,26.2215218 C6.94006098,27.2830797 7.10675536,28.3535315 7.37020182,29.4220795 L7.48221374,29.8764038 L4.52874269,34.7699756 L7.13401512,38.8857674 L12.6123469,38.4077385 L12.9772287,38.734846 C13.8549217,39.5216761 14.8026631,40.2202962 15.8086004,40.8236009 L16.208073,41.0631821 L17.5654182,46.4006888 L19.9619272,46.9448222 L22.3629157,47.4903549 L25.7349629,43.5059959 L26.2323977,43.48659 C27.5482137,43.4352574 28.8464321,43.2496428 30.1099155,42.9289584 L30.5623342,42.8141301 L35.1022647,45.5011977 L39.267479,42.9152066 L38.8260445,37.9500761 L39.1715299,37.5809212 C40.129043,36.5578082 40.961476,35.4357395 41.6558518,34.235729 L41.8958993,33.8208822 L46.8592158,32.5831767 L47.9543193,27.8545617 L44.1296137,24.6796487 L44.106334,24.1811283 C44.0414939,22.7926193 43.8184449,21.4163245 43.4381965,20.0749324 L43.3043075,19.6026154 L45.9435175,15.2295349 L43.3385957,11.1141126 L38.215201,11.5609376 Z" id="path-1"></path>
    </defs>
    <g id="Symbols" stroke="none" stroke-width="1" fill="none" fill-rule="evenodd">
        <g id="toolbar/icon/settings/default">
            <mask id="mask-2" fill="white">
                <use xlink:href="#path-1"></use>
            </mask>
            <use id="Fill-5-Copy" fill="#52585B" fill-rule="nonzero" xlink:href="#path-1"></use>
            <g id="icon-color/default" mask="url(#mask-2)" fill="#414756">
                <rect id="Rectangle-15" x="0" y="0" width="50" height="50"></rect>
            </g>
        </g>
    </g>
</svg>
