<?xml version="1.0" encoding="UTF-8"?>
<svg width="50px" height="50px" viewBox="0 0 50 50" version="1.1" xmlns="http://www.w3.org/2000/svg" xmlns:xlink="http://www.w3.org/1999/xlink">
    <!-- Generator: Sketch 47 (45396) - http://www.bohemiancoding.com/sketch -->
    <title>toolbar/icon/settings/filled</title>
    <desc>Created with Sketch.</desc>
    <defs>
        <path d="M44.5132957,8.74162991 L48.6019892,15.2012096 L45.7435314,19.9375761 C46.0505535,21.1306388 46.2480896,22.3462667 46.3355771,23.5717516 L50.472231,27.0056148 L48.7499427,34.4423892 L43.365423,35.7851305 C42.725428,36.8330628 41.9903281,37.8247672 41.1674119,38.7486347 L41.6433615,44.1019821 L35.130283,48.1456548 L30.2072198,45.2318209 C29.0972789,45.486572 27.9661571,45.6493728 26.8231478,45.7208195 L23.2015869,50 L22.5317228,49.847799 L19.4610371,49.1501032 L15.7148703,48.2995267 L14.2441135,42.5160499 C13.4027983,41.9851182 12.599693,41.3936357 11.8406273,40.7451202 L5.95938366,41.2583064 L1.87023741,34.7983007 L5.066312,29.502762 C4.86963504,28.6214855 4.73148962,27.7378531 4.65344165,26.8566454 L0,22.9943469 L1.72229158,15.5575583 L7.77085214,14.0488911 C8.25456847,13.2819721 8.7843533,12.551066 9.35905776,11.8602554 L8.82887217,5.89749026 L15.3420103,1.8542658 L20.5263011,4.92286378 C21.5125168,4.68438794 22.5144505,4.51846893 23.5253535,4.42519014 L27.2705913,0 L27.9403536,0.152071216 L31.0116392,0.849414222 L34.7574033,1.70001053 L36.1659245,7.23951852 C37.1497244,7.81850684 38.0887219,8.48239841 38.9739411,9.22473195 L44.5132957,8.74162991 Z M32.0657048,20.9755775 C29.7884499,17.3783913 24.9915053,16.2888673 21.3549479,18.5465066 C17.7251883,20.7997962 16.6287987,25.5341412 18.9017851,29.1249313 C21.1790664,32.7221592 25.976011,33.8116831 29.6125021,31.554085 C33.2423646,29.3003847 34.3386999,24.5663812 32.0657048,20.9755775 Z" id="path-1"></path>
    </defs>
    <g id="Symbols" stroke="none" stroke-width="1" fill="none" fill-rule="evenodd">
        <g id="toolbar/icon/settings/filled">
            <mask id="mask-2" fill="white">
                <use xlink:href="#path-1"></use>
            </mask>
            <use id="Fill-5-Copy" fill="#52585B" fill-rule="nonzero" xlink:href="#path-1"></use>
            <g id="icon-color/default" mask="url(#mask-2)" fill="#414756">
                <rect id="Rectangle-15" x="0" y="0" width="50" height="50"></rect>
            </g>
        </g>
    </g>
</svg>