<svg id="Слой_1" xmlns="http://www.w3.org/2000/svg" viewBox="0 0 50 38"><style>.st0{fill:#FFFFFF;} .st1{fill:#434958;}</style><title>icon/instruments</title><g id="Symbols"><g id="icon_x2F_instruments"><g id="Rectangle-13"><path class="st0" d="M2 15.5h46c1.1 0 2 .9 2 2v18.4c0 1.1-.9 2-2 2H2c-1.1 0-2-.9-2-2V17.5c0-1.1.9-2 2-2z" id="path-1"/><path class="st1" d="M48 37.9H2c-1.1 0-2-.9-2-2V17.5c0-1.1.9-2 2-2h46c1.1 0 2 .9 2 2v18.4c0 1.1-.9 2-2 2zM2 16.5c-.6 0-1 .4-1 1v18.4c0 .6.4 1 1 1h46c.6 0 1-.4 1-1V17.5c0-.6-.4-1-1-1H2z"/></g><g id="Rectangle-13-Copy"><path class="st0" d="M16.2.3h26.9c1.1 0 2 .9 2 2v9.5c0 1.1-.9 2-2 2H16.2c-1.1 0-2-.9-2-2V2.3c0-1.1.9-2 2-2z" id="path-2"/><path class="st1" d="M43.1 13.8H16.2c-1.1 0-2-.9-2-2V2.3c0-1.1.9-2 2-2h26.9c1.1 0 2 .9 2 2v9.5c0 1.1-.9 2-2 2zM16.2 1.3c-.6 0-1 .4-1 1v9.5c0 .6.4 1 1 1h26.9c.6 0 1-.4 1-1V2.3c0-.6-.4-1-1-1H16.2z"/></g><path class="st1" d="M21.6 16.2c-.3 0-.5-.2-.5-.5V14c0-.3.2-.5.5-.5s.5.2.5.5v1.7c0 .2-.3.5-.5.5z" id="Line-2"/><path class="st1" d="M38.8 16.2c-.3 0-.5-.2-.5-.5V14c0-.3.2-.5.5-.5s.5.2.5.5v1.7c0 .2-.2.5-.5.5z" id="Line-2-Copy"/><path class="st1" d="M39.7 7.4H29.3c-.3 0-.5-.2-.5-.5s.2-.5.5-.5h10.3c.3 0 .5.2.5.5s-.2.5-.4.5z" id="Line-2-Copy-3"/><path class="st1" d="M17.2 24.6H6.9c-.3 0-.5-.2-.5-.5s.2-.5.5-.5h10.3c.3 0 .5.2.5.5s-.2.5-.5.5z" id="Line-2-Copy-4"/><path class="st1" d="M17.2 29.8H6.9c-.3 0-.5-.2-.5-.5s.2-.5.5-.5h10.3c.3 0 .5.2.5.5s-.2.5-.5.5z" id="Line-2-Copy-5"/><circle class="st1" cx="21.9" cy="4.7" r="1.2" id="Oval-3"/><circle class="st1" cx="21.9" cy="8.1" r="1.2" id="Oval-3-Copy"/></g></g></svg>