<svg version="1.1" xmlns="http://www.w3.org/2000/svg" width="25" height="32" viewBox="0 0 25 32">
<title>fileError</title>
<path fill="#d50048" d="M16.593 13.274c-2.754 0-4.978-2.223-4.978-4.978v-6.637h-6.637c-1.825 0-3.319 1.493-3.319 3.319v21.57c0 1.825 1.493 3.319 3.319 3.319h14.933c1.825 0 3.319-1.493 3.319-3.319v-13.274h-6.637zM13.274 8.296c0 1.825 1.493 3.319 3.319 3.319h5.957l-9.275-9.275v5.957zM4.978 0h8.296l11.615 11.615v14.933c0 2.754-2.223 4.978-4.978 4.978h-14.933c-2.754 0-4.978-2.223-4.978-4.978v-21.57c0-2.754 2.223-4.978 4.978-4.978zM7.847 23.967c0.353 0.146 0.758-0.019 0.906-0.371 0.603-1.454 2.031-2.393 3.604-2.372s2.975 0.999 3.539 2.469c0.15 0.338 0.538 0.499 0.883 0.367s0.526-0.512 0.412-0.863c-0.768-1.998-2.675-3.327-4.815-3.356s-4.082 1.248-4.904 3.224c-0.144 0.353 0.024 0.755 0.375 0.902zM9.593 9.957c0-0.993-0.805-1.798-1.798-1.798s-1.798 0.805-1.798 1.798c0 0.993 0.805 1.798 1.798 1.798 0.992 0 1.796-0.803 1.798-1.794v-0.003z"></path>
</svg>
