<svg version="1.1" xmlns="http://www.w3.org/2000/svg" width="15" height="20" viewBox="0 0 15 20">
<title>file</title>
<path d="M15.475 7.104v0l-7.104-7.104h-5.339c-1.674 0-3.032 1.357-3.032 3.032v13.937c0 1.674 1.357 3.032 3.032 3.032h9.412c1.674 0 3.032-1.357 3.032-3.032v-9.864zM8.326 1.267l5.882 5.882h-3.756c-1.176 0-2.127-0.95-2.127-2.127v-3.756zM14.57 16.968c0 1.176-0.95 2.127-2.127 2.127h-9.412c-1.176 0-2.127-0.95-2.127-2.127v-13.937c0-1.176 0.95-2.127 2.127-2.127h4.434v4.118c0 1.674 1.357 3.032 3.032 3.032h4.118v8.914z"></path>
</svg>
