<svg version="1.1" xmlns="http://www.w3.org/2000/svg" width="32" height="32" viewBox="0 0 32 32">
<title>linkChain</title>
<path fill="#999" d="M19.465 5.465c0 0-6 5.998-6.059 6.058-1.886 1.951-1.86 5.096 0.058 7.015l0.732 0.732c0.391 0.391 0.391 1.023 0 1.414l-1.414 1.414c-0.195 0.195-0.451 0.293-0.707 0.293s-0.512-0.098-0.707-0.293l-0.732-0.732c-1.696-1.696-2.632-3.951-2.636-6.351 0.004-2.419 0.94-4.683 2.634-6.38 0.325-0.323 6.003-5.998 6.003-5.998 1.7-1.701 3.96-2.637 6.363-2.637 2.402 0 4.662 0.936 6.364 2.637 3.513 3.511 3.516 9.211 0 12.726l-2.417 2.418c0.017-0.26 0.053-0.515 0.053-0.781-0.001-1.465-0.288-2.857-0.774-4.156l0.31-0.309c1.952-1.953 1.952-5.115-0.001-7.070 0 0 0-0.002-0.001-0.002-0.944-0.943-2.199-1.463-3.533-1.463-1.336 0-2.592 0.52-3.536 1.465-0 0-6 5.998-6.059 6.058-1.886 1.951-1.86 5.096 0.058 7.015l0.732 0.732c0.391 0.391 0.391 1.023 0 1.414l-1.414 1.414c-0.195 0.195-0.451 0.293-0.707 0.293s-0.512-0.098-0.707-0.293l-0.732-0.732c-1.696-1.696-2.632-3.951-2.636-6.351 0.004-2.419 0.94-4.683 2.634-6.38 0.325-0.323 6.003-5.998 6.003-5.998 1.7-1.701 3.96-2.637 6.363-2.637 2.402 0 4.662 0.936 6.364 2.637 3.513 3.511 3.516 9.211 0 12.726l-2.417 2.418c0.017-0.26 0.053-0.515 0.053-0.781-0.001-1.465-0.288-2.857-0.774-4.156l0.31-0.309c1.952-1.953 1.952-5.115-0.001-7.070 0 0 0-0.002-0.001-0.002-0.944-0.943-2.199-1.463-3.533-1.463-1.336 0-2.592 0.52-3.536 1.465zM2.636 29.363c-3.513-3.511-3.516-9.211 0-12.726l2.417-2.418c-0.017 0.26-0.053 0.515-0.053 0.781 0.001 1.465 0.288 2.857 0.774 4.156l-0.31 0.309c-1.952 1.953-1.952 5.115 0.001 7.070l0.001 0.002c0.944 0.943 2.199 1.463 3.533 1.463 1.336 0 2.592-0.52 3.536-1.465 0 0 6-5.998 6.059-6.058 1.886-1.951 1.86-5.096-0.058-7.015l-0.732-0.732c-0.391-0.391-0.391-1.023 0-1.414l1.414-1.414c0.195-0.195 0.451-0.293 0.707-0.293s0.512 0.098 0.707 0.293l0.732 0.732c1.696 1.696 2.632 3.951 2.636 6.351-0.004 2.419-0.94 4.683-2.634 6.38-0.325 0.323-6.003 5.998-6.003 5.998-1.7 1.701-3.96 2.637-6.363 2.637s-4.662-0.936-6.364-2.637z"></path>
</svg>
