<svg version="1.1" xmlns="http://www.w3.org/2000/svg" width="32" height="32" viewBox="0 0 32 32">
<title>statusDone</title>
<path fill="#2ab658" d="M16 32c-8.837 0-16-7.163-16-16s7.163-16 16-16c8.837 0 16 7.163 16 16s-7.163 16-16 16zM16 30.609c8.068 0 14.609-6.541 14.609-14.609s-6.541-14.609-14.609-14.609c-8.068 0-14.609 6.541-14.609 14.609s6.541 14.609 14.609 14.609zM13.858 19.626l-3.717-3.717-1.239 1.239 4.956 4.956 10.62-10.62-1.239-1.239-9.381 9.381zM10.161 17.181c0.346-0.346 0.346-0.906 0-1.252s-0.906-0.346-1.252 0c-0.346 0.346-0.346 0.906 0 1.252s0.906 0.346 1.252 0zM24.746 10.866c0-0.489-0.396-0.885-0.885-0.885s-0.885 0.396-0.885 0.885c0 0.489 0.396 0.885 0.885 0.885s0.885-0.396 0.885-0.885z"></path>
</svg>
