<svg version="1.1" xmlns="http://www.w3.org/2000/svg" width="32" height="32" viewBox="0 0 32 32">
<title>statusError</title>
<path fill="#d50048" d="M16 32c-8.837 0-16-7.163-16-16s7.163-16 16-16c8.837 0 16 7.163 16 16s-7.163 16-16 16zM16 30.609c8.068 0 14.609-6.541 14.609-14.609s-6.541-14.609-14.609-14.609c-8.068 0-14.609 6.541-14.609 14.609s6.541 14.609 14.609 14.609zM20.526 21.656l-0.001 0.001-10.182-10.183c-0.162-0.146-0.264-0.358-0.264-0.594 0-0.442 0.358-0.8 0.8-0.8 0.236 0 0.447 0.102 0.594 0.264l0.001-0.001 10.182 10.183c0.162 0.146 0.264 0.358 0.264 0.594 0 0.442-0.358 0.8-0.8 0.8-0.236 0-0.447-0.102-0.594-0.264zM21.92 10.88c0 0.442-0.358 0.8-0.8 0.8s-0.8-0.358-0.8-0.8c0-0.442 0.358-0.8 0.8-0.8s0.8 0.358 0.8 0.8zM11.68 21.12c0 0.442-0.358 0.8-0.8 0.8s-0.8-0.358-0.8-0.8c0-0.442 0.358-0.8 0.8-0.8s0.8 0.358 0.8 0.8zM20.525 10.343l1.131 1.131-10.182 10.182-1.131-1.131 10.182-10.182z"></path>
</svg>
