

<svg version="1.1" xmlns="http://www.w3.org/2000/svg" width="42" height="32" viewBox="0 0 42 32">
<title>statusProcessing</title>
<path fill="#278fba" d="M7.492 11.246c-1.409 5.961 0.168 11.469 5.253 15.341 5.751 4.378 13.309 3.598 18.726-1.339 0.245-0.223 0.624-0.206 0.848 0.039s0.206 0.624-0.039 0.848c-5.826 5.31-14.024 6.156-20.262 1.407-5.47-4.164-7.188-10.121-5.716-16.481l-3.321 2.24-0.009-0.011c-0.055 0.071-0.122 0.135-0.201 0.189-0.393 0.265-0.925 0.161-1.19-0.231s-0.161-0.925 0.231-1.19c0.025-0.017 0.050-0.032 0.076-0.046l-0.011-0.013 5.614-3.787 3.794 5.624c0.020 0.023 0.038 0.048 0.055 0.073 0.265 0.393 0.161 0.925-0.231 1.19s-0.925 0.161-1.19-0.231c-0.028-0.041-0.052-0.084-0.071-0.128l-2.357-3.494zM34.397 20.141c1.578-6.115 0.046-11.785-5.154-15.744-5.751-4.378-13.309-3.598-18.726 1.339-0.245 0.223-0.624 0.206-0.848-0.039s-0.206-0.624 0.039-0.848c5.826-5.31 14.024-6.156 20.262-1.407 5.554 4.229 7.241 10.306 5.645 16.776l3.251-2.192 0.009 0.011c0.055-0.071 0.122-0.135 0.201-0.189 0.393-0.265 0.925-0.161 1.19 0.231s0.161 0.925-0.231 1.19c-0.025 0.017-0.050 0.032-0.076 0.046l0.011 0.013-5.614 3.787-3.794-5.624c-0.020-0.023-0.038-0.048-0.055-0.073-0.265-0.393-0.161-0.925 0.231-1.19s0.925-0.161 1.19 0.231c0.028 0.041 0.052 0.084 0.071 0.128l2.398 3.555z"></path>
</svg>
