<?xml version="1.0" encoding="UTF-8"?>
<svg width="4px" height="5px" viewBox="0 0 4 5" version="1.1" xmlns="http://www.w3.org/2000/svg" xmlns:xlink="http://www.w3.org/1999/xlink">
    <!-- Generator: Sketch 47 (45396) - http://www.bohemiancoding.com/sketch -->
    <title>icon/asterisk</title>
    <desc>Created with Sketch.</desc>
    <defs></defs>
    <g id="Symbols" stroke="none" stroke-width="1" fill="none" fill-rule="evenodd">
        <g id="icon/asterisk" transform="translate(-2.000000, -1.000000)" fill="#D0021B">
            <path d="M2.06298828,3.57080078 L2.31005859,2.80810547 C2.87939738,3.0086273 3.29296746,3.18229093 3.55078125,3.32910156 C3.48274706,2.68098634 3.44694012,2.23519002 3.44335937,1.99169922 L4.22216797,1.99169922 C4.21142573,2.34619318 4.17024775,2.79019916 4.09863281,3.32373047 C4.46744976,3.13753162 4.88997158,2.96565834 5.36621094,2.80810547 L5.61328125,3.57080078 C5.15852637,3.72119216 4.71273005,3.82145157 4.27587891,3.87158203 C4.49430448,4.06136163 4.80224411,4.39973715 5.19970703,4.88671875 L4.55517578,5.34326172 C4.34749245,5.0603827 4.10221496,4.67545816 3.81933594,4.18847656 C3.55436065,4.6933619 3.32161559,5.07828644 3.12109375,5.34326172 L2.48730469,4.88671875 C2.90267135,4.37467192 3.1998689,4.0362964 3.37890625,3.87158203 C2.91698988,3.78206335 2.47835494,3.68180394 2.06298828,3.57080078 Z"></path>
        </g>
    </g>
</svg>