<?xml version="1.0" encoding="UTF-8"?>
<svg width="19px" height="14px" viewBox="0 0 19 14" version="1.1" xmlns="http://www.w3.org/2000/svg" xmlns:xlink="http://www.w3.org/1999/xlink">
    <!-- Generator: Sketch 47 (45396) - http://www.bohemiancoding.com/sketch -->
    <title>icon/Checkmark white</title>
    <desc>Created with Sketch.</desc>
    <defs></defs>
    <g id="Symbols" stroke="none" stroke-width="1" fill="none" fill-rule="evenodd">
        <g id="icon/Checkmark-white" transform="translate(-3.000000, -5.000000)" fill="#FFFFFF">
            <path d="M20.7677635,6.81506885 L8.88441484,18.6984175 L3.44883337,13.262836 C3.39372576,13.2263616 3.34143506,13.1838534 3.29289322,13.1353116 C2.90236893,12.7447873 2.90236893,12.1116223 3.29289322,11.721098 C3.6758269,11.3381644 4.29206052,11.3307213 4.68406349,11.6987688 L4.68441484,11.6984175 L4.70423628,11.7182389 C4.70519456,11.7191896 4.7061514,11.7201427 4.70710678,11.721098 C4.70806216,11.7220534 4.70901521,11.7230103 4.70996592,11.7239685 L8.88441484,15.8984175 L19.4066253,5.37620705 C19.589866,5.14689976 19.8719092,5 20.1882627,5 C20.7405475,5 21.1882627,5.44771525 21.1882627,6 C21.1882627,6.3362785 21.0222757,6.63378867 20.7677635,6.81506885 Z"></path>
        </g>
    </g>
</svg>