<?xml version="1.0" encoding="UTF-8"?>
<svg width="9px" height="10px" viewBox="0 0 9 10" version="1.1" xmlns="http://www.w3.org/2000/svg" xmlns:xlink="http://www.w3.org/1999/xlink">
    <!-- Generator: Sketch 47 (45396) - http://www.bohemiancoding.com/sketch -->
    <title>icon/info</title>
    <desc>Created with Sketch.</desc>
    <defs></defs>
    <g id="Symbols" stroke="none" stroke-width="1" fill="none" fill-rule="evenodd">
        <g id="icon/info" fill="#B5C5CC" fill-rule="nonzero">
            <path d="M7.67785837,1.33082434 C6.39156988,0.0314716459 4.45707917,-0.357237801 2.77644282,0.345951924 C1.09580646,1.04914165 1.03057091e-15,2.70574811 0,4.54329269 C-1.03057091e-15,6.38083726 1.09580646,8.03744372 2.77644282,8.74063345 C4.45707917,9.44382317 6.39156988,9.05511373 7.67785837,7.75576104 C8.52417401,6.90530104 9,5.74916475 9,4.54329269 C9,3.33742063 8.52417401,2.18128433 7.67785837,1.33082434 Z M5.4,7.55858801 L3.6,7.55858801 L3.6,3.95858801 L5.4,3.95858801 L5.4,7.55858801 Z M4.43700585,3.45094849 C4.04982211,3.45094812 3.70078777,3.21618143 3.55274156,2.85617663 C3.40469535,2.49617183 3.48681124,2.08187142 3.76077882,1.8065634 C4.0347464,1.53125537 4.44657766,1.4491919 4.80413655,1.59865893 C5.16169545,1.74812596 5.39452147,2.09966954 5.39399181,2.48928028 C5.39399205,2.74455896 5.29312527,2.98936288 5.11361786,3.16974857 C4.93411045,3.35013426 4.69069385,3.45129818 4.43700585,3.45094849 Z"></path>
        </g>
    </g>
</svg>