<?xml version="1.0" encoding="UTF-8"?>
<svg width="31px" height="24px" viewBox="0 0 31 24" version="1.1" xmlns="http://www.w3.org/2000/svg" xmlns:xlink="http://www.w3.org/1999/xlink">
    <!-- Generator: Sketch 47 (45396) - http://www.bohemiancoding.com/sketch -->
    <title>icon/menu</title>
    <desc>Created with Sketch.</desc>
    <defs></defs>
    <g id="Symbols" stroke="none" stroke-width="1" fill="none" fill-rule="evenodd">
        <g id="icon/menu" fill="#FFFFFF">
            <path d="M4.00000142,20.0001091 L16.0054268,20.0001091 C16.0054268,22.2092481 14.2145658,24.0001091 12.0054268,24.0001091 L0.00542990249,24.0001091 L0.00542990249,24.0001091 C0.00243386776,21.7939682 1.78843569,20.0031089 3.99457662,20.0001128 C3.99638488,20.0001104 3.99819315,20.0001091 4.00000142,20.0001091 Z M4.00000747,10.0001091 L26.0088166,10.0001091 C26.0088166,12.2092481 24.2179556,14.0001091 22.0088166,14.0001091 L0.00882500938,14.0001091 L0.00882500938,14.0001091 C0.00396058413,11.7958399 1.78693044,10.0049833 3.99119965,10.0001189 C3.99413558,10.0001124 3.99707153,10.0001091 4.00000747,10.0001091 L4.00000747,10.0001091 Z M4.00001158,0.000109142276 L31.0105107,0.000109142276 C31.0105107,2.20924814 29.2196497,4.00010914 27.0105107,4.00010914 L0.0105225626,4.00010914 L0.0105225626,4.00010914 C0.00472513214,1.7967752 1.78618046,0.0059203828 3.9895144,0.000122952381 C3.99301345,0.000113745648 3.99651251,0.000109142276 4.00001158,0.000109142276 L4.00001158,0.000109142276 Z"></path>
        </g>
    </g>
</svg>