<?xml version="1.0" encoding="UTF-8"?>
<svg width="9px" height="13px" viewBox="0 0 9 13" version="1.1" xmlns="http://www.w3.org/2000/svg" xmlns:xlink="http://www.w3.org/1999/xlink">
    <!-- Generator: Sketch 47 (45396) - http://www.bohemiancoding.com/sketch -->
    <title>icon/sort-default</title>
    <desc>Created with Sketch.</desc>
    <defs></defs>
    <g id="Symbols" stroke="none" stroke-width="1" fill="none" fill-rule="evenodd">
        <g id="icon/sort-default" fill="#BEBEBE" fill-rule="nonzero">
            <path d="M7.65901824,4.59598187 L0.510506061,4.59598187 C0.231226417,4.59598187 0,4.36475546 0,4.08547581 C0,3.94988007 0.055665619,3.8223725 0.151772072,3.72674182 L3.72626605,0.152247847 C3.82189673,0.0561413935 3.9494043,0 4.08500004,0 C4.22059578,0 4.34810335,0.055665619 4.44373403,0.151772072 L8.01870378,3.72626605 C8.11433446,3.82189673 8.17000008,3.9494043 8.17000008,4.08500004 C8.17000008,4.36427968 7.93877366,4.59598187 7.65901824,4.59598187 Z M8.01870378,8.78731541 L4.44373403,12.3618094 C4.34810335,12.4574401 4.22059578,12.5131057 4.08500004,12.5131057 C3.9494043,12.5131057 3.82189673,12.4574401 3.72626605,12.3618094 L0.151772072,8.78731541 C0.055665619,8.69168473 2.66453526e-15,8.56370138 2.66453526e-15,8.42810564 C2.66453526e-15,8.148826 0.231226417,7.91759958 0.510506061,7.91759958 L7.65854247,7.91759958 C7.93829788,7.91759958 8.1695243,8.148826 8.1695243,8.42810564 C8.17000008,8.56370138 8.11433446,8.69120895 8.01870378,8.78731541 Z"></path>
        </g>
    </g>
</svg>