<?xml version="1.0" encoding="utf-8"?>
<!-- Generator: Adobe Illustrator 21.1.0, SVG Export Plug-In . SVG Version: 6.00 Build 0)  -->
<svg version="1.1" id="Layer_1" xmlns="http://www.w3.org/2000/svg" xmlns:xlink="http://www.w3.org/1999/xlink" x="0px" y="0px"
	 viewBox="0 0 24 24" style="enable-background:new 0 0 24 24;" xml:space="preserve">
<style type="text/css">
	.st0{fill:#FFFFFF;}
</style>
<g id="Symbols">
	<g id="icn_cta_apply">
		<g id="Check-mark-white-Copy-5">
			<path id="Combined-Shape" class="st0" d="M23.4,5.3L7.9,20.8l-7.1-7.1c-0.1,0-0.1-0.1-0.2-0.2c-0.5-0.5-0.5-1.3,0-1.8
				c0.5-0.5,1.3-0.5,1.8,0l0,0l0,0c0,0,0,0,0,0c0,0,0,0,0,0l5.5,5.5L21.6,3.4c0.2-0.3,0.6-0.5,1-0.5c0.7,0,1.3,0.6,1.3,1.3
				C23.9,4.7,23.7,5.1,23.4,5.3z"/>
		</g>
	</g>
</g>
</svg>
