<?xml version="1.0" encoding="utf-8"?>
<!-- Generator: Adobe Illustrator 21.1.0, SVG Export Plug-In . SVG Version: 6.00 Build 0)  -->
<svg version="1.1" id="Layer_1" xmlns="http://www.w3.org/2000/svg" xmlns:xlink="http://www.w3.org/1999/xlink" x="0px" y="0px"
	 viewBox="0 0 24 24" style="enable-background:new 0 0 24 24;" xml:space="preserve">
<style type="text/css">
	.st0{opacity:0.7018;}
	.st1{fill:#19495D;}
</style>
<g id="Mission-Control-Latest" class="st0">
	<g id="Current-QC-Plan-Copy" transform="translate(-1230.000000, -390.000000)">
		<g id="Close-icon-blue" transform="translate(1226.000000, 386.000000)">
			<path id="Combined-Shape" class="st1" d="M25,27.3l-9-9l-9,9c-0.3,0.4-0.8,0.6-1.3,0.6c-0.9,0-1.7-0.7-1.7-1.7
				c0-0.5,0.3-1,0.7-1.3l9-9l-9-9C4.3,6.7,4,6.2,4,5.7C4,4.7,4.7,4,5.7,4c0.5,0,1,0.3,1.3,0.7l9,9l9-9C25.3,4.3,25.8,4,26.3,4
				C27.2,4,28,4.8,28,5.7c0,0.6-0.3,1-0.7,1.3l-9,9l9,9c0.4,0.3,0.7,0.8,0.7,1.3c0,0.9-0.7,1.7-1.7,1.7C25.8,28,25.3,27.7,25,27.3z"
				/>
		</g>
	</g>
</g>
</svg>
