<?xml version="1.0" encoding="utf-8"?>
<!-- Generator: Adobe Illustrator 21.1.0, SVG Export Plug-In . SVG Version: 6.00 Build 0)  -->
<svg version="1.1" id="Layer_1" xmlns="http://www.w3.org/2000/svg" xmlns:xlink="http://www.w3.org/1999/xlink" x="0px" y="0px"
	 viewBox="0 0 24 24" style="enable-background:new 0 0 24 24;" xml:space="preserve">
<style type="text/css">
	.st0{fill:none;stroke:#FFFFFF;stroke-width:2;}
</style>
<g id="Mission-Control-Latest">
	<g id="Potassium-Detailed-Info---Settings" transform="translate(-1205.000000, -70.000000)">
		<path id="Shape" class="st0" d="M1220.7,82c0-1-0.4-1.9-1.1-2.6c-0.7-0.7-1.6-1.1-2.6-1.1s-1.9,0.4-2.6,1.1
			c-0.7,0.7-1.1,1.6-1.1,2.6s0.4,1.9,1.1,2.6c0.7,0.7,1.6,1.1,2.6,1.1s1.9-0.4,2.6-1.1C1220.3,83.9,1220.7,83,1220.7,82z M1228,80.4
			v3.2c0,0.1,0,0.2-0.1,0.3c-0.1,0.1-0.2,0.2-0.3,0.2l-2.6,0.4c-0.2,0.5-0.4,0.9-0.6,1.3c0.3,0.5,0.8,1.1,1.5,2
			c0.1,0.1,0.1,0.2,0.1,0.4c0,0.1,0,0.2-0.1,0.3c-0.3,0.4-0.7,0.9-1.4,1.5c-0.7,0.7-1.1,1-1.3,1c-0.1,0-0.2,0-0.4-0.1l-2-1.5
			c-0.4,0.2-0.9,0.4-1.3,0.5c-0.2,1.3-0.3,2.2-0.4,2.7c-0.1,0.3-0.2,0.4-0.5,0.4h-3.2c-0.1,0-0.2,0-0.3-0.1
			c-0.1-0.1-0.2-0.2-0.2-0.3l-0.4-2.6c-0.5-0.2-0.9-0.3-1.3-0.5l-2,1.5c-0.1,0.1-0.2,0.1-0.4,0.1c-0.1,0-0.3-0.1-0.4-0.2
			c-1.2-1.1-2-1.9-2.4-2.4c-0.1-0.1-0.1-0.2-0.1-0.3c0-0.1,0-0.2,0.1-0.3c0.1-0.2,0.4-0.5,0.7-0.9c0.3-0.4,0.6-0.8,0.8-1
			c-0.3-0.5-0.5-0.9-0.6-1.4l-2.6-0.4c-0.1,0-0.2-0.1-0.3-0.2c-0.1-0.1-0.1-0.2-0.1-0.3v-3.2c0-0.1,0-0.2,0.1-0.3
			c0.1-0.1,0.2-0.2,0.3-0.2l2.7-0.4c0.1-0.4,0.3-0.9,0.6-1.3c-0.4-0.5-0.9-1.2-1.5-2c-0.1-0.1-0.1-0.2-0.1-0.3c0-0.1,0-0.2,0.1-0.3
			c0.2-0.3,0.7-0.9,1.4-1.5s1.1-1,1.3-1c0.1,0,0.2,0,0.4,0.1l2,1.5c0.4-0.2,0.9-0.4,1.3-0.5c0.2-1.3,0.3-2.2,0.4-2.7
			c0.1-0.3,0.2-0.4,0.5-0.4h3.2c0.1,0,0.2,0,0.3,0.1c0.1,0.1,0.2,0.2,0.2,0.3l0.4,2.6c0.5,0.2,0.9,0.3,1.3,0.5l2-1.5
			c0.1-0.1,0.2-0.1,0.3-0.1c0.1,0,0.2,0,0.4,0.1c1.2,1.1,2,1.9,2.4,2.4c0.1,0.1,0.1,0.2,0.1,0.3c0,0.1,0,0.2-0.1,0.3
			c-0.1,0.2-0.4,0.5-0.7,0.9c-0.3,0.4-0.6,0.8-0.8,1c0.2,0.5,0.4,0.9,0.6,1.4l2.6,0.4c0.1,0,0.2,0.1,0.3,0.2
			C1227.9,80.2,1228,80.3,1228,80.4z"/>
	</g>
</g>
</svg>
