<?xml version="1.0" encoding="utf-8"?>
<!-- Generator: Adobe Illustrator 21.1.0, SVG Export Plug-In . SVG Version: 6.00 Build 0)  -->
<svg version="1.1" id="Layer_1" xmlns="http://www.w3.org/2000/svg" xmlns:xlink="http://www.w3.org/1999/xlink" x="0px" y="0px"
	 viewBox="0 0 24 24" style="enable-background:new 0 0 24 24;" xml:space="preserve">
<style type="text/css">
	.st0{fill:none;}
	.st1{fill:none;stroke:#19495D;stroke-width:1.5;stroke-opacity:0.7;}
</style>
<g id="Mission-Control-Latest">
	<g id="Current-QC-Plan-Copy" transform="translate(-1199.000000, -389.000000)">
		<g id="ic_save_black_24px" transform="translate(1198.000000, 388.000000)">
			<polygon id="Shape" class="st0" points="-1.9,-1.9 27.9,-1.9 27.9,27.9 -1.9,27.9 			"/>
			<path id="Shape_1_" class="st1" d="M19.3,1.8h-15C2.9,1.8,1.8,3,1.8,4.3v17.5c0,1.4,1.2,2.5,2.5,2.5h17.5c1.4,0,2.5-1.2,2.5-2.5
				v-15L19.3,1.8z M13.1,21.7C11,21.7,9.3,20,9.3,18s1.7-3.7,3.7-3.7s3.7,1.7,3.7,3.7S15.1,21.7,13.1,21.7z M18.2,10.7H5.8V5.8h12.4
				C18.2,5.8,18.2,10.7,18.2,10.7z"/>
		</g>
	</g>
</g>
</svg>
