<svg width="50" height="50" viewBox="0 0 50 50" xmlns="http://www.w3.org/2000/svg"><title>icon/tests</title><g fill="none" fill-rule="evenodd"><path d="M29.882 8.577c-.207-.21-.545-.213-.755-.006L3.113 34.167c-.118.125-.29.323-.506.6-.36.458-.717.974-1.052 1.54C.068 38.825-.485 41.44.482 43.915c.394 1.01 1.037 1.96 1.942 2.837.276.318.838.82 1.635 1.32 2.783 1.744 6.132 1.965 9.82-.3l20.893-20.61 6.825-6.74c.21-.207.212-.545.005-.755-.207-.21-11.514-10.878-11.72-11.088z" fill="#FFF"/><path d="M41.4 20.932c1.18.95 2.44.885 3.57.22.304-.18.53-.36.664-.493.368-.315.65-.697.823-1.114.348-.833.243-1.7-.13-2.516-.125-.276-.253-.484-.345-.61-.152-.16-.152-.16-.586-.59l-1.398-1.38-4.245-4.197c-3.71-3.665-5.98-5.904-6.185-6.098-1.25-1.178-2.565-1.178-3.696-.46-.28.176-.482.356-.603.487-.314.245-.59.586-.77.958-.367.755-.325 1.544-.044 2.28.082.214.166.376.23.476l.077.098 2.19 2.152c.21.206 10.25 10.628 10.448 10.786z" fill="#FFF"/><path d="M43.826 14.866c.213.203.55.195.755-.018l5.273-5.528c.2-.212.195-.547-.014-.75L41.195.15c-.205-.198-.53-.2-.738-.005L34.48 5.77c-.214.203-.224.54-.022.755.202.215 9.155 8.137 9.368 8.34z" fill="#FFF"/><path d="M33.836 26.584H18.612c-.295 0-.534-.24-.534-.534 0-.295.24-.534.534-.534h15.786c.143 0 .273.057.37.15l5.69-5.62c-.614-.59-1.508-1.456-2.653-2.57l-2.422-2.365c-.288-.28-.467-.455-.796-.778l-.302-.295c-.21-.206-.214-.544-.008-.755.206-.21.544-.214.755-.008l.3.296c.33.322.51.496.797.778.823.805 1.648 1.61 2.45 2.39 1.36 1.327 2.413 2.346 2.995 2.902.01.008.02.016.028.025l.003.004c.257.244.417.393.464.43.785.633 1.575.593 2.357.132.222-.13.383-.26.485-.36.27-.23.452-.477.56-.737.215-.514.145-1.09-.116-1.663-.092-.202-.182-.35-.18-.357l-.53-.525-1.398-1.382-4.254-4.204C37.087 9.12 35.55 7.6 34.484 6.552l-.024-.025c-.963-.95-1.53-1.508-1.624-1.596-.86-.81-1.643-.81-2.392-.334-.19.12-.326.24-.446.362-.252.203-.427.42-.54.65-.217.448-.19.945-.005 1.43.04.107.08.19.11.245l2.14 2.1c.21.208.212.546.006.756-.208.21-.546.212-.756.006l-.974-.957c-.026.05-.06.1-.104.142l-26 25.58c-.08.087-.232.26-.43.512-.33.423-.662.902-.972 1.426-1.336 2.262-1.823 4.563-.998 6.676.337.864.893 1.685 1.72 2.49.056.062.175.184.355.345.306.274.666.55 1.076.806 2.446 1.532 5.346 1.73 8.642-.274l20.568-20.308zm1.02-21.166L40.458.145c.208-.196.533-.193.738.006l8.643 8.42c.208.203.214.538.013.75l-5.272 5.528c-.03.03-.062.058-.097.08l.913.903c.434.43.434.43.586.59.092.126.22.334.345.61.373.816.478 1.683.13 2.516-.173.417-.455.8-.823 1.113-.134.13-.36.312-.665.492-1.13.665-2.39.73-3.57-.22-.03-.025-.087-.075-.168-.15l-6.46 6.377L13.88 47.77c-3.688 2.265-7.037 2.044-9.82.3-.798-.5-1.36-1.002-1.636-1.32-.905-.876-1.548-1.826-1.942-2.836-.967-2.476-.414-5.09 1.073-7.607.335-.567.693-1.083 1.052-1.54.217-.278.388-.476.506-.6L29.127 8.57c.04-.037.083-.068.13-.092l-.494-.484-.078-.098c-.063-.1-.147-.262-.23-.476-.28-.736-.322-1.525.044-2.28.18-.372.456-.713.77-.958.12-.13.323-.31.602-.487 1.13-.718 2.446-.718 3.696.46.086.08.53.517 1.288 1.263zm.76.75c1.036 1.02 2.435 2.403 4.137 4.085l3.99 3.943c.018-.03.04-.058.065-.085l4.908-5.145-7.9-7.693-5.2 4.896zM10.018 35.936c.822-.56 1.95-.36 2.52.447.57.81.367 1.92-.455 2.48-.822.562-1.95.36-2.52-.446-.57-.81-.367-1.918.455-2.48zm6.403-1.067c.824-.562 1.953-.36 2.522.446.57.808.366 1.92-.455 2.48-.822.562-1.95.36-2.52-.446-.57-.81-.367-1.918.454-2.48z" fill="#414756" fill-rule="nonzero"/></g></svg>