<!-- © 2023 Bio-Rad Laboratories, Inc. All Rights Reserved.-->
<?xml version="1.0" encoding="UTF-8"?>
<svg width="24px" height="24px" viewBox="0 0 24 24" version="1.1" xmlns="http://www.w3.org/2000/svg" xmlns:xlink="http://www.w3.org/1999/xlink">
    <!-- Generator: Sketch 46.2 (44496) - http://www.bohemiancoding.com/sketch -->
    <desc>Created with Sketch.</desc>
    <defs></defs>
    <g id="Symbols" stroke="none" stroke-width="1" fill="none" fill-rule="evenodd">
        <g id="Check-mark-white-small-Copy" fill="#99ca3d">
            <path d="M17.7225688,8.19752098 L9.88233771,16.0377521 L6.29612506,12.4515395 C6.25976693,12.4274749 6.22526729,12.3994294 6.19324103,12.3674032 C5.93558632,12.1097485 5.93558632,11.6920077 6.19324103,11.434353 C6.44588771,11.1817063 6.85245779,11.1767956 7.11108808,11.4196209 L7.11131989,11.4193891 L7.12439741,11.4324666 C7.12502965,11.4330938 7.12566093,11.4337226 7.12629126,11.434353 C7.12692159,11.4349833 7.12755038,11.4356146 7.12817762,11.4362468 L9.88233771,14.1904069 L16.8245359,7.24820868 C16.9454319,7.09691949 17.1315145,7 17.3402339,7 C17.7046126,7 18,7.29538737 18,7.65976615 C18,7.88163132 17.8904874,8.07791846 17.7225688,8.19752098 Z" id="Combined-Shape"></path>
        </g>
    </g>
</svg>
