<?xml version="1.0" encoding="utf-8"?>
<!-- Generator: Adobe Illustrator 21.1.0, SVG Export Plug-In . SVG Version: 6.00 Build 0)  -->
<svg version="1.1" id="Layer_1" xmlns="http://www.w3.org/2000/svg" xmlns:xlink="http://www.w3.org/1999/xlink" x="0px" y="0px"
	 viewBox="0 0 24 24" style="enable-background:new 0 0 24 24;" xml:space="preserve">
<style type="text/css">
	.st0{fill:#19495D;}
</style>
<title>24x24_icn_repeat</title>
<g id="Mission-Control-Latest">
	<g id="RECOMMENDATION-with-Card-Copy" transform="translate(-600.000000, -485.000000)">
		<g id="Group" transform="translate(574.000000, 165.000000)">
			<g id="Printer-icon" transform="translate(26.000000, 320.000000)">
				<path id="Fill-8-Copy" class="st0" d="M5.7,8.7c0,0.4-0.4,0.8-0.8,0.8c-0.4,0-0.8-0.4-0.8-0.8S4.6,8,4.9,8
					C5.3,7.8,5.7,8.2,5.7,8.7"/>
				<path id="Fill-9-Copy" class="st0" d="M7.3,5.6h9.6V1.3H7.3V5.6z M21.5,5.6H18V0H6v5.6H2.5c-1,0-1.8,0.8-1.8,1.8v8.7
					c0,1,0.8,1.8,1.8,1.8h1.9v-1.3H2.5c-0.3,0-0.5-0.3-0.5-0.5V7.4c0-0.3,0.3-0.5,0.5-0.5h19c0.3,0,0.5,0.3,0.5,0.5v8.7
					c0,0.3-0.3,0.5-0.5,0.5h-1.9V18h1.9c1,0,1.8-0.8,1.8-1.8V7.4C23.3,6.4,22.5,5.6,21.5,5.6L21.5,5.6z"/>
				<path id="Fill-10-Copy" class="st0" d="M7.5,22.8h9.8v-9H7.5V22.8z M20.1,12.4H4.7v1.3h1.5V24h12.3V13.7h1.5L20.1,12.4
					L20.1,12.4z"/>
				<path id="Fill-12-Copy" class="st0" d="M14.6,20.3H9.3c-0.4,0-0.6-0.3-0.6-0.6S8.9,19,9.3,19h5.3c0.4,0,0.6,0.3,0.6,0.6
					C15.2,20,14.8,20.3,14.6,20.3"/>
			</g>
		</g>
	</g>
</g>
</svg>
