<?xml version="1.0" encoding="utf-8"?>
<!-- Generator: Adobe Illustrator 21.1.0, SVG Export Plug-In . SVG Version: 6.00 Build 0)  -->
<svg version="1.1" id="Layer_1" xmlns="http://www.w3.org/2000/svg" xmlns:xlink="http://www.w3.org/1999/xlink" x="0px" y="0px"
	 viewBox="0 0 24 24" style="enable-background:new 0 0 24 24;" xml:space="preserve">
<style type="text/css">
	.st0{fill:#19495D;fill-opacity:0.7;}
</style>
<g id="Mission-Control-Latest">
	<g id="Current-QC-Plan" transform="translate(-1233.000000, -391.000000)">
		<g id="_x31_494985440_x5F_edit" transform="translate(1233.000000, 391.000000)">
			<path id="Shape" class="st0" d="M10.6,9.1c-0.1,0.1-0.3,0.3-0.3,0.4l0,0v0.3c-0.1,0.3-0.1,0.6-0.1,0.9l-0.5,3.5l3.5-0.5
				c0.4,0,0.6,0,0.9-0.1h0.3l0,0c0.1-0.1,0.3-0.1,0.4-0.3L21.1,7l-4.1-4.1L10.6,9.1z"/>
			<path id="Shape_1_" class="st0" d="M22.9,2l-1.1-1.1C21,0.1,19.7,0,19,0.8l-1,1L22,5.8l1-1C23.8,4.1,23.7,2.8,22.9,2z"/>
			<path id="Shape_2_" class="st0" d="M18.8,12.2v9.1H2.5V2.5h11.3l1.9-1.8c0.3-0.3,0.5-0.3,0.8-0.4c0-0.1,0.1-0.3,0.3-0.4H0.1v24
				h21.3V10L18.8,12.2z"/>
		</g>
	</g>
</g>
</svg>
