<?xml version="1.0" encoding="UTF-8"?>
<svg width="24px" height="24px" viewBox="0 0 24 24" version="1.1" xmlns="http://www.w3.org/2000/svg" xmlns:xlink="http://www.w3.org/1999/xlink">
    <!-- Generator: Sketch 45.2 (43514) - http://www.bohemiancoding.com/sketch -->
    <title>Printer icon white</title>
    <desc>Created with Sketch.</desc>
    <defs></defs>
    <g id="Page-1" stroke="none" stroke-width="1" fill="none" fill-rule="evenodd">
        <g id="ACTIVITY-LOG" transform="translate(-1215.000000, -68.000000)" fill="#FFFFFF">
            <g id="Group-6" transform="translate(143.000000, 53.000000)">
                <g id="Group-5" transform="translate(1072.000000, 15.000000)">
                    <g id="Printer-icon">
                        <g id="Printer-icon-white">
                            <path d="M5.12360548,8.58548908 C5.12360548,9.0280304 4.74391785,9.38719437 4.27533511,9.38719437 C3.80750571,9.38719437 3.42857143,9.0280304 3.42857143,8.58548908 C3.42857143,8.14259144 3.80750571,7.78378378 4.27533511,7.78378378 C4.74391785,7.78378378 5.12360548,8.14259144 5.12360548,8.58548908" id="Fill-8-Copy"></path>
                            <path d="M6.7801362,5.52321501 L16.7672768,5.52321501 L16.7672768,1.24709712 L6.7801362,1.24709712 L6.7801362,5.52321501 Z M21.6640419,5.52321501 L18.0856367,5.52321501 L18.0856367,0 L5.46177639,0 L5.46177639,5.52321501 L1.88337117,5.52321501 C0.847517026,5.52321501 0,6.3249203 0,7.30478233 L0,15.8563055 C0,16.8361675 0.847517026,17.6378728 1.88337117,17.6378728 L3.85714415,17.6378728 L3.85714415,16.3907757 L1.88337117,16.3907757 C1.57713502,16.3907757 1.31835982,16.1459883 1.31835982,15.8563055 L1.31835982,7.30478233 C1.31835982,7.01509948 1.57713502,6.77031213 1.88337117,6.77031213 L21.6640419,6.77031213 C21.970278,6.77031213 22.2290532,7.01509948 22.2290532,7.30478233 L22.2290532,15.8563055 C22.2290532,16.1459883 21.970278,16.3907757 21.6640419,16.3907757 L19.7060892,16.3907757 L19.7060892,17.6378728 L21.6640419,17.6378728 C22.699896,17.6378728 23.547413,16.8361675 23.547413,15.8563055 L23.547413,7.30478233 C23.547413,6.3249203 22.699896,5.52321501 21.6640419,5.52321501 L21.6640419,5.52321501 Z" id="Fill-9-Copy"></path>
                            <path d="M7.06515166,22.4963611 L17.2394994,22.4963611 L17.2394994,13.5888808 L7.06515166,13.5888808 L7.06515166,22.4963611 Z M20.1903653,12.3243243 L4.11428571,12.3243243 L4.11428571,13.5714214 L5.74679184,13.5714214 L5.74679184,23.7434582 L18.5578592,23.7434582 L18.5578592,13.5714214 L20.1903653,13.5714214 L20.1903653,12.3243243 L20.1903653,12.3243243 Z" id="Fill-10-Copy"></path>
                            <path d="M14.3732582,17.4633133 L8.88775134,17.4633133 C8.52388403,17.4633133 8.22857143,17.1839636 8.22857143,16.8397648 C8.22857143,16.4952097 8.52388403,16.2162162 8.88775134,16.2162162 L14.3732582,16.2162162 C14.7371255,16.2162162 15.0324381,16.4952097 15.0324381,16.8397648 C15.0324381,17.1839636 14.7371255,17.4633133 14.3732582,17.4633133" id="Fill-11-Copy"></path>
                            <path d="M14.3732582,20.0579079 L8.88775134,20.0579079 C8.52388403,20.0579079 8.22857143,19.7789145 8.22857143,19.4343594 C8.22857143,19.0901606 8.52388403,18.8108108 8.88775134,18.8108108 L14.3732582,18.8108108 C14.7371255,18.8108108 15.0324381,19.0901606 15.0324381,19.4343594 C15.0324381,19.7789145 14.7371255,20.0579079 14.3732582,20.0579079" id="Fill-12-Copy"></path>
                        </g>
                    </g>
                </g>
            </g>
        </g>
    </g>
</svg>