<svg id="Слой_1" xmlns="http://www.w3.org/2000/svg" viewBox="0 0 93 26" enable-background="new 0 0 93 26"><style>.st0{filter:url(#Adobe_OpacityMaskFilter);} .st1{fill:#FFFFFF;} .st2{mask:url(#mask-2);fill:#0FA50F;}</style><title>BR_Logo_RGB Copy</title><g id="Symbols"><g id="Logo_Bio-Rad"><g id="BR_Logo_RGB-Copy"><defs><filter id="Adobe_OpacityMaskFilter" filterUnits="userSpaceOnUse" x="0" y="0" width="93" height="26"><feColorMatrix values="1 0 0 0 0 0 1 0 0 0 0 0 1 0 0 0 0 0 1 0"/></filter></defs><mask maskUnits="userSpaceOnUse" x="0" y="0" width="93" height="26" id="mask-2"><g class="st0"><path id="path-1" class="st1" d="M0 26V0h93v26z"/></g></mask><path id="Fill-1" class="st2" d="M79.3 0H13C3.3.4 0 7.8 0 13.3c0 1.4.2 2.8.6 3.9 1.2 4.7 6.1 8.6 13 8.8H78.6c8.1 0 12.3-4.2 13.9-8.7.3-1 .6-2.5.6-4.3 0-2.6-.6-5.9-2.6-8.5C88.3 2 84.8 0 79.3 0"/><path id="Fill-4" class="st1" d="M25.4 19H22l2.7-12H28l-2.6 12"/><path id="Fill-5" class="st1" d="M37 15c-.9 1.5-1.8 1.8-2.2 1.9-1.3.3-2.1-.2-2.5-.9-.6-1.1-.2-4.4 1.1-5.9.9-1.2 2.9-1.5 4-.4 1.2 1.2.4 3.9-.4 5.3zm4.3-6.6c-.7-1.2-2-1.9-3.2-2.2-2.6-.5-5.3-.1-7.2 1.6-2.1 2-3.2 4.8-2.8 7.6.3 1.4 1.3 2.7 3.2 3.3 2.9.7 6.7.2 8.7-2.4 1.8-2.1 2.8-5.3 1.3-7.9z"/><path id="Fill-6" class="st1" d="M20 13"/><path id="Fill-7" class="st1" d="M20 13"/><path id="Fill-8" class="st1" d="M17.6 11H14l.5-2h3c2.5 0 1.4 2 .1 2zm-.6 6h-4l.7-3h3.1c3.1-.1 2.7 3.2.2 3zm4.6-6c.9-1.8.1-4-2.7-4h-7.4L9 19h6.9c1.7 0 2.4-.1 3.4-.6 2.4-1.1 3.2-4.7.4-5.8.7-.3 1.5-.7 1.9-1.6z"/><path id="Fill-9" class="st1" d="M76.9 17H75l1.5-8h2.1c3.5 0 3.4 7.9-1.7 8zM64 15l3-5 1 5h-4zm-8.5-3c0 .1-3.5 0-3.5 0l.6-3h2.8c2.4.2 1.9 2.9.1 3zm29.4-1c-.4-1.8-1.5-3.7-4.6-3.9h-6.4l-2.3 11.3C70.8 15 69.2 7 69.2 7h-3.9l-6.5 11.3c0-1.9-.2-3.8-1.8-4.3 3.4-1 5.1-7.2-1-7.1h-6.7l-1.1 5.2h-3.6l-.6 2.7h3.6l-1 5.2H50c.4-1.7 1.1-5.2 1-5.2h2.8c2.8-.1 1 4.5.9 5.2h6.4l1.3-2.2h5.5l.5 2.2H77.8c7.1-.2 7.6-6 7.1-9z"/></g></g></g></svg>