<?xml version="1.0" encoding="UTF-8"?>
<svg width="51px" height="44px" viewBox="0 0 51 44" version="1.1" xmlns="http://www.w3.org/2000/svg" xmlns:xlink="http://www.w3.org/1999/xlink">
    <!-- Generator: Sketch 47 (45396) - http://www.bohemiancoding.com/sketch -->
    <title>icon/departments</title>
    <desc>Created with Sketch.</desc>
    <defs>
        <polygon id="path-1" points="0 42.8282828 49.6404762 42.8282828 49.6404762 0.431515152 0 0.431515152"></polygon>
    </defs>
    <g id="Symbols" stroke="none" stroke-width="1" fill="none" fill-rule="evenodd">
        <g id="icon/departments" transform="translate(1.000000, -3.000000)">
            <g transform="translate(0.000000, 3.000000)">
                <g id="Group-5" transform="translate(0.000000, 0.376889)">
                    <polygon id="Stroke-1" stroke="#494E5D" fill="#FFFFFF" stroke-linecap="round" stroke-linejoin="round" points="38.497619 23.2691717 38.497619 42.4247273 13.0968254 42.4247273 13.0968254 3.63038384 24.9714286 3.63038384"></polygon>
                    <mask id="mask-2" fill="white">
                        <use xlink:href="#path-1"></use>
                    </mask>
                    <g id="Clip-4"></g>
                    <polygon id="Stroke-3" stroke="#434958" stroke-linecap="round" mask="url(#mask-2)" points="23.8428571 42.4242424 29.7047619 42.4242424 29.7047619 34.4662626 23.8428571 34.4662626"></polygon>
                </g>
                <polyline id="Stroke-6" stroke="#434958" stroke-linecap="round" points="17.9816667 16.1168485 17.9816667 11.1439192 22.8665873 11.1439192 22.8665873 16.1168485"></polyline>
                <polyline id="Stroke-7" stroke="#434958" stroke-linecap="round" points="17.9816667 29.0481616 17.9816667 24.0744242 22.8665873 24.0744242 22.8665873 29.0481616"></polyline>
                <polyline id="Stroke-8" stroke="#434958" stroke-linecap="round" points="28.9021429 29.0481616 28.9021429 24.0744242 33.7870635 24.0744242 33.7870635 29.0481616"></polyline>
                <polygon id="Stroke-9" stroke="#494E5D" fill="#FFFFFF" stroke-linecap="round" stroke-linejoin="round" points="3.32777778 42.8011313 13.0968254 42.8011313 13.0968254 17.9332525 3.32777778 17.9332525"></polygon>
                <polygon id="Stroke-11" stroke="#494E5D" fill="#FFFFFF" stroke-linecap="round" stroke-linejoin="round" points="6.25873016 17.9332525 13.0968254 17.9332525 13.0968254 12.9595152 6.25873016 12.9595152"></polygon>
                <g id="Group-23" transform="translate(0.000000, 1.184970)">
                    <path d="M34.6684921,0.026989899 C38.3470635,0.026989899 41.3296032,3.06375758 41.3296032,6.8100202 C41.3296032,12.6637576 35.6486508,13.4548687 35.1716667,19.4055758 C35.1502381,19.6770909 34.9359524,19.8904242 34.6684921,19.8904242 C34.4010317,19.8904242 34.186746,19.6770909 34.1653175,19.4055758 C33.6883333,13.4548687 28.007381,12.6637576 28.007381,6.8100202 C28.007381,3.06375758 30.9899206,0.026989899 34.6684921,0.026989899 Z M37.0622222,6.8550303 C37.0622222,5.48371717 35.9709524,4.37179798 34.624127,4.37179798 C33.2773016,4.37179798 32.1852381,5.48371717 32.1852381,6.8550303 C32.1852381,8.22634343 33.2773016,9.33745455 34.624127,9.33745455 C35.9709524,9.33745455 37.0622222,8.22634343 37.0622222,6.8550303 Z" id="Combined-Shape" fill="#FFFFFF"></path>
                    <path d="M34.6684921,0.026989899 C30.9899206,0.026989899 28.007381,3.06375758 28.007381,6.8100202 C28.007381,12.6637576 33.6883333,13.4548687 34.1653175,19.4055758 C34.186746,19.6770909 34.4010317,19.8904242 34.6684921,19.8904242 C34.9359524,19.8904242 35.1502381,19.6770909 35.1716667,19.4055758 C35.6486508,13.4548687 41.3296032,12.6637576 41.3296032,6.8100202 C41.3296032,3.06375758 38.3470635,0.026989899 34.6684921,0.026989899 Z" id="Stroke-14" stroke="#434958" stroke-linecap="round"></path>
                    <path d="M37.0622222,6.8550303 C37.0622222,8.22634343 35.9709524,9.33745455 34.624127,9.33745455 C33.2773016,9.33745455 32.1852381,8.22634343 32.1852381,6.8550303 C32.1852381,5.48371717 33.2773016,4.37179798 34.624127,4.37179798 C35.9709524,4.37179798 37.0622222,5.48371717 37.0622222,6.8550303 Z" id="Stroke-18" stroke="#434958" stroke-linecap="round"></path>
                    <g id="Group-22" transform="translate(0.000000, 41.212121)" stroke="#434958" stroke-linecap="round">
                        <path d="M0.396984127,0.40420202 L49.2438095,0.40420202" id="Stroke-20"></path>
                    </g>
                </g>
            </g>
        </g>
    </g>
</svg>