<?xml version="1.0" encoding="UTF-8" standalone="no"?>
<!DOCTYPE svg PUBLIC "-//W3C//DTD SVG 1.1//EN" "http://www.w3.org/Graphics/SVG/1.1/DTD/svg11.dtd">
<svg width="100%" height="100%" viewBox="0 0 53 52" version="1.1" xmlns="http://www.w3.org/2000/svg" xmlns:xlink="http://www.w3.org/1999/xlink" xml:space="preserve" xmlns:serif="http://www.serif.com/" style="fill-rule:evenodd;clip-rule:evenodd;stroke-linejoin:round;stroke-miterlimit:2;">
    <g id="Artboard1" transform="matrix(1,0,0,1,-0.0684313,-0.0683419)">
        <rect x="0.068" y="0.068" width="52.001" height="51.525" style="fill:none;"/>
        <g transform="matrix(1,0,0,1,0.0684313,0.0683419)">
            <path d="M29.847,50L22.153,50L21.216,44.38C19.526,43.941 17.909,43.269 16.392,42.375L11.75,45.691L6.309,40.25L9.624,35.609C8.731,34.092 8.06,32.474 7.62,30.784L2,29.847L2,22.153L7.62,21.216C8.06,19.526 8.731,17.908 9.624,16.392L6.309,11.75L11.75,6.309L16.392,9.625C17.908,8.731 19.526,8.059 21.216,7.62L22.153,2L29.847,2L30.784,7.62C32.474,8.059 34.092,8.731 35.608,9.625L40.25,6.309L45.691,11.75L42.376,16.392C43.269,17.909 43.941,19.526 44.38,21.216L50,22.153L50,29.847L44.38,30.784C43.941,32.474 43.269,34.092 42.376,35.609L45.691,40.25L40.25,45.691L35.608,42.375C34.091,43.269 32.474,43.941 30.784,44.38L29.847,50ZM23.847,48L28.153,48L29.031,42.733L29.69,42.587C31.61,42.161 33.435,41.403 35.113,40.333L35.683,39.971L40.034,43.079L43.079,40.035L39.971,35.683L40.334,35.114C41.403,33.436 42.161,31.61 42.586,29.69L42.732,29.031L48,28.153L48,23.847L42.732,22.969L42.586,22.31C42.161,20.39 41.403,18.565 40.334,16.887L39.971,16.317L43.079,11.966L40.034,8.921L35.683,12.029L35.113,11.666C33.436,10.598 31.611,9.839 29.69,9.414L29.031,9.267L28.153,4L23.847,4L22.969,9.267L22.31,9.414C20.389,9.839 18.564,10.598 16.887,11.667L16.317,12.029L11.966,8.921L8.921,11.966L12.029,16.317L11.666,16.887C10.598,18.564 9.839,20.389 9.414,22.31L9.268,22.969L4,23.847L4,28.153L9.268,29.031L9.414,29.69C9.839,31.611 10.597,33.437 11.666,35.114L12.029,35.683L8.921,40.035L11.966,43.079L16.317,39.971L16.887,40.333C18.565,41.403 20.39,42.161 22.31,42.587L22.969,42.733L23.847,48Z" style="fill-opacity:0.4;fill-rule:nonzero;"/>
            <g>
                <path d="M26,38C19.383,38 14,32.617 14,26C14,19.383 19.383,14 26,14C32.617,14 38,19.383 38,26C38,32.617 32.617,38 26,38ZM26,16C20.486,16 16,20.486 16,26C16,31.514 20.486,36 26,36C31.514,36 36,31.514 36,26C36,20.486 31.514,16 26,16Z" style="fill-opacity:0.4;fill-rule:nonzero;"/>
                <path d="M24.25,31.164L19.543,26.457L20.957,25.043L24.25,28.336L31.043,21.543L32.457,22.957L24.25,31.164Z" style="fill-opacity:0.4;fill-rule:nonzero;"/>
            </g>
        </g>
    </g>
</svg>
