<?xml version="1.0" encoding="UTF-8"?>
<svg width="53px" height="47px" viewBox="0 0 53 47" version="1.1" xmlns="http://www.w3.org/2000/svg" xmlns:xlink="http://www.w3.org/1999/xlink">
    <!-- Generator: Sketch 45.1 (43504) - http://www.bohemiancoding.com/sketch -->
    <title>Page 1 Copy</title>
    <desc>Created with Sketch.</desc>
    <defs></defs>
    <g id="Unity-Next-Click-&amp;-Drag" stroke="none" stroke-width="1" fill="none" fill-rule="evenodd">
        <g id="welcome-copy-2" transform="translate(-1058.000000, -184.000000)">
            <g id="Group-2" transform="translate(1042.000000, 165.000000)">
                <g id="Page-1-Copy" transform="translate(16.501814, 18.501674)">
                    <path d="M32.2126754,27.3603073 L23.2248508,22.1055602" id="Stroke-1" stroke="#17485D" stroke-linecap="round" stroke-linejoin="round"></path>
                    <g id="Group-14" transform="translate(0.000000, 0.429856)">
                        <polyline id="Stroke-2" stroke="#17485D" stroke-linecap="round" stroke-linejoin="round" points="17.017071 24.9755589 0.419325587 33.7951141 9.54972091 39.1325258 23.5459704 40.6767363 26.3143579 46.445368 51.8160628 32.6054243 44.9181569 27.5304943 32.2125916 26.9305361"></polyline>
                        <path d="M26.2835794,30.1328979 C26.6064601,20.7321333 35.4668097,18.4030344 35.4668097,10.7186273 C35.4668097,4.84773001 30.4214843,0.173340181 24.4955751,0.928401144 C19.4309606,1.57523102 15.6888991,6.24962085 16.0646148,11.4225554 C16.5845786,18.5555806 24.9098688,21.0244424 25.2226856,30.1328979 L26.2835794,30.1328979 Z" id="Fill-4" fill="#FFFFFF"></path>
                        <path d="M26.2835794,30.1328979 C26.6064601,20.7321333 35.4668097,18.4030344 35.4668097,10.7186273 C35.4668097,4.84773001 30.4214843,0.173340181 24.4955751,0.928401144 C19.4309606,1.57523102 15.6888991,6.24962085 16.0646148,11.4225554 C16.5845786,18.5555806 24.9098688,21.0244424 25.2226856,30.1328979 L26.2835794,30.1328979 Z" id="Stroke-6" stroke="#17485D" stroke-linecap="round" stroke-linejoin="round"></path>
                        <path d="M28.7008237,10.8391302 C28.7008237,12.4932762 27.3807867,13.8338077 25.7529648,13.8338077 C24.1251429,13.8338077 22.8059446,12.4932762 22.8059446,10.8391302 C22.8059446,9.18498426 24.1251429,7.84360056 25.7529648,7.84360056 C27.3807867,7.84360056 28.7008237,9.18498426 28.7008237,10.8391302 Z" id="Stroke-8" stroke="#17485D" stroke-linecap="round" stroke-linejoin="round"></path>
                        <path d="M9.54946932,39.1327815 L19.3289807,33.2661453" id="Stroke-10" stroke="#17485D" stroke-linecap="round" stroke-linejoin="round"></path>
                        <path d="M44.2068968,27.936233 L29.6051412,36.1941797" id="Stroke-12" stroke="#17485D" stroke-linecap="round" stroke-linejoin="round"></path>
                    </g>
                </g>
            </g>
        </g>
    </g>
</svg>