<svg version="1.1" xmlns="http://www.w3.org/2000/svg" width="32" height="32" viewBox="0 0 32 32">
<title>labs</title>
<path d="M28.8 25.152l-8.64-14.848v-3.072c1.408-0.768 2.24-2.432 1.984-4.032-0.32-1.856-1.92-3.2-3.776-3.2h-4.672c-1.856 0-3.456 1.344-3.776 3.2-0.32 1.664 0.512 3.264 1.984 4.032v3.072l-8.896 15.168c-0.448 0.64-0.768 1.472-0.768 2.368 0 1.088 0.448 2.176 1.216 2.944s1.856 1.216 2.944 1.216h19.2c1.664 0 3.136-0.96 3.776-2.432 0.704-1.472 0.448-3.2-0.576-4.416zM24.64 27.712c-0.064 0.064-0.192 0.064-0.32 0.064h-16.64c-0.32 0-0.576-0.256-0.576-0.576 0-0.128 0-0.192 0.064-0.32l5.696-9.856c0.128-0.192 0.32-0.256 0.512-0.256h5.184c0.192 0 0.384 0.128 0.512 0.256l5.76 9.856c0.192 0.32 0.064 0.64-0.192 0.832z"></path>
</svg>
