<?xml version="1.0" encoding="UTF-8"?>
<svg width="50px" height="50px" viewBox="0 0 50 50" version="1.1" xmlns="http://www.w3.org/2000/svg" xmlns:xlink="http://www.w3.org/1999/xlink">
    <!-- Generator: Sketch 47 (45396) - http://www.bohemiancoding.com/sketch -->
    <title>toolbar/icon/notification/filled</title>
    <desc>Created with Sketch.</desc>
    <defs>
        <path d="M17.885417,41.6246064 L32.1710789,41.6246064 L32.1805126,42.7615773 C32.1811343,42.7781937 32.1811503,42.7795753 32.1816237,42.8205497 C32.1816237,46.7845326 28.9800761,50 25.0282479,50 C21.0764197,50 17.8748721,46.7845326 17.8748721,42.8205497 C17.8753456,42.7795753 17.8753616,42.7781937 17.8759833,42.7615773 L17.885417,41.6246064 Z M39.6827123,29.981885 L44.881011,37.7164757 C45.6890189,38.9087607 45.7744282,40.4510225 45.1030479,41.725607 C44.430834,43.0017567 43.1098009,43.8008695 41.6699019,43.8008695 L7.88283449,43.8008695 C6.44287053,43.8008695 5.12184493,43.001805 4.44966107,41.7255549 C3.77836542,40.4509913 3.86377802,38.9087135 4.67183553,37.7165863 L9.87013415,30.0471945 C9.87013415,28.3744328 9.87013415,28.1655875 9.87013415,24.9680973 L9.87013415,20.4672111 C9.87013415,13.6218233 14.4819031,7.72985081 20.9238897,6.00671985 L20.9238897,3.86420123 C20.9238897,1.73122765 22.6475743,0 24.7763682,0 C26.9051236,0 28.6287997,1.73117033 28.6289568,3.86420123 L28.6289568,6.00659472 C35.0709449,7.72962898 39.6827123,13.6216103 39.6827123,20.4671005 L39.6827123,25.7746914 C39.6827123,28.2303768 39.6827123,28.4187332 39.6827123,29.981885 Z" id="path-1"></path>
    </defs>
    <g id="Symbols" stroke="none" stroke-width="1" fill="none" fill-rule="evenodd">
        <g id="toolbar/icon/notification/filled">
            <mask id="mask-2" fill="white">
                <use xlink:href="#path-1"></use>
            </mask>
            <use id="Combined-Shape" fill="#52585B" fill-rule="nonzero" xlink:href="#path-1"></use>
            <g id="icon-color/default" mask="url(#mask-2)" fill="#414756">
                <rect id="Rectangle-15" x="0" y="0" width="50" height="50"></rect>
            </g>
            <g id="Group" transform="translate(27.000000, -10.000000)">
                <path d="M19.5060531,36.6944883 C29.0056498,36.6944883 36.7065945,28.9935436 36.7065945,19.4939469 C36.7065945,9.99435021 29.0056498,2.29340552 19.5060531,2.29340552 C10.0064564,2.29340552 2.30551169,9.99435021 2.30551169,19.4939469 C2.30551169,28.9935436 10.0064564,36.6944883 19.5060531,36.6944883 Z M19.5060531,38.9878938 C8.73984349,38.9878938 0.0121061734,30.2601565 0.0121061734,19.4939469 C0.0121061734,8.72773732 8.73984349,0 19.5060531,0 C30.2722627,0 39,8.72773732 39,19.4939469 C39,30.2601565 30.2722627,38.9878938 19.5060531,38.9878938 Z" id="Oval-5" fill="#FFFFFF" fill-rule="nonzero"></path>
                <circle id="Oval-5" fill="#F69B44" cx="19.5060531" cy="19.4939469" r="17.2005414"></circle>
                <path d="M9.33573047,24.1172356 L12.6331985,24.1172356 L12.6331985,14.6299813 C12.6331985,14.2623436 12.6444525,13.8759548 12.666961,13.4708031 L10.3260963,15.4290264 C10.2285598,15.5115573 10.129149,15.5678275 10.0278611,15.5978388 C9.92657321,15.62785 9.82716248,15.6428554 9.72962597,15.6428554 C9.57956979,15.6428554 9.44264558,15.6109689 9.31884924,15.5471951 C9.19505289,15.4834212 9.10314486,15.4102699 9.04312239,15.327739 L8.16529814,14.1235442 L13.1283814,9.90323532 L15.4129753,9.90323532 L15.4129753,24.1172356 L18.3390561,24.1172356 L18.3390561,26.1992547 L9.33573047,26.1992547 L9.33573047,24.1172356 Z M31.8552987,18.0624992 C31.8552987,19.48053 31.7033691,20.7128479 31.3995053,21.7594897 C31.0956416,22.8061316 30.6754906,23.6708173 30.1390397,24.3535729 C29.6025889,25.0363285 28.9686111,25.5446362 28.2370872,25.8785112 C27.5055633,26.2123862 26.7159045,26.3793212 25.8680871,26.3793212 C25.0202697,26.3793212 24.2343623,26.2123862 23.5103412,25.8785112 C22.7863202,25.5446362 22.1579694,25.0363285 21.6252699,24.3535729 C21.0925705,23.6708173 20.6761709,22.8061316 20.3760585,21.7594897 C20.0759462,20.7128479 19.9258922,19.48053 19.9258922,18.0624992 C19.9258922,16.6369655 20.0759462,15.4027719 20.3760585,14.3598815 C20.6761709,13.3169911 21.0925705,12.454181 21.6252699,11.7714254 C22.1579694,11.0886698 22.7863202,10.5803621 23.5103412,10.2464871 C24.2343623,9.91261211 25.0202697,9.74567712 25.8680871,9.74567712 C26.7159045,9.74567712 27.5055633,9.91261211 28.2370872,10.2464871 C28.9686111,10.5803621 29.6025889,11.0886698 30.1390397,11.7714254 C30.6754906,12.454181 31.0956416,13.3169911 31.3995053,14.3598815 C31.7033691,15.4027719 31.8552987,16.6369655 31.8552987,18.0624992 Z M28.9854886,18.0624992 C28.9854886,16.8845582 28.8992076,15.9092076 28.726643,15.1364183 C28.5540784,14.363629 28.3233705,13.7484079 28.0345124,13.2907366 C27.7456542,12.8330652 27.4136599,12.512325 27.0385195,12.3285062 C26.663379,12.1446873 26.2732388,12.0527793 25.8680871,12.0527793 C25.4704383,12.0527793 25.0859251,12.1446873 24.714536,12.3285062 C24.343147,12.512325 24.014904,12.8330652 23.7297973,13.2907366 C23.4446906,13.7484079 23.217734,14.363629 23.0489208,15.1364183 C22.8801076,15.9092076 22.7957023,16.8845582 22.7957023,18.0624992 C22.7957023,19.2404402 22.8801076,20.2157907 23.0489208,20.98858 C23.217734,21.7613693 23.4446906,22.3765904 23.7297973,22.8342617 C24.014904,23.2919331 24.343147,23.6126733 24.714536,23.7964922 C25.0859251,23.980311 25.4704383,24.072219 25.8680871,24.072219 C26.2732388,24.072219 26.663379,23.980311 27.0385195,23.7964922 C27.4136599,23.6126733 27.7456542,23.2919331 28.0345124,22.8342617 C28.3233705,22.3765904 28.5540784,21.7613693 28.726643,20.98858 C28.8992076,20.2157907 28.9854886,19.2404402 28.9854886,18.0624992 Z" id="10" fill="#FFFFFF"></path>
            </g>
        </g>
    </g>
</svg>