<?xml version="1.0" encoding="UTF-8"?>
<svg width="51px" height="51px" viewBox="0 0 51 51" version="1.1" xmlns="http://www.w3.org/2000/svg" xmlns:xlink="http://www.w3.org/1999/xlink">
    <!-- Generator: Sketch 44 (41411) - http://www.bohemiancoding.com/sketch -->
    <title>user avatar green</title>
    <desc>Created with Sketch.</desc>
    <defs></defs>
    <g id="Symbols" stroke="none" stroke-width="1" fill="none" fill-rule="evenodd" fill-opacity="0.58">
        <g id="user-avatar-green" fill-rule="nonzero" fill="#3AB8C3">
            <path d="M25.5,0.0833333333 C11.47,0.0833333333 0.0833333333,11.47 0.0833333333,25.5 C0.0833333333,39.53 11.47,50.9166667 25.5,50.9166667 C39.53,50.9166667 50.9166667,39.53 50.9166667,25.5 C50.9166667,11.47 39.53,0.0833333333 25.5,0.0833333333 Z M25.5,7.70833333 C29.7191667,7.70833333 33.125,11.1141667 33.125,15.3333333 C33.125,19.5525 29.7191667,22.9583333 25.5,22.9583333 C21.2808333,22.9583333 17.875,19.5525 17.875,15.3333333 C17.875,11.1141667 21.2808333,7.70833333 25.5,7.70833333 Z M25.5,43.8 C19.1458333,43.8 13.52875,40.5466667 10.25,35.6158333 C10.32625,30.5579167 20.4166667,27.7875 25.5,27.7875 C30.5579167,27.7875 40.67375,30.5579167 40.75,35.6158333 C37.47125,40.5466667 31.8541667,43.8 25.5,43.8 Z" id="Shape"></path>
        </g>
    </g>
</svg>