<?xml version="1.0" encoding="UTF-8"?>
<svg width="51px" height="51px" viewBox="0 0 51 51" version="1.1" xmlns="http://www.w3.org/2000/svg" xmlns:xlink="http://www.w3.org/1999/xlink">
    <!-- Generator: Sketch 44 (41411) - http://www.bohemiancoding.com/sketch -->
    <title>User Comments</title>
    <desc>Created with Sketch.</desc>
    <defs></defs>
    <g id="Symbols" stroke="none" stroke-width="1" fill="none" fill-rule="evenodd" fill-opacity="0.58">
        <g id="User-Comments" fill-rule="nonzero" fill="#17485D">
            <g id="commenting_icon" transform="translate(2.000000, 7.000000)">
                <path d="M16.7857143,16.8748177 C16.7857143,15.9431871 16.4578683,15.1477856 15.8021763,14.488613 C15.1464844,13.8294404 14.3552827,13.4998542 13.4285714,13.4998542 C12.5018601,13.4998542 11.7106585,13.8294404 11.0549665,14.488613 C10.3992746,15.1477856 10.0714286,15.9431871 10.0714286,16.8748177 C10.0714286,17.8064483 10.3992746,18.6018498 11.0549665,19.2610224 C11.7106585,19.9201949 12.5018601,20.2497812 13.4285714,20.2497812 C14.3552827,20.2497812 15.1464844,19.9201949 15.8021763,19.2610224 C16.4578683,18.6018498 16.7857143,17.8064483 16.7857143,16.8748177 Z M26.8571429,16.8748177 C26.8571429,15.9431871 26.5292969,15.1477856 25.8736049,14.488613 C25.2179129,13.8294404 24.4267113,13.4998542 23.5,13.4998542 C22.5732887,13.4998542 21.7820871,13.8294404 21.1263951,14.488613 C20.4707031,15.1477856 20.1428571,15.9431871 20.1428571,16.8748177 C20.1428571,17.8064483 20.4707031,18.6018498 21.1263951,19.2610224 C21.7820871,19.9201949 22.5732887,20.2497812 23.5,20.2497812 C24.4267113,20.2497812 25.2179129,19.9201949 25.8736049,19.2610224 C26.5292969,18.6018498 26.8571429,17.8064483 26.8571429,16.8748177 Z M36.9285714,16.8748177 C36.9285714,15.9431871 36.6007254,15.1477856 35.9450335,14.488613 C35.2893415,13.8294404 34.4981399,13.4998542 33.5714286,13.4998542 C32.6447173,13.4998542 31.8535156,13.8294404 31.1978237,14.488613 C30.5421317,15.1477856 30.2142857,15.9431871 30.2142857,16.8748177 C30.2142857,17.8064483 30.5421317,18.6018498 31.1978237,19.2610224 C31.8535156,19.9201949 32.6447173,20.2497812 33.5714286,20.2497812 C34.4981399,20.2497812 35.2893415,19.9201949 35.9450335,19.2610224 C36.6007254,18.6018498 36.9285714,17.8064483 36.9285714,16.8748177 Z M47,16.8748177 C47,19.9333784 45.9508929,22.7590315 43.8526786,25.3517769 C41.7544643,27.9445223 38.9043899,29.9923518 35.3024554,31.4952652 C31.7005208,32.9981787 27.766369,33.7496354 23.5,33.7496354 C21.5766369,33.7496354 19.7319568,33.591434 17.9659598,33.2750311 C14.9410342,36.3160139 11.1380208,38.3286875 6.55691964,39.3130518 C5.64769345,39.4888312 4.89583333,39.6030878 4.30133929,39.6558216 C4.09151786,39.6733995 3.89918155,39.6206657 3.72433036,39.4976202 C3.54947917,39.3745746 3.43582589,39.2163732 3.38337054,39.0230159 C3.31343006,38.7593469 3.48828125,38.4341551 3.90792411,38.0474405 C3.9953497,37.9595508 4.20079985,37.770588 4.52427455,37.4805521 C4.84774926,37.1905162 5.07068452,36.9839754 5.19308036,36.8609299 C5.31547619,36.7378843 5.52092634,36.5137657 5.8094308,36.1885739 C6.09793527,35.8633821 6.3077567,35.5865296 6.43889509,35.3580164 C6.57003348,35.1295033 6.74925595,34.8043115 6.9765625,34.382441 C7.20386905,33.9605706 7.37872024,33.5387002 7.50111607,33.1168297 C7.6235119,32.6949593 7.75027902,32.1895936 7.88141741,31.6007328 C8.0125558,31.011872 8.1218378,30.3746718 8.20926339,29.6891324 C5.65643601,28.1071182 3.6500186,26.2043067 2.19001116,23.980698 C0.73000372,21.7570892 0,19.3884624 0,16.8748177 C0,13.816257 1.04910714,10.9906039 3.14732143,8.39785849 C5.24553571,5.80511306 8.09561012,3.75728363 11.6975446,2.25437018 C15.2994792,0.751456725 19.233631,0 23.5,0 C27.766369,0 31.7005208,0.751456725 35.3024554,2.25437018 C38.9043899,3.75728363 41.7544643,5.80511306 43.8526786,8.39785849 C45.9508929,10.9906039 47,13.816257 47,16.8748177 Z" id="Shape"></path>
            </g>
        </g>
    </g>
</svg>