<?xml version="1.0" encoding="UTF-8"?>
<svg width="91px" height="91px" viewBox="0 0 91 91" version="1.1" xmlns="http://www.w3.org/2000/svg" xmlns:xlink="http://www.w3.org/1999/xlink">
    <!-- Generator: Sketch 46 (44423) - http://www.bohemiancoding.com/sketch -->
    <title>Group 15</title>
    <desc>Created with Sketch.</desc>
    <defs></defs>
    <g id="Mission-Control-Latest" stroke="none" stroke-width="1" fill="none" fill-rule="evenodd">
        <g id="Group-15" transform="translate(3.000000, 3.000000)">
            <g id="Group-12-Copy" fill="#FFFFFF">
                <g id="Group-7-Copy">
                    <g id="Group-6-Copy" stroke-width="6" stroke="#A4B9D2">
                        <g id="Group-2">
                            <circle id="Oval-2-Copy" cx="42.5" cy="42.5" r="41.9970703"></circle>
                        </g>
                    </g>
                    <g id="Page-1" transform="translate(33.000000, 17.000000)">
                        <g id="Group-14">
                            <path d="M10.7909016,30.2097396 C11.1200145,20.7850021 20.1513855,18.4499638 20.1513855,10.7459608 C20.1513855,4.86009216 15.0086758,0.173782214 8.96838548,0.930768652 C3.80601452,1.579248 -0.00827580645,6.26555795 0.374691935,11.451684 C0.904691935,18.602899 9.39067581,21.0780567 9.70953065,30.2097396 L10.7909016,30.2097396 Z" id="Fill-4"></path>
                        </g>
                    </g>
                </g>
                <g id="Page-1-Copy" transform="translate(50.000000, 24.000000)">
                    <g id="Group-23">
                        <path d="M5.80346667,2.94430512 C5.80346667,4.33347721 4.69037143,5.4590586 3.31660952,5.4590586 C1.94284762,5.4590586 0.828942857,4.33347721 0.828942857,2.94430512 C0.828942857,1.55513302 1.94284762,0.428733023 3.31660952,0.428733023 C4.69037143,0.428733023 5.80346667,1.55513302 5.80346667,2.94430512" id="Fill-16"></path>
                    </g>
                </g>
            </g>
            <g id="Page-1" transform="translate(27.000000, 17.000000)" stroke="#17485D" stroke-linecap="round" stroke-linejoin="round">
                <polyline id="Stroke-1" stroke-width="2" points="6 9 6 0 27 0 27 9 16.9780762 9 11.1272401 9 11.1272401 3.54435679"></polyline>
                <path d="M17,4 L17,9" id="Stroke-3"></path>
                <path d="M22,4 L22,9" id="Stroke-4"></path>
                <g id="Group-11" transform="translate(0.000000, 14.000000)" stroke-width="2">
                    <path d="M9.2785197,0.504474262 C9.2785197,0.504474262 9.53410516,2.89026066 6.91224351,6.5660587 L2.94644751,9.85493064 C2.94644751,9.85493064 0.26011385,11.7895612 0.388290342,14.7565106 L0.383685199,31.8439415 C0.383685199,31.8439415 0.388290342,34.6816576 3.20203297,35.197817 L27.0758639,35.197817 C27.0758639,35.197817 30.0653695,35.5847431 30.8973655,32.1024081 L30.8973655,15.1434367 C30.8973655,15.1434367 31.2166554,12.3057206 28.2110318,9.21031174 L23.9896503,5.79220648 C23.9896503,5.79220648 22.1345451,3.27718677 22.326426,0.362859306" id="Stroke-5"></path>
                    <path d="M10.8135675,9 L28.0828553,9" id="Stroke-7"></path>
                    <polyline id="Stroke-9" points="1.60328068 17.1415231 17.4656972 17.1415231 17.4656972 27.8462209 1.60328068 27.8462209"></polyline>
                </g>
            </g>
        </g>
    </g>
</svg>