<?xml version="1.0" encoding="UTF-8"?>
<svg width="50px" height="50px" viewBox="0 0 50 50" version="1.1" xmlns="http://www.w3.org/2000/svg" xmlns:xlink="http://www.w3.org/1999/xlink">
    <!-- Generator: Sketch 47.1 (45422) - http://www.bohemiancoding.com/sketch -->
    <title>icon/location</title>
    <desc>Created with Sketch.</desc>
    <defs></defs>
    <g id="Symbols" stroke="none" stroke-width="1" fill="none" fill-rule="evenodd">
        <g id="icon/location">
            <path d="M1.39326891,34.9105115 L9.34359561,39.5580833 L22.6967679,41.0313428 C22.8683479,41.0502733 23.0180276,41.1563691 23.092714,41.3119969 L25.5274333,46.3853469 L48.8960713,33.7030328 L43.0189874,29.3791424 L30.9522227,28.8093484 C30.8251848,28.8033497 30.7052071,28.7491664 30.6167101,28.657827 L27.4919135,25.4326705 L20.9068768,23.4816478 L1.39326891,34.9105115 Z" id="Stroke-2" fill="#FFFFFF"></path>
            <path d="M29.3002021,21.2629213 C26.3296601,24.8525659 25.0198766,27.2870371 24.7977894,30.8893138 L24.7309233,30.8893138 C24.5088376,27.2864811 23.199025,24.8519112 20.2283745,21.2623077 C20.2337298,21.2687787 19.4390886,20.3129891 19.2185753,20.0438942 C17.0440817,17.3903352 16.1145309,15.6661027 15.9464994,13.3609937 C15.6039405,8.64456815 19.0186761,4.38953855 23.6184239,3.80207936 C28.9598835,3.12148717 33.6050806,7.31658227 33.6050806,12.7204436 C33.6050806,15.3108372 32.6642875,17.1713057 30.3103689,20.0440014 C30.0897427,20.313251 29.2944993,21.2698127 29.3002021,21.2629213 Z M27.098871,12.8363199 C27.098871,11.5200469 26.0515624,10.455802 24.7641935,10.455802 C23.4770232,10.455802 22.4303226,11.5198474 22.4303226,12.8363199 C22.4303226,14.1525929 23.4768247,15.2160184 24.7641935,15.2160184 C26.051761,15.2160184 27.098871,14.1523935 27.098871,12.8363199 Z" id="Combined-Shape" fill="#FFFFFF"></path>
            <g id="Location-Icon" transform="translate(-1.000000, 2.000000)" fill-rule="nonzero" fill="#4A4F5E">
                <path d="M21.1563956,20.7623035 L1.15053306,32.4794743 C0.820631949,32.672693 0.820829255,33.1496312 1.15089012,33.3425769 L9.93072883,38.4750616 L10.1282321,38.5403901 L23.3112374,39.9948751 L25.8532538,45.2918055 C25.9769576,45.5495736 26.2912344,45.6513079 26.5425271,45.5149298 L51.0651077,32.2063633 C51.3871252,32.0316023 51.4180365,31.5812889 51.1229196,31.3641653 L44.489855,26.4840845 C44.4104653,26.4256758 44.3155837,26.3920334 44.2171322,26.3873845 L32.1971438,25.8197994 L29.1188245,22.6426128 C29.094729,22.6177435 29.0682148,22.5955459 29.0397534,22.5763056 C28.844656,22.867754 28.6636702,23.1539682 28.4962104,23.4371054 L31.6167101,26.657827 C31.7052071,26.7491664 31.8251848,26.8033497 31.9522227,26.8093484 L44.0189874,27.3791424 L49.8960713,31.7030328 L26.5274333,44.3853469 L24.092714,39.3119969 C24.0180276,39.1563691 23.8683479,39.0502733 23.6967679,39.0313428 L10.3435956,37.5580833 L2.39326891,32.9105115 L21.7704051,21.5615775 C21.5765519,21.3011531 21.3720023,21.0351714 21.1563956,20.7623035 Z" id="Combined-Shape"></path>
                <path d="M29.098871,10.8363199 C29.098871,12.7012057 27.6075789,14.2160184 25.7641935,14.2160184 C23.9209173,14.2160184 22.4303226,12.7013188 22.4303226,10.8363199 C22.4303226,8.97120795 23.9210263,7.45580201 25.7641935,7.45580201 C27.6074698,7.45580201 29.098871,8.97132109 29.098871,10.8363199 Z M28.098871,10.8363199 C28.098871,9.52004691 27.0515624,8.45580201 25.7641935,8.45580201 C24.4770232,8.45580201 23.4303226,9.51984737 23.4303226,10.8363199 C23.4303226,12.1525929 24.4768247,13.2160184 25.7641935,13.2160184 C27.051761,13.2160184 28.098871,12.1523935 28.098871,10.8363199 Z M26.7741408,29.4064768 C26.7648913,29.6757801 26.5438976,29.8893138 26.2744355,29.8893138 L25.2542742,29.8893138 C24.9848116,29.8893138 24.7638177,29.6757793 24.7545688,29.4064755 C24.6308815,25.8050077 23.4311364,23.4925067 20.4579743,19.8998683 C20.4653535,19.908785 19.6682799,18.9500697 19.4451039,18.6777254 C17.1509029,15.8780861 16.1358746,13.9953004 15.9491362,11.433565 C15.5683884,6.19134777 19.361039,1.46540638 24.4918831,0.810117959 C30.4370016,0.0526094092 35.6050806,4.71992111 35.6050806,10.7204436 C35.6050806,13.5978055 34.5712959,15.6421698 32.08386,18.6778085 C31.8605688,18.9503106 31.0628883,19.9098037 31.0706173,19.9004638 C28.0975412,23.4931706 26.8978177,25.8055895 26.7741408,29.4064768 Z M30.3002021,19.2629213 C30.2944993,19.2698127 31.0897427,18.313251 31.3103689,18.0440014 C33.6642875,15.1713057 34.6050806,13.3108372 34.6050806,10.7204436 C34.6050806,5.31658227 29.9598835,1.12148717 24.6184239,1.80207936 C20.0186761,2.38953855 16.6039405,6.64456815 16.9464994,11.3609937 C17.1145309,13.6661027 18.0440817,15.3903352 20.2185753,18.0438942 C20.4390886,18.3129891 21.2337298,19.2687787 21.2283745,19.2623077 C24.199025,22.8519112 25.5088376,25.2864811 25.7309233,28.8893138 L25.7977894,28.8893138 C26.0198766,25.2870371 27.3296601,22.8525659 30.3002021,19.2629213 Z" id="Stroke-6"></path>
                <path d="M10.4400359,38.4724188 L19.8440682,32.831029 C20.0808698,32.688974 20.157677,32.38185 20.015622,32.1450484 C19.873567,31.9082469 19.566443,31.8314396 19.3296415,31.9734946 L9.92560922,37.6148845 C9.68880765,37.7569395 9.61200039,38.0640635 9.75405541,38.300865 C9.89611043,38.5376666 10.2032344,38.6144738 10.4400359,38.4724188 Z" id="Stroke-10"></path>
                <path d="M43.2634602,26.8417683 L29.2223311,34.7826555 C28.9819656,34.918593 28.8973099,35.2236469 29.0332474,35.4640125 C29.1691849,35.7043781 29.4742388,35.7890337 29.7146044,35.6530962 L43.7557334,27.712209 C43.996099,27.5762715 44.0807546,27.2712176 43.9448171,27.030852 C43.8088796,26.7904865 43.5038257,26.7058308 43.2634602,26.8417683 Z" id="Stroke-12"></path>
            </g>
        </g>
    </g>
</svg>