<?xml version="1.0" encoding="UTF-8"?>
<svg width="91px" height="91px" viewBox="0 0 91 91" version="1.1" xmlns="http://www.w3.org/2000/svg" xmlns:xlink="http://www.w3.org/1999/xlink">
    <!-- Generator: Sketch 46.2 (44496) - http://www.bohemiancoding.com/sketch -->
    <title></title>
    <desc>Created with Sketch.</desc>
    <defs></defs>
    <g id="Unity:2-Setup--Invision" stroke="none" stroke-width="1" fill="none" fill-rule="evenodd">
        <g id="setup-QC-3" transform="translate(-1039.000000, -102.000000)">
            <g id="Group-4" transform="translate(1042.000000, 105.000000)">
                <g id="Group-2" stroke="#DBB14D" stroke-width="6" fill="#FFFFFF">
                    <circle id="Oval-2-Copy" cx="42.5" cy="42.5" r="41.9970703"></circle>
                </g>
                <g id="Group-7-Copy" transform="translate(26.000000, 15.000000)" stroke-linecap="round" stroke="#17485D" stroke-linejoin="round">
                    <g id="Page-1">
                        <polyline id="Stroke-1" points="5.48370732 10.4525351 5.48370732 0.40421398 26.3453659 0.40421398 26.3453659 10.4525351 16.3894634 10.4525351 10.5771707 10.4525351 10.5771707 4.36141789"></polyline>
                        <path d="M16,4.58548687 L16,8.93420482" id="Stroke-3"></path>
                        <path d="M21,4.58548687 L21,8.93420482" id="Stroke-4"></path>
                        <g id="Group-11" transform="translate(0.000000, 13.321993)">
                            <path d="M9.43523902,0.527330586 C9.43523902,0.527330586 9.69514146,3.02121032 7.02899512,6.86354853 L2.99621463,10.3014301 C2.99621463,10.3014301 0.264507317,12.3237134 0.39484878,15.425087 L0.390165854,33.2867018 C0.390165854,33.2867018 0.39484878,36.2529869 3.25611707,36.7925321 L27.5331902,36.7925321 C27.5331902,36.7925321 30.5731902,37.1969887 31.419239,33.5568788 L31.419239,15.8295437 C31.419239,15.8295437 31.743922,12.8632585 28.6875317,9.62760531 L24.3948488,6.05463523 C24.3948488,6.05463523 22.5084098,3.42566697 22.7035317,0.379299451" id="Stroke-5"></path>
                            <path d="M9.99621463,9 L27.5571902,9" id="Stroke-7"></path>
                            <polyline id="Stroke-9" points="1.63036098 17.9181578 17.7607024 17.9181578 17.7607024 29.1078556 1.63036098 29.1078556"></polyline>
                        </g>
                    </g>
                </g>
            </g>
        </g>
    </g>
</svg>