<?xml version="1.0" encoding="UTF-8"?>
<svg width="50px" height="50px" viewBox="0 0 50 50" version="1.1" xmlns="http://www.w3.org/2000/svg" xmlns:xlink="http://www.w3.org/1999/xlink">
    <!-- Generator: Sketch 47 (45396) - http://www.bohemiancoding.com/sketch -->
    <title>toolbar/icon/lab/default</title>
    <desc>Created with Sketch.</desc>
    <defs>
        <path d="M45.4524293,46.1713522 C44.4052944,48.4937108 42.0981677,49.9904093 39.5461086,50 L9.52037729,50 C7.79107081,50 6.13259223,49.3130357 4.90978789,48.0902313 C3.68698355,46.867427 3.00001923,45.2089484 3.00002366,43.482922 C2.996323,42.1149577 3.42686766,40.7811134 4.16237986,39.7770094 L17.9051604,16.0658739 L17.9051604,11.2956901 C15.6557201,10.0778233 14.3918601,7.53343058 14.8537527,4.95226568 C15.3675584,2.08099838 17.8685371,-0.00702960169 20.7824748,1.7785679e-05 L28.1243901,2.13281201e-05 C31.0412587,-0.00702960169 33.5422374,2.08099838 34.0560431,4.95226568 C34.5179358,7.53343058 33.2540757,10.0778233 31.0046354,11.2956901 L31.0046354,16.0654656 L44.4950239,39.3074779 C46.1065004,41.217265 46.4825592,43.8867078 45.4524293,46.1713522 Z M42.5908552,40.8122234 L42.4538934,40.6215373 L28.5796703,16.7182327 L28.5796703,9.66938664 L29.3744265,9.37771972 C31.0080601,8.77819393 31.9755256,7.09238078 31.668996,5.37942147 C31.3624665,3.66646215 29.8704164,2.42077285 28.127321,2.42498288 L20.7795439,2.42497934 C19.0393794,2.42077285 17.5473293,3.66646215 17.2407998,5.37942147 C16.9342702,7.09238078 17.9017357,8.77819393 19.5353693,9.37771972 L20.3301255,9.66938664 L20.3301255,16.7178244 L20.166664,16.9998532 L6.19314535,41.0965552 C5.69163416,41.7885115 5.42266804,42.6217791 5.42498432,43.4796419 C5.42498432,44.5658077 5.85646198,45.6074869 6.62449715,46.3755221 C7.39253232,47.1435572 8.43421155,47.5750349 9.52037729,47.5750349 L39.541548,47.5750435 C41.1387602,47.5690358 42.5852657,46.6306466 43.2417907,45.1745911 C43.8983158,43.7185355 43.6438509,42.013191 42.5908552,40.8122234 Z M20.4743957,26.2185557 L28.5327589,26.2185557 L28.5327589,26.2185557 C28.8523842,26.2185557 29.1480306,26.3880757 29.3094886,26.6639229 L38.319583,42.0574623 L38.319583,42.0574623 C38.5706698,42.4864383 38.4264621,43.0377381 37.9974861,43.2888248 C37.8595729,43.3695477 37.7026539,43.4120951 37.5428533,43.4120951 L11.572962,43.4120951 L11.572962,43.4120951 C11.0759058,43.4120951 10.672962,43.0091514 10.672962,42.5120951 C10.672962,42.3539045 10.714657,42.1985082 10.7938455,42.0615649 L19.6952792,26.6680255 L19.6952792,26.6680255 C19.8561286,26.3898634 20.1530755,26.2185557 20.4743957,26.2185557 Z" id="path-1"></path>
    </defs>
    <g id="Symbols" stroke="none" stroke-width="1" fill="none" fill-rule="evenodd">
        <g id="toolbar/icon/lab/default">
            <mask id="mask-2" fill="white">
                <use xlink:href="#path-1"></use>
            </mask>
            <use id="Combined-Shape" fill="#52585B" fill-rule="nonzero" xlink:href="#path-1"></use>
            <g id="icon-color/default" mask="url(#mask-2)" fill="#414756">
                <rect id="Rectangle-15" x="0" y="0" width="50" height="50"></rect>
            </g>
        </g>
    </g>
</svg>
