<?xml version="1.0" encoding="UTF-8"?>
<svg width="50px" height="50px" viewBox="0 0 50 50" version="1.1" xmlns="http://www.w3.org/2000/svg" xmlns:xlink="http://www.w3.org/1999/xlink">
    <!-- Generator: Sketch 47 (45396) - http://www.bohemiancoding.com/sketch -->
    <title>toolbar/icon/lab/filled</title>
    <desc>Created with Sketch.</desc>
    <defs>
        <path d="M45.4524293,46.1713522 C44.4052944,48.4937108 42.0981677,49.9904093 39.5461086,50 L9.52037729,50 C7.79107081,50 6.13259223,49.3130357 4.90978789,48.0902313 C3.68698355,46.867427 3.00001923,45.2089484 3.00002366,43.482922 C2.996323,42.1149577 3.42686766,40.7811134 4.16237986,39.7770094 L17.9051604,16.0658739 L17.9051604,11.2956901 C15.6557201,10.0778233 14.3918601,7.53343058 14.8537527,4.95226568 C15.3675584,2.08099838 17.8685371,-0.00702960169 20.7824748,1.7785679e-05 L28.1243901,2.13281201e-05 C31.0412587,-0.00702960169 33.5422374,2.08099838 34.0560431,4.95226568 C34.5179358,7.53343058 33.2540757,10.0778233 31.0046354,11.2956901 L31.0046354,16.0654656 L44.4950239,39.3074779 C46.1065004,41.217265 46.4825592,43.8867078 45.4524293,46.1713522 Z M20.4743957,26.2185557 C20.1530755,26.2185557 19.8561286,26.3898634 19.6952792,26.6680255 L10.7938455,42.0615649 C10.714657,42.1985082 10.672962,42.3539045 10.672962,42.5120951 C10.672962,43.0091514 11.0759058,43.4120951 11.572962,43.4120951 L37.5428533,43.4120951 C37.7026539,43.4120951 37.8595729,43.3695477 37.9974861,43.2888248 C38.4264621,43.0377381 38.5706698,42.4864383 38.319583,42.0574623 L38.319583,42.0574623 L29.3094886,26.6639229 C29.1480306,26.3880757 28.8523842,26.2185557 28.5327589,26.2185557 L20.4743957,26.2185557 Z" id="path-1"></path>
    </defs>
    <g id="Symbols" stroke="none" stroke-width="1" fill="none" fill-rule="evenodd">
        <g id="toolbar/icon/lab/filled">
            <mask id="mask-2" fill="white">
                <use xlink:href="#path-1"></use>
            </mask>
            <use id="Combined-Shape" fill="#52585B" fill-rule="nonzero" xlink:href="#path-1"></use>
            <g id="icon-color/default" mask="url(#mask-2)" fill="#414756">
                <rect id="Rectangle-15" x="0" y="0" width="50" height="50"></rect>
            </g>
        </g>
    </g>
</svg>