<?xml version="1.0" encoding="UTF-8"?>
<svg width="919px" height="498px" viewBox="0 0 919 498" version="1.1" xmlns="http://www.w3.org/2000/svg" xmlns:xlink="http://www.w3.org/1999/xlink">
    <!-- Generator: Sketch 60.1 (88133) - https://sketch.com -->
    <title>1-3.5s</title>
    <desc>Created with Sketch.</desc>
    <g id="1-3.5s" stroke="none" stroke-width="1" fill="none" fill-rule="evenodd">
        <rect id="Rectangle-7" fill="#E6E4E2" fill-rule="nonzero" opacity="0.300000012" x="77.168896" y="124" width="273.658537" height="42.2918697"></rect>
        <rect id="Rectangle-7" fill="#FFFFFF" fill-rule="nonzero" opacity="0.5" x="77.168896" y="166.292683" width="273.658537" height="84.5853659"></rect>
        <rect id="Rectangle-7" fill="#E6E4E2" fill-rule="nonzero" x="77.168896" y="81.7073171" width="273.658537" height="42.2918697"></rect>
        <rect id="Rectangle-7" fill="#B3B2B1" fill-rule="nonzero" x="77.17" y="40" width="273.658537" height="42.2918697"></rect>
        <rect id="Rectangle-7" fill="#B3B2B1" fill-rule="nonzero" x="77.17" y="335" width="273.658537" height="42.2918697"></rect>
        <rect id="Rectangle-7" fill="#E6E4E2" fill-rule="nonzero" opacity="0.300000012" x="77.168896" y="250.878049" width="273.658537" height="42.2918697"></rect>
        <rect id="Rectangle-7" fill="#E6E4E2" fill-rule="nonzero" x="77.168896" y="293.170732" width="273.658537" height="42.2918697"></rect>
        <line x1="77.168896" y1="208.212154" x2="350.827433" y2="208.212154" id="Line-Copy-7" stroke="#979797" stroke-linecap="square"></line>
        <path d="M53.7280057,84.4847073 L53.7280057,86.4062073 L55.5595057,86.4062073 L55.5595057,87.0137073 L53.7280057,87.0137073 L53.7280057,88.9487073 L53.0710057,88.9487073 L53.0710057,87.0137073 L51.2485057,87.0137073 L51.2485057,86.4062073 L53.0710057,86.4062073 L53.0710057,84.4847073 L53.7280057,84.4847073 Z M53.7280057,43.4847073 L53.7280057,45.4062073 L55.5595057,45.4062073 L55.5595057,46.0137073 L53.7280057,46.0137073 L53.7280057,47.9487073 L53.0710057,47.9487073 L53.0710057,46.0137073 L51.2485057,46.0137073 L51.2485057,45.4062073 L53.0710057,45.4062073 L53.0710057,43.4847073 L53.7280057,43.4847073 Z M58.8085057,83.2112073 C59.0815071,83.2112073 59.3335046,83.2502069 59.5645057,83.3282073 C59.7955069,83.4062077 59.9942549,83.5172066 60.1607557,83.6612073 C60.3272566,83.805208 60.4570053,83.9792063 60.5500057,84.1832073 C60.6430062,84.3872083 60.6895057,84.6137061 60.6895057,84.8627073 C60.6895057,85.0667083 60.663256,85.2489565 60.6107557,85.4094573 C60.5582555,85.5699581 60.4832562,85.7109567 60.3857557,85.8324573 C60.2882552,85.9539579 60.1705064,86.0567069 60.0325057,86.1407073 C59.894505,86.2247077 59.7400066,86.2922071 59.5690057,86.3432073 C59.9890078,86.4542079 60.3047547,86.640206 60.5162557,86.9012073 C60.7277568,87.1622086 60.8335057,87.4892054 60.8335057,87.8822073 C60.8335057,88.1792088 60.7772563,88.4462061 60.6647557,88.6832073 C60.5522552,88.9202085 60.3985067,89.1219565 60.2035057,89.2884573 C60.0085048,89.4549581 59.781257,89.5824569 59.5217557,89.6709573 C59.2622544,89.7594578 58.9840072,89.8037073 58.6870057,89.8037073 C58.345004,89.8037073 58.052507,89.7609577 57.8095057,89.6754573 C57.5665045,89.5899569 57.3610066,89.4722081 57.1930057,89.3222073 C57.0250049,89.1722066 56.8870063,88.9944583 56.7790057,88.7889573 C56.6710052,88.5834563 56.5795061,88.3607085 56.5045057,88.1207073 L56.8465057,87.9767073 C56.9095061,87.9497072 56.9725054,87.9362073 57.0355057,87.9362073 C57.095506,87.9362073 57.1487555,87.9489572 57.1952557,87.9744573 C57.241756,87.9999574 57.2770056,88.039707 57.3010057,88.0937073 C57.3070058,88.1057074 57.3130057,88.1184572 57.3190057,88.1319573 C57.3250058,88.1454574 57.3310057,88.1597072 57.3370057,88.1747073 C57.3790059,88.2617078 57.4300054,88.3599568 57.4900057,88.4694573 C57.550006,88.5789579 57.6310052,88.6817068 57.7330057,88.7777073 C57.8350062,88.8737078 57.961755,88.954707 58.1132557,89.0207073 C58.2647565,89.0867076 58.4530046,89.1197073 58.6780057,89.1197073 C58.9030069,89.1197073 59.1002549,89.0829577 59.2697557,89.0094573 C59.4392566,88.9359569 59.5802552,88.8407079 59.6927557,88.7237073 C59.8052563,88.6067067 59.8900055,88.476208 59.9470057,88.3322073 C60.004006,88.1882066 60.0325057,88.045708 60.0325057,87.9047073 C60.0325057,87.7307064 60.009256,87.571708 59.9627557,87.4277073 C59.9162555,87.2837066 59.8322563,87.1592078 59.7107557,87.0542073 C59.5892551,86.9492068 59.4212568,86.8667076 59.2067557,86.8067073 C58.9922547,86.746707 58.7170074,86.7167073 58.3810057,86.7167073 L58.3810057,86.1362073 C58.6540071,86.1332073 58.8872548,86.1032076 59.0807557,86.0462073 C59.2742567,85.989207 59.4325051,85.9112078 59.5555057,85.8122073 C59.6785064,85.7132068 59.7677555,85.594708 59.8232557,85.4567073 C59.878756,85.3187066 59.9065057,85.1657082 59.9065057,84.9977073 C59.9065057,84.8117064 59.877256,84.649708 59.8187557,84.5117073 C59.7602554,84.3737066 59.6800062,84.2597078 59.5780057,84.1697073 C59.4760052,84.0797069 59.3552564,84.0122075 59.2157557,83.9672073 C59.076255,83.9222071 58.9255065,83.8997073 58.7635057,83.8997073 C58.6015049,83.8997073 58.4515064,83.9237071 58.3135057,83.9717073 C58.175505,84.0197076 58.0532563,84.0864569 57.9467557,84.1719573 C57.8402552,84.2574577 57.7510061,84.3594567 57.6790057,84.4779573 C57.6070054,84.5964579 57.5530059,84.7247066 57.5170057,84.8627073 C57.4930056,84.9497078 57.457006,85.0127071 57.4090057,85.0517073 C57.3610055,85.0907075 57.2995061,85.1102073 57.2245057,85.1102073 C57.2095057,85.1102073 57.1937558,85.1094573 57.1772557,85.1079573 C57.1607557,85.1064573 57.1420058,85.1042073 57.1210057,85.1012073 L56.7025057,85.0292073 C56.7445059,84.7352058 56.8255051,84.4749584 56.9455057,84.2484573 C57.0655063,84.0219562 57.2177548,83.8322081 57.4022557,83.6792073 C57.5867567,83.5262066 57.7982545,83.4099577 58.0367557,83.3304573 C58.2752569,83.2509569 58.5325044,83.2112073 58.8085057,83.2112073 Z M64.5055057,85.9247073 C64.4695056,85.9907076 64.4140061,86.0237073 64.3390057,86.0237073 C64.2940055,86.0237073 64.243006,86.0072075 64.1860057,85.9742073 C64.1290054,85.9412072 64.0592561,85.9044575 63.9767557,85.8639573 C63.8942553,85.8234571 63.7960063,85.7859575 63.6820057,85.7514573 C63.5680052,85.7169571 63.4330065,85.6997073 63.2770057,85.6997073 C63.1420051,85.6997073 63.0205063,85.7169571 62.9125057,85.7514573 C62.8045052,85.7859575 62.7122561,85.833207 62.6357557,85.8932073 C62.5592553,85.9532076 62.5007559,86.0229569 62.4602557,86.1024573 C62.4197555,86.1819577 62.3995057,86.2682069 62.3995057,86.3612073 C62.3995057,86.4782079 62.4332554,86.5757069 62.5007557,86.6537073 C62.5682561,86.7317077 62.6575052,86.799207 62.7685057,86.8562073 C62.8795063,86.9132076 63.005505,86.9634571 63.1465057,87.0069573 C63.2875064,87.0504575 63.432255,87.0969571 63.5807557,87.1464573 C63.7292565,87.1959576 63.874005,87.250707 64.0150057,87.3107073 C64.1560064,87.3707076 64.2820052,87.4457069 64.3930057,87.5357073 C64.5040063,87.6257078 64.5932554,87.7359567 64.6607557,87.8664573 C64.7282561,87.996958 64.7620057,88.1537064 64.7620057,88.3367073 C64.7620057,88.5467084 64.7245061,88.7409564 64.6495057,88.9194573 C64.5745054,89.0979582 64.4635065,89.2524567 64.3165057,89.3829573 C64.169505,89.513458 63.9895068,89.6162069 63.7765057,89.6912073 C63.5635047,89.7662077 63.3175071,89.8037073 63.0385057,89.8037073 C62.7205041,89.8037073 62.432507,89.7519578 62.1745057,89.6484573 C61.9165044,89.5449568 61.6975066,89.4122081 61.5175057,89.2502073 L61.7065057,88.9442073 C61.7305059,88.9052071 61.7590056,88.8752074 61.7920057,88.8542073 C61.8250059,88.8332072 61.8685055,88.8227073 61.9225057,88.8227073 C61.976506,88.8227073 62.0335054,88.8437071 62.0935057,88.8857073 C62.153506,88.9277075 62.2262553,88.9742071 62.3117557,89.0252073 C62.3972562,89.0762076 62.5007551,89.1227071 62.6222557,89.1647073 C62.7437563,89.2067075 62.8960048,89.2277073 63.0790057,89.2277073 C63.2350065,89.2277073 63.3715051,89.2074575 63.4885057,89.1669573 C63.6055063,89.1264571 63.7030053,89.0717077 63.7810057,89.0027073 C63.8590061,88.933707 63.9167555,88.8542078 63.9542557,88.7642073 C63.9917559,88.6742069 64.0105057,88.5782078 64.0105057,88.4762073 C64.0105057,88.3502067 63.9767561,88.2459577 63.9092557,88.1634573 C63.8417554,88.0809569 63.7525063,88.0104576 63.6415057,87.9519573 C63.5305052,87.893457 63.4037564,87.8424575 63.2612557,87.7989573 C63.118755,87.7554571 62.9732565,87.7097076 62.8247557,87.6617073 C62.676255,87.6137071 62.5307564,87.5589576 62.3882557,87.4974573 C62.245755,87.435957 62.1190063,87.3587078 62.0080057,87.2657073 C61.8970052,87.1727069 61.8077561,87.057958 61.7402557,86.9214573 C61.6727554,86.7849566 61.6390057,86.6192083 61.6390057,86.4242073 C61.6390057,86.2502064 61.6750054,86.0829581 61.7470057,85.9224573 C61.8190061,85.7619565 61.924005,85.6209579 62.0620057,85.4994573 C62.2000064,85.3779567 62.3695047,85.2812077 62.5705057,85.2092073 C62.7715067,85.137207 63.0010044,85.1012073 63.2590057,85.1012073 C63.5590072,85.1012073 63.8282545,85.1484568 64.0667557,85.2429573 C64.3052569,85.3374578 64.5115049,85.4672065 64.6855057,85.6322073 L64.5055057,85.9247073 Z M64.5055057,44.9247073 C64.4695056,44.9907076 64.4140061,45.0237073 64.3390057,45.0237073 C64.2940055,45.0237073 64.243006,45.0072075 64.1860057,44.9742073 C64.1290054,44.9412072 64.0592561,44.9044575 63.9767557,44.8639573 C63.8942553,44.8234571 63.7960063,44.7859575 63.6820057,44.7514573 C63.5680052,44.7169571 63.4330065,44.6997073 63.2770057,44.6997073 C63.1420051,44.6997073 63.0205063,44.7169571 62.9125057,44.7514573 C62.8045052,44.7859575 62.7122561,44.833207 62.6357557,44.8932073 C62.5592553,44.9532076 62.5007559,45.0229569 62.4602557,45.1024573 C62.4197555,45.1819577 62.3995057,45.2682069 62.3995057,45.3612073 C62.3995057,45.4782079 62.4332554,45.5757069 62.5007557,45.6537073 C62.5682561,45.7317077 62.6575052,45.799207 62.7685057,45.8562073 C62.8795063,45.9132076 63.005505,45.9634571 63.1465057,46.0069573 C63.2875064,46.0504575 63.432255,46.0969571 63.5807557,46.1464573 C63.7292565,46.1959576 63.874005,46.250707 64.0150057,46.3107073 C64.1560064,46.3707076 64.2820052,46.4457069 64.3930057,46.5357073 C64.5040063,46.6257078 64.5932554,46.7359567 64.6607557,46.8664573 C64.7282561,46.996958 64.7620057,47.1537064 64.7620057,47.3367073 C64.7620057,47.5467084 64.7245061,47.7409564 64.6495057,47.9194573 C64.5745054,48.0979582 64.4635065,48.2524567 64.3165057,48.3829573 C64.169505,48.513458 63.9895068,48.6162069 63.7765057,48.6912073 C63.5635047,48.7662077 63.3175071,48.8037073 63.0385057,48.8037073 C62.7205041,48.8037073 62.432507,48.7519578 62.1745057,48.6484573 C61.9165044,48.5449568 61.6975066,48.4122081 61.5175057,48.2502073 L61.7065057,47.9442073 C61.7305059,47.9052071 61.7590056,47.8752074 61.7920057,47.8542073 C61.8250059,47.8332072 61.8685055,47.8227073 61.9225057,47.8227073 C61.976506,47.8227073 62.0335054,47.8437071 62.0935057,47.8857073 C62.153506,47.9277075 62.2262553,47.9742071 62.3117557,48.0252073 C62.3972562,48.0762076 62.5007551,48.1227071 62.6222557,48.1647073 C62.7437563,48.2067075 62.8960048,48.2277073 63.0790057,48.2277073 C63.2350065,48.2277073 63.3715051,48.2074575 63.4885057,48.1669573 C63.6055063,48.1264571 63.7030053,48.0717077 63.7810057,48.0027073 C63.8590061,47.933707 63.9167555,47.8542078 63.9542557,47.7642073 C63.9917559,47.6742069 64.0105057,47.5782078 64.0105057,47.4762073 C64.0105057,47.3502067 63.9767561,47.2459577 63.9092557,47.1634573 C63.8417554,47.0809569 63.7525063,47.0104576 63.6415057,46.9519573 C63.5305052,46.893457 63.4037564,46.8424575 63.2612557,46.7989573 C63.118755,46.7554571 62.9732565,46.7097076 62.8247557,46.6617073 C62.676255,46.6137071 62.5307564,46.5589576 62.3882557,46.4974573 C62.245755,46.435957 62.1190063,46.3587078 62.0080057,46.2657073 C61.8970052,46.1727069 61.8077561,46.057958 61.7402557,45.9214573 C61.6727554,45.7849566 61.6390057,45.6192083 61.6390057,45.4242073 C61.6390057,45.2502064 61.6750054,45.0829581 61.7470057,44.9224573 C61.8190061,44.7619565 61.924005,44.6209579 62.0620057,44.4994573 C62.2000064,44.3779567 62.3695047,44.2812077 62.5705057,44.2092073 C62.7715067,44.137207 63.0010044,44.1012073 63.2590057,44.1012073 C63.5590072,44.1012073 63.8282545,44.1484568 64.0667557,44.2429573 C64.3052569,44.3374578 64.5115049,44.4672065 64.6855057,44.6322073 L64.5055057,44.9247073 Z M53.7280057,125.484707 L53.7280057,127.406207 L55.5595057,127.406207 L55.5595057,128.013707 L53.7280057,128.013707 L53.7280057,129.948707 L53.0710057,129.948707 L53.0710057,128.013707 L51.2485057,128.013707 L51.2485057,127.406207 L53.0710057,127.406207 L53.0710057,125.484707 L53.7280057,125.484707 Z M58.7230057,124.211207 C58.9960071,124.211207 59.2510046,124.251707 59.4880057,124.332707 C59.7250069,124.413708 59.9297549,124.531456 60.1022557,124.685957 C60.2747566,124.840458 60.4105052,125.028706 60.5095057,125.250707 C60.6085062,125.472708 60.6580057,125.724706 60.6580057,126.006707 C60.6580057,126.246708 60.6220061,126.468706 60.5500057,126.672707 C60.4780054,126.876708 60.3805064,127.072456 60.2575057,127.259957 C60.1345051,127.447458 59.9927565,127.628956 59.8322557,127.804457 C59.6717549,127.979958 59.5015066,128.159206 59.3215057,128.342207 L57.6250057,130.079207 C57.7450063,130.046207 57.8665051,130.019957 57.9895057,130.000457 C58.1125064,129.980957 58.2310052,129.971207 58.3450057,129.971207 L60.5050057,129.971207 C60.5920062,129.971207 60.6610055,129.996707 60.7120057,130.047707 C60.763006,130.098708 60.7885057,130.164707 60.7885057,130.245707 L60.7885057,130.731707 L56.4865057,130.731707 L56.4865057,130.457207 C56.4865057,130.400207 56.4977556,130.341708 56.5202557,130.281707 C56.5427558,130.221707 56.5795055,130.166208 56.6305057,130.115207 L58.6960057,128.040707 C58.8670066,127.866706 59.023005,127.699458 59.1640057,127.538957 C59.3050064,127.378456 59.4257552,127.217208 59.5262557,127.055207 C59.6267562,126.893206 59.7040055,126.728958 59.7580057,126.562457 C59.812006,126.395956 59.8390057,126.218208 59.8390057,126.029207 C59.8390057,125.840206 59.809006,125.674458 59.7490057,125.531957 C59.6890054,125.389457 59.6065063,125.271708 59.5015057,125.178707 C59.3965052,125.085707 59.2735064,125.015957 59.1325057,124.969457 C58.991505,124.922957 58.8400065,124.899707 58.6780057,124.899707 C58.5160049,124.899707 58.3660064,124.923707 58.2280057,124.971707 C58.090005,125.019708 57.9677563,125.086457 57.8612557,125.171957 C57.7547552,125.257458 57.6647561,125.358707 57.5912557,125.475707 C57.5177554,125.592708 57.4660059,125.721707 57.4360057,125.862707 C57.4120056,125.949708 57.376006,126.012707 57.3280057,126.051707 C57.2800055,126.090707 57.2170061,126.110207 57.1390057,126.110207 C57.1240057,126.110207 57.1082558,126.109457 57.0917557,126.107957 C57.0752557,126.106457 57.0565058,126.104207 57.0355057,126.101207 L56.6170057,126.029207 C56.6590059,125.735206 56.7400051,125.474958 56.8600057,125.248457 C56.9800063,125.021956 57.1322548,124.832208 57.3167557,124.679207 C57.5012567,124.526207 57.7127545,124.409958 57.9512557,124.330457 C58.1897569,124.250957 58.4470044,124.211207 58.7230057,124.211207 Z M64.5055057,126.924707 C64.4695056,126.990708 64.4140061,127.023707 64.3390057,127.023707 C64.2940055,127.023707 64.243006,127.007207 64.1860057,126.974207 C64.1290054,126.941207 64.0592561,126.904457 63.9767557,126.863957 C63.8942553,126.823457 63.7960063,126.785957 63.6820057,126.751457 C63.5680052,126.716957 63.4330065,126.699707 63.2770057,126.699707 C63.1420051,126.699707 63.0205063,126.716957 62.9125057,126.751457 C62.8045052,126.785957 62.7122561,126.833207 62.6357557,126.893207 C62.5592553,126.953208 62.5007559,127.022957 62.4602557,127.102457 C62.4197555,127.181958 62.3995057,127.268207 62.3995057,127.361207 C62.3995057,127.478208 62.4332554,127.575707 62.5007557,127.653707 C62.5682561,127.731708 62.6575052,127.799207 62.7685057,127.856207 C62.8795063,127.913208 63.005505,127.963457 63.1465057,128.006957 C63.2875064,128.050457 63.432255,128.096957 63.5807557,128.146457 C63.7292565,128.195958 63.874005,128.250707 64.0150057,128.310707 C64.1560064,128.370708 64.2820052,128.445707 64.3930057,128.535707 C64.5040063,128.625708 64.5932554,128.735957 64.6607557,128.866457 C64.7282561,128.996958 64.7620057,129.153706 64.7620057,129.336707 C64.7620057,129.546708 64.7245061,129.740956 64.6495057,129.919457 C64.5745054,130.097958 64.4635065,130.252457 64.3165057,130.382957 C64.169505,130.513458 63.9895068,130.616207 63.7765057,130.691207 C63.5635047,130.766208 63.3175071,130.803707 63.0385057,130.803707 C62.7205041,130.803707 62.432507,130.751958 62.1745057,130.648457 C61.9165044,130.544957 61.6975066,130.412208 61.5175057,130.250207 L61.7065057,129.944207 C61.7305059,129.905207 61.7590056,129.875207 61.7920057,129.854207 C61.8250059,129.833207 61.8685055,129.822707 61.9225057,129.822707 C61.976506,129.822707 62.0335054,129.843707 62.0935057,129.885707 C62.153506,129.927707 62.2262553,129.974207 62.3117557,130.025207 C62.3972562,130.076208 62.5007551,130.122707 62.6222557,130.164707 C62.7437563,130.206707 62.8960048,130.227707 63.0790057,130.227707 C63.2350065,130.227707 63.3715051,130.207457 63.4885057,130.166957 C63.6055063,130.126457 63.7030053,130.071708 63.7810057,130.002707 C63.8590061,129.933707 63.9167555,129.854208 63.9542557,129.764207 C63.9917559,129.674207 64.0105057,129.578208 64.0105057,129.476207 C64.0105057,129.350207 63.9767561,129.245958 63.9092557,129.163457 C63.8417554,129.080957 63.7525063,129.010458 63.6415057,128.951957 C63.5305052,128.893457 63.4037564,128.842457 63.2612557,128.798957 C63.118755,128.755457 62.9732565,128.709708 62.8247557,128.661707 C62.676255,128.613707 62.5307564,128.558958 62.3882557,128.497457 C62.245755,128.435957 62.1190063,128.358708 62.0080057,128.265707 C61.8970052,128.172707 61.8077561,128.057958 61.7402557,127.921457 C61.6727554,127.784957 61.6390057,127.619208 61.6390057,127.424207 C61.6390057,127.250206 61.6750054,127.082958 61.7470057,126.922457 C61.8190061,126.761956 61.924005,126.620958 62.0620057,126.499457 C62.2000064,126.377957 62.3695047,126.281208 62.5705057,126.209207 C62.7715067,126.137207 63.0010044,126.101207 63.2590057,126.101207 C63.5590072,126.101207 63.8282545,126.148457 64.0667557,126.242957 C64.3052569,126.337458 64.5115049,126.467206 64.6855057,126.632207 L64.5055057,126.924707 Z M53.7280057,166.484707 L53.7280057,168.406207 L55.5595057,168.406207 L55.5595057,169.013707 L53.7280057,169.013707 L53.7280057,170.948707 L53.0710057,170.948707 L53.0710057,169.013707 L51.2485057,169.013707 L51.2485057,168.406207 L53.0710057,168.406207 L53.0710057,166.484707 L53.7280057,166.484707 Z M57.3100057,171.119707 L58.6960057,171.119707 L58.6960057,166.723207 C58.6960057,166.591207 58.7005057,166.457708 58.7095057,166.322707 L57.5575057,167.308207 C57.5275056,167.332207 57.4975059,167.349457 57.4675057,167.359957 C57.4375056,167.370457 57.4090059,167.375707 57.3820057,167.375707 C57.3370055,167.375707 57.2965059,167.365957 57.2605057,167.346457 C57.2245056,167.326957 57.1975058,167.303707 57.1795057,167.276707 L56.9275057,166.930207 L58.8445057,165.269707 L59.4970057,165.269707 L59.4970057,171.119707 L60.7660057,171.119707 L60.7660057,171.731707 L57.3100057,171.731707 L57.3100057,171.119707 Z M64.5055057,167.924707 C64.4695056,167.990708 64.4140061,168.023707 64.3390057,168.023707 C64.2940055,168.023707 64.243006,168.007207 64.1860057,167.974207 C64.1290054,167.941207 64.0592561,167.904458 63.9767557,167.863957 C63.8942553,167.823457 63.7960063,167.785957 63.6820057,167.751457 C63.5680052,167.716957 63.4330065,167.699707 63.2770057,167.699707 C63.1420051,167.699707 63.0205063,167.716957 62.9125057,167.751457 C62.8045052,167.785957 62.7122561,167.833207 62.6357557,167.893207 C62.5592553,167.953208 62.5007559,168.022957 62.4602557,168.102457 C62.4197555,168.181958 62.3995057,168.268207 62.3995057,168.361207 C62.3995057,168.478208 62.4332554,168.575707 62.5007557,168.653707 C62.5682561,168.731708 62.6575052,168.799207 62.7685057,168.856207 C62.8795063,168.913208 63.005505,168.963457 63.1465057,169.006957 C63.2875064,169.050458 63.432255,169.096957 63.5807557,169.146457 C63.7292565,169.195958 63.874005,169.250707 64.0150057,169.310707 C64.1560064,169.370708 64.2820052,169.445707 64.3930057,169.535707 C64.5040063,169.625708 64.5932554,169.735957 64.6607557,169.866457 C64.7282561,169.996958 64.7620057,170.153706 64.7620057,170.336707 C64.7620057,170.546708 64.7245061,170.740956 64.6495057,170.919457 C64.5745054,171.097958 64.4635065,171.252457 64.3165057,171.382957 C64.169505,171.513458 63.9895068,171.616207 63.7765057,171.691207 C63.5635047,171.766208 63.3175071,171.803707 63.0385057,171.803707 C62.7205041,171.803707 62.432507,171.751958 62.1745057,171.648457 C61.9165044,171.544957 61.6975066,171.412208 61.5175057,171.250207 L61.7065057,170.944207 C61.7305059,170.905207 61.7590056,170.875207 61.7920057,170.854207 C61.8250059,170.833207 61.8685055,170.822707 61.9225057,170.822707 C61.976506,170.822707 62.0335054,170.843707 62.0935057,170.885707 C62.153506,170.927708 62.2262553,170.974207 62.3117557,171.025207 C62.3972562,171.076208 62.5007551,171.122707 62.6222557,171.164707 C62.7437563,171.206708 62.8960048,171.227707 63.0790057,171.227707 C63.2350065,171.227707 63.3715051,171.207458 63.4885057,171.166957 C63.6055063,171.126457 63.7030053,171.071708 63.7810057,171.002707 C63.8590061,170.933707 63.9167555,170.854208 63.9542557,170.764207 C63.9917559,170.674207 64.0105057,170.578208 64.0105057,170.476207 C64.0105057,170.350207 63.9767561,170.245958 63.9092557,170.163457 C63.8417554,170.080957 63.7525063,170.010458 63.6415057,169.951957 C63.5305052,169.893457 63.4037564,169.842458 63.2612557,169.798957 C63.118755,169.755457 62.9732565,169.709708 62.8247557,169.661707 C62.676255,169.613707 62.5307564,169.558958 62.3882557,169.497457 C62.245755,169.435957 62.1190063,169.358708 62.0080057,169.265707 C61.8970052,169.172707 61.8077561,169.057958 61.7402557,168.921457 C61.6727554,168.784957 61.6390057,168.619208 61.6390057,168.424207 C61.6390057,168.250206 61.6750054,168.082958 61.7470057,167.922457 C61.8190061,167.761957 61.924005,167.620958 62.0620057,167.499457 C62.2000064,167.377957 62.3695047,167.281208 62.5705057,167.209207 C62.7715067,167.137207 63.0010044,167.101207 63.2590057,167.101207 C63.5590072,167.101207 63.8282545,167.148457 64.0667557,167.242957 C64.3052569,167.337458 64.5115049,167.467206 64.6855057,167.632207 L64.5055057,167.924707 Z M53.3455057,250.694207 L55.5685057,250.694207 L55.5685057,251.373707 L53.3455057,251.373707 L53.3455057,250.694207 Z M57.3100057,253.119707 L58.6960057,253.119707 L58.6960057,248.723207 C58.6960057,248.591207 58.7005057,248.457708 58.7095057,248.322707 L57.5575057,249.308207 C57.5275056,249.332207 57.4975059,249.349457 57.4675057,249.359957 C57.4375056,249.370457 57.4090059,249.375707 57.3820057,249.375707 C57.3370055,249.375707 57.2965059,249.365957 57.2605057,249.346457 C57.2245056,249.326957 57.1975058,249.303707 57.1795057,249.276707 L56.9275057,248.930207 L58.8445057,247.269707 L59.4970057,247.269707 L59.4970057,253.119707 L60.7660057,253.119707 L60.7660057,253.731707 L57.3100057,253.731707 L57.3100057,253.119707 Z M64.5055057,249.924707 C64.4695056,249.990708 64.4140061,250.023707 64.3390057,250.023707 C64.2940055,250.023707 64.243006,250.007207 64.1860057,249.974207 C64.1290054,249.941207 64.0592561,249.904458 63.9767557,249.863957 C63.8942553,249.823457 63.7960063,249.785957 63.6820057,249.751457 C63.5680052,249.716957 63.4330065,249.699707 63.2770057,249.699707 C63.1420051,249.699707 63.0205063,249.716957 62.9125057,249.751457 C62.8045052,249.785957 62.7122561,249.833207 62.6357557,249.893207 C62.5592553,249.953208 62.5007559,250.022957 62.4602557,250.102457 C62.4197555,250.181958 62.3995057,250.268207 62.3995057,250.361207 C62.3995057,250.478208 62.4332554,250.575707 62.5007557,250.653707 C62.5682561,250.731708 62.6575052,250.799207 62.7685057,250.856207 C62.8795063,250.913208 63.005505,250.963457 63.1465057,251.006957 C63.2875064,251.050458 63.432255,251.096957 63.5807557,251.146457 C63.7292565,251.195958 63.874005,251.250707 64.0150057,251.310707 C64.1560064,251.370708 64.2820052,251.445707 64.3930057,251.535707 C64.5040063,251.625708 64.5932554,251.735957 64.6607557,251.866457 C64.7282561,251.996958 64.7620057,252.153706 64.7620057,252.336707 C64.7620057,252.546708 64.7245061,252.740956 64.6495057,252.919457 C64.5745054,253.097958 64.4635065,253.252457 64.3165057,253.382957 C64.169505,253.513458 63.9895068,253.616207 63.7765057,253.691207 C63.5635047,253.766208 63.3175071,253.803707 63.0385057,253.803707 C62.7205041,253.803707 62.432507,253.751958 62.1745057,253.648457 C61.9165044,253.544957 61.6975066,253.412208 61.5175057,253.250207 L61.7065057,252.944207 C61.7305059,252.905207 61.7590056,252.875207 61.7920057,252.854207 C61.8250059,252.833207 61.8685055,252.822707 61.9225057,252.822707 C61.976506,252.822707 62.0335054,252.843707 62.0935057,252.885707 C62.153506,252.927708 62.2262553,252.974207 62.3117557,253.025207 C62.3972562,253.076208 62.5007551,253.122707 62.6222557,253.164707 C62.7437563,253.206708 62.8960048,253.227707 63.0790057,253.227707 C63.2350065,253.227707 63.3715051,253.207458 63.4885057,253.166957 C63.6055063,253.126457 63.7030053,253.071708 63.7810057,253.002707 C63.8590061,252.933707 63.9167555,252.854208 63.9542557,252.764207 C63.9917559,252.674207 64.0105057,252.578208 64.0105057,252.476207 C64.0105057,252.350207 63.9767561,252.245958 63.9092557,252.163457 C63.8417554,252.080957 63.7525063,252.010458 63.6415057,251.951957 C63.5305052,251.893457 63.4037564,251.842458 63.2612557,251.798957 C63.118755,251.755457 62.9732565,251.709708 62.8247557,251.661707 C62.676255,251.613707 62.5307564,251.558958 62.3882557,251.497457 C62.245755,251.435957 62.1190063,251.358708 62.0080057,251.265707 C61.8970052,251.172707 61.8077561,251.057958 61.7402557,250.921457 C61.6727554,250.784957 61.6390057,250.619208 61.6390057,250.424207 C61.6390057,250.250206 61.6750054,250.082958 61.7470057,249.922457 C61.8190061,249.761957 61.924005,249.620958 62.0620057,249.499457 C62.2000064,249.377957 62.3695047,249.281208 62.5705057,249.209207 C62.7715067,249.137207 63.0010044,249.101207 63.2590057,249.101207 C63.5590072,249.101207 63.8282545,249.148457 64.0667557,249.242957 C64.3052569,249.337458 64.5115049,249.467206 64.6855057,249.632207 L64.5055057,249.924707 Z M53.3455057,291.694207 L55.5685057,291.694207 L55.5685057,292.373707 L53.3455057,292.373707 L53.3455057,291.694207 Z M58.7230057,288.211207 C58.9960071,288.211207 59.2510046,288.251707 59.4880057,288.332707 C59.7250069,288.413708 59.9297549,288.531457 60.1022557,288.685957 C60.2747566,288.840458 60.4105052,289.028706 60.5095057,289.250707 C60.6085062,289.472708 60.6580057,289.724706 60.6580057,290.006707 C60.6580057,290.246709 60.6220061,290.468706 60.5500057,290.672707 C60.4780054,290.876708 60.3805064,291.072456 60.2575057,291.259957 C60.1345051,291.447458 59.9927565,291.628956 59.8322557,291.804457 C59.6717549,291.979958 59.5015066,292.159206 59.3215057,292.342207 L57.6250057,294.079207 C57.7450063,294.046207 57.8665051,294.019957 57.9895057,294.000457 C58.1125064,293.980957 58.2310052,293.971207 58.3450057,293.971207 L60.5050057,293.971207 C60.5920062,293.971207 60.6610055,293.996707 60.7120057,294.047707 C60.763006,294.098708 60.7885057,294.164707 60.7885057,294.245707 L60.7885057,294.731707 L56.4865057,294.731707 L56.4865057,294.457207 C56.4865057,294.400207 56.4977556,294.341708 56.5202557,294.281707 C56.5427558,294.221707 56.5795055,294.166208 56.6305057,294.115207 L58.6960057,292.040707 C58.8670066,291.866706 59.023005,291.699458 59.1640057,291.538957 C59.3050064,291.378457 59.4257552,291.217208 59.5262557,291.055207 C59.6267562,290.893207 59.7040055,290.728958 59.7580057,290.562457 C59.812006,290.395956 59.8390057,290.218208 59.8390057,290.029207 C59.8390057,289.840206 59.809006,289.674458 59.7490057,289.531957 C59.6890054,289.389457 59.6065063,289.271708 59.5015057,289.178707 C59.3965052,289.085707 59.2735064,289.015958 59.1325057,288.969457 C58.991505,288.922957 58.8400065,288.899707 58.6780057,288.899707 C58.5160049,288.899707 58.3660064,288.923707 58.2280057,288.971707 C58.090005,289.019708 57.9677563,289.086457 57.8612557,289.171957 C57.7547552,289.257458 57.6647561,289.358707 57.5912557,289.475707 C57.5177554,289.592708 57.4660059,289.721707 57.4360057,289.862707 C57.4120056,289.949708 57.376006,290.012707 57.3280057,290.051707 C57.2800055,290.090708 57.2170061,290.110207 57.1390057,290.110207 C57.1240057,290.110207 57.1082558,290.109457 57.0917557,290.107957 C57.0752557,290.106457 57.0565058,290.104207 57.0355057,290.101207 L56.6170057,290.029207 C56.6590059,289.735206 56.7400051,289.474958 56.8600057,289.248457 C56.9800063,289.021956 57.1322548,288.832208 57.3167557,288.679207 C57.5012567,288.526207 57.7127545,288.409958 57.9512557,288.330457 C58.1897569,288.250957 58.4470044,288.211207 58.7230057,288.211207 Z M64.5055057,290.924707 C64.4695056,290.990708 64.4140061,291.023707 64.3390057,291.023707 C64.2940055,291.023707 64.243006,291.007207 64.1860057,290.974207 C64.1290054,290.941207 64.0592561,290.904458 63.9767557,290.863957 C63.8942553,290.823457 63.7960063,290.785957 63.6820057,290.751457 C63.5680052,290.716957 63.4330065,290.699707 63.2770057,290.699707 C63.1420051,290.699707 63.0205063,290.716957 62.9125057,290.751457 C62.8045052,290.785957 62.7122561,290.833207 62.6357557,290.893207 C62.5592553,290.953208 62.5007559,291.022957 62.4602557,291.102457 C62.4197555,291.181958 62.3995057,291.268207 62.3995057,291.361207 C62.3995057,291.478208 62.4332554,291.575707 62.5007557,291.653707 C62.5682561,291.731708 62.6575052,291.799207 62.7685057,291.856207 C62.8795063,291.913208 63.005505,291.963457 63.1465057,292.006957 C63.2875064,292.050458 63.432255,292.096957 63.5807557,292.146457 C63.7292565,292.195958 63.874005,292.250707 64.0150057,292.310707 C64.1560064,292.370708 64.2820052,292.445707 64.3930057,292.535707 C64.5040063,292.625708 64.5932554,292.735957 64.6607557,292.866457 C64.7282561,292.996958 64.7620057,293.153706 64.7620057,293.336707 C64.7620057,293.546708 64.7245061,293.740956 64.6495057,293.919457 C64.5745054,294.097958 64.4635065,294.252457 64.3165057,294.382957 C64.169505,294.513458 63.9895068,294.616207 63.7765057,294.691207 C63.5635047,294.766208 63.3175071,294.803707 63.0385057,294.803707 C62.7205041,294.803707 62.432507,294.751958 62.1745057,294.648457 C61.9165044,294.544957 61.6975066,294.412208 61.5175057,294.250207 L61.7065057,293.944207 C61.7305059,293.905207 61.7590056,293.875207 61.7920057,293.854207 C61.8250059,293.833207 61.8685055,293.822707 61.9225057,293.822707 C61.976506,293.822707 62.0335054,293.843707 62.0935057,293.885707 C62.153506,293.927708 62.2262553,293.974207 62.3117557,294.025207 C62.3972562,294.076208 62.5007551,294.122707 62.6222557,294.164707 C62.7437563,294.206708 62.8960048,294.227707 63.0790057,294.227707 C63.2350065,294.227707 63.3715051,294.207458 63.4885057,294.166957 C63.6055063,294.126457 63.7030053,294.071708 63.7810057,294.002707 C63.8590061,293.933707 63.9167555,293.854208 63.9542557,293.764207 C63.9917559,293.674207 64.0105057,293.578208 64.0105057,293.476207 C64.0105057,293.350207 63.9767561,293.245958 63.9092557,293.163457 C63.8417554,293.080957 63.7525063,293.010458 63.6415057,292.951957 C63.5305052,292.893457 63.4037564,292.842458 63.2612557,292.798957 C63.118755,292.755457 62.9732565,292.709708 62.8247557,292.661707 C62.676255,292.613707 62.5307564,292.558958 62.3882557,292.497457 C62.245755,292.435957 62.1190063,292.358708 62.0080057,292.265707 C61.8970052,292.172707 61.8077561,292.057958 61.7402557,291.921457 C61.6727554,291.784957 61.6390057,291.619208 61.6390057,291.424207 C61.6390057,291.250206 61.6750054,291.082958 61.7470057,290.922457 C61.8190061,290.761957 61.924005,290.620958 62.0620057,290.499457 C62.2000064,290.377957 62.3695047,290.281208 62.5705057,290.209207 C62.7715067,290.137207 63.0010044,290.101207 63.2590057,290.101207 C63.5590072,290.101207 63.8282545,290.148457 64.0667557,290.242957 C64.3052569,290.337458 64.5115049,290.467206 64.6855057,290.632207 L64.5055057,290.924707 Z M53.3455057,332.694207 L55.5685057,332.694207 L55.5685057,333.373707 L53.3455057,333.373707 L53.3455057,332.694207 Z M53.3455057,373.694207 L55.5685057,373.694207 L55.5685057,374.373707 L53.3455057,374.373707 L53.3455057,373.694207 Z M58.8085057,329.211207 C59.0815071,329.211207 59.3335046,329.250207 59.5645057,329.328207 C59.7955069,329.406208 59.9942549,329.517207 60.1607557,329.661207 C60.3272566,329.805208 60.4570053,329.979206 60.5500057,330.183207 C60.6430062,330.387208 60.6895057,330.613706 60.6895057,330.862707 C60.6895057,331.066708 60.663256,331.248957 60.6107557,331.409457 C60.5582555,331.569958 60.4832562,331.710957 60.3857557,331.832457 C60.2882552,331.953958 60.1705064,332.056707 60.0325057,332.140707 C59.894505,332.224708 59.7400066,332.292207 59.5690057,332.343207 C59.9890078,332.454208 60.3047547,332.640206 60.5162557,332.901207 C60.7277568,333.162209 60.8335057,333.489205 60.8335057,333.882207 C60.8335057,334.179209 60.7772563,334.446206 60.6647557,334.683207 C60.5522552,334.920209 60.3985067,335.121956 60.2035057,335.288457 C60.0085048,335.454958 59.781257,335.582457 59.5217557,335.670957 C59.2622544,335.759458 58.9840072,335.803707 58.6870057,335.803707 C58.345004,335.803707 58.052507,335.760958 57.8095057,335.675457 C57.5665045,335.589957 57.3610066,335.472208 57.1930057,335.322207 C57.0250049,335.172207 56.8870063,334.994458 56.7790057,334.788957 C56.6710052,334.583456 56.5795061,334.360709 56.5045057,334.120707 L56.8465057,333.976707 C56.9095061,333.949707 56.9725054,333.936207 57.0355057,333.936207 C57.095506,333.936207 57.1487555,333.948957 57.1952557,333.974457 C57.241756,333.999957 57.2770056,334.039707 57.3010057,334.093707 C57.3070058,334.105707 57.3130057,334.118457 57.3190057,334.131957 C57.3250058,334.145457 57.3310057,334.159707 57.3370057,334.174707 C57.3790059,334.261708 57.4300054,334.359957 57.4900057,334.469457 C57.550006,334.578958 57.6310052,334.681707 57.7330057,334.777707 C57.8350062,334.873708 57.961755,334.954707 58.1132557,335.020707 C58.2647565,335.086708 58.4530046,335.119707 58.6780057,335.119707 C58.9030069,335.119707 59.1002549,335.082958 59.2697557,335.009457 C59.4392566,334.935957 59.5802552,334.840708 59.6927557,334.723707 C59.8052563,334.606707 59.8900055,334.476208 59.9470057,334.332207 C60.004006,334.188207 60.0325057,334.045708 60.0325057,333.904707 C60.0325057,333.730706 60.009256,333.571708 59.9627557,333.427707 C59.9162555,333.283707 59.8322563,333.159208 59.7107557,333.054207 C59.5892551,332.949207 59.4212568,332.866708 59.2067557,332.806707 C58.9922547,332.746707 58.7170074,332.716707 58.3810057,332.716707 L58.3810057,332.136207 C58.6540071,332.133207 58.8872548,332.103208 59.0807557,332.046207 C59.2742567,331.989207 59.4325051,331.911208 59.5555057,331.812207 C59.6785064,331.713207 59.7677555,331.594708 59.8232557,331.456707 C59.878756,331.318707 59.9065057,331.165708 59.9065057,330.997707 C59.9065057,330.811706 59.877256,330.649708 59.8187557,330.511707 C59.7602554,330.373707 59.6800062,330.259708 59.5780057,330.169707 C59.4760052,330.079707 59.3552564,330.012208 59.2157557,329.967207 C59.076255,329.922207 58.9255065,329.899707 58.7635057,329.899707 C58.6015049,329.899707 58.4515064,329.923707 58.3135057,329.971707 C58.175505,330.019708 58.0532563,330.086457 57.9467557,330.171957 C57.8402552,330.257458 57.7510061,330.359457 57.6790057,330.477957 C57.6070054,330.596458 57.5530059,330.724707 57.5170057,330.862707 C57.4930056,330.949708 57.457006,331.012707 57.4090057,331.051707 C57.3610055,331.090708 57.2995061,331.110207 57.2245057,331.110207 C57.2095057,331.110207 57.1937558,331.109457 57.1772557,331.107957 C57.1607557,331.106457 57.1420058,331.104207 57.1210057,331.101207 L56.7025057,331.029207 C56.7445059,330.735206 56.8255051,330.474958 56.9455057,330.248457 C57.0655063,330.021956 57.2177548,329.832208 57.4022557,329.679207 C57.5867567,329.526207 57.7982545,329.409958 58.0367557,329.330457 C58.2752569,329.250957 58.5325044,329.211207 58.8085057,329.211207 Z M64.5055057,331.924707 C64.4695056,331.990708 64.4140061,332.023707 64.3390057,332.023707 C64.2940055,332.023707 64.243006,332.007207 64.1860057,331.974207 C64.1290054,331.941207 64.0592561,331.904458 63.9767557,331.863957 C63.8942553,331.823457 63.7960063,331.785957 63.6820057,331.751457 C63.5680052,331.716957 63.4330065,331.699707 63.2770057,331.699707 C63.1420051,331.699707 63.0205063,331.716957 62.9125057,331.751457 C62.8045052,331.785957 62.7122561,331.833207 62.6357557,331.893207 C62.5592553,331.953208 62.5007559,332.022957 62.4602557,332.102457 C62.4197555,332.181958 62.3995057,332.268207 62.3995057,332.361207 C62.3995057,332.478208 62.4332554,332.575707 62.5007557,332.653707 C62.5682561,332.731708 62.6575052,332.799207 62.7685057,332.856207 C62.8795063,332.913208 63.005505,332.963457 63.1465057,333.006957 C63.2875064,333.050458 63.432255,333.096957 63.5807557,333.146457 C63.7292565,333.195958 63.874005,333.250707 64.0150057,333.310707 C64.1560064,333.370708 64.2820052,333.445707 64.3930057,333.535707 C64.5040063,333.625708 64.5932554,333.735957 64.6607557,333.866457 C64.7282561,333.996958 64.7620057,334.153706 64.7620057,334.336707 C64.7620057,334.546708 64.7245061,334.740956 64.6495057,334.919457 C64.5745054,335.097958 64.4635065,335.252457 64.3165057,335.382957 C64.169505,335.513458 63.9895068,335.616207 63.7765057,335.691207 C63.5635047,335.766208 63.3175071,335.803707 63.0385057,335.803707 C62.7205041,335.803707 62.432507,335.751958 62.1745057,335.648457 C61.9165044,335.544957 61.6975066,335.412208 61.5175057,335.250207 L61.7065057,334.944207 C61.7305059,334.905207 61.7590056,334.875207 61.7920057,334.854207 C61.8250059,334.833207 61.8685055,334.822707 61.9225057,334.822707 C61.976506,334.822707 62.0335054,334.843707 62.0935057,334.885707 C62.153506,334.927708 62.2262553,334.974207 62.3117557,335.025207 C62.3972562,335.076208 62.5007551,335.122707 62.6222557,335.164707 C62.7437563,335.206708 62.8960048,335.227707 63.0790057,335.227707 C63.2350065,335.227707 63.3715051,335.207458 63.4885057,335.166957 C63.6055063,335.126457 63.7030053,335.071708 63.7810057,335.002707 C63.8590061,334.933707 63.9167555,334.854208 63.9542557,334.764207 C63.9917559,334.674207 64.0105057,334.578208 64.0105057,334.476207 C64.0105057,334.350207 63.9767561,334.245958 63.9092557,334.163457 C63.8417554,334.080957 63.7525063,334.010458 63.6415057,333.951957 C63.5305052,333.893457 63.4037564,333.842458 63.2612557,333.798957 C63.118755,333.755457 62.9732565,333.709708 62.8247557,333.661707 C62.676255,333.613707 62.5307564,333.558958 62.3882557,333.497457 C62.245755,333.435957 62.1190063,333.358708 62.0080057,333.265707 C61.8970052,333.172707 61.8077561,333.057958 61.7402557,332.921457 C61.6727554,332.784957 61.6390057,332.619208 61.6390057,332.424207 C61.6390057,332.250206 61.6750054,332.082958 61.7470057,331.922457 C61.8190061,331.761957 61.924005,331.620958 62.0620057,331.499457 C62.2000064,331.377957 62.3695047,331.281208 62.5705057,331.209207 C62.7715067,331.137207 63.0010044,331.101207 63.2590057,331.101207 C63.5590072,331.101207 63.8282545,331.148457 64.0667557,331.242957 C64.3052569,331.337458 64.5115049,331.467206 64.6855057,331.632207 L64.5055057,331.924707 Z M64.5055057,372.9235 C64.4695056,372.989501 64.4140061,373.0225 64.3390057,373.0225 C64.2940055,373.0225 64.243006,373.006 64.1860057,372.973 C64.1290054,372.94 64.0592561,372.903251 63.9767557,372.86275 C63.8942553,372.82225 63.7960063,372.78475 63.6820057,372.75025 C63.5680052,372.71575 63.4330065,372.6985 63.2770057,372.6985 C63.1420051,372.6985 63.0205063,372.71575 62.9125057,372.75025 C62.8045052,372.78475 62.7122561,372.832 62.6357557,372.892 C62.5592553,372.952001 62.5007559,373.02175 62.4602557,373.10125 C62.4197555,373.180751 62.3995057,373.267 62.3995057,373.36 C62.3995057,373.477001 62.4332554,373.5745 62.5007557,373.6525 C62.5682561,373.730501 62.6575052,373.798 62.7685057,373.855 C62.8795063,373.912001 63.005505,373.96225 63.1465057,374.00575 C63.2875064,374.049251 63.432255,374.09575 63.5807557,374.14525 C63.7292565,374.194751 63.874005,374.2495 64.0150057,374.3095 C64.1560064,374.369501 64.2820052,374.4445 64.3930057,374.5345 C64.5040063,374.624501 64.5932554,374.73475 64.6607557,374.86525 C64.7282561,374.995751 64.7620057,375.152499 64.7620057,375.3355 C64.7620057,375.545501 64.7245061,375.739749 64.6495057,375.91825 C64.5745054,376.096751 64.4635065,376.25125 64.3165057,376.38175 C64.169505,376.512251 63.9895068,376.615 63.7765057,376.69 C63.5635047,376.765001 63.3175071,376.8025 63.0385057,376.8025 C62.7205041,376.8025 62.432507,376.750751 62.1745057,376.64725 C61.9165044,376.54375 61.6975066,376.411001 61.5175057,376.249 L61.7065057,375.943 C61.7305059,375.904 61.7590056,375.874 61.7920057,375.853 C61.8250059,375.832 61.8685055,375.8215 61.9225057,375.8215 C61.976506,375.8215 62.0335054,375.8425 62.0935057,375.8845 C62.153506,375.926501 62.2262553,375.973 62.3117557,376.024 C62.3972562,376.075001 62.5007551,376.1215 62.6222557,376.1635 C62.7437563,376.205501 62.8960048,376.2265 63.0790057,376.2265 C63.2350065,376.2265 63.3715051,376.206251 63.4885057,376.16575 C63.6055063,376.12525 63.7030053,376.070501 63.7810057,376.0015 C63.8590061,375.9325 63.9167555,375.853001 63.9542557,375.763 C63.9917559,375.673 64.0105057,375.577001 64.0105057,375.475 C64.0105057,375.349 63.9767561,375.244751 63.9092557,375.16225 C63.8417554,375.07975 63.7525063,375.009251 63.6415057,374.95075 C63.5305052,374.89225 63.4037564,374.841251 63.2612557,374.79775 C63.118755,374.75425 62.9732565,374.708501 62.8247557,374.6605 C62.676255,374.6125 62.5307564,374.557751 62.3882557,374.49625 C62.245755,374.43475 62.1190063,374.357501 62.0080057,374.2645 C61.8970052,374.1715 61.8077561,374.056751 61.7402557,373.92025 C61.6727554,373.78375 61.6390057,373.618001 61.6390057,373.423 C61.6390057,373.248999 61.6750054,373.081751 61.7470057,372.92125 C61.8190061,372.76075 61.924005,372.619751 62.0620057,372.49825 C62.2000064,372.37675 62.3695047,372.280001 62.5705057,372.208 C62.7715067,372.136 63.0010044,372.1 63.2590057,372.1 C63.5590072,372.1 63.8282545,372.14725 64.0667557,372.24175 C64.3052569,372.336251 64.5115049,372.465999 64.6855057,372.631 L64.5055057,372.9235 Z" id="+3s-+2s-+1s-X--1s--2" fill="#888888" fill-rule="nonzero"></path>
        <path d="M90.3872252,394.729463 L91.7732252,394.729463 L91.7732252,390.332963 C91.7732252,390.200963 91.7777252,390.067464 91.7867252,389.932463 L90.6347252,390.917963 C90.6047251,390.941964 90.5747254,390.959213 90.5447252,390.969713 C90.5147251,390.980213 90.4862254,390.985463 90.4592252,390.985463 C90.414225,390.985463 90.3737254,390.975714 90.3377252,390.956213 C90.3017251,390.936713 90.2747253,390.913464 90.2567252,390.886463 L90.0047252,390.539963 L91.9217252,388.879463 L92.5742252,388.879463 L92.5742252,394.729463 L93.8432252,394.729463 L93.8432252,395.341463 L90.3872252,395.341463 L90.3872252,394.729463 Z M118.305225,388.820963 C118.578226,388.820963 118.833224,388.861463 119.070225,388.942463 C119.307226,389.023464 119.511974,389.141213 119.684475,389.295713 C119.856976,389.450214 119.992724,389.638462 120.091725,389.860463 C120.190725,390.082465 120.240225,390.334462 120.240225,390.616463 C120.240225,390.856465 120.204225,391.078462 120.132225,391.282463 C120.060224,391.486464 119.962725,391.682212 119.839725,391.869713 C119.716724,392.057214 119.574976,392.238713 119.414475,392.414213 C119.253974,392.589714 119.083726,392.768962 118.903725,392.951963 L117.207225,394.688963 C117.327225,394.655963 117.448724,394.629714 117.571725,394.610213 C117.694725,394.590713 117.813224,394.580963 117.927225,394.580963 L120.087225,394.580963 C120.174225,394.580963 120.243224,394.606463 120.294225,394.657463 C120.345225,394.708464 120.370725,394.774463 120.370725,394.855463 L120.370725,395.341463 L116.068725,395.341463 L116.068725,395.066963 C116.068725,395.009963 116.079975,394.951464 116.102475,394.891463 C116.124975,394.831463 116.161724,394.775964 116.212725,394.724963 L118.278225,392.650463 C118.449226,392.476463 118.605224,392.309214 118.746225,392.148713 C118.887225,391.988213 119.007974,391.826964 119.108475,391.664963 C119.208975,391.502963 119.286224,391.338714 119.340225,391.172213 C119.394225,391.005713 119.421225,390.827964 119.421225,390.638963 C119.421225,390.449962 119.391225,390.284214 119.331225,390.141713 C119.271224,389.999213 119.188725,389.881464 119.083725,389.788463 C118.978724,389.695463 118.855725,389.625714 118.714725,389.579213 C118.573724,389.532713 118.422226,389.509463 118.260225,389.509463 C118.098224,389.509463 117.948225,389.533463 117.810225,389.581463 C117.672224,389.629464 117.549975,389.696213 117.443475,389.781713 C117.336974,389.867214 117.246975,389.968463 117.173475,390.085463 C117.099974,390.202464 117.048225,390.331463 117.018225,390.472463 C116.994225,390.559464 116.958225,390.622463 116.910225,390.661463 C116.862224,390.700464 116.799225,390.719963 116.721225,390.719963 C116.706225,390.719963 116.690475,390.719213 116.673975,390.717713 C116.657475,390.716213 116.638725,390.713963 116.617725,390.710963 L116.199225,390.638963 C116.241225,390.344962 116.322224,390.084715 116.442225,389.858213 C116.562225,389.631712 116.714474,389.441964 116.898975,389.288963 C117.083476,389.135963 117.294974,389.019714 117.533475,388.940213 C117.771976,388.860713 118.029223,388.820963 118.305225,388.820963 Z M144.895724,388.820963 C145.168725,388.820963 145.420723,388.859963 145.651724,388.937963 C145.882725,389.015964 146.081473,389.126963 146.247974,389.270963 C146.414475,389.414964 146.544224,389.588962 146.637224,389.792963 C146.730225,389.996964 146.776724,390.223462 146.776724,390.472463 C146.776724,390.676464 146.750474,390.858713 146.697974,391.019213 C146.645474,391.179714 146.570475,391.320713 146.472974,391.442213 C146.375474,391.563714 146.257725,391.666463 146.119724,391.750463 C145.981723,391.834464 145.827225,391.901963 145.656224,391.952963 C146.076226,392.063964 146.391973,392.249962 146.603474,392.510963 C146.814975,392.771965 146.920724,393.098961 146.920724,393.491963 C146.920724,393.788965 146.864475,394.055962 146.751974,394.292963 C146.639473,394.529965 146.485725,394.731713 146.290724,394.898213 C146.095723,395.064714 145.868475,395.192213 145.608974,395.280713 C145.349473,395.369214 145.071226,395.413463 144.774224,395.413463 C144.432222,395.413463 144.139725,395.370714 143.896724,395.285213 C143.653723,395.199713 143.448225,395.081964 143.280224,394.931963 C143.112223,394.781963 142.974225,394.604214 142.866224,394.398713 C142.758224,394.193212 142.666724,393.970465 142.591724,393.730463 L142.933724,393.586463 C142.996724,393.559463 143.059724,393.545963 143.122724,393.545963 C143.182724,393.545963 143.235974,393.558713 143.282474,393.584213 C143.328974,393.609714 143.364224,393.649463 143.388224,393.703463 C143.394224,393.715463 143.400224,393.728213 143.406224,393.741713 C143.412224,393.755213 143.418224,393.769463 143.424224,393.784463 C143.466224,393.871464 143.517224,393.969713 143.577224,394.079213 C143.637224,394.188714 143.718224,394.291463 143.820224,394.387463 C143.922225,394.483464 144.048973,394.564463 144.200474,394.630463 C144.351975,394.696464 144.540223,394.729463 144.765224,394.729463 C144.990225,394.729463 145.187473,394.692714 145.356974,394.619213 C145.526475,394.545713 145.667473,394.450464 145.779974,394.333463 C145.892475,394.216463 145.977224,394.085964 146.034224,393.941963 C146.091224,393.797963 146.119724,393.655464 146.119724,393.514463 C146.119724,393.340463 146.096474,393.181464 146.049974,393.037463 C146.003474,392.893463 145.919475,392.768964 145.797974,392.663963 C145.676473,392.558963 145.508475,392.476464 145.293974,392.416463 C145.079473,392.356463 144.804226,392.326463 144.468224,392.326463 L144.468224,391.745963 C144.741225,391.742963 144.974473,391.712964 145.167974,391.655963 C145.361475,391.598963 145.519723,391.520964 145.642724,391.421963 C145.765725,391.322963 145.854974,391.204464 145.910474,391.066463 C145.965974,390.928463 145.993724,390.775464 145.993724,390.607463 C145.993724,390.421462 145.964474,390.259464 145.905974,390.121463 C145.847474,389.983463 145.767225,389.869464 145.665224,389.779463 C145.563224,389.689463 145.442475,389.621964 145.302974,389.576963 C145.163473,389.531963 145.012725,389.509463 144.850724,389.509463 C144.688723,389.509463 144.538725,389.533463 144.400724,389.581463 C144.262723,389.629464 144.140475,389.696213 144.033974,389.781713 C143.927474,389.867214 143.838224,389.969213 143.766224,390.087713 C143.694224,390.206214 143.640224,390.334463 143.604224,390.472463 C143.580224,390.559464 143.544224,390.622463 143.496224,390.661463 C143.448224,390.700464 143.386724,390.719963 143.311724,390.719963 C143.296724,390.719963 143.280974,390.719213 143.264474,390.717713 C143.247974,390.716213 143.229224,390.713963 143.208224,390.710963 L142.789724,390.638963 C142.831724,390.344962 142.912723,390.084715 143.032724,389.858213 C143.152725,389.631712 143.304973,389.441964 143.489474,389.288963 C143.673975,389.135963 143.885473,389.019714 144.123974,388.940213 C144.362475,388.860713 144.619723,388.820963 144.895724,388.820963 Z M172.674224,393.014963 L173.650724,393.014963 L173.650724,393.473963 C173.650724,393.521964 173.636474,393.562463 173.607974,393.595463 C173.579473,393.628464 173.535224,393.644963 173.475224,393.644963 L172.674224,393.644963 L172.674224,395.341463 L171.967724,395.341463 L171.967724,393.644963 L169.110224,393.644963 C169.050223,393.644963 168.998474,393.627714 168.954974,393.593213 C168.911473,393.558713 168.883724,393.515964 168.871724,393.464963 L168.790724,393.055463 L171.927224,388.892963 L172.674224,388.892963 L172.674224,393.014963 Z M171.967724,390.355463 C171.967724,390.277463 171.969974,390.193464 171.974474,390.103463 C171.978974,390.013463 171.988723,389.920464 172.003724,389.824463 L169.659224,393.014963 L171.967724,393.014963 L171.967724,390.355463 Z M199.516723,389.243963 C199.516723,389.357964 199.480723,389.451713 199.408723,389.525213 C199.336723,389.598714 199.215224,389.635463 199.044223,389.635463 L197.019223,389.635463 L196.722223,391.327463 C197.058225,391.255463 197.368722,391.219463 197.653723,391.219463 C197.989725,391.219463 198.285972,391.268963 198.542473,391.367963 C198.798974,391.466964 199.014222,391.603463 199.188223,391.777463 C199.362224,391.951464 199.493473,392.156962 199.581973,392.393963 C199.670473,392.630965 199.714723,392.888962 199.714723,393.167963 C199.714723,393.509965 199.654724,393.818962 199.534723,394.094963 C199.414722,394.370965 199.250474,394.607212 199.041973,394.803713 C198.833472,395.000214 198.588224,395.150963 198.306223,395.255963 C198.024222,395.360964 197.719725,395.413463 197.392723,395.413463 C197.203722,395.413463 197.022224,395.394714 196.848223,395.357213 C196.674222,395.319713 196.512224,395.269464 196.362223,395.206463 C196.212222,395.143463 196.072724,395.071464 195.943723,394.990463 C195.814722,394.909463 195.700723,394.823964 195.601723,394.733963 L195.844723,394.391963 C195.898723,394.313963 195.970723,394.274963 196.060723,394.274963 C196.117723,394.274963 196.184473,394.298213 196.260973,394.344713 C196.337473,394.391214 196.429722,394.442963 196.537723,394.499963 C196.645723,394.556964 196.772472,394.608713 196.917973,394.655213 C197.063474,394.701714 197.236722,394.724963 197.437723,394.724963 C197.662724,394.724963 197.865222,394.688964 198.045223,394.616963 C198.225224,394.544963 198.378972,394.442214 198.506473,394.308713 C198.633974,394.175213 198.732223,394.015464 198.801223,393.829463 C198.870223,393.643462 198.904723,393.434965 198.904723,393.203963 C198.904723,393.002962 198.875473,392.821464 198.816973,392.659463 C198.758473,392.497463 198.669974,392.359464 198.551473,392.245463 C198.432972,392.131463 198.285224,392.042964 198.108223,391.979963 C197.931222,391.916963 197.724224,391.885463 197.487223,391.885463 C197.325222,391.885463 197.157224,391.898963 196.983223,391.925963 C196.809222,391.952964 196.629224,391.996463 196.443223,392.056463 L195.939223,391.907963 L196.461223,388.892963 L199.516723,388.892963 L199.516723,389.243963 Z M224.545722,391.390463 C224.803724,391.390463 225.048221,391.433213 225.279222,391.518713 C225.510224,391.604214 225.712722,391.728713 225.886722,391.892213 C226.060723,392.055714 226.198722,392.256712 226.300722,392.495213 C226.402723,392.733715 226.453722,393.005962 226.453722,393.311963 C226.453722,393.608965 226.399723,393.884962 226.291722,394.139963 C226.183722,394.394965 226.032973,394.616962 225.839472,394.805963 C225.645971,394.994964 225.412724,395.143463 225.139722,395.251463 C224.866721,395.359464 224.566724,395.413463 224.239722,395.413463 C223.915721,395.413463 223.622474,395.361714 223.359972,395.258213 C223.097471,395.154713 222.873223,395.007714 222.687222,394.817213 C222.501221,394.626712 222.357973,394.395715 222.257472,394.124213 C222.156972,393.852712 222.106722,393.548965 222.106722,393.212963 C222.106722,392.930962 222.169722,392.630965 222.295722,392.312963 C222.421723,391.994962 222.621221,391.652965 222.894222,391.286963 L224.527722,389.086463 C224.569723,389.032463 224.628222,388.986714 224.703222,388.949213 C224.778223,388.911713 224.863722,388.892963 224.959722,388.892963 L225.670722,388.892963 L223.434222,391.723463 C223.587223,391.618463 223.756721,391.536714 223.942722,391.478213 C224.128723,391.419713 224.329721,391.390463 224.545722,391.390463 Z M222.880722,393.352463 C222.880722,393.559464 222.910722,393.748463 222.970722,393.919463 C223.030723,394.090464 223.118472,394.237463 223.233972,394.360463 C223.349473,394.483464 223.490472,394.578713 223.656972,394.646213 C223.823473,394.713714 224.013221,394.747463 224.226222,394.747463 C224.442223,394.747463 224.637222,394.712964 224.811222,394.643963 C224.985223,394.574963 225.134472,394.478964 225.258972,394.355963 C225.383473,394.232963 225.479472,394.087464 225.546972,393.919463 C225.614473,393.751463 225.648222,393.568464 225.648222,393.370463 C225.648222,393.160462 225.615223,392.970714 225.549222,392.801213 C225.483222,392.631713 225.390223,392.487714 225.270222,392.369213 C225.150222,392.250713 225.006223,392.159964 224.838222,392.096963 C224.670222,392.033963 224.485723,392.002463 224.284722,392.002463 C224.068721,392.002463 223.873723,392.039213 223.699722,392.112713 C223.525722,392.186214 223.377973,392.285213 223.256472,392.409713 C223.134972,392.534214 223.041973,392.678213 222.977472,392.841713 C222.912972,393.005214 222.880722,393.175463 222.880722,393.352463 Z M253.003722,388.892963 L253.003722,389.252963 C253.003722,389.354964 252.992472,389.438963 252.969972,389.504963 C252.947472,389.570964 252.924222,389.626463 252.900222,389.671463 L250.231722,395.057963 C250.192722,395.135964 250.138722,395.202713 250.069722,395.258213 C250.000721,395.313714 249.907722,395.341463 249.790722,395.341463 L249.219222,395.341463 L251.928222,390.022463 C251.967222,389.947463 252.006972,389.878464 252.047472,389.815463 C252.087972,389.752463 252.133722,389.692464 252.184722,389.635463 L248.818722,389.635463 C248.767722,389.635463 248.721972,389.615214 248.681472,389.574713 C248.640972,389.534213 248.620722,389.488464 248.620722,389.437463 L248.620722,388.892963 L253.003722,388.892963 Z M277.236221,395.413463 C276.91522,395.413463 276.621223,395.370714 276.354221,395.285213 C276.08722,395.199713 275.857722,395.077464 275.665721,394.918463 C275.47372,394.759463 275.325222,394.566715 275.220221,394.340213 C275.115221,394.113712 275.062721,393.859465 275.062721,393.577463 C275.062721,393.163461 275.17072,392.822215 275.386721,392.553713 C275.602722,392.285212 275.911719,392.093964 276.313721,391.979963 C275.97472,391.853963 275.718972,391.665715 275.546471,391.415213 C275.37397,391.164712 275.287721,390.865465 275.287721,390.517463 C275.287721,390.280462 275.334221,390.058464 275.427221,389.851463 C275.520222,389.644462 275.65222,389.464464 275.823221,389.311463 C275.994222,389.158463 276.19897,389.038464 276.437471,388.951463 C276.675972,388.864463 276.94222,388.820963 277.236221,388.820963 C277.527223,388.820963 277.79272,388.864463 278.032721,388.951463 C278.272722,389.038464 278.47822,389.158463 278.649221,389.311463 C278.820222,389.464464 278.952221,389.644462 279.045221,389.851463 C279.138222,390.058464 279.184721,390.280462 279.184721,390.517463 C279.184721,390.865465 279.097722,391.164712 278.923721,391.415213 C278.74972,391.665715 278.494723,391.853963 278.158721,391.979963 C278.560723,392.093964 278.86972,392.285212 279.085721,392.553713 C279.301722,392.822215 279.409721,393.163461 279.409721,393.577463 C279.409721,393.859465 279.356472,394.113712 279.249971,394.340213 C279.143471,394.566715 278.994972,394.759463 278.804471,394.918463 C278.61397,395.077464 278.385223,395.199713 278.118221,395.285213 C277.85122,395.370714 277.557223,395.413463 277.236221,395.413463 Z M277.236221,394.774463 C277.446222,394.774463 277.63447,394.745214 277.800971,394.686713 C277.967472,394.628213 278.108471,394.545714 278.223971,394.439213 C278.339472,394.332713 278.427971,394.205214 278.489471,394.056713 C278.550972,393.908213 278.581721,393.743964 278.581721,393.563963 C278.581721,393.341962 278.544972,393.152214 278.471471,392.994713 C278.397971,392.837213 278.298972,392.708964 278.174471,392.609963 C278.049971,392.510963 277.906722,392.438214 277.744721,392.391713 C277.58272,392.345213 277.413222,392.321963 277.236221,392.321963 C277.05922,392.321963 276.889722,392.345213 276.727721,392.391713 C276.56572,392.438214 276.422472,392.510963 276.297971,392.609963 C276.173471,392.708964 276.074472,392.837213 276.000971,392.994713 C275.927471,393.152214 275.890721,393.341962 275.890721,393.563963 C275.890721,393.743964 275.921471,393.908213 275.982971,394.056713 C276.044472,394.205214 276.132971,394.332713 276.248471,394.439213 C276.363972,394.545714 276.50497,394.628213 276.671471,394.686713 C276.837972,394.745214 277.02622,394.774463 277.236221,394.774463 Z M277.236221,391.678463 C277.446222,391.678463 277.62547,391.646214 277.773971,391.581713 C277.922472,391.517213 278.043221,391.431714 278.136221,391.325213 C278.229222,391.218713 278.296721,391.096464 278.338721,390.958463 C278.380721,390.820463 278.401721,390.677964 278.401721,390.530963 C278.401721,390.380963 278.376971,390.239964 278.327471,390.107963 C278.277971,389.975963 278.204472,389.860464 278.106971,389.761463 C278.009471,389.662463 277.887972,389.584464 277.742471,389.527463 C277.596971,389.470463 277.428222,389.441963 277.236221,389.441963 C277.04422,389.441963 276.875472,389.470463 276.729971,389.527463 C276.584471,389.584464 276.462972,389.662463 276.365471,389.761463 C276.267971,389.860464 276.194471,389.975963 276.144971,390.107963 C276.095471,390.239964 276.070721,390.380963 276.070721,390.530963 C276.070721,390.677964 276.091721,390.820463 276.133721,390.958463 C276.175721,391.096464 276.243221,391.218713 276.336221,391.325213 C276.429222,391.431714 276.54997,391.517213 276.698471,391.581713 C276.846972,391.646214 277.02622,391.678463 277.236221,391.678463 Z M303.606221,392.695463 C303.363219,392.695463 303.132972,392.654964 302.915471,392.573963 C302.69797,392.492963 302.506721,392.373714 302.341721,392.216213 C302.17672,392.058713 302.045471,391.865215 301.947971,391.635713 C301.85047,391.406212 301.801721,391.142965 301.801721,390.845963 C301.801721,390.563962 301.85422,390.299965 301.959221,390.053963 C302.064221,389.807962 302.21122,389.593464 302.400221,389.410463 C302.589222,389.227462 302.814219,389.083464 303.075221,388.978463 C303.336222,388.873463 303.622719,388.820963 303.934721,388.820963 C304.243722,388.820963 304.524219,388.871963 304.776221,388.973963 C305.028222,389.075964 305.24422,389.218462 305.424221,389.401463 C305.604222,389.584464 305.74297,389.803462 305.840471,390.058463 C305.937971,390.313465 305.986721,390.595462 305.986721,390.904463 C305.986721,391.090464 305.969471,391.266713 305.934971,391.433213 C305.90047,391.599714 305.850221,391.762463 305.784221,391.921463 C305.71822,392.080464 305.639471,392.238713 305.547971,392.396213 C305.45647,392.553714 305.352221,392.716463 305.235221,392.884463 L303.664721,395.152463 C303.62572,395.209464 303.570221,395.255213 303.498221,395.289713 C303.42622,395.324214 303.343721,395.341463 303.250721,395.341463 L302.512721,395.341463 L304.474721,392.771963 C304.540721,392.684963 304.60222,392.602464 304.659221,392.524463 C304.716221,392.446463 304.77022,392.368464 304.821221,392.290463 C304.65622,392.422464 304.470222,392.522963 304.263221,392.591963 C304.05622,392.660964 303.837222,392.695463 303.606221,392.695463 Z M305.217221,390.809963 C305.217221,390.608962 305.184971,390.426714 305.120471,390.263213 C305.05597,390.099713 304.966721,389.960964 304.852721,389.846963 C304.73872,389.732963 304.602971,389.645214 304.445471,389.583713 C304.28797,389.522213 304.114722,389.491463 303.925721,389.491463 C303.72772,389.491463 303.546971,389.523713 303.383471,389.588213 C303.21997,389.652714 303.080471,389.741963 302.964971,389.855963 C302.84947,389.969964 302.760221,390.106463 302.697221,390.265463 C302.63422,390.424464 302.602721,390.598462 302.602721,390.787463 C302.602721,390.991463 302.63197,391.173713 302.690471,391.334213 C302.748971,391.494714 302.83297,391.630463 302.942471,391.741463 C303.051971,391.852464 303.18547,391.936463 303.342971,391.993463 C303.500471,392.050464 303.67672,392.078963 303.871721,392.078963 C304.087722,392.078963 304.27897,392.043714 304.445471,391.973213 C304.611971,391.902713 304.75222,391.808964 304.866221,391.691963 C304.980221,391.574963 305.06722,391.439964 305.127221,391.286963 C305.187221,391.133963 305.217221,390.974964 305.217221,390.809963 Z M328.93222,394.729463 L330.31822,394.729463 L330.31822,390.332963 C330.31822,390.200963 330.32272,390.067464 330.33172,389.932463 L329.17972,390.917963 C329.14972,390.941964 329.11972,390.959213 329.08972,390.969713 C329.05972,390.980213 329.03122,390.985463 329.00422,390.985463 C328.95922,390.985463 328.91872,390.975714 328.88272,390.956213 C328.84672,390.936713 328.81972,390.913464 328.80172,390.886463 L328.54972,390.539963 L330.46672,388.879463 L331.11922,388.879463 L331.11922,394.729463 L332.38822,394.729463 L332.38822,395.341463 L328.93222,395.341463 L328.93222,394.729463 Z M339.91072,392.119463 C339.91072,392.683466 339.849971,393.171711 339.72847,393.584213 C339.606969,393.996715 339.441221,394.337962 339.23122,394.607963 C339.021219,394.877965 338.772971,395.078963 338.48647,395.210963 C338.199969,395.342964 337.893222,395.408963 337.56622,395.408963 C337.236218,395.408963 336.929471,395.342964 336.64597,395.210963 C336.362469,395.078963 336.115721,394.877965 335.90572,394.607963 C335.695719,394.337962 335.530721,393.996715 335.41072,393.584213 C335.290719,393.171711 335.23072,392.683466 335.23072,392.119463 C335.23072,391.555461 335.290719,391.066465 335.41072,390.652463 C335.530721,390.238461 335.695719,389.895715 335.90572,389.624213 C336.115721,389.352712 336.362469,389.150964 336.64597,389.018963 C336.929471,388.886963 337.236218,388.820963 337.56622,388.820963 C337.893222,388.820963 338.199969,388.886963 338.48647,389.018963 C338.772971,389.150964 339.021219,389.352712 339.23122,389.624213 C339.441221,389.895715 339.606969,390.238461 339.72847,390.652463 C339.849971,391.066465 339.91072,391.555461 339.91072,392.119463 Z M339.07822,392.119463 C339.07822,391.627461 339.03697,391.214215 338.95447,390.879713 C338.87197,390.545212 338.760971,390.275964 338.62147,390.071963 C338.481969,389.867962 338.320721,389.721714 338.13772,389.633213 C337.954719,389.544713 337.764221,389.500463 337.56622,389.500463 C337.368219,389.500463 337.177721,389.544713 336.99472,389.633213 C336.811719,389.721714 336.651221,389.867962 336.51322,390.071963 C336.375219,390.275964 336.26497,390.545212 336.18247,390.879713 C336.09997,391.214215 336.05872,391.627461 336.05872,392.119463 C336.05872,392.611466 336.09997,393.023962 336.18247,393.356963 C336.26497,393.689965 336.375219,393.958462 336.51322,394.162463 C336.651221,394.366464 336.811719,394.512713 336.99472,394.601213 C337.177721,394.689714 337.368219,394.733963 337.56622,394.733963 C337.764221,394.733963 337.954719,394.689714 338.13772,394.601213 C338.320721,394.512713 338.481969,394.366464 338.62147,394.162463 C338.760971,393.958462 338.87197,393.689965 338.95447,393.356963 C339.03697,393.023962 339.07822,392.611466 339.07822,392.119463 Z" id="1-2-3-4-5-6-7-8-9-10" fill="#888888" fill-rule="nonzero"></path>
        <path d="M59.8835,46.332 L60.86,46.332 L60.86,46.791 C60.86,46.839001 60.84575,46.8795 60.81725,46.9125 C60.788749,46.945501 60.7445,46.962 60.6845,46.962 L59.8835,46.962 L59.8835,48.6585 L59.177,48.6585 L59.177,46.962 L56.3195,46.962 C56.259499,46.962 56.20775,46.944751 56.16425,46.91025 C56.120749,46.87575 56.093,46.833001 56.081,46.782 L56,46.3725 L59.1365,42.21 L59.8835,42.21 L59.8835,46.332 Z M59.177,43.6725 C59.177,43.5945 59.17925,43.510501 59.18375,43.4205 C59.18825,43.3305 59.197999,43.237501 59.213,43.1415 L56.8685,46.332 L59.177,46.332 L59.177,43.6725 Z" id="1-2-3-4-5-6-7-8-9-10" fill="#888888" fill-rule="nonzero"></path>
        <path d="M59.8835,374.122 L60.86,374.122 L60.86,374.581 C60.86,374.629001 60.84575,374.6695 60.81725,374.7025 C60.788749,374.735501 60.7445,374.752 60.6845,374.752 L59.8835,374.752 L59.8835,376.4485 L59.177,376.4485 L59.177,374.752 L56.3195,374.752 C56.259499,374.752 56.20775,374.734751 56.16425,374.70025 C56.120749,374.66575 56.093,374.623001 56.081,374.572 L56,374.1625 L59.1365,370 L59.8835,370 L59.8835,374.122 Z M59.177,371.4625 C59.177,371.3845 59.17925,371.300501 59.18375,371.2105 C59.18825,371.1205 59.197999,371.027501 59.213,370.9315 L56.8685,374.122 L59.177,374.122 L59.177,371.4625 Z" id="1-2-3-4-5-6-7-8-9-10" fill="#888888" fill-rule="nonzero"></path>
        <g id="Group-5" transform="translate(89.000000, 34.508986)">
            <g id="Oval" transform="translate(243.500000, 13.991014) scale(-1, 1) translate(-243.500000, -13.991014) translate(230.000000, 0.491014)">
                <g id="path-1-link" fill="#FFFFFF" fill-opacity="0.300000012">
                    <circle id="path-1" cx="13.992616" cy="13.6440451" r="13"></circle>
                </g>
                <circle stroke="#979797" cx="13.992616" cy="13.6440451" r="12.5"></circle>
            </g>
            <polyline id="Path-2" stroke="#3277E0" stroke-linecap="round" stroke-linejoin="round" transform="translate(123.501837, 107.470952) scale(-1, 1) translate(-123.501837, -107.470952) " points="3.996289 10.6820518 35.0200727 144.259852 61.0605765 154.259852 86.9528787 184.259852 113.035875 154.259852 138.850612 144.259852 165.035002 184.259852 191.265298 204.259852 217.029572 204.259852 243.007384 184.259852"></polyline>
            <path d="M246.32929,13.1494827 L243.638307,7.76751673 C243.514812,7.52052743 243.214475,7.42041533 242.967486,7.54390993 C242.870723,7.59229173 242.792261,7.67075303 242.743879,7.76751673 L240.052896,13.1494827 C239.929402,13.396472 240.029514,13.6968085 240.276503,13.8203031 C240.345931,13.855017 240.422487,13.8730895 240.50011,13.8730895 L245.882076,13.8730895 C246.158218,13.8730895 246.382076,13.6492319 246.382076,13.3730895 C246.382076,13.295467 246.364003,13.2189104 246.32929,13.1494827 Z" id="icon/off-chart" fill="#F03E3D" fill-rule="nonzero"></path>
            <g id="Oval" transform="translate(212.000000, 144.000000) scale(-1, 1) translate(-212.000000, -144.000000) translate(208.000000, 140.000000)">
                <g id="path-2-link" fill="#3176E0">
                    <circle id="path-2" cx="4" cy="4" r="4"></circle>
                </g>
                <circle stroke="#3D83E1" cx="4" cy="4" r="3.5"></circle>
            </g>
            <g id="Oval" transform="translate(186.000000, 154.000000) scale(-1, 1) translate(-186.000000, -154.000000) translate(182.000000, 150.000000)">
                <g id="path-3-link" fill="#3176E0">
                    <circle id="path-3" cx="4" cy="4" r="4"></circle>
                </g>
                <circle stroke="#3D83E1" cx="4" cy="4" r="3.5"></circle>
            </g>
            <g id="Oval" transform="translate(160.000000, 183.000000) scale(-1, 1) translate(-160.000000, -183.000000) translate(156.000000, 179.000000)">
                <g id="path-4-link" fill="#3176E0">
                    <circle id="path-4" cx="4" cy="4" r="4"></circle>
                </g>
                <circle stroke="#3D83E1" cx="4" cy="4" r="3.5"></circle>
            </g>
            <g id="Oval" transform="translate(134.000000, 154.000000) scale(-1, 1) translate(-134.000000, -154.000000) translate(130.000000, 150.000000)">
                <g id="path-5-link" fill="#3176E0">
                    <circle id="path-5" cx="4" cy="4" r="4"></circle>
                </g>
                <circle stroke="#3D83E1" cx="4" cy="4" r="3.5"></circle>
            </g>
            <g id="Oval" transform="translate(108.000000, 144.000000) scale(-1, 1) translate(-108.000000, -144.000000) translate(104.000000, 140.000000)">
                <g id="path-6-link" fill="#3176E0">
                    <circle id="path-6" cx="4" cy="4" r="4"></circle>
                </g>
                <circle stroke="#3D83E1" cx="4" cy="4" r="3.5"></circle>
            </g>
            <g id="Oval" transform="translate(82.000000, 184.000000) scale(-1, 1) translate(-82.000000, -184.000000) translate(78.000000, 180.000000)">
                <g id="path-7-link" fill="#3176E0">
                    <circle id="path-7" cx="4" cy="4" r="4"></circle>
                </g>
                <circle stroke="#3D83E1" cx="4" cy="4" r="3.5"></circle>
            </g>
            <g id="Oval" transform="translate(56.000000, 204.000000) scale(-1, 1) translate(-56.000000, -204.000000) translate(52.000000, 200.000000)">
                <g id="path-8-link" fill="#3176E0">
                    <circle id="path-8" cx="4" cy="4" r="4"></circle>
                </g>
                <circle stroke="#3D83E1" cx="4" cy="4" r="3.5"></circle>
            </g>
            <g id="Oval" transform="translate(30.000000, 204.000000) scale(-1, 1) translate(-30.000000, -204.000000) translate(26.000000, 200.000000)">
                <g id="path-9-link" fill="#3176E0">
                    <circle id="path-9" cx="4" cy="4" r="4"></circle>
                </g>
                <circle stroke="#3D83E1" cx="4" cy="4" r="3.5"></circle>
            </g>
            <g id="Oval" transform="translate(4.000000, 184.000000) scale(-1, 1) translate(-4.000000, -184.000000) translate(0.000000, 180.000000)">
                <g id="path-10-link" fill="#3176E0">
                    <circle id="path-10" cx="4" cy="4" r="4"></circle>
                </g>
                <circle stroke="#3D83E1" cx="4" cy="4" r="3.5"></circle>
            </g>
        </g>
        <text id="Mean" font-family="Lato-Bold, Lato" font-size="9" font-weight="bold" letter-spacing="0.0634432967" fill="#000000" fill-opacity="0.6">
            <tspan x="47.4656134" y="210">Mean</tspan>
        </text>
    </g>
</svg>