<?xml version="1.0" encoding="UTF-8"?>
<svg width="919px" height="498px" viewBox="0 0 919 498" version="1.1" xmlns="http://www.w3.org/2000/svg" xmlns:xlink="http://www.w3.org/1999/xlink">
    <!-- Generator: Sketch 60.1 (88133) - https://sketch.com -->
    <title>1-5s</title>
    <desc>Created with Sketch.</desc>
    <g id="1-5s" stroke="none" stroke-width="1" fill="none" fill-rule="evenodd">
        <rect id="Rectangle-7" fill="#E6E4E2" fill-rule="nonzero" opacity="0.300000012" x="77.168896" y="124" width="273.658537" height="42.2918697"></rect>
        <rect id="Rectangle-7" fill="#FFFFFF" fill-rule="nonzero" opacity="0.5" x="77.168896" y="166.292683" width="273.658537" height="84.5853659"></rect>
        <rect id="Rectangle-7" fill="#E6E4E2" fill-rule="nonzero" x="77.168896" y="81.7073171" width="273.658537" height="42.2918697"></rect>
        <rect id="Rectangle-7" fill="#E6E4E2" fill-rule="nonzero" opacity="0.300000012" x="77.168896" y="250.878049" width="273.658537" height="42.2918697"></rect>
        <rect id="Rectangle-7" fill="#E6E4E2" fill-rule="nonzero" x="77.168896" y="293.170732" width="273.658537" height="42.2918697"></rect>
        <line x1="77.168896" y1="208.212154" x2="350.827433" y2="208.212154" id="Line-Copy-7" stroke="#979797" stroke-linecap="square"></line>
        <path d="M53.7280057,84.4847073 L53.7280057,86.4062073 L55.5595057,86.4062073 L55.5595057,87.0137073 L53.7280057,87.0137073 L53.7280057,88.9487073 L53.0710057,88.9487073 L53.0710057,87.0137073 L51.2485057,87.0137073 L51.2485057,86.4062073 L53.0710057,86.4062073 L53.0710057,84.4847073 L53.7280057,84.4847073 Z M64.5055057,86.5235 C64.4695056,86.5895003 64.4140061,86.6225 64.3390057,86.6225 C64.2940055,86.6225 64.243006,86.6060002 64.1860057,86.573 C64.1290054,86.5399999 64.0592561,86.5032502 63.9767557,86.46275 C63.8942553,86.4222498 63.7960063,86.3847502 63.6820057,86.35025 C63.5680052,86.3157498 63.4330065,86.2985 63.2770057,86.2985 C63.1420051,86.2985 63.0205063,86.3157498 62.9125057,86.35025 C62.8045052,86.3847502 62.7122561,86.4319997 62.6357557,86.492 C62.5592553,86.5520003 62.5007559,86.6217496 62.4602557,86.70125 C62.4197555,86.7807504 62.3995057,86.8669996 62.3995057,86.96 C62.3995057,87.0770006 62.4332554,87.1744996 62.5007557,87.2525 C62.5682561,87.3305004 62.6575052,87.3979997 62.7685057,87.455 C62.8795063,87.5120003 63.005505,87.5622498 63.1465057,87.60575 C63.2875064,87.6492502 63.432255,87.6957498 63.5807557,87.74525 C63.7292565,87.7947503 63.874005,87.8494997 64.0150057,87.9095 C64.1560064,87.9695003 64.2820052,88.0444996 64.3930057,88.1345 C64.5040063,88.2245005 64.5932554,88.3347494 64.6607557,88.46525 C64.7282561,88.5957507 64.7620057,88.7524991 64.7620057,88.9355 C64.7620057,89.1455011 64.7245061,89.3397491 64.6495057,89.51825 C64.5745054,89.6967509 64.4635065,89.8512494 64.3165057,89.98175 C64.169505,90.1122507 63.9895068,90.2149996 63.7765057,90.29 C63.5635047,90.3650004 63.3175071,90.4025 63.0385057,90.4025 C62.7205041,90.4025 62.432507,90.3507505 62.1745057,90.24725 C61.9165044,90.1437495 61.6975066,90.0110008 61.5175057,89.849 L61.7065057,89.543 C61.7305059,89.5039998 61.7590056,89.4740001 61.7920057,89.453 C61.8250059,89.4319999 61.8685055,89.4215 61.9225057,89.4215 C61.976506,89.4215 62.0335054,89.4424998 62.0935057,89.4845 C62.153506,89.5265002 62.2262553,89.5729998 62.3117557,89.624 C62.3972562,89.6750003 62.5007551,89.7214998 62.6222557,89.7635 C62.7437563,89.8055002 62.8960048,89.8265 63.0790057,89.8265 C63.2350065,89.8265 63.3715051,89.8062502 63.4885057,89.76575 C63.6055063,89.7252498 63.7030053,89.6705004 63.7810057,89.6015 C63.8590061,89.5324997 63.9167555,89.4530005 63.9542557,89.363 C63.9917559,89.2729996 64.0105057,89.1770005 64.0105057,89.075 C64.0105057,88.9489994 63.9767561,88.8447504 63.9092557,88.76225 C63.8417554,88.6797496 63.7525063,88.6092503 63.6415057,88.55075 C63.5305052,88.4922497 63.4037564,88.4412502 63.2612557,88.39775 C63.118755,88.3542498 62.9732565,88.3085003 62.8247557,88.2605 C62.676255,88.2124998 62.5307564,88.1577503 62.3882557,88.09625 C62.245755,88.0347497 62.1190063,87.9575005 62.0080057,87.8645 C61.8970052,87.7714996 61.8077561,87.6567507 61.7402557,87.52025 C61.6727554,87.3837493 61.6390057,87.218001 61.6390057,87.023 C61.6390057,86.8489991 61.6750054,86.6817508 61.7470057,86.52125 C61.8190061,86.3607492 61.924005,86.2197506 62.0620057,86.09825 C62.2000064,85.9767494 62.3695047,85.8800004 62.5705057,85.808 C62.7715067,85.7359997 63.0010044,85.7 63.2590057,85.7 C63.5590072,85.7 63.8282545,85.7472495 64.0667557,85.84175 C64.3052569,85.9362505 64.5115049,86.0659992 64.6855057,86.231 L64.5055057,86.5235 Z M53.7280057,125.484707 L53.7280057,127.406207 L55.5595057,127.406207 L55.5595057,128.013707 L53.7280057,128.013707 L53.7280057,129.948707 L53.0710057,129.948707 L53.0710057,128.013707 L51.2485057,128.013707 L51.2485057,127.406207 L53.0710057,127.406207 L53.0710057,125.484707 L53.7280057,125.484707 Z M58.7230057,165.27 C58.9960071,165.27 59.2510046,165.3105 59.4880057,165.3915 C59.7250069,165.4725 59.9297549,165.590249 60.1022557,165.74475 C60.2747566,165.899251 60.4105052,166.087499 60.5095057,166.3095 C60.6085062,166.531501 60.6580057,166.783499 60.6580057,167.0655 C60.6580057,167.305501 60.6220061,167.527499 60.5500057,167.7315 C60.4780054,167.935501 60.3805064,168.131249 60.2575057,168.31875 C60.1345051,168.506251 59.9927565,168.687749 59.8322557,168.86325 C59.6717549,169.038751 59.5015066,169.217999 59.3215057,169.401 L57.6250057,171.138 C57.7450063,171.105 57.8665051,171.07875 57.9895057,171.05925 C58.1125064,171.03975 58.2310052,171.03 58.3450057,171.03 L60.5050057,171.03 C60.5920062,171.03 60.6610055,171.0555 60.7120057,171.1065 C60.763006,171.1575 60.7885057,171.2235 60.7885057,171.3045 L60.7885057,171.7905 L56.4865057,171.7905 L56.4865057,171.516 C56.4865057,171.459 56.4977556,171.4005 56.5202557,171.3405 C56.5427558,171.2805 56.5795055,171.225 56.6305057,171.174 L58.6960057,169.0995 C58.8670066,168.925499 59.023005,168.758251 59.1640057,168.59775 C59.3050064,168.437249 59.4257552,168.276001 59.5262557,168.114 C59.6267562,167.951999 59.7040055,167.787751 59.7580057,167.62125 C59.812006,167.454749 59.8390057,167.277001 59.8390057,167.088 C59.8390057,166.898999 59.809006,166.733251 59.7490057,166.59075 C59.6890054,166.448249 59.6065063,166.330501 59.5015057,166.2375 C59.3965052,166.1445 59.2735064,166.07475 59.1325057,166.02825 C58.991505,165.98175 58.8400065,165.9585 58.6780057,165.9585 C58.5160049,165.9585 58.3660064,165.9825 58.2280057,166.0305 C58.090005,166.0785 57.9677563,166.14525 57.8612557,166.23075 C57.7547552,166.31625 57.6647561,166.417499 57.5912557,166.5345 C57.5177554,166.651501 57.4660059,166.780499 57.4360057,166.9215 C57.4120056,167.008501 57.376006,167.0715 57.3280057,167.1105 C57.2800055,167.1495 57.2170061,167.169 57.1390057,167.169 C57.1240057,167.169 57.1082558,167.16825 57.0917557,167.16675 C57.0752557,167.16525 57.0565058,167.163 57.0355057,167.16 L56.6170057,167.088 C56.6590059,166.793999 56.7400051,166.533751 56.8600057,166.30725 C56.9800063,166.080749 57.1322548,165.891001 57.3167557,165.738 C57.5012567,165.584999 57.7127545,165.46875 57.9512557,165.38925 C58.1897569,165.30975 58.4470044,165.27 58.7230057,165.27 Z M64.5055057,126.924707 C64.4695056,126.990708 64.4140061,127.023707 64.3390057,127.023707 C64.2940055,127.023707 64.243006,127.007207 64.1860057,126.974207 C64.1290054,126.941207 64.0592561,126.904457 63.9767557,126.863957 C63.8942553,126.823457 63.7960063,126.785957 63.6820057,126.751457 C63.5680052,126.716957 63.4330065,126.699707 63.2770057,126.699707 C63.1420051,126.699707 63.0205063,126.716957 62.9125057,126.751457 C62.8045052,126.785957 62.7122561,126.833207 62.6357557,126.893207 C62.5592553,126.953208 62.5007559,127.022957 62.4602557,127.102457 C62.4197555,127.181958 62.3995057,127.268207 62.3995057,127.361207 C62.3995057,127.478208 62.4332554,127.575707 62.5007557,127.653707 C62.5682561,127.731708 62.6575052,127.799207 62.7685057,127.856207 C62.8795063,127.913208 63.005505,127.963457 63.1465057,128.006957 C63.2875064,128.050457 63.432255,128.096957 63.5807557,128.146457 C63.7292565,128.195958 63.874005,128.250707 64.0150057,128.310707 C64.1560064,128.370708 64.2820052,128.445707 64.3930057,128.535707 C64.5040063,128.625708 64.5932554,128.735957 64.6607557,128.866457 C64.7282561,128.996958 64.7620057,129.153706 64.7620057,129.336707 C64.7620057,129.546708 64.7245061,129.740956 64.6495057,129.919457 C64.5745054,130.097958 64.4635065,130.252457 64.3165057,130.382957 C64.169505,130.513458 63.9895068,130.616207 63.7765057,130.691207 C63.5635047,130.766208 63.3175071,130.803707 63.0385057,130.803707 C62.7205041,130.803707 62.432507,130.751958 62.1745057,130.648457 C61.9165044,130.544957 61.6975066,130.412208 61.5175057,130.250207 L61.7065057,129.944207 C61.7305059,129.905207 61.7590056,129.875207 61.7920057,129.854207 C61.8250059,129.833207 61.8685055,129.822707 61.9225057,129.822707 C61.976506,129.822707 62.0335054,129.843707 62.0935057,129.885707 C62.153506,129.927707 62.2262553,129.974207 62.3117557,130.025207 C62.3972562,130.076208 62.5007551,130.122707 62.6222557,130.164707 C62.7437563,130.206707 62.8960048,130.227707 63.0790057,130.227707 C63.2350065,130.227707 63.3715051,130.207457 63.4885057,130.166957 C63.6055063,130.126457 63.7030053,130.071708 63.7810057,130.002707 C63.8590061,129.933707 63.9167555,129.854208 63.9542557,129.764207 C63.9917559,129.674207 64.0105057,129.578208 64.0105057,129.476207 C64.0105057,129.350207 63.9767561,129.245958 63.9092557,129.163457 C63.8417554,129.080957 63.7525063,129.010458 63.6415057,128.951957 C63.5305052,128.893457 63.4037564,128.842457 63.2612557,128.798957 C63.118755,128.755457 62.9732565,128.709708 62.8247557,128.661707 C62.676255,128.613707 62.5307564,128.558958 62.3882557,128.497457 C62.245755,128.435957 62.1190063,128.358708 62.0080057,128.265707 C61.8970052,128.172707 61.8077561,128.057958 61.7402557,127.921457 C61.6727554,127.784957 61.6390057,127.619208 61.6390057,127.424207 C61.6390057,127.250206 61.6750054,127.082958 61.7470057,126.922457 C61.8190061,126.761956 61.924005,126.620958 62.0620057,126.499457 C62.2000064,126.377957 62.3695047,126.281208 62.5705057,126.209207 C62.7715067,126.137207 63.0010044,126.101207 63.2590057,126.101207 C63.5590072,126.101207 63.8282545,126.148457 64.0667557,126.242957 C64.3052569,126.337458 64.5115049,126.467206 64.6855057,126.632207 L64.5055057,126.924707 Z M53.7280057,166.484707 L53.7280057,168.406207 L55.5595057,168.406207 L55.5595057,169.013707 L53.7280057,169.013707 L53.7280057,170.948707 L53.0710057,170.948707 L53.0710057,169.013707 L51.2485057,169.013707 L51.2485057,168.406207 L53.0710057,168.406207 L53.0710057,166.484707 L53.7280057,166.484707 Z M64.5055057,167.924707 C64.4695056,167.990708 64.4140061,168.023707 64.3390057,168.023707 C64.2940055,168.023707 64.243006,168.007207 64.1860057,167.974207 C64.1290054,167.941207 64.0592561,167.904458 63.9767557,167.863957 C63.8942553,167.823457 63.7960063,167.785957 63.6820057,167.751457 C63.5680052,167.716957 63.4330065,167.699707 63.2770057,167.699707 C63.1420051,167.699707 63.0205063,167.716957 62.9125057,167.751457 C62.8045052,167.785957 62.7122561,167.833207 62.6357557,167.893207 C62.5592553,167.953208 62.5007559,168.022957 62.4602557,168.102457 C62.4197555,168.181958 62.3995057,168.268207 62.3995057,168.361207 C62.3995057,168.478208 62.4332554,168.575707 62.5007557,168.653707 C62.5682561,168.731708 62.6575052,168.799207 62.7685057,168.856207 C62.8795063,168.913208 63.005505,168.963457 63.1465057,169.006957 C63.2875064,169.050458 63.432255,169.096957 63.5807557,169.146457 C63.7292565,169.195958 63.874005,169.250707 64.0150057,169.310707 C64.1560064,169.370708 64.2820052,169.445707 64.3930057,169.535707 C64.5040063,169.625708 64.5932554,169.735957 64.6607557,169.866457 C64.7282561,169.996958 64.7620057,170.153706 64.7620057,170.336707 C64.7620057,170.546708 64.7245061,170.740956 64.6495057,170.919457 C64.5745054,171.097958 64.4635065,171.252457 64.3165057,171.382957 C64.169505,171.513458 63.9895068,171.616207 63.7765057,171.691207 C63.5635047,171.766208 63.3175071,171.803707 63.0385057,171.803707 C62.7205041,171.803707 62.432507,171.751958 62.1745057,171.648457 C61.9165044,171.544957 61.6975066,171.412208 61.5175057,171.250207 L61.7065057,170.944207 C61.7305059,170.905207 61.7590056,170.875207 61.7920057,170.854207 C61.8250059,170.833207 61.8685055,170.822707 61.9225057,170.822707 C61.976506,170.822707 62.0335054,170.843707 62.0935057,170.885707 C62.153506,170.927708 62.2262553,170.974207 62.3117557,171.025207 C62.3972562,171.076208 62.5007551,171.122707 62.6222557,171.164707 C62.7437563,171.206708 62.8960048,171.227707 63.0790057,171.227707 C63.2350065,171.227707 63.3715051,171.207458 63.4885057,171.166957 C63.6055063,171.126457 63.7030053,171.071708 63.7810057,171.002707 C63.8590061,170.933707 63.9167555,170.854208 63.9542557,170.764207 C63.9917559,170.674207 64.0105057,170.578208 64.0105057,170.476207 C64.0105057,170.350207 63.9767561,170.245958 63.9092557,170.163457 C63.8417554,170.080957 63.7525063,170.010458 63.6415057,169.951957 C63.5305052,169.893457 63.4037564,169.842458 63.2612557,169.798957 C63.118755,169.755457 62.9732565,169.709708 62.8247557,169.661707 C62.676255,169.613707 62.5307564,169.558958 62.3882557,169.497457 C62.245755,169.435957 62.1190063,169.358708 62.0080057,169.265707 C61.8970052,169.172707 61.8077561,169.057958 61.7402557,168.921457 C61.6727554,168.784957 61.6390057,168.619208 61.6390057,168.424207 C61.6390057,168.250206 61.6750054,168.082958 61.7470057,167.922457 C61.8190061,167.761957 61.924005,167.620958 62.0620057,167.499457 C62.2000064,167.377957 62.3695047,167.281208 62.5705057,167.209207 C62.7715067,167.137207 63.0010044,167.101207 63.2590057,167.101207 C63.5590072,167.101207 63.8282545,167.148457 64.0667557,167.242957 C64.3052569,167.337458 64.5115049,167.467206 64.6855057,167.632207 L64.5055057,167.924707 Z M53.3455057,250.694207 L55.5685057,250.694207 L55.5685057,251.373707 L53.3455057,251.373707 L53.3455057,250.694207 Z M64.5055057,249.924707 C64.4695056,249.990708 64.4140061,250.023707 64.3390057,250.023707 C64.2940055,250.023707 64.243006,250.007207 64.1860057,249.974207 C64.1290054,249.941207 64.0592561,249.904458 63.9767557,249.863957 C63.8942553,249.823457 63.7960063,249.785957 63.6820057,249.751457 C63.5680052,249.716957 63.4330065,249.699707 63.2770057,249.699707 C63.1420051,249.699707 63.0205063,249.716957 62.9125057,249.751457 C62.8045052,249.785957 62.7122561,249.833207 62.6357557,249.893207 C62.5592553,249.953208 62.5007559,250.022957 62.4602557,250.102457 C62.4197555,250.181958 62.3995057,250.268207 62.3995057,250.361207 C62.3995057,250.478208 62.4332554,250.575707 62.5007557,250.653707 C62.5682561,250.731708 62.6575052,250.799207 62.7685057,250.856207 C62.8795063,250.913208 63.005505,250.963457 63.1465057,251.006957 C63.2875064,251.050458 63.432255,251.096957 63.5807557,251.146457 C63.7292565,251.195958 63.874005,251.250707 64.0150057,251.310707 C64.1560064,251.370708 64.2820052,251.445707 64.3930057,251.535707 C64.5040063,251.625708 64.5932554,251.735957 64.6607557,251.866457 C64.7282561,251.996958 64.7620057,252.153706 64.7620057,252.336707 C64.7620057,252.546708 64.7245061,252.740956 64.6495057,252.919457 C64.5745054,253.097958 64.4635065,253.252457 64.3165057,253.382957 C64.169505,253.513458 63.9895068,253.616207 63.7765057,253.691207 C63.5635047,253.766208 63.3175071,253.803707 63.0385057,253.803707 C62.7205041,253.803707 62.432507,253.751958 62.1745057,253.648457 C61.9165044,253.544957 61.6975066,253.412208 61.5175057,253.250207 L61.7065057,252.944207 C61.7305059,252.905207 61.7590056,252.875207 61.7920057,252.854207 C61.8250059,252.833207 61.8685055,252.822707 61.9225057,252.822707 C61.976506,252.822707 62.0335054,252.843707 62.0935057,252.885707 C62.153506,252.927708 62.2262553,252.974207 62.3117557,253.025207 C62.3972562,253.076208 62.5007551,253.122707 62.6222557,253.164707 C62.7437563,253.206708 62.8960048,253.227707 63.0790057,253.227707 C63.2350065,253.227707 63.3715051,253.207458 63.4885057,253.166957 C63.6055063,253.126457 63.7030053,253.071708 63.7810057,253.002707 C63.8590061,252.933707 63.9167555,252.854208 63.9542557,252.764207 C63.9917559,252.674207 64.0105057,252.578208 64.0105057,252.476207 C64.0105057,252.350207 63.9767561,252.245958 63.9092557,252.163457 C63.8417554,252.080957 63.7525063,252.010458 63.6415057,251.951957 C63.5305052,251.893457 63.4037564,251.842458 63.2612557,251.798957 C63.118755,251.755457 62.9732565,251.709708 62.8247557,251.661707 C62.676255,251.613707 62.5307564,251.558958 62.3882557,251.497457 C62.245755,251.435957 62.1190063,251.358708 62.0080057,251.265707 C61.8970052,251.172707 61.8077561,251.057958 61.7402557,250.921457 C61.6727554,250.784957 61.6390057,250.619208 61.6390057,250.424207 C61.6390057,250.250206 61.6750054,250.082958 61.7470057,249.922457 C61.8190061,249.761957 61.924005,249.620958 62.0620057,249.499457 C62.2000064,249.377957 62.3695047,249.281208 62.5705057,249.209207 C62.7715067,249.137207 63.0010044,249.101207 63.2590057,249.101207 C63.5590072,249.101207 63.8282545,249.148457 64.0667557,249.242957 C64.3052569,249.337458 64.5115049,249.467206 64.6855057,249.632207 L64.5055057,249.924707 Z M53.3455057,291.694207 L55.5685057,291.694207 L55.5685057,292.373707 L53.3455057,292.373707 L53.3455057,291.694207 Z M58.7230057,247.27 C58.9960071,247.27 59.2510046,247.3105 59.4880057,247.3915 C59.7250069,247.472501 59.9297549,247.59025 60.1022557,247.74475 C60.2747566,247.899251 60.4105052,248.087499 60.5095057,248.3095 C60.6085062,248.531501 60.6580057,248.783499 60.6580057,249.0655 C60.6580057,249.305502 60.6220061,249.527499 60.5500057,249.7315 C60.4780054,249.935501 60.3805064,250.131249 60.2575057,250.31875 C60.1345051,250.506251 59.9927565,250.687749 59.8322557,250.86325 C59.6717549,251.038751 59.5015066,251.217999 59.3215057,251.401 L57.6250057,253.138 C57.7450063,253.105 57.8665051,253.07875 57.9895057,253.05925 C58.1125064,253.03975 58.2310052,253.03 58.3450057,253.03 L60.5050057,253.03 C60.5920062,253.03 60.6610055,253.0555 60.7120057,253.1065 C60.763006,253.157501 60.7885057,253.2235 60.7885057,253.3045 L60.7885057,253.7905 L56.4865057,253.7905 L56.4865057,253.516 C56.4865057,253.459 56.4977556,253.400501 56.5202557,253.3405 C56.5427558,253.2805 56.5795055,253.225001 56.6305057,253.174 L58.6960057,251.0995 C58.8670066,250.925499 59.023005,250.758251 59.1640057,250.59775 C59.3050064,250.43725 59.4257552,250.276001 59.5262557,250.114 C59.6267562,249.952 59.7040055,249.787751 59.7580057,249.62125 C59.812006,249.454749 59.8390057,249.277001 59.8390057,249.088 C59.8390057,248.898999 59.809006,248.733251 59.7490057,248.59075 C59.6890054,248.44825 59.6065063,248.330501 59.5015057,248.2375 C59.3965052,248.1445 59.2735064,248.074751 59.1325057,248.02825 C58.991505,247.98175 58.8400065,247.9585 58.6780057,247.9585 C58.5160049,247.9585 58.3660064,247.9825 58.2280057,248.0305 C58.090005,248.078501 57.9677563,248.14525 57.8612557,248.23075 C57.7547552,248.316251 57.6647561,248.4175 57.5912557,248.5345 C57.5177554,248.651501 57.4660059,248.7805 57.4360057,248.9215 C57.4120056,249.008501 57.376006,249.0715 57.3280057,249.1105 C57.2800055,249.149501 57.2170061,249.169 57.1390057,249.169 C57.1240057,249.169 57.1082558,249.16825 57.0917557,249.16675 C57.0752557,249.16525 57.0565058,249.163 57.0355057,249.16 L56.6170057,249.088 C56.6590059,248.793999 56.7400051,248.533751 56.8600057,248.30725 C56.9800063,248.080749 57.1322548,247.891001 57.3167557,247.738 C57.5012567,247.585 57.7127545,247.468751 57.9512557,247.38925 C58.1897569,247.30975 58.4470044,247.27 58.7230057,247.27 Z M64.5055057,290.924707 C64.4695056,290.990708 64.4140061,291.023707 64.3390057,291.023707 C64.2940055,291.023707 64.243006,291.007207 64.1860057,290.974207 C64.1290054,290.941207 64.0592561,290.904458 63.9767557,290.863957 C63.8942553,290.823457 63.7960063,290.785957 63.6820057,290.751457 C63.5680052,290.716957 63.4330065,290.699707 63.2770057,290.699707 C63.1420051,290.699707 63.0205063,290.716957 62.9125057,290.751457 C62.8045052,290.785957 62.7122561,290.833207 62.6357557,290.893207 C62.5592553,290.953208 62.5007559,291.022957 62.4602557,291.102457 C62.4197555,291.181958 62.3995057,291.268207 62.3995057,291.361207 C62.3995057,291.478208 62.4332554,291.575707 62.5007557,291.653707 C62.5682561,291.731708 62.6575052,291.799207 62.7685057,291.856207 C62.8795063,291.913208 63.005505,291.963457 63.1465057,292.006957 C63.2875064,292.050458 63.432255,292.096957 63.5807557,292.146457 C63.7292565,292.195958 63.874005,292.250707 64.0150057,292.310707 C64.1560064,292.370708 64.2820052,292.445707 64.3930057,292.535707 C64.5040063,292.625708 64.5932554,292.735957 64.6607557,292.866457 C64.7282561,292.996958 64.7620057,293.153706 64.7620057,293.336707 C64.7620057,293.546708 64.7245061,293.740956 64.6495057,293.919457 C64.5745054,294.097958 64.4635065,294.252457 64.3165057,294.382957 C64.169505,294.513458 63.9895068,294.616207 63.7765057,294.691207 C63.5635047,294.766208 63.3175071,294.803707 63.0385057,294.803707 C62.7205041,294.803707 62.432507,294.751958 62.1745057,294.648457 C61.9165044,294.544957 61.6975066,294.412208 61.5175057,294.250207 L61.7065057,293.944207 C61.7305059,293.905207 61.7590056,293.875207 61.7920057,293.854207 C61.8250059,293.833207 61.8685055,293.822707 61.9225057,293.822707 C61.976506,293.822707 62.0335054,293.843707 62.0935057,293.885707 C62.153506,293.927708 62.2262553,293.974207 62.3117557,294.025207 C62.3972562,294.076208 62.5007551,294.122707 62.6222557,294.164707 C62.7437563,294.206708 62.8960048,294.227707 63.0790057,294.227707 C63.2350065,294.227707 63.3715051,294.207458 63.4885057,294.166957 C63.6055063,294.126457 63.7030053,294.071708 63.7810057,294.002707 C63.8590061,293.933707 63.9167555,293.854208 63.9542557,293.764207 C63.9917559,293.674207 64.0105057,293.578208 64.0105057,293.476207 C64.0105057,293.350207 63.9767561,293.245958 63.9092557,293.163457 C63.8417554,293.080957 63.7525063,293.010458 63.6415057,292.951957 C63.5305052,292.893457 63.4037564,292.842458 63.2612557,292.798957 C63.118755,292.755457 62.9732565,292.709708 62.8247557,292.661707 C62.676255,292.613707 62.5307564,292.558958 62.3882557,292.497457 C62.245755,292.435957 62.1190063,292.358708 62.0080057,292.265707 C61.8970052,292.172707 61.8077561,292.057958 61.7402557,291.921457 C61.6727554,291.784957 61.6390057,291.619208 61.6390057,291.424207 C61.6390057,291.250206 61.6750054,291.082958 61.7470057,290.922457 C61.8190061,290.761957 61.924005,290.620958 62.0620057,290.499457 C62.2000064,290.377957 62.3695047,290.281208 62.5705057,290.209207 C62.7715067,290.137207 63.0010044,290.101207 63.2590057,290.101207 C63.5590072,290.101207 63.8282545,290.148457 64.0667557,290.242957 C64.3052569,290.337458 64.5115049,290.467206 64.6855057,290.632207 L64.5055057,290.924707 Z M53.3455057,332.694207 L55.5685057,332.694207 L55.5685057,333.373707 L53.3455057,333.373707 L53.3455057,332.694207 Z M64.5055057,331.924707 C64.4695056,331.990708 64.4140061,332.023707 64.3390057,332.023707 C64.2940055,332.023707 64.243006,332.007207 64.1860057,331.974207 C64.1290054,331.941207 64.0592561,331.904458 63.9767557,331.863957 C63.8942553,331.823457 63.7960063,331.785957 63.6820057,331.751457 C63.5680052,331.716957 63.4330065,331.699707 63.2770057,331.699707 C63.1420051,331.699707 63.0205063,331.716957 62.9125057,331.751457 C62.8045052,331.785957 62.7122561,331.833207 62.6357557,331.893207 C62.5592553,331.953208 62.5007559,332.022957 62.4602557,332.102457 C62.4197555,332.181958 62.3995057,332.268207 62.3995057,332.361207 C62.3995057,332.478208 62.4332554,332.575707 62.5007557,332.653707 C62.5682561,332.731708 62.6575052,332.799207 62.7685057,332.856207 C62.8795063,332.913208 63.005505,332.963457 63.1465057,333.006957 C63.2875064,333.050458 63.432255,333.096957 63.5807557,333.146457 C63.7292565,333.195958 63.874005,333.250707 64.0150057,333.310707 C64.1560064,333.370708 64.2820052,333.445707 64.3930057,333.535707 C64.5040063,333.625708 64.5932554,333.735957 64.6607557,333.866457 C64.7282561,333.996958 64.7620057,334.153706 64.7620057,334.336707 C64.7620057,334.546708 64.7245061,334.740956 64.6495057,334.919457 C64.5745054,335.097958 64.4635065,335.252457 64.3165057,335.382957 C64.169505,335.513458 63.9895068,335.616207 63.7765057,335.691207 C63.5635047,335.766208 63.3175071,335.803707 63.0385057,335.803707 C62.7205041,335.803707 62.432507,335.751958 62.1745057,335.648457 C61.9165044,335.544957 61.6975066,335.412208 61.5175057,335.250207 L61.7065057,334.944207 C61.7305059,334.905207 61.7590056,334.875207 61.7920057,334.854207 C61.8250059,334.833207 61.8685055,334.822707 61.9225057,334.822707 C61.976506,334.822707 62.0335054,334.843707 62.0935057,334.885707 C62.153506,334.927708 62.2262553,334.974207 62.3117557,335.025207 C62.3972562,335.076208 62.5007551,335.122707 62.6222557,335.164707 C62.7437563,335.206708 62.8960048,335.227707 63.0790057,335.227707 C63.2350065,335.227707 63.3715051,335.207458 63.4885057,335.166957 C63.6055063,335.126457 63.7030053,335.071708 63.7810057,335.002707 C63.8590061,334.933707 63.9167555,334.854208 63.9542557,334.764207 C63.9917559,334.674207 64.0105057,334.578208 64.0105057,334.476207 C64.0105057,334.350207 63.9767561,334.245958 63.9092557,334.163457 C63.8417554,334.080957 63.7525063,334.010458 63.6415057,333.951957 C63.5305052,333.893457 63.4037564,333.842458 63.2612557,333.798957 C63.118755,333.755457 62.9732565,333.709708 62.8247557,333.661707 C62.676255,333.613707 62.5307564,333.558958 62.3882557,333.497457 C62.245755,333.435957 62.1190063,333.358708 62.0080057,333.265707 C61.8970052,333.172707 61.8077561,333.057958 61.7402557,332.921457 C61.6727554,332.784957 61.6390057,332.619208 61.6390057,332.424207 C61.6390057,332.250206 61.6750054,332.082958 61.7470057,331.922457 C61.8190061,331.761957 61.924005,331.620958 62.0620057,331.499457 C62.2000064,331.377957 62.3695047,331.281208 62.5705057,331.209207 C62.7715067,331.137207 63.0010044,331.101207 63.2590057,331.101207 C63.5590072,331.101207 63.8282545,331.148457 64.0667557,331.242957 C64.3052569,331.337458 64.5115049,331.467206 64.6855057,331.632207 L64.5055057,331.924707 Z" id="+3s-+2s-+1s-X--1s--2" fill="#888888" fill-rule="nonzero"></path>
        <path d="M90.3872252,354.7285 L91.7732252,354.7285 L91.7732252,350.332 C91.7732252,350.2 91.7777252,350.066501 91.7867252,349.9315 L90.6347252,350.917 C90.6047251,350.941001 90.5747254,350.95825 90.5447252,350.96875 C90.5147251,350.97925 90.4862254,350.9845 90.4592252,350.9845 C90.414225,350.9845 90.3737254,350.974751 90.3377252,350.95525 C90.3017251,350.93575 90.2747253,350.912501 90.2567252,350.8855 L90.0047252,350.539 L91.9217252,348.8785 L92.5742252,348.8785 L92.5742252,354.7285 L93.8432252,354.7285 L93.8432252,355.3405 L90.3872252,355.3405 L90.3872252,354.7285 Z M118.305225,348.82 C118.578226,348.82 118.833224,348.8605 119.070225,348.9415 C119.307226,349.022501 119.511974,349.14025 119.684475,349.29475 C119.856976,349.449251 119.992724,349.637499 120.091725,349.8595 C120.190725,350.081502 120.240225,350.333499 120.240225,350.6155 C120.240225,350.855502 120.204225,351.077499 120.132225,351.2815 C120.060224,351.485501 119.962725,351.681249 119.839725,351.86875 C119.716724,352.056251 119.574975,352.23775 119.414475,352.41325 C119.253974,352.588751 119.083726,352.767999 118.903725,352.951 L117.207225,354.688 C117.327225,354.655 117.448724,354.628751 117.571725,354.60925 C117.694725,354.58975 117.813224,354.58 117.927225,354.58 L120.087225,354.58 C120.174225,354.58 120.243224,354.6055 120.294225,354.6565 C120.345225,354.707501 120.370725,354.7735 120.370725,354.8545 L120.370725,355.3405 L116.068725,355.3405 L116.068725,355.066 C116.068725,355.009 116.079975,354.950501 116.102475,354.8905 C116.124975,354.8305 116.161724,354.775001 116.212725,354.724 L118.278225,352.6495 C118.449226,352.4755 118.605224,352.308251 118.746225,352.14775 C118.887225,351.98725 119.007974,351.826001 119.108475,351.664 C119.208975,351.502 119.286224,351.337751 119.340225,351.17125 C119.394225,351.00475 119.421225,350.827001 119.421225,350.638 C119.421225,350.448999 119.391225,350.283251 119.331225,350.14075 C119.271224,349.99825 119.188725,349.880501 119.083725,349.7875 C118.978724,349.6945 118.855725,349.624751 118.714725,349.57825 C118.573724,349.53175 118.422225,349.5085 118.260225,349.5085 C118.098224,349.5085 117.948225,349.5325 117.810225,349.5805 C117.672224,349.628501 117.549975,349.69525 117.443475,349.78075 C117.336974,349.866251 117.246975,349.9675 117.173475,350.0845 C117.099974,350.201501 117.048225,350.3305 117.018225,350.4715 C116.994225,350.558501 116.958225,350.6215 116.910225,350.6605 C116.862224,350.699501 116.799225,350.719 116.721225,350.719 C116.706225,350.719 116.690475,350.71825 116.673975,350.71675 C116.657475,350.71525 116.638725,350.713 116.617725,350.71 L116.199225,350.638 C116.241225,350.343999 116.322224,350.083752 116.442225,349.85725 C116.562225,349.630749 116.714474,349.441001 116.898975,349.288 C117.083476,349.135 117.294973,349.018751 117.533475,348.93925 C117.771976,348.85975 118.029223,348.82 118.305225,348.82 Z M144.895724,348.82 C145.168725,348.82 145.420723,348.859 145.651724,348.937 C145.882725,349.015001 146.081473,349.126 146.247974,349.27 C146.414475,349.414001 146.544224,349.587999 146.637224,349.792 C146.730225,349.996001 146.776724,350.222499 146.776724,350.4715 C146.776724,350.675501 146.750474,350.85775 146.697974,351.01825 C146.645474,351.178751 146.570475,351.31975 146.472974,351.44125 C146.375474,351.562751 146.257725,351.6655 146.119724,351.7495 C145.981723,351.833501 145.827225,351.901 145.656224,351.952 C146.076226,352.063001 146.391973,352.248999 146.603474,352.51 C146.814975,352.771002 146.920724,353.097998 146.920724,353.491 C146.920724,353.788002 146.864475,354.054999 146.751974,354.292 C146.639473,354.529002 146.485725,354.73075 146.290724,354.89725 C146.095723,355.063751 145.868475,355.19125 145.608974,355.27975 C145.349473,355.368251 145.071226,355.4125 144.774224,355.4125 C144.432222,355.4125 144.139725,355.369751 143.896724,355.28425 C143.653723,355.19875 143.448225,355.081001 143.280224,354.931 C143.112223,354.781 142.974225,354.603251 142.866224,354.39775 C142.758224,354.192249 142.666724,353.969502 142.591724,353.7295 L142.933724,353.5855 C142.996724,353.5585 143.059724,353.545 143.122724,353.545 C143.182724,353.545 143.235974,353.55775 143.282474,353.58325 C143.328974,353.608751 143.364224,353.6485 143.388224,353.7025 C143.394224,353.7145 143.400224,353.72725 143.406224,353.74075 C143.412224,353.75425 143.418224,353.7685 143.424224,353.7835 C143.466224,353.870501 143.517224,353.96875 143.577224,354.07825 C143.637224,354.187751 143.718224,354.2905 143.820224,354.3865 C143.922225,354.482501 144.048973,354.5635 144.200474,354.6295 C144.351975,354.695501 144.540223,354.7285 144.765224,354.7285 C144.990225,354.7285 145.187473,354.691751 145.356974,354.61825 C145.526475,354.54475 145.667473,354.449501 145.779974,354.3325 C145.892475,354.2155 145.977224,354.085001 146.034224,353.941 C146.091224,353.797 146.119724,353.654501 146.119724,353.5135 C146.119724,353.3395 146.096474,353.180501 146.049974,353.0365 C146.003474,352.8925 145.919475,352.768001 145.797974,352.663 C145.676473,352.558 145.508475,352.475501 145.293974,352.4155 C145.079473,352.3555 144.804226,352.3255 144.468224,352.3255 L144.468224,351.745 C144.741225,351.742 144.974473,351.712001 145.167974,351.655 C145.361475,351.598 145.519723,351.520001 145.642724,351.421 C145.765725,351.322 145.854974,351.203501 145.910474,351.0655 C145.965974,350.9275 145.993724,350.774501 145.993724,350.6065 C145.993724,350.420499 145.964474,350.258501 145.905974,350.1205 C145.847474,349.9825 145.767225,349.868501 145.665224,349.7785 C145.563224,349.6885 145.442475,349.621001 145.302974,349.576 C145.163473,349.531 145.012725,349.5085 144.850724,349.5085 C144.688723,349.5085 144.538725,349.5325 144.400724,349.5805 C144.262723,349.628501 144.140475,349.69525 144.033974,349.78075 C143.927474,349.866251 143.838224,349.96825 143.766224,350.08675 C143.694224,350.205251 143.640224,350.3335 143.604224,350.4715 C143.580224,350.558501 143.544224,350.6215 143.496224,350.6605 C143.448224,350.699501 143.386724,350.719 143.311724,350.719 C143.296724,350.719 143.280974,350.71825 143.264474,350.71675 C143.247974,350.71525 143.229224,350.713 143.208224,350.71 L142.789724,350.638 C142.831724,350.343999 142.912723,350.083752 143.032724,349.85725 C143.152725,349.630749 143.304973,349.441001 143.489474,349.288 C143.673975,349.135 143.885473,349.018751 144.123974,348.93925 C144.362475,348.85975 144.619723,348.82 144.895724,348.82 Z M172.674224,353.014 L173.650724,353.014 L173.650724,353.473 C173.650724,353.521001 173.636474,353.5615 173.607974,353.5945 C173.579473,353.627501 173.535224,353.644 173.475224,353.644 L172.674224,353.644 L172.674224,355.3405 L171.967724,355.3405 L171.967724,353.644 L169.110224,353.644 C169.050223,353.644 168.998474,353.626751 168.954974,353.59225 C168.911473,353.55775 168.883724,353.515001 168.871724,353.464 L168.790724,353.0545 L171.927224,348.892 L172.674224,348.892 L172.674224,353.014 Z M171.967724,350.3545 C171.967724,350.2765 171.969974,350.192501 171.974474,350.1025 C171.978974,350.0125 171.988723,349.919501 172.003724,349.8235 L169.659224,353.014 L171.967724,353.014 L171.967724,350.3545 Z M199.516723,349.243 C199.516723,349.357001 199.480723,349.45075 199.408723,349.52425 C199.336723,349.597751 199.215224,349.6345 199.044223,349.6345 L197.019223,349.6345 L196.722223,351.3265 C197.058225,351.2545 197.368722,351.2185 197.653723,351.2185 C197.989725,351.2185 198.285972,351.268 198.542473,351.367 C198.798974,351.466001 199.014222,351.6025 199.188223,351.7765 C199.362224,351.950501 199.493473,352.155999 199.581973,352.393 C199.670473,352.630002 199.714723,352.887999 199.714723,353.167 C199.714723,353.509002 199.654724,353.817999 199.534723,354.094 C199.414722,354.370002 199.250474,354.606249 199.041973,354.80275 C198.833472,354.999251 198.588224,355.15 198.306223,355.255 C198.024222,355.360001 197.719725,355.4125 197.392723,355.4125 C197.203722,355.4125 197.022224,355.393751 196.848223,355.35625 C196.674222,355.31875 196.512224,355.268501 196.362223,355.2055 C196.212222,355.1425 196.072724,355.070501 195.943723,354.9895 C195.814722,354.9085 195.700723,354.823001 195.601723,354.733 L195.844723,354.391 C195.898723,354.313 195.970723,354.274 196.060723,354.274 C196.117723,354.274 196.184473,354.29725 196.260973,354.34375 C196.337473,354.390251 196.429722,354.442 196.537723,354.499 C196.645723,354.556001 196.772472,354.60775 196.917973,354.65425 C197.063474,354.700751 197.236722,354.724 197.437723,354.724 C197.662724,354.724 197.865222,354.688001 198.045223,354.616 C198.225224,354.544 198.378972,354.441251 198.506473,354.30775 C198.633974,354.17425 198.732223,354.014501 198.801223,353.8285 C198.870223,353.642499 198.904723,353.434002 198.904723,353.203 C198.904723,353.001999 198.875473,352.820501 198.816973,352.6585 C198.758473,352.4965 198.669974,352.358501 198.551473,352.2445 C198.432972,352.1305 198.285224,352.042001 198.108223,351.979 C197.931222,351.916 197.724224,351.8845 197.487223,351.8845 C197.325222,351.8845 197.157224,351.898 196.983223,351.925 C196.809222,351.952001 196.629224,351.9955 196.443223,352.0555 L195.939223,351.907 L196.461223,348.892 L199.516723,348.892 L199.516723,349.243 Z M224.545722,351.3895 C224.803724,351.3895 225.048221,351.43225 225.279222,351.51775 C225.510224,351.603251 225.712722,351.72775 225.886722,351.89125 C226.060723,352.054751 226.198722,352.255749 226.300722,352.49425 C226.402723,352.732752 226.453722,353.004999 226.453722,353.311 C226.453722,353.608002 226.399723,353.883999 226.291722,354.139 C226.183722,354.394002 226.032973,354.615999 225.839472,354.805 C225.645971,354.994001 225.412724,355.1425 225.139722,355.2505 C224.866721,355.358501 224.566724,355.4125 224.239722,355.4125 C223.915721,355.4125 223.622474,355.360751 223.359972,355.25725 C223.097471,355.15375 222.873223,355.006751 222.687222,354.81625 C222.501221,354.625749 222.357973,354.394752 222.257472,354.12325 C222.156972,353.851749 222.106722,353.548002 222.106722,353.212 C222.106722,352.929999 222.169722,352.630002 222.295722,352.312 C222.421723,351.993999 222.621221,351.652002 222.894222,351.286 L224.527722,349.0855 C224.569723,349.0315 224.628222,348.985751 224.703222,348.94825 C224.778223,348.91075 224.863722,348.892 224.959722,348.892 L225.670722,348.892 L223.434222,351.7225 C223.587223,351.6175 223.756721,351.535751 223.942722,351.47725 C224.128723,351.41875 224.329721,351.3895 224.545722,351.3895 Z M222.880722,353.3515 C222.880722,353.558501 222.910722,353.7475 222.970722,353.9185 C223.030723,354.089501 223.118472,354.2365 223.233972,354.3595 C223.349473,354.482501 223.490472,354.57775 223.656972,354.64525 C223.823473,354.712751 224.013221,354.7465 224.226222,354.7465 C224.442223,354.7465 224.637222,354.712001 224.811222,354.643 C224.985223,354.574 225.134472,354.478001 225.258972,354.355 C225.383473,354.232 225.479472,354.086501 225.546972,353.9185 C225.614473,353.7505 225.648222,353.567501 225.648222,353.3695 C225.648222,353.159499 225.615223,352.969751 225.549222,352.80025 C225.483222,352.63075 225.390223,352.486751 225.270222,352.36825 C225.150222,352.24975 225.006223,352.159001 224.838222,352.096 C224.670222,352.033 224.485723,352.0015 224.284722,352.0015 C224.068721,352.0015 223.873723,352.03825 223.699722,352.11175 C223.525722,352.185251 223.377973,352.28425 223.256472,352.40875 C223.134972,352.533251 223.041973,352.67725 222.977472,352.84075 C222.912972,353.004251 222.880722,353.1745 222.880722,353.3515 Z M58.929,86.4975 C59.187002,86.4975 59.431499,86.54025 59.6625,86.62575 C59.893502,86.711251 60.096,86.83575 60.27,86.99925 C60.444001,87.162751 60.582,87.363749 60.684,87.60225 C60.786001,87.840752 60.837,88.112999 60.837,88.419 C60.837,88.716002 60.783001,88.991999 60.675,89.247 C60.567,89.502002 60.416251,89.723999 60.22275,89.913 C60.029249,90.102001 59.796002,90.2505 59.523,90.3585 C59.249999,90.466501 58.950002,90.5205 58.623,90.5205 C58.298999,90.5205 58.005752,90.468751 57.74325,90.36525 C57.480749,90.26175 57.256501,90.114751 57.0705,89.92425 C56.884499,89.733749 56.741251,89.502752 56.64075,89.23125 C56.54025,88.959749 56.49,88.656002 56.49,88.32 C56.49,88.037999 56.553,87.738002 56.679,87.42 C56.805001,87.101999 57.004499,86.760002 57.2775,86.394 L58.911,84.1935 C58.953001,84.1395 59.0115,84.093751 59.0865,84.05625 C59.161501,84.01875 59.247,84 59.343,84 L60.054,84 L57.8175,86.8305 C57.970501,86.7255 58.139999,86.643751 58.326,86.58525 C58.512001,86.52675 58.712999,86.4975 58.929,86.4975 Z M57.24,88.55 C57.24,88.757001 57.27,88.946 57.33,89.117 C57.390001,89.288001 57.47775,89.435 57.59325,89.558 C57.708751,89.681001 57.84975,89.77625 58.01625,89.84375 C58.182751,89.911251 58.372499,89.945 58.5855,89.945 C58.801501,89.945 58.9965,89.910501 59.1705,89.8415 C59.344501,89.7725 59.49375,89.676501 59.61825,89.5535 C59.742751,89.4305 59.83875,89.285001 59.90625,89.117 C59.973751,88.949 60.0075,88.766001 60.0075,88.568 C60.0075,88.357999 59.974501,88.168251 59.9085,87.99875 C59.8425,87.82925 59.749501,87.685251 59.6295,87.56675 C59.5095,87.44825 59.365501,87.357501 59.1975,87.2945 C59.0295,87.2315 58.845001,87.2 58.644,87.2 C58.427999,87.2 58.233001,87.23675 58.059,87.31025 C57.885,87.383751 57.737251,87.48275 57.61575,87.60725 C57.49425,87.731751 57.401251,87.87575 57.33675,88.03925 C57.27225,88.202751 57.24,88.373 57.24,88.55 Z M58.939,331.9975 C59.197002,331.9975 59.441499,332.04025 59.6725,332.12575 C59.903502,332.211251 60.106,332.33575 60.28,332.49925 C60.454001,332.662751 60.592,332.863749 60.694,333.10225 C60.796001,333.340752 60.847,333.612999 60.847,333.919 C60.847,334.216002 60.793001,334.491999 60.685,334.747 C60.577,335.002002 60.426251,335.223999 60.23275,335.413 C60.039249,335.602001 59.806002,335.7505 59.533,335.8585 C59.259999,335.966501 58.960002,336.0205 58.633,336.0205 C58.308999,336.0205 58.015752,335.968751 57.75325,335.86525 C57.490749,335.76175 57.266501,335.614751 57.0805,335.42425 C56.894499,335.233749 56.751251,335.002752 56.65075,334.73125 C56.55025,334.459749 56.5,334.156002 56.5,333.82 C56.5,333.537999 56.563,333.238002 56.689,332.92 C56.815001,332.601999 57.014499,332.260002 57.2875,331.894 L58.921,329.6935 C58.963001,329.6395 59.0215,329.593751 59.0965,329.55625 C59.171501,329.51875 59.257,329.5 59.353,329.5 L60.064,329.5 L57.8275,332.3305 C57.980501,332.2255 58.149999,332.143751 58.336,332.08525 C58.522001,332.02675 58.722999,331.9975 58.939,331.9975 Z M57.3,333.95 C57.3,334.157001 57.33,334.346 57.39,334.517 C57.450001,334.688001 57.53775,334.835 57.65325,334.958 C57.768751,335.081001 57.90975,335.17625 58.07625,335.24375 C58.242751,335.311251 58.432499,335.345 58.6455,335.345 C58.861501,335.345 59.0565,335.310501 59.2305,335.2415 C59.404501,335.1725 59.55375,335.076501 59.67825,334.9535 C59.802751,334.8305 59.89875,334.685001 59.96625,334.517 C60.033751,334.349 60.0675,334.166001 60.0675,333.968 C60.0675,333.757999 60.034501,333.568251 59.9685,333.39875 C59.9025,333.22925 59.809501,333.085251 59.6895,332.96675 C59.5695,332.84825 59.425501,332.757501 59.2575,332.6945 C59.0895,332.6315 58.905001,332.6 58.704,332.6 C58.487999,332.6 58.293001,332.63675 58.119,332.71025 C57.945,332.783751 57.797251,332.88275 57.67575,333.00725 C57.55425,333.131751 57.461251,333.27575 57.39675,333.43925 C57.33225,333.602751 57.3,333.773 57.3,333.95 Z M253.003722,348.892 L253.003722,349.252 C253.003722,349.354001 252.992472,349.438 252.969972,349.504 C252.947472,349.570001 252.924222,349.6255 252.900222,349.6705 L250.231722,355.057 C250.192722,355.135001 250.138722,355.20175 250.069722,355.25725 C250.000721,355.312751 249.907722,355.3405 249.790722,355.3405 L249.219222,355.3405 L251.928222,350.0215 C251.967222,349.9465 252.006972,349.877501 252.047472,349.8145 C252.087972,349.7515 252.133722,349.691501 252.184722,349.6345 L248.818722,349.6345 C248.767722,349.6345 248.721972,349.614251 248.681472,349.57375 C248.640972,349.53325 248.620722,349.487501 248.620722,349.4365 L248.620722,348.892 L253.003722,348.892 Z M277.236221,355.4125 C276.91522,355.4125 276.621223,355.369751 276.354221,355.28425 C276.08722,355.19875 275.857722,355.076501 275.665721,354.9175 C275.47372,354.7585 275.325222,354.565752 275.220221,354.33925 C275.115221,354.112749 275.062721,353.858502 275.062721,353.5765 C275.062721,353.162498 275.17072,352.821252 275.386721,352.55275 C275.602722,352.284249 275.911719,352.093001 276.313721,351.979 C275.97472,351.853 275.718972,351.664752 275.546471,351.41425 C275.37397,351.163749 275.287721,350.864502 275.287721,350.5165 C275.287721,350.279499 275.334221,350.057501 275.427221,349.8505 C275.520222,349.643499 275.65222,349.463501 275.823221,349.3105 C275.994222,349.1575 276.19897,349.037501 276.437471,348.9505 C276.675972,348.8635 276.94222,348.82 277.236221,348.82 C277.527223,348.82 277.79272,348.8635 278.032721,348.9505 C278.272722,349.037501 278.47822,349.1575 278.649221,349.3105 C278.820222,349.463501 278.952221,349.643499 279.045221,349.8505 C279.138222,350.057501 279.184721,350.279499 279.184721,350.5165 C279.184721,350.864502 279.097722,351.163749 278.923721,351.41425 C278.74972,351.664752 278.494723,351.853 278.158721,351.979 C278.560723,352.093001 278.86972,352.284249 279.085721,352.55275 C279.301722,352.821252 279.409721,353.162498 279.409721,353.5765 C279.409721,353.858502 279.356472,354.112749 279.249971,354.33925 C279.143471,354.565752 278.994972,354.7585 278.804471,354.9175 C278.61397,355.076501 278.385223,355.19875 278.118221,355.28425 C277.85122,355.369751 277.557223,355.4125 277.236221,355.4125 Z M277.236221,354.7735 C277.446222,354.7735 277.63447,354.744251 277.800971,354.68575 C277.967472,354.62725 278.108471,354.544751 278.223971,354.43825 C278.339472,354.33175 278.427971,354.204251 278.489471,354.05575 C278.550972,353.90725 278.581721,353.743001 278.581721,353.563 C278.581721,353.340999 278.544972,353.151251 278.471471,352.99375 C278.397971,352.83625 278.298972,352.708001 278.174471,352.609 C278.049971,352.51 277.906722,352.437251 277.744721,352.39075 C277.58272,352.34425 277.413222,352.321 277.236221,352.321 C277.05922,352.321 276.889722,352.34425 276.727721,352.39075 C276.56572,352.437251 276.422472,352.51 276.297971,352.609 C276.173471,352.708001 276.074472,352.83625 276.000971,352.99375 C275.927471,353.151251 275.890721,353.340999 275.890721,353.563 C275.890721,353.743001 275.921471,353.90725 275.982971,354.05575 C276.044472,354.204251 276.132971,354.33175 276.248471,354.43825 C276.363972,354.544751 276.50497,354.62725 276.671471,354.68575 C276.837972,354.744251 277.02622,354.7735 277.236221,354.7735 Z M277.236221,351.6775 C277.446222,351.6775 277.62547,351.645251 277.773971,351.58075 C277.922472,351.51625 278.043221,351.430751 278.136221,351.32425 C278.229222,351.21775 278.296721,351.095501 278.338721,350.9575 C278.380721,350.8195 278.401721,350.677001 278.401721,350.53 C278.401721,350.38 278.376971,350.239001 278.327471,350.107 C278.277971,349.975 278.204472,349.859501 278.106971,349.7605 C278.009471,349.6615 277.887972,349.583501 277.742471,349.5265 C277.596971,349.4695 277.428222,349.441 277.236221,349.441 C277.04422,349.441 276.875472,349.4695 276.729971,349.5265 C276.584471,349.583501 276.462972,349.6615 276.365471,349.7605 C276.267971,349.859501 276.194471,349.975 276.144971,350.107 C276.095471,350.239001 276.070721,350.38 276.070721,350.53 C276.070721,350.677001 276.091721,350.8195 276.133721,350.9575 C276.175721,351.095501 276.243221,351.21775 276.336221,351.32425 C276.429222,351.430751 276.54997,351.51625 276.698471,351.58075 C276.846972,351.645251 277.02622,351.6775 277.236221,351.6775 Z M303.606221,352.6945 C303.363219,352.6945 303.132972,352.654001 302.915471,352.573 C302.69797,352.492 302.506721,352.372751 302.341721,352.21525 C302.17672,352.05775 302.045471,351.864252 301.947971,351.63475 C301.85047,351.405249 301.801721,351.142002 301.801721,350.845 C301.801721,350.562999 301.85422,350.299002 301.959221,350.053 C302.064221,349.806999 302.21122,349.592501 302.400221,349.4095 C302.589222,349.226499 302.814219,349.082501 303.075221,348.9775 C303.336222,348.8725 303.622719,348.82 303.934721,348.82 C304.243722,348.82 304.524219,348.871 304.776221,348.973 C305.028222,349.075001 305.24422,349.217499 305.424221,349.4005 C305.604222,349.583501 305.74297,349.802499 305.840471,350.0575 C305.937971,350.312502 305.986721,350.594499 305.986721,350.9035 C305.986721,351.089501 305.969471,351.26575 305.934971,351.43225 C305.90047,351.598751 305.850221,351.7615 305.784221,351.9205 C305.71822,352.079501 305.639471,352.23775 305.547971,352.39525 C305.45647,352.552751 305.352221,352.7155 305.235221,352.8835 L303.664721,355.1515 C303.62572,355.208501 303.570221,355.25425 303.498221,355.28875 C303.42622,355.323251 303.343721,355.3405 303.250721,355.3405 L302.512721,355.3405 L304.474721,352.771 C304.540721,352.684 304.60222,352.601501 304.659221,352.5235 C304.716221,352.4455 304.77022,352.367501 304.821221,352.2895 C304.65622,352.421501 304.470222,352.522 304.263221,352.591 C304.05622,352.660001 303.837222,352.6945 303.606221,352.6945 Z M305.217221,350.809 C305.217221,350.607999 305.184971,350.425751 305.120471,350.26225 C305.05597,350.09875 304.966721,349.960001 304.852721,349.846 C304.73872,349.732 304.602971,349.644251 304.445471,349.58275 C304.28797,349.52125 304.114722,349.4905 303.925721,349.4905 C303.72772,349.4905 303.546971,349.52275 303.383471,349.58725 C303.21997,349.651751 303.080471,349.741 302.964971,349.855 C302.84947,349.969001 302.760221,350.1055 302.697221,350.2645 C302.63422,350.423501 302.602721,350.597499 302.602721,350.7865 C302.602721,350.9905 302.63197,351.17275 302.690471,351.33325 C302.748971,351.493751 302.83297,351.6295 302.942471,351.7405 C303.051971,351.851501 303.18547,351.9355 303.342971,351.9925 C303.500471,352.049501 303.67672,352.078 303.871721,352.078 C304.087722,352.078 304.27897,352.042751 304.445471,351.97225 C304.611971,351.90175 304.75222,351.808001 304.866221,351.691 C304.980221,351.574 305.06722,351.439001 305.127221,351.286 C305.187221,351.133 305.217221,350.974001 305.217221,350.809 Z M328.93222,354.7285 L330.31822,354.7285 L330.31822,350.332 C330.31822,350.2 330.32272,350.066501 330.33172,349.9315 L329.17972,350.917 C329.14972,350.941001 329.11972,350.95825 329.08972,350.96875 C329.05972,350.97925 329.03122,350.9845 329.00422,350.9845 C328.95922,350.9845 328.91872,350.974751 328.88272,350.95525 C328.84672,350.93575 328.81972,350.912501 328.80172,350.8855 L328.54972,350.539 L330.46672,348.8785 L331.11922,348.8785 L331.11922,354.7285 L332.38822,354.7285 L332.38822,355.3405 L328.93222,355.3405 L328.93222,354.7285 Z M339.91072,352.1185 C339.91072,352.682503 339.849971,353.170748 339.72847,353.58325 C339.606969,353.995752 339.441221,354.336999 339.23122,354.607 C339.021219,354.877002 338.772971,355.078 338.48647,355.21 C338.199969,355.342001 337.893222,355.408 337.56622,355.408 C337.236218,355.408 336.929471,355.342001 336.64597,355.21 C336.362469,355.078 336.115721,354.877002 335.90572,354.607 C335.695719,354.336999 335.530721,353.995752 335.41072,353.58325 C335.290719,353.170748 335.23072,352.682503 335.23072,352.1185 C335.23072,351.554498 335.290719,351.065502 335.41072,350.6515 C335.530721,350.237498 335.695719,349.894752 335.90572,349.62325 C336.115721,349.351749 336.362469,349.150001 336.64597,349.018 C336.929471,348.886 337.236218,348.82 337.56622,348.82 C337.893222,348.82 338.199969,348.886 338.48647,349.018 C338.772971,349.150001 339.021219,349.351749 339.23122,349.62325 C339.441221,349.894752 339.606969,350.237498 339.72847,350.6515 C339.849971,351.065502 339.91072,351.554498 339.91072,352.1185 Z M339.07822,352.1185 C339.07822,351.626498 339.03697,351.213252 338.95447,350.87875 C338.87197,350.544249 338.760971,350.275001 338.62147,350.071 C338.481969,349.866999 338.320721,349.720751 338.13772,349.63225 C337.954719,349.54375 337.764221,349.4995 337.56622,349.4995 C337.368219,349.4995 337.177721,349.54375 336.99472,349.63225 C336.811719,349.720751 336.651221,349.866999 336.51322,350.071 C336.375219,350.275001 336.26497,350.544249 336.18247,350.87875 C336.09997,351.213252 336.05872,351.626498 336.05872,352.1185 C336.05872,352.610503 336.09997,353.022999 336.18247,353.356 C336.26497,353.689002 336.375219,353.957499 336.51322,354.1615 C336.651221,354.365501 336.811719,354.51175 336.99472,354.60025 C337.177721,354.688751 337.368219,354.733 337.56622,354.733 C337.764221,354.733 337.954719,354.688751 338.13772,354.60025 C338.320721,354.51175 338.481969,354.365501 338.62147,354.1615 C338.760971,353.957499 338.87197,353.689002 338.95447,353.356 C339.03697,353.022999 339.07822,352.610503 339.07822,352.1185 Z" id="1-2-3-4-5-6-7-8-9-10" fill="#888888" fill-rule="nonzero"></path>
        <path d="M60.3735,128.332 L61.35,128.332 L61.35,128.791 C61.35,128.839001 61.33575,128.8795 61.30725,128.9125 C61.278749,128.945501 61.2345,128.962 61.1745,128.962 L60.3735,128.962 L60.3735,130.6585 L59.667,130.6585 L59.667,128.962 L56.8095,128.962 C56.749499,128.962 56.69775,128.944751 56.65425,128.91025 C56.610749,128.87575 56.583,128.833001 56.571,128.782 L56.49,128.3725 L59.6265,124.21 L60.3735,124.21 L60.3735,128.332 Z M59.667,125.741 C59.667,125.663 59.66925,125.579001 59.67375,125.489 C59.67825,125.399 59.687999,125.306001 59.703,125.21 L57.3585,128.4005 L59.667,128.4005 L59.667,125.741 Z" id="1-2-3-4-5-6-7-8-9-10" fill="#888888" fill-rule="nonzero"></path>
        <path d="M60.3735,292.332 L61.35,292.332 L61.35,292.791 C61.35,292.839001 61.33575,292.8795 61.30725,292.9125 C61.278749,292.945501 61.2345,292.962 61.1745,292.962 L60.3735,292.962 L60.3735,294.6585 L59.667,294.6585 L59.667,292.962 L56.8095,292.962 C56.749499,292.962 56.69775,292.944751 56.65425,292.91025 C56.610749,292.87575 56.583,292.833001 56.571,292.782 L56.49,292.3725 L59.6265,288.21 L60.3735,288.21 L60.3735,292.332 Z M59.667,289.6725 C59.667,289.5945 59.66925,289.510501 59.67375,289.4205 C59.67825,289.3305 59.687999,289.237501 59.703,289.1415 L57.3585,292.332 L59.667,292.332 L59.667,289.6725 Z" id="1-2-3-4-5-6-7-8-9-10" fill="#888888" fill-rule="nonzero"></path>
        <g id="Group-5" transform="translate(89.000000, 174.508986)">
            <g id="Oval" transform="translate(247.500000, 146.991014) scale(-1, 1) translate(-247.500000, -146.991014) translate(234.000000, 133.491014)">
                <g id="path-1-link" fill="#FFFFFF" fill-opacity="0.300000012">
                    <circle id="path-1" cx="13.992616" cy="13.6440451" r="13"></circle>
                </g>
                <circle stroke="#979797" cx="13.992616" cy="13.6440451" r="12.5"></circle>
            </g>
            <polyline id="Path-2" stroke="#3277E0" stroke-linecap="round" stroke-linejoin="round" transform="translate(125.113505, 76.970952) scale(-1, 1) translate(-125.113505, -76.970952) " points="3.996289 149.682052 38.2434087 4.259852 64.2839125 14.259852 90.606287 91.491014 116.259211 14.259852 142.073948 4.259852 168.258338 44.259852 194.488634 64.259852 220.252908 64.259852 246.23072 44.259852"></polyline>
            <path d="M250.32929,152.149483 L247.638307,146.767517 C247.514812,146.520527 247.214475,146.420415 246.967486,146.54391 C246.870723,146.592292 246.792261,146.670753 246.743879,146.767517 L244.052896,152.149483 C243.929402,152.396472 244.029514,152.696809 244.276503,152.820303 C244.345931,152.855017 244.422487,152.87309 244.50011,152.87309 L249.882076,152.87309 C250.158218,152.87309 250.382076,152.649232 250.382076,152.37309 C250.382076,152.295467 250.364003,152.21891 250.32929,152.149483 Z" id="icon/off-chart" fill="#F03E3D" fill-rule="nonzero"></path>
            <g id="Oval" transform="translate(212.000000, 4.000000) scale(-1, 1) translate(-212.000000, -4.000000) translate(208.000000, 0.000000)">
                <g id="path-2-link" fill="#3176E0">
                    <circle id="path-2" cx="4" cy="4" r="4"></circle>
                </g>
                <circle stroke="#3D83E1" cx="4" cy="4" r="3.5"></circle>
            </g>
            <g id="Oval" transform="translate(186.000000, 14.000000) scale(-1, 1) translate(-186.000000, -14.000000) translate(182.000000, 10.000000)">
                <g id="path-3-link" fill="#3176E0">
                    <circle id="path-3" cx="4" cy="4" r="4"></circle>
                </g>
                <circle stroke="#3D83E1" cx="4" cy="4" r="3.5"></circle>
            </g>
            <g id="Oval" transform="translate(160.000000, 91.491014) scale(-1, 1) translate(-160.000000, -91.491014) translate(156.000000, 87.491014)">
                <g id="path-4-link" fill="#3176E0">
                    <circle id="path-4" cx="4" cy="4" r="4"></circle>
                </g>
                <circle stroke="#3D83E1" cx="4" cy="4" r="3.5"></circle>
            </g>
            <g id="Oval" transform="translate(134.000000, 14.000000) scale(-1, 1) translate(-134.000000, -14.000000) translate(130.000000, 10.000000)">
                <g id="path-5-link" fill="#3176E0">
                    <circle id="path-5" cx="4" cy="4" r="4"></circle>
                </g>
                <circle stroke="#3D83E1" cx="4" cy="4" r="3.5"></circle>
            </g>
            <g id="Oval" transform="translate(108.000000, 4.000000) scale(-1, 1) translate(-108.000000, -4.000000) translate(104.000000, 0.000000)">
                <g id="path-6-link" fill="#3176E0">
                    <circle id="path-6" cx="4" cy="4" r="4"></circle>
                </g>
                <circle stroke="#3D83E1" cx="4" cy="4" r="3.5"></circle>
            </g>
            <g id="Oval" transform="translate(82.000000, 44.000000) scale(-1, 1) translate(-82.000000, -44.000000) translate(78.000000, 40.000000)">
                <g id="path-7-link" fill="#3176E0">
                    <circle id="path-7" cx="4" cy="4" r="4"></circle>
                </g>
                <circle stroke="#3D83E1" cx="4" cy="4" r="3.5"></circle>
            </g>
            <g id="Oval" transform="translate(56.000000, 64.000000) scale(-1, 1) translate(-56.000000, -64.000000) translate(52.000000, 60.000000)">
                <g id="path-8-link" fill="#3176E0">
                    <circle id="path-8" cx="4" cy="4" r="4"></circle>
                </g>
                <circle stroke="#3D83E1" cx="4" cy="4" r="3.5"></circle>
            </g>
            <g id="Oval" transform="translate(30.000000, 64.000000) scale(-1, 1) translate(-30.000000, -64.000000) translate(26.000000, 60.000000)">
                <g id="path-9-link" fill="#3176E0">
                    <circle id="path-9" cx="4" cy="4" r="4"></circle>
                </g>
                <circle stroke="#3D83E1" cx="4" cy="4" r="3.5"></circle>
            </g>
            <g id="Oval" transform="translate(4.000000, 44.000000) scale(-1, 1) translate(-4.000000, -44.000000) translate(0.000000, 40.000000)">
                <g id="path-10-link" fill="#3176E0">
                    <circle id="path-10" cx="4" cy="4" r="4"></circle>
                </g>
                <circle stroke="#3D83E1" cx="4" cy="4" r="3.5"></circle>
            </g>
        </g>
        <text id="Mean" font-family="Lato-Bold, Lato" font-size="9" font-weight="bold" letter-spacing="0.0634432967" fill="#000000" fill-opacity="0.6">
            <tspan x="47.4656134" y="210">Mean</tspan>
        </text>
    </g>
</svg>