<?xml version="1.0" encoding="UTF-8"?>
<svg width="425px" height="463px" viewBox="0 0 425 463" version="1.1" xmlns="http://www.w3.org/2000/svg" xmlns:xlink="http://www.w3.org/1999/xlink">
    <title>1-3s</title>
    <g id="1-3s" stroke="none" stroke-width="1" fill="none" fill-rule="evenodd">
        <rect id="Rectangle-7" fill="#E6E4E2" fill-rule="nonzero" opacity="0.300000012" x="77" y="124" width="274" height="42"></rect>
        <rect id="Rectangle-7" fill="#FFFFFF" fill-rule="nonzero" opacity="0.5" x="77" y="166" width="274" height="85"></rect>
        <rect id="Rectangle-7" fill="#E6E4E2" fill-rule="nonzero" x="77" y="82" width="274" height="42"></rect>
        <rect id="Rectangle-7" fill="#B3B2B1" fill-rule="nonzero" x="77" y="40" width="274" height="42"></rect>
        <rect id="Rectangle-7" fill="#B3B2B1" fill-rule="nonzero" x="77" y="335" width="274" height="42"></rect>
        <rect id="Rectangle-7" fill="#E6E4E2" fill-rule="nonzero" opacity="0.300000012" x="77" y="251" width="274" height="42"></rect>
        <rect id="Rectangle-7" fill="#E6E4E2" fill-rule="nonzero" x="77" y="293" width="274" height="42"></rect>
        <line x1="77" y1="208.5" x2="351" y2="208.5" id="Line-Copy-7" stroke="#979797" stroke-linecap="square"></line>
        <path d="M53.5687646,84.9609097 L53.5687646,86.8805777 L55.4662005,86.8805777 L55.4662005,87.4874985 L53.5687646,87.4874985 L53.5687646,89.4206536 L52.8881119,89.4206536 L52.8881119,87.4874985 L51,87.4874985 L51,86.8805777 L52.8881119,86.8805777 L52.8881119,84.9609097 L53.5687646,84.9609097 Z M53.5687646,44 L53.5687646,45.919668 L55.4662005,45.919668 L55.4662005,46.5265888 L53.5687646,46.5265888 L53.5687646,48.4597439 L52.8881119,48.4597439 L52.8881119,46.5265888 L51,46.5265888 L51,45.919668 L52.8881119,45.919668 L52.8881119,44 L53.5687646,44 Z M58.8321678,83.6886239 C59.1149976,83.6886239 59.3760672,83.7275863 59.6153846,83.8055123 C59.8547021,83.8834383 60.0606052,83.9943314 60.2331003,84.1381948 C60.4055953,84.2820582 60.5400151,84.4558906 60.6363637,84.6596971 C60.7327122,84.8635036 60.7808858,85.0897855 60.7808858,85.3385493 C60.7808858,85.5423558 60.753691,85.7244302 60.6993007,85.884778 C60.6449104,86.0451258 60.5672111,86.1859899 60.4662005,86.3073747 C60.3651899,86.4287595 60.243202,86.5314105 60.1002331,86.6153308 C59.9572643,86.6992511 59.7972037,86.7666862 59.6200466,86.8176377 C60.0551693,86.9285325 60.3822833,87.1143533 60.6013986,87.3751057 C60.8205139,87.6358582 60.93007,87.9625432 60.93007,88.3551704 C60.93007,88.6518888 60.8717955,88.9186315 60.7552448,89.1554067 C60.6386941,89.392182 60.4794105,89.5937376 60.2773893,89.7600797 C60.0753681,89.9264217 59.8399392,90.053799 59.5710956,90.142215 C59.302252,90.2306311 59.0139876,90.2748384 58.7062937,90.2748384 C58.3519796,90.2748384 58.0489523,90.2321296 57.7972028,90.1467107 C57.5454533,90.0612918 57.3325572,89.9436553 57.1585082,89.7937975 C56.9844591,89.6439398 56.8414924,89.466361 56.7296037,89.2610559 C56.6177151,89.0557508 56.5229219,88.8332154 56.4452215,88.593443 L56.7995338,88.4495803 C56.8648022,88.422606 56.9300696,88.4091189 56.995338,88.4091189 C57.0574984,88.4091189 57.1126649,88.4218567 57.1608392,88.4473325 C57.2090135,88.4728083 57.2455321,88.51252 57.2703963,88.5664688 C57.2766123,88.5784574 57.2828283,88.5911951 57.2890443,88.6046823 C57.2952603,88.6181695 57.3014763,88.6324057 57.3076923,88.6473915 C57.3512046,88.7343091 57.4040401,88.8324644 57.4662005,88.9418605 C57.5283609,89.0512567 57.6122761,89.1539077 57.7179487,89.2498166 C57.8236214,89.3457256 57.9549332,89.4266476 58.1118881,89.492585 C58.2688431,89.5585223 58.4638683,89.5914906 58.6969697,89.5914906 C58.9300711,89.5914906 59.1344203,89.554776 59.3100233,89.4813457 C59.4856264,89.4079154 59.6317011,89.3127572 59.7482518,89.1958681 C59.8648025,89.0789791 59.9526027,88.9486048 60.011655,88.8047414 C60.0707074,88.660878 60.1002331,88.5185152 60.1002331,88.377649 C60.1002331,88.203814 60.0761463,88.0449672 60.027972,87.9011038 C59.9797978,87.7572403 59.8927745,87.6328602 59.7668998,87.5279599 C59.641025,87.4230595 59.4669786,87.3406389 59.2447553,87.2806958 C59.0225319,87.2207527 58.7373755,87.1907816 58.3892774,87.1907816 L58.3892774,86.6108351 C58.6721071,86.607838 58.9137519,86.5778669 59.1142191,86.5209209 C59.3146863,86.463975 59.4786319,86.3860501 59.6060606,86.287144 C59.7334894,86.1882379 59.8259516,86.0698521 59.8834499,85.9319829 C59.9409483,85.7941138 59.969697,85.6412613 59.969697,85.4734206 C59.969697,85.287597 59.9393943,85.1257531 59.8787879,84.9878839 C59.8181815,84.8500148 59.7350433,84.7361247 59.6293706,84.64621 C59.523698,84.5562954 59.3986021,84.4888604 59.2540793,84.4439031 C59.1095564,84.3989458 58.9533808,84.3764674 58.7855478,84.3764674 C58.6177148,84.3764674 58.4623162,84.4004443 58.3193473,84.4483988 C58.1763785,84.4963533 58.0497286,84.563039 57.939394,84.6484579 C57.8290593,84.7338767 57.7365971,84.8357785 57.6620047,84.9541661 C57.5874122,85.0725537 57.5314687,85.2006802 57.4941725,85.3385493 C57.4693084,85.4254668 57.4320127,85.4884061 57.3822844,85.5273691 C57.3325561,85.5663321 57.2688427,85.5858133 57.1911422,85.5858133 C57.1756021,85.5858133 57.1592853,85.585064 57.1421912,85.5835655 C57.1250971,85.5820669 57.1056722,85.579819 57.0839161,85.5768219 L56.6503497,85.5048905 C56.6938619,85.2111693 56.7777772,84.9511701 56.9020979,84.7248849 C57.0264187,84.4985998 57.1841482,84.3090326 57.3752914,84.1561777 C57.5664345,84.0033228 57.7855466,83.8871848 58.032634,83.8077602 C58.2797215,83.7283356 58.5462301,83.6886239 58.8321678,83.6886239 Z M64.7342657,86.3995367 C64.6969696,86.4654741 64.6394721,86.4984424 64.5617716,86.4984424 C64.5151513,86.4984424 64.4623158,86.4819583 64.4032634,86.4489896 C64.344211,86.4160209 64.2719507,86.3793063 64.1864802,86.3388447 C64.1010097,86.2983831 63.9992236,86.2609192 63.8811189,86.2264519 C63.7630142,86.1919846 63.6231554,86.1747513 63.4615385,86.1747513 C63.3216777,86.1747513 63.1958048,86.1919846 63.0839161,86.2264519 C62.9720274,86.2609192 62.8764573,86.3081237 62.7972028,86.3680668 C62.7179483,86.4280099 62.6573429,86.4976927 62.6153846,86.5771173 C62.5734264,86.6565419 62.5524475,86.7427088 62.5524475,86.8356206 C62.5524475,86.9525096 62.5874123,87.0499157 62.6573427,87.1278417 C62.7272731,87.2057677 62.8197353,87.2732027 62.9347319,87.3301486 C63.0497287,87.3870946 63.1802635,87.4372962 63.3263403,87.4807549 C63.4724172,87.5242136 63.6223769,87.5706689 63.7762238,87.6201219 C63.9300708,87.669575 64.0800304,87.7242722 64.2261072,87.7842153 C64.3721841,87.8441584 64.502719,87.9190862 64.6177156,88.0090008 C64.7327124,88.0989155 64.8251745,88.2090593 64.8951049,88.3394354 C64.9650354,88.4698117 65,88.6264107 65,88.8092371 C65,89.019038 64.9611504,89.2131008 64.8834499,89.3914315 C64.8057495,89.5697622 64.6907545,89.7241134 64.5384615,89.8544896 C64.3861687,89.9848659 64.1996903,90.0875168 63.979021,90.1624457 C63.7583517,90.2373746 63.503498,90.2748384 63.2144522,90.2748384 C62.8850022,90.2748384 62.5866369,90.2231383 62.3193473,90.1197364 C62.0520577,90.0163346 61.8251758,89.8837125 61.6386946,89.7218661 L61.8344988,89.4161579 C61.8593631,89.3771949 61.8888888,89.3472238 61.9230769,89.3262437 C61.9572652,89.3052636 62.0023308,89.2947737 62.0582751,89.2947737 C62.1142194,89.2947737 62.1732709,89.3157535 62.2354312,89.3577137 C62.2975916,89.3996738 62.37296,89.4461291 62.4615385,89.4970807 C62.5501171,89.5480323 62.657342,89.5944875 62.7832168,89.6364477 C62.9090915,89.6784078 63.0668211,89.6993876 63.2564103,89.6993876 C63.4180272,89.6993876 63.5594399,89.6791571 63.6806527,89.6386955 C63.8018654,89.5982339 63.9028745,89.5435367 63.983683,89.4746021 C64.0644915,89.4056676 64.1243199,89.3262442 64.1631702,89.2363295 C64.2020204,89.1464149 64.2214452,89.0505073 64.2214452,88.9486041 C64.2214452,88.8227236 64.1864806,88.718574 64.1165501,88.6361523 C64.0466197,88.5537305 63.9541576,88.4832984 63.8391608,88.4248539 C63.7241642,88.3664094 63.5928523,88.3154585 63.4452214,88.2719998 C63.2975906,88.2285411 63.146854,88.1828352 62.993007,88.1348807 C62.8391601,88.0869262 62.6884234,88.0322289 62.5407925,87.9707873 C62.3931617,87.9093456 62.2618499,87.83217 62.1468531,87.7392582 C62.0318565,87.6463465 61.9393943,87.531707 61.8694639,87.3953364 C61.7995335,87.2589659 61.7645688,87.0933756 61.7645688,86.8985605 C61.7645688,86.7247255 61.8018645,86.5576367 61.8764569,86.3972889 C61.9510494,86.2369411 62.0598283,86.0960769 62.2027972,85.9746922 C62.3457661,85.8533074 62.5213665,85.7566507 62.7296037,85.6847189 C62.937841,85.6127873 63.1756008,85.5768219 63.4428904,85.5768219 C63.7536923,85.5768219 64.0326328,85.6240263 64.2797203,85.7184367 C64.5268078,85.8128471 64.7404809,85.9424721 64.9207459,86.1073156 L64.7342657,86.3995367 Z M64.7342657,45.4386271 C64.6969696,45.5045644 64.6394721,45.5375327 64.5617716,45.5375327 C64.5151513,45.5375327 64.4623158,45.5210486 64.4032634,45.4880799 C64.344211,45.4551112 64.2719507,45.4183966 64.1864802,45.377935 C64.1010097,45.3374734 63.9992236,45.3000096 63.8811189,45.2655423 C63.7630142,45.2310749 63.6231554,45.2138416 63.4615385,45.2138416 C63.3216777,45.2138416 63.1958048,45.2310749 63.0839161,45.2655423 C62.9720274,45.3000096 62.8764573,45.347214 62.7972028,45.4071571 C62.7179483,45.4671002 62.6573429,45.536783 62.6153846,45.6162076 C62.5734264,45.6956322 62.5524475,45.7817992 62.5524475,45.8747109 C62.5524475,45.9916 62.5874123,46.089006 62.6573427,46.166932 C62.7272731,46.2448581 62.8197353,46.312293 62.9347319,46.369239 C63.0497287,46.4261849 63.1802635,46.4763865 63.3263403,46.5198452 C63.4724172,46.563304 63.6223769,46.6097592 63.7762238,46.6592122 C63.9300708,46.7086653 64.0800304,46.7633625 64.2261072,46.8233056 C64.3721841,46.8832487 64.502719,46.9581765 64.6177156,47.0480911 C64.7327124,47.1380058 64.8251745,47.2481496 64.8951049,47.3785258 C64.9650354,47.508902 65,47.665501 65,47.8483274 C65,48.0581283 64.9611504,48.2521911 64.8834499,48.4305218 C64.8057495,48.6088525 64.6907545,48.7632037 64.5384615,48.8935799 C64.3861687,49.0239562 64.1996903,49.1266071 63.979021,49.201536 C63.7583517,49.2764649 63.503498,49.3139287 63.2144522,49.3139287 C62.8850022,49.3139287 62.5866369,49.2622286 62.3193473,49.1588268 C62.0520577,49.0554249 61.8251758,48.9228028 61.6386946,48.7609565 L61.8344988,48.4552482 C61.8593631,48.4162852 61.8888888,48.3863141 61.9230769,48.365334 C61.9572652,48.3443539 62.0023308,48.3338641 62.0582751,48.3338641 C62.1142194,48.3338641 62.1732709,48.3548438 62.2354312,48.396804 C62.2975916,48.4387641 62.37296,48.4852194 62.4615385,48.536171 C62.5501171,48.5871227 62.657342,48.6335778 62.7832168,48.675538 C62.9090915,48.7174981 63.0668211,48.7384779 63.2564103,48.7384779 C63.4180272,48.7384779 63.5594399,48.7182474 63.6806527,48.6777858 C63.8018654,48.6373243 63.9028745,48.5826271 63.983683,48.5136924 C64.0644915,48.4447579 64.1243199,48.3653345 64.1631702,48.2754198 C64.2020204,48.1855052 64.2214452,48.0895977 64.2214452,47.9876944 C64.2214452,47.8618139 64.1864806,47.7576643 64.1165501,47.6752426 C64.0466197,47.5928209 63.9541576,47.5223888 63.8391608,47.4639442 C63.7241642,47.4054997 63.5928523,47.3545488 63.4452214,47.3110901 C63.2975906,47.2676314 63.146854,47.2219255 62.993007,47.173971 C62.8391601,47.1260165 62.6884234,47.0713192 62.5407925,47.0098776 C62.3931617,46.9484359 62.2618499,46.8712604 62.1468531,46.7783485 C62.0318565,46.6854368 61.9393943,46.5707973 61.8694639,46.4344267 C61.7995335,46.2980562 61.7645688,46.1324659 61.7645688,45.9376508 C61.7645688,45.7638158 61.8018645,45.596727 61.8764569,45.4363792 C61.9510494,45.2760314 62.0598283,45.1351673 62.2027972,45.0137825 C62.3457661,44.8923978 62.5213665,44.795741 62.7296037,44.7238092 C62.937841,44.6518776 63.1756008,44.6159122 63.4428904,44.6159122 C63.7536923,44.6159122 64.0326328,44.6631167 64.2797203,44.7575271 C64.5268078,44.8519375 64.7404809,44.9815625 64.9207459,45.1464059 L64.7342657,45.4386271 Z M53.5687646,125.921819 L53.5687646,127.841487 L55.4662005,127.841487 L55.4662005,128.448408 L53.5687646,128.448408 L53.5687646,130.381563 L52.8881119,130.381563 L52.8881119,128.448408 L51,128.448408 L51,127.841487 L52.8881119,127.841487 L52.8881119,125.921819 L53.5687646,125.921819 Z M58.7435898,124.649534 C59.0264195,124.649534 59.2905971,124.689995 59.5361306,124.770918 C59.781664,124.851841 59.9937831,124.969477 60.1724942,125.123831 C60.3512053,125.278184 60.491841,125.466253 60.5944056,125.688042 C60.6969702,125.909832 60.7482518,126.161589 60.7482518,126.443322 C60.7482518,126.683094 60.7109561,126.90488 60.6363637,127.108687 C60.5617712,127.312493 60.4607621,127.508055 60.3333334,127.695377 C60.2059046,127.882699 60.0590529,128.064024 59.8927739,128.239358 C59.7264949,128.414691 59.5501175,128.593769 59.3636364,128.776595 L57.6060606,130.511939 C57.7303814,130.47897 57.8562542,130.452745 57.983683,130.433264 C58.1111118,130.413782 58.2338767,130.404042 58.3519814,130.404042 L60.5897436,130.404042 C60.6798762,130.404042 60.7513595,130.429517 60.8041958,130.480469 C60.8570321,130.531421 60.8834499,130.597357 60.8834499,130.67828 L60.8834499,131.163817 L56.4265734,131.163817 L56.4265734,130.889578 C56.4265734,130.832633 56.4382283,130.774189 56.4615385,130.714246 C56.4848486,130.654303 56.5229213,130.598856 56.5757576,130.547905 L58.7156177,128.475382 C58.8927748,128.301547 59.0543893,128.134459 59.2004662,127.974111 C59.3465431,127.813763 59.471639,127.652668 59.5757576,127.490822 C59.6798762,127.328976 59.7599065,127.164884 59.8158508,126.998542 C59.8717952,126.8322 59.8997669,126.654621 59.8997669,126.4658 C59.8997669,126.27698 59.8686872,126.111389 59.8065268,125.969024 C59.7443665,125.826659 59.6588972,125.709023 59.5501166,125.616111 C59.4413359,125.523199 59.3139091,125.453516 59.1678322,125.407061 C59.0217553,125.360605 58.8648027,125.337377 58.6969697,125.337377 C58.5291367,125.337377 58.3737381,125.361354 58.2307692,125.409308 C58.0878004,125.457263 57.9611505,125.523949 57.8508159,125.609368 C57.7404812,125.694786 57.647242,125.795939 57.5710956,125.912828 C57.4949491,126.029717 57.4413366,126.158593 57.4102564,126.299459 C57.3853923,126.386377 57.3480966,126.449316 57.2983683,126.488279 C57.24864,126.527242 57.1833726,126.546723 57.1025641,126.546723 C57.087024,126.546723 57.0707072,126.545974 57.0536131,126.544475 C57.036519,126.542977 57.0170941,126.540729 56.995338,126.537732 L56.5617716,126.4658 C56.6052838,126.172079 56.6891991,125.91208 56.8135198,125.685795 C56.9378406,125.459509 57.0955702,125.269942 57.2867133,125.117087 C57.4778564,124.964233 57.6969685,124.848094 57.944056,124.76867 C58.1911434,124.689245 58.457652,124.649534 58.7435898,124.649534 Z M64.7342657,127.360446 C64.6969696,127.426384 64.6394721,127.459352 64.5617716,127.459352 C64.5151513,127.459352 64.4623158,127.442868 64.4032634,127.409899 C64.344211,127.376931 64.2719507,127.340216 64.1864802,127.299754 C64.1010097,127.259293 63.9992236,127.221829 63.8811189,127.187362 C63.7630142,127.152894 63.6231554,127.135661 63.4615385,127.135661 C63.3216777,127.135661 63.1958048,127.152894 63.0839161,127.187362 C62.9720274,127.221829 62.8764573,127.269033 62.7972028,127.328976 C62.7179483,127.38892 62.6573429,127.458602 62.6153846,127.538027 C62.5734264,127.617452 62.5524475,127.703619 62.5524475,127.79653 C62.5524475,127.913419 62.5874123,128.010825 62.6573427,128.088751 C62.7272731,128.166677 62.8197353,128.234112 62.9347319,128.291058 C63.0497287,128.348004 63.1802635,128.398206 63.3263403,128.441665 C63.4724172,128.485123 63.6223769,128.531579 63.7762238,128.581032 C63.9300708,128.630485 64.0800304,128.685182 64.2261072,128.745125 C64.3721841,128.805068 64.502719,128.879996 64.6177156,128.96991 C64.7327124,129.059825 64.8251745,129.169969 64.8951049,129.300345 C64.9650354,129.430721 65,129.58732 65,129.770147 C65,129.979948 64.9611504,130.17401 64.8834499,130.352341 C64.8057495,130.530672 64.6907545,130.685023 64.5384615,130.815399 C64.3861687,130.945776 64.1996903,131.048426 63.979021,131.123355 C63.7583517,131.198284 63.503498,131.235748 63.2144522,131.235748 C62.8850022,131.235748 62.5866369,131.184048 62.3193473,131.080646 C62.0520577,130.977244 61.8251758,130.844622 61.6386946,130.682776 L61.8344988,130.377068 C61.8593631,130.338105 61.8888888,130.308133 61.9230769,130.287153 C61.9572652,130.266173 62.0023308,130.255683 62.0582751,130.255683 C62.1142194,130.255683 62.1732709,130.276663 62.2354312,130.318623 C62.2975916,130.360583 62.37296,130.407039 62.4615385,130.45799 C62.5501171,130.508942 62.657342,130.555397 62.7832168,130.597357 C62.9090915,130.639317 63.0668211,130.660297 63.2564103,130.660297 C63.4180272,130.660297 63.5594399,130.640067 63.6806527,130.599605 C63.8018654,130.559144 63.9028745,130.504446 63.983683,130.435512 C64.0644915,130.366577 64.1243199,130.287154 64.1631702,130.197239 C64.2020204,130.107325 64.2214452,130.011417 64.2214452,129.909514 C64.2214452,129.783633 64.1864806,129.679484 64.1165501,129.597062 C64.0466197,129.51464 63.9541576,129.444208 63.8391608,129.385764 C63.7241642,129.327319 63.5928523,129.276368 63.4452214,129.232909 C63.2975906,129.189451 63.146854,129.143745 62.993007,129.09579 C62.8391601,129.047836 62.6884234,128.993139 62.5407925,128.931697 C62.3931617,128.870255 62.2618499,128.79308 62.1468531,128.700168 C62.0318565,128.607256 61.9393943,128.492617 61.8694639,128.356246 C61.7995335,128.219876 61.7645688,128.054285 61.7645688,127.85947 C61.7645688,127.685635 61.8018645,127.518546 61.8764569,127.358199 C61.9510494,127.197851 62.0598283,127.056987 62.2027972,126.935602 C62.3457661,126.814217 62.5213665,126.71756 62.7296037,126.645629 C62.937841,126.573697 63.1756008,126.537732 63.4428904,126.537732 C63.7536923,126.537732 64.0326328,126.584936 64.2797203,126.679346 C64.5268078,126.773757 64.7404809,126.903382 64.9207459,127.068225 L64.7342657,127.360446 Z M53.5687646,166.882729 L53.5687646,168.802397 L55.4662005,168.802397 L55.4662005,169.409318 L53.5687646,169.409318 L53.5687646,171.342473 L52.8881119,171.342473 L52.8881119,169.409318 L51,169.409318 L51,168.802397 L52.8881119,168.802397 L52.8881119,166.882729 L53.5687646,166.882729 Z M57.2797203,171.51331 L58.7156177,171.51331 L58.7156177,167.121001 C58.7156177,166.989127 58.7202797,166.855755 58.7296037,166.720883 L57.5361305,167.705444 C57.5050504,167.729421 57.4739706,167.746654 57.4428905,167.757144 C57.4118103,167.767634 57.3822845,167.772879 57.3543124,167.772879 C57.3076921,167.772879 57.2657345,167.763139 57.2284382,167.743657 C57.191142,167.724176 57.1631703,167.700948 57.1445222,167.673974 L56.8834499,167.327804 L58.8694639,165.668887 L59.5454546,165.668887 L59.5454546,171.51331 L60.8601399,171.51331 L60.8601399,172.124726 L57.2797203,172.124726 L57.2797203,171.51331 Z M64.7342657,168.321356 C64.6969696,168.387294 64.6394721,168.420261 64.5617716,168.420261 C64.5151513,168.420261 64.4623158,168.403777 64.4032634,168.370809 C64.344211,168.33784 64.2719507,168.301126 64.1864802,168.260664 C64.1010097,168.220202 63.9992236,168.182738 63.8811189,168.148271 C63.7630142,168.113804 63.6231554,168.09657 63.4615385,168.09657 C63.3216777,168.09657 63.1958048,168.113804 63.0839161,168.148271 C62.9720274,168.182738 62.8764573,168.229943 62.7972028,168.289886 C62.7179483,168.34983 62.6573429,168.419512 62.6153846,168.498936 C62.5734264,168.578362 62.5524475,168.664528 62.5524475,168.75744 C62.5524475,168.874329 62.5874123,168.971735 62.6573427,169.049661 C62.7272731,169.127587 62.8197353,169.195022 62.9347319,169.251968 C63.0497287,169.308914 63.1802635,169.359115 63.3263403,169.402574 C63.4724172,169.446033 63.6223769,169.492488 63.7762238,169.541941 C63.9300708,169.591395 64.0800304,169.646092 64.2261072,169.706034 C64.3721841,169.765978 64.502719,169.840906 64.6177156,169.93082 C64.7327124,170.020735 64.8251745,170.130879 64.8951049,170.261254 C64.9650354,170.391631 65,170.54823 65,170.731056 C65,170.940857 64.9611504,171.13492 64.8834499,171.313251 C64.8057495,171.491581 64.6907545,171.645933 64.5384615,171.776309 C64.3861687,171.906685 64.1996903,172.009336 63.979021,172.084265 C63.7583517,172.159194 63.503498,172.196657 63.2144522,172.196657 C62.8850022,172.196657 62.5866369,172.144958 62.3193473,172.041555 C62.0520577,171.938154 61.8251758,171.805532 61.6386946,171.643685 L61.8344988,171.337977 C61.8593631,171.299014 61.8888888,171.269043 61.9230769,171.248063 C61.9572652,171.227083 62.0023308,171.216593 62.0582751,171.216593 C62.1142194,171.216593 62.1732709,171.237573 62.2354312,171.279533 C62.2975916,171.321494 62.37296,171.367948 62.4615385,171.4189 C62.5501171,171.469852 62.657342,171.516307 62.7832168,171.558267 C62.9090915,171.600228 63.0668211,171.621207 63.2564103,171.621207 C63.4180272,171.621207 63.5594399,171.600977 63.6806527,171.560515 C63.8018654,171.520053 63.9028745,171.465356 63.983683,171.396421 C64.0644915,171.327487 64.1243199,171.248064 64.1631702,171.158149 C64.2020204,171.068234 64.2214452,170.972327 64.2214452,170.870423 C64.2214452,170.744543 64.1864806,170.640394 64.1165501,170.557971 C64.0466197,170.47555 63.9541576,170.405118 63.8391608,170.346673 C63.7241642,170.288229 63.5928523,170.237278 63.4452214,170.193819 C63.2975906,170.15036 63.146854,170.104655 62.993007,170.0567 C62.8391601,170.008745 62.6884234,169.954049 62.5407925,169.892606 C62.3931617,169.831165 62.2618499,169.75399 62.1468531,169.661077 C62.0318565,169.568166 61.9393943,169.453526 61.8694639,169.317155 C61.7995335,169.180786 61.7645688,169.015195 61.7645688,168.82038 C61.7645688,168.646544 61.8018645,168.479456 61.8764569,168.319108 C61.9510494,168.158761 62.0598283,168.017896 62.2027972,167.896511 C62.3457661,167.775127 62.5213665,167.67847 62.7296037,167.606538 C62.937841,167.534607 63.1756008,167.498641 63.4428904,167.498641 C63.7536923,167.498641 64.0326328,167.545846 64.2797203,167.640256 C64.5268078,167.734667 64.7404809,167.864291 64.9207459,168.029135 L64.7342657,168.321356 Z M53.1724942,251.011941 L55.4755245,251.011941 L55.4755245,251.690794 L53.1724942,251.690794 L53.1724942,251.011941 Z M57.2797203,253.435129 L58.7156177,253.435129 L58.7156177,249.042821 C58.7156177,248.910947 58.7202797,248.777575 58.7296037,248.642703 L57.5361305,249.627263 C57.5050504,249.65124 57.4739706,249.668474 57.4428905,249.678964 C57.4118103,249.689454 57.3822845,249.694699 57.3543124,249.694699 C57.3076921,249.694699 57.2657345,249.684958 57.2284382,249.665476 C57.191142,249.645995 57.1631703,249.622767 57.1445222,249.595793 L56.8834499,249.249623 L58.8694639,247.590706 L59.5454546,247.590706 L59.5454546,253.435129 L60.8601399,253.435129 L60.8601399,254.046545 L57.2797203,254.046545 L57.2797203,253.435129 Z M64.7342657,250.243175 C64.6969696,250.309113 64.6394721,250.342081 64.5617716,250.342081 C64.5151513,250.342081 64.4623158,250.325596 64.4032634,250.292628 C64.344211,250.259659 64.2719507,250.222945 64.1864802,250.182483 C64.1010097,250.142022 63.9992236,250.104557 63.8811189,250.07009 C63.7630142,250.035623 63.6231554,250.01839 63.4615385,250.01839 C63.3216777,250.01839 63.1958048,250.035623 63.0839161,250.07009 C62.9720274,250.104557 62.8764573,250.151762 62.7972028,250.211705 C62.7179483,250.271649 62.6573429,250.341331 62.6153846,250.420756 C62.5734264,250.500181 62.5524475,250.586348 62.5524475,250.679259 C62.5524475,250.796148 62.5874123,250.893554 62.6573427,250.97148 C62.7272731,251.049407 62.8197353,251.116841 62.9347319,251.173787 C63.0497287,251.230734 63.1802635,251.280935 63.3263403,251.324393 C63.4724172,251.367853 63.6223769,251.414307 63.7762238,251.46376 C63.9300708,251.513214 64.0800304,251.567911 64.2261072,251.627854 C64.3721841,251.687797 64.502719,251.762725 64.6177156,251.852639 C64.7327124,251.942554 64.8251745,252.052698 64.8951049,252.183074 C64.9650354,252.31345 65,252.470049 65,252.652875 C65,252.862676 64.9611504,253.056739 64.8834499,253.23507 C64.8057495,253.413401 64.6907545,253.567752 64.5384615,253.698128 C64.3861687,253.828505 64.1996903,253.931156 63.979021,254.006084 C63.7583517,254.081014 63.503498,254.118477 63.2144522,254.118477 C62.8850022,254.118477 62.5866369,254.066777 62.3193473,253.963375 C62.0520577,253.859974 61.8251758,253.727351 61.6386946,253.565505 L61.8344988,253.259796 C61.8593631,253.220833 61.8888888,253.190862 61.9230769,253.169882 C61.9572652,253.148902 62.0023308,253.138412 62.0582751,253.138412 C62.1142194,253.138412 62.1732709,253.159392 62.2354312,253.201352 C62.2975916,253.243313 62.37296,253.289768 62.4615385,253.340719 C62.5501171,253.391671 62.657342,253.438126 62.7832168,253.480086 C62.9090915,253.522047 63.0668211,253.543026 63.2564103,253.543026 C63.4180272,253.543026 63.5594399,253.522796 63.6806527,253.482334 C63.8018654,253.441873 63.9028745,253.387176 63.983683,253.318241 C64.0644915,253.249306 64.1243199,253.169883 64.1631702,253.079968 C64.2020204,252.990054 64.2214452,252.894146 64.2214452,252.792242 C64.2214452,252.666363 64.1864806,252.562213 64.1165501,252.479791 C64.0466197,252.397369 63.9541576,252.326938 63.8391608,252.268492 C63.7241642,252.210048 63.5928523,252.159098 63.4452214,252.115638 C63.2975906,252.07218 63.146854,252.026474 62.993007,251.978519 C62.8391601,251.930565 62.6884234,251.875868 62.5407925,251.814426 C62.3931617,251.752984 62.2618499,251.675809 62.1468531,251.582897 C62.0318565,251.489985 61.9393943,251.375346 61.8694639,251.238975 C61.7995335,251.102605 61.7645688,250.937014 61.7645688,250.742199 C61.7645688,250.568364 61.8018645,250.401275 61.8764569,250.240927 C61.9510494,250.08058 62.0598283,249.939716 62.2027972,249.818331 C62.3457661,249.696946 62.5213665,249.60029 62.7296037,249.528357 C62.937841,249.456426 63.1756008,249.42046 63.4428904,249.42046 C63.7536923,249.42046 64.0326328,249.467665 64.2797203,249.562075 C64.5268078,249.656486 64.7404809,249.78611 64.9207459,249.950954 L64.7342657,250.243175 Z M53.1724942,291.972851 L55.4755245,291.972851 L55.4755245,292.651703 L53.1724942,292.651703 L53.1724942,291.972851 Z M58.7435898,288.493172 C59.0264195,288.493172 59.2905971,288.533633 59.5361306,288.614556 C59.781664,288.69548 59.9937831,288.813117 60.1724942,288.967469 C60.3512053,289.121823 60.491841,289.309892 60.5944056,289.531681 C60.6969702,289.75347 60.7482518,290.005228 60.7482518,290.28696 C60.7482518,290.526733 60.7109561,290.748519 60.6363637,290.952325 C60.5617712,291.156132 60.4607621,291.351693 60.3333334,291.539015 C60.2059046,291.726337 60.0590529,291.907662 59.8927739,292.082996 C59.7264949,292.25833 59.5501175,292.437407 59.3636364,292.620233 L57.6060606,294.355577 C57.7303814,294.322609 57.8562542,294.296384 57.983683,294.276902 C58.1111118,294.257421 58.2338767,294.24768 58.3519814,294.24768 L60.5897436,294.24768 C60.6798762,294.24768 60.7513595,294.273156 60.8041958,294.324107 C60.8570321,294.37506 60.8834499,294.440996 60.8834499,294.521919 L60.8834499,295.007455 L56.4265734,295.007455 L56.4265734,294.733217 C56.4265734,294.676271 56.4382283,294.617828 56.4615385,294.557884 C56.4848486,294.497941 56.5229213,294.442495 56.5757576,294.391543 L58.7156177,292.319021 C58.8927748,292.145186 59.0543893,291.978097 59.2004662,291.817749 C59.3465431,291.657402 59.471639,291.496307 59.5757576,291.33446 C59.6798762,291.172615 59.7599065,291.008522 59.8158508,290.84218 C59.8717952,290.675838 59.8997669,290.498259 59.8997669,290.309439 C59.8997669,290.120618 59.8686872,289.955028 59.8065268,289.812663 C59.7443665,289.670299 59.6588972,289.552662 59.5501166,289.45975 C59.4413359,289.366838 59.3139091,289.297156 59.1678322,289.250699 C59.0217553,289.204243 58.8648027,289.181016 58.6969697,289.181016 C58.5291367,289.181016 58.3737381,289.204993 58.2307692,289.252947 C58.0878004,289.300902 57.9611505,289.367587 57.8508159,289.453006 C57.7404812,289.538425 57.647242,289.639578 57.5710956,289.756466 C57.4949491,289.873356 57.4413366,290.002232 57.4102564,290.143097 C57.3853923,290.230015 57.3480966,290.292954 57.2983683,290.331917 C57.24864,290.370881 57.1833726,290.390361 57.1025641,290.390361 C57.087024,290.390361 57.0707072,290.389612 57.0536131,290.388114 C57.036519,290.386615 57.0170941,290.384367 56.995338,290.38137 L56.5617716,290.309439 C56.6052838,290.015718 56.6891991,289.755718 56.8135198,289.529433 C56.9378406,289.303148 57.0955702,289.113581 57.2867133,288.960726 C57.4778564,288.807872 57.6969685,288.691733 57.944056,288.612308 C58.1911434,288.532884 58.457652,288.493172 58.7435898,288.493172 Z M64.7342657,291.204085 C64.6969696,291.270023 64.6394721,291.30299 64.5617716,291.30299 C64.5151513,291.30299 64.4623158,291.286506 64.4032634,291.253538 C64.344211,291.220569 64.2719507,291.183855 64.1864802,291.143393 C64.1010097,291.102931 63.9992236,291.065467 63.8811189,291.031 C63.7630142,290.996533 63.6231554,290.979299 63.4615385,290.979299 C63.3216777,290.979299 63.1958048,290.996533 63.0839161,291.031 C62.9720274,291.065467 62.8764573,291.112672 62.7972028,291.172615 C62.7179483,291.232559 62.6573429,291.302241 62.6153846,291.381665 C62.5734264,291.461091 62.5524475,291.547257 62.5524475,291.640169 C62.5524475,291.757058 62.5874123,291.854464 62.6573427,291.93239 C62.7272731,292.010316 62.8197353,292.077751 62.9347319,292.134697 C63.0497287,292.191643 63.1802635,292.241844 63.3263403,292.285303 C63.4724172,292.328763 63.6223769,292.375217 63.7762238,292.42467 C63.9300708,292.474124 64.0800304,292.528821 64.2261072,292.588763 C64.3721841,292.648707 64.502719,292.723635 64.6177156,292.813549 C64.7327124,292.903464 64.8251745,293.013608 64.8951049,293.143984 C64.9650354,293.27436 65,293.430959 65,293.613785 C65,293.823586 64.9611504,294.017649 64.8834499,294.19598 C64.8057495,294.37431 64.6907545,294.528662 64.5384615,294.659038 C64.3861687,294.789414 64.1996903,294.892065 63.979021,294.966994 C63.7583517,295.041923 63.503498,295.079386 63.2144522,295.079386 C62.8850022,295.079386 62.5866369,295.027687 62.3193473,294.924285 C62.0520577,294.820883 61.8251758,294.688261 61.6386946,294.526414 L61.8344988,294.220706 C61.8593631,294.181743 61.8888888,294.151772 61.9230769,294.130792 C61.9572652,294.109812 62.0023308,294.099322 62.0582751,294.099322 C62.1142194,294.099322 62.1732709,294.120302 62.2354312,294.162262 C62.2975916,294.204223 62.37296,294.250677 62.4615385,294.301629 C62.5501171,294.352581 62.657342,294.399036 62.7832168,294.440996 C62.9090915,294.482957 63.0668211,294.503936 63.2564103,294.503936 C63.4180272,294.503936 63.5594399,294.483706 63.6806527,294.443244 C63.8018654,294.402782 63.9028745,294.348085 63.983683,294.27915 C64.0644915,294.210216 64.1243199,294.130793 64.1631702,294.040878 C64.2020204,293.950963 64.2214452,293.855056 64.2214452,293.753152 C64.2214452,293.627272 64.1864806,293.523123 64.1165501,293.4407 C64.0466197,293.358279 63.9541576,293.287847 63.8391608,293.229402 C63.7241642,293.170958 63.5928523,293.120007 63.4452214,293.076548 C63.2975906,293.033089 63.146854,292.987384 62.993007,292.939429 C62.8391601,292.891474 62.6884234,292.836778 62.5407925,292.775335 C62.3931617,292.713894 62.2618499,292.636719 62.1468531,292.543806 C62.0318565,292.450895 61.9393943,292.336255 61.8694639,292.199885 C61.7995335,292.063515 61.7645688,291.897924 61.7645688,291.703109 C61.7645688,291.529273 61.8018645,291.362185 61.8764569,291.201837 C61.9510494,291.04149 62.0598283,290.900625 62.2027972,290.77924 C62.3457661,290.657856 62.5213665,290.561199 62.7296037,290.489267 C62.937841,290.417336 63.1756008,290.38137 63.4428904,290.38137 C63.7536923,290.38137 64.0326328,290.428575 64.2797203,290.522985 C64.5268078,290.617396 64.7404809,290.74702 64.9207459,290.911864 L64.7342657,291.204085 Z M53.1724942,332.933761 L55.4755245,332.933761 L55.4755245,333.612613 L53.1724942,333.612613 L53.1724942,332.933761 Z M53.1724942,373.894671 L55.4755245,373.894671 L55.4755245,374.573523 L53.1724942,374.573523 L53.1724942,373.894671 Z M58.8321678,329.454082 C59.1149976,329.454082 59.3760672,329.493044 59.6153846,329.57097 C59.8547021,329.648897 60.0606052,329.75979 60.2331003,329.903653 C60.4055953,330.047516 60.5400151,330.221348 60.6363637,330.425155 C60.7327122,330.628961 60.7808858,330.855243 60.7808858,331.104007 C60.7808858,331.307814 60.753691,331.489889 60.6993007,331.650236 C60.6449104,331.810584 60.5672111,331.951448 60.4662005,332.072832 C60.3651899,332.194218 60.243202,332.296869 60.1002331,332.380789 C59.9572643,332.464709 59.7972037,332.532144 59.6200466,332.583095 C60.0551693,332.693991 60.3822833,332.879811 60.6013986,333.140563 C60.8205139,333.401317 60.93007,333.728001 60.93007,334.120628 C60.93007,334.417347 60.8717955,334.684089 60.7552448,334.920864 C60.6386941,335.157641 60.4794105,335.359195 60.2773893,335.525537 C60.0753681,335.69188 59.8399392,335.819257 59.5710956,335.907673 C59.302252,335.996089 59.0139876,336.040296 58.7062937,336.040296 C58.3519796,336.040296 58.0489523,335.997588 57.7972028,335.912168 C57.5454533,335.82675 57.3325572,335.709113 57.1585082,335.559255 C56.9844591,335.409398 56.8414924,335.231819 56.7296037,335.026514 C56.6177151,334.821209 56.5229219,334.598674 56.4452215,334.358901 L56.7995338,334.215038 C56.8648022,334.188064 56.9300696,334.174577 56.995338,334.174577 C57.0574984,334.174577 57.1126649,334.187315 57.1608392,334.21279 C57.2090135,334.238266 57.2455321,334.277978 57.2703963,334.331927 C57.2766123,334.343915 57.2828283,334.356653 57.2890443,334.37014 C57.2952603,334.383627 57.3014763,334.397864 57.3076923,334.412849 C57.3512046,334.499767 57.4040401,334.597923 57.4662005,334.707318 C57.5283609,334.816715 57.6122761,334.919366 57.7179487,335.015274 C57.8236214,335.111184 57.9549332,335.192106 58.1118881,335.258043 C58.2688431,335.323981 58.4638683,335.356948 58.6969697,335.356948 C58.9300711,335.356948 59.1344203,335.320234 59.3100233,335.246803 C59.4856264,335.173374 59.6317011,335.078215 59.7482518,334.961326 C59.8648025,334.844437 59.9526027,334.714063 60.011655,334.570199 C60.0707074,334.426336 60.1002331,334.283973 60.1002331,334.143107 C60.1002331,333.969272 60.0761463,333.810425 60.027972,333.666562 C59.9797978,333.522699 59.8927745,333.398318 59.7668998,333.293418 C59.641025,333.188518 59.4669786,333.106097 59.2447553,333.046154 C59.0225319,332.986211 58.7373755,332.956239 58.3892774,332.956239 L58.3892774,332.376293 C58.6721071,332.373296 58.9137519,332.343325 59.1142191,332.286379 C59.3146863,332.229433 59.4786319,332.151508 59.6060606,332.052602 C59.7334894,331.953696 59.8259516,331.83531 59.8834499,331.697441 C59.9409483,331.559572 59.969697,331.406719 59.969697,331.238878 C59.969697,331.053055 59.9393943,330.891211 59.8787879,330.753342 C59.8181815,330.615473 59.7350433,330.501583 59.6293706,330.411668 C59.523698,330.321754 59.3986021,330.254319 59.2540793,330.209361 C59.1095564,330.164404 58.9533808,330.141925 58.7855478,330.141925 C58.6177148,330.141925 58.4623162,330.165902 58.3193473,330.213857 C58.1763785,330.261812 58.0497286,330.328497 57.939394,330.413916 C57.8290593,330.499335 57.7365971,330.601237 57.6620047,330.719624 C57.5874122,330.838012 57.5314687,330.966139 57.4941725,331.104007 C57.4693084,331.190925 57.4320127,331.253864 57.3822844,331.292827 C57.3325561,331.331791 57.2688427,331.351271 57.1911422,331.351271 C57.1756021,331.351271 57.1592853,331.350522 57.1421912,331.349023 C57.1250971,331.347525 57.1056722,331.345277 57.0839161,331.34228 L56.6503497,331.270348 C56.6938619,330.976628 56.7777772,330.716628 56.9020979,330.490343 C57.0264187,330.264058 57.1841482,330.074491 57.3752914,329.921635 C57.5664345,329.768781 57.7855466,329.652643 58.032634,329.573218 C58.2797215,329.493794 58.5462301,329.454082 58.8321678,329.454082 Z M64.7342657,332.164994 C64.6969696,332.230933 64.6394721,332.2639 64.5617716,332.2639 C64.5151513,332.2639 64.4623158,332.247416 64.4032634,332.214447 C64.344211,332.181479 64.2719507,332.144765 64.1864802,332.104302 C64.1010097,332.063841 63.9992236,332.026377 63.8811189,331.99191 C63.7630142,331.957443 63.6231554,331.940209 63.4615385,331.940209 C63.3216777,331.940209 63.1958048,331.957443 63.0839161,331.99191 C62.9720274,332.026377 62.8764573,332.073582 62.7972028,332.133525 C62.7179483,332.193468 62.6573429,332.263151 62.6153846,332.342575 C62.5734264,332.422 62.5524475,332.508167 62.5524475,332.601078 C62.5524475,332.717968 62.5874123,332.815374 62.6573427,332.893299 C62.7272731,332.971226 62.8197353,333.038661 62.9347319,333.095606 C63.0497287,333.152553 63.1802635,333.202754 63.3263403,333.246213 C63.4724172,333.289672 63.6223769,333.336127 63.7762238,333.38558 C63.9300708,333.435033 64.0800304,333.48973 64.2261072,333.549673 C64.3721841,333.609617 64.502719,333.684544 64.6177156,333.774459 C64.7327124,333.864374 64.8251745,333.974518 64.8951049,334.104893 C64.9650354,334.23527 65,334.391868 65,334.574695 C65,334.784496 64.9611504,334.978558 64.8834499,335.156889 C64.8057495,335.33522 64.6907545,335.489572 64.5384615,335.619947 C64.3861687,335.750324 64.1996903,335.852975 63.979021,335.927903 C63.7583517,336.002833 63.503498,336.040296 63.2144522,336.040296 C62.8850022,336.040296 62.5866369,335.988597 62.3193473,335.885194 C62.0520577,335.781793 61.8251758,335.64917 61.6386946,335.487324 L61.8344988,335.181616 C61.8593631,335.142653 61.8888888,335.112681 61.9230769,335.091701 C61.9572652,335.070721 62.0023308,335.060231 62.0582751,335.060231 C62.1142194,335.060231 62.1732709,335.081211 62.2354312,335.123171 C62.2975916,335.165132 62.37296,335.211587 62.4615385,335.262538 C62.5501171,335.313491 62.657342,335.359945 62.7832168,335.401905 C62.9090915,335.443866 63.0668211,335.464845 63.2564103,335.464845 C63.4180272,335.464845 63.5594399,335.444616 63.6806527,335.404153 C63.8018654,335.363692 63.9028745,335.308995 63.983683,335.24006 C64.0644915,335.171126 64.1243199,335.091702 64.1631702,335.001787 C64.2020204,334.911873 64.2214452,334.815966 64.2214452,334.714062 C64.2214452,334.588182 64.1864806,334.484032 64.1165501,334.40161 C64.0466197,334.319189 63.9541576,334.248757 63.8391608,334.190312 C63.7241642,334.131867 63.5928523,334.080917 63.4452214,334.037458 C63.2975906,333.993999 63.146854,333.948294 62.993007,333.900338 C62.8391601,333.852384 62.6884234,333.797687 62.5407925,333.736245 C62.3931617,333.674804 62.2618499,333.597628 62.1468531,333.504716 C62.0318565,333.411805 61.9393943,333.297165 61.8694639,333.160794 C61.7995335,333.024424 61.7645688,332.858833 61.7645688,332.664018 C61.7645688,332.490183 61.8018645,332.323095 61.8764569,332.162747 C61.9510494,332.0024 62.0598283,331.861535 62.2027972,331.74015 C62.3457661,331.618766 62.5213665,331.522109 62.7296037,331.450177 C62.937841,331.378245 63.1756008,331.34228 63.4428904,331.34228 C63.7536923,331.34228 64.0326328,331.389485 64.2797203,331.483894 C64.5268078,331.578305 64.7404809,331.70793 64.9207459,331.872773 L64.7342657,332.164994 Z M64.7342657,373.124698 C64.6969696,373.190636 64.6394721,373.223604 64.5617716,373.223604 C64.5151513,373.223604 64.4623158,373.20712 64.4032634,373.174151 C64.344211,373.141183 64.2719507,373.104469 64.1864802,373.064006 C64.1010097,373.023545 63.9992236,372.986081 63.8811189,372.951614 C63.7630142,372.917146 63.6231554,372.899913 63.4615385,372.899913 C63.3216777,372.899913 63.1958048,372.917146 63.0839161,372.951614 C62.9720274,372.986081 62.8764573,373.033286 62.7972028,373.093228 C62.7179483,373.153172 62.6573429,373.222855 62.6153846,373.302279 C62.5734264,373.381704 62.5524475,373.467871 62.5524475,373.560782 C62.5524475,373.677672 62.5874123,373.775078 62.6573427,373.853003 C62.7272731,373.93093 62.8197353,373.998365 62.9347319,374.05531 C63.0497287,374.112257 63.1802635,374.162458 63.3263403,374.205916 C63.4724172,374.249376 63.6223769,374.295831 63.7762238,374.345283 C63.9300708,374.394737 64.0800304,374.449434 64.2261072,374.509377 C64.3721841,374.569321 64.502719,374.644248 64.6177156,374.734162 C64.7327124,374.824078 64.8251745,374.934221 64.8951049,375.064597 C64.9650354,375.194974 65,375.351572 65,375.534399 C65,375.744199 64.9611504,375.938262 64.8834499,376.116593 C64.8057495,376.294924 64.6907545,376.449276 64.5384615,376.579651 C64.3861687,376.710028 64.1996903,376.812679 63.979021,376.887607 C63.7583517,376.962537 63.503498,377 63.2144522,377 C62.8850022,377 62.5866369,376.9483 62.3193473,376.844898 C62.0520577,376.741497 61.8251758,376.608874 61.6386946,376.447028 L61.8344988,376.141319 C61.8593631,376.102357 61.8888888,376.072385 61.9230769,376.051405 C61.9572652,376.030425 62.0023308,376.019935 62.0582751,376.019935 C62.1142194,376.019935 62.1732709,376.040915 62.2354312,376.082875 C62.2975916,376.124836 62.37296,376.171291 62.4615385,376.222242 C62.5501171,376.273195 62.657342,376.319649 62.7832168,376.361609 C62.9090915,376.40357 63.0668211,376.424549 63.2564103,376.424549 C63.4180272,376.424549 63.5594399,376.404319 63.6806527,376.363857 C63.8018654,376.323396 63.9028745,376.268699 63.983683,376.199764 C64.0644915,376.130829 64.1243199,376.051406 64.1631702,375.961491 C64.2020204,375.871577 64.2214452,375.775669 64.2214452,375.673766 C64.2214452,375.547886 64.1864806,375.443736 64.1165501,375.361314 C64.0466197,375.278893 63.9541576,375.208461 63.8391608,375.150016 C63.7241642,375.091571 63.5928523,375.040621 63.4452214,374.997161 C63.2975906,374.953703 63.146854,374.907997 62.993007,374.860042 C62.8391601,374.812088 62.6884234,374.757391 62.5407925,374.695949 C62.3931617,374.634507 62.2618499,374.557332 62.1468531,374.46442 C62.0318565,374.371508 61.9393943,374.256869 61.8694639,374.120498 C61.7995335,373.984128 61.7645688,373.818537 61.7645688,373.623722 C61.7645688,373.449887 61.8018645,373.282798 61.8764569,373.12245 C61.9510494,372.962103 62.0598283,372.821239 62.2027972,372.699854 C62.3457661,372.57847 62.5213665,372.481813 62.7296037,372.40988 C62.937841,372.337949 63.1756008,372.301983 63.4428904,372.301983 C63.7536923,372.301983 64.0326328,372.349188 64.2797203,372.443598 C64.5268078,372.538009 64.7404809,372.667634 64.9207459,372.832477 L64.7342657,373.124698 Z" id="+3s-+2s-+1s-X--1s--2" fill="#888888" fill-rule="nonzero"></path>
        <path d="M90.3826439,395.27372 L91.7691652,395.27372 L91.7691652,390.605461 C91.7691652,390.465301 91.7736669,390.323551 91.7826703,390.180205 L90.630237,391.226621 C90.6002256,391.252106 90.5702146,391.270421 90.5402031,391.28157 C90.5101917,391.292719 90.4816813,391.298294 90.454671,391.298294 C90.4096538,391.298294 90.369139,391.287942 90.3331253,391.267235 C90.2971116,391.24653 90.2701017,391.221844 90.2520948,391.193174 L90,390.825256 L91.9177211,389.062116 L92.5704665,389.062116 L92.5704665,395.27372 L93.8399439,395.27372 L93.8399439,395.923549 L90.3826439,395.923549 L90.3826439,395.27372 Z M118.311145,389 C118.584249,389 118.839342,389.043003 119.076433,389.12901 C119.313523,389.215018 119.518348,389.340046 119.690914,389.504096 C119.86348,389.668147 119.999279,389.868031 120.098317,390.103754 C120.197355,390.339479 120.246873,390.607052 120.246873,390.906485 C120.246873,391.161322 120.21086,391.397041 120.138832,391.613652 C120.066805,391.830263 119.969269,392.03811 119.846222,392.237201 C119.723175,392.436292 119.581374,392.62901 119.420812,392.815358 C119.260251,393.001708 119.089939,393.192035 118.90987,393.386348 L117.212732,395.230717 C117.332778,395.195677 117.454322,395.167805 117.577369,395.147099 C117.700416,395.126394 117.818959,395.116041 117.933003,395.116041 L120.093815,395.116041 C120.180849,395.116041 120.249874,395.143117 120.300893,395.19727 C120.351913,395.251423 120.377422,395.321502 120.377422,395.407509 L120.377422,395.923549 L116.073804,395.923549 L116.073804,395.632082 C116.073804,395.571559 116.085058,395.509444 116.107566,395.445734 C116.130075,395.382025 116.166838,395.323095 116.217858,395.268942 L118.284135,393.066212 C118.4552,392.881456 118.611257,392.703869 118.752311,392.533447 C118.893365,392.363026 119.014159,392.19181 119.114697,392.019795 C119.215236,391.847782 119.292514,391.67338 119.346534,391.496587 C119.400555,391.319795 119.427565,391.131059 119.427565,390.930375 C119.427565,390.729692 119.397554,390.553698 119.337531,390.402389 C119.277508,390.251081 119.194978,390.126053 119.089938,390.027304 C118.984898,389.928555 118.861853,389.854495 118.720799,389.805119 C118.579745,389.755745 118.42819,389.731058 118.266128,389.731058 C118.104066,389.731058 117.954011,389.756542 117.815959,389.807509 C117.677906,389.858477 117.555611,389.929352 117.449071,390.020137 C117.34253,390.110923 117.252497,390.21843 117.178969,390.342662 C117.105441,390.466895 117.053672,390.603868 117.023661,390.753584 C116.999652,390.845962 116.963639,390.912856 116.91562,390.954266 C116.867602,390.995678 116.804579,391.016382 116.726549,391.016382 C116.711543,391.016382 116.695788,391.015586 116.679281,391.013993 C116.662775,391.0124 116.644018,391.010011 116.62301,391.006826 L116.204353,390.930375 C116.246369,390.618201 116.327399,390.341868 116.447444,390.101365 C116.56749,389.860864 116.719796,389.659387 116.904366,389.496928 C117.088936,389.334471 117.300514,389.211036 117.539105,389.126621 C117.777696,389.042207 118.03504,389 118.311145,389 Z M144.911647,389 C145.184751,389 145.436843,389.041411 145.667931,389.124232 C145.899019,389.207055 146.097842,389.324915 146.264405,389.477816 C146.430969,389.630718 146.560766,389.815471 146.653802,390.032082 C146.746837,390.248693 146.793354,390.489191 146.793354,390.753584 C146.793354,390.970194 146.767095,391.163709 146.714575,391.33413 C146.662055,391.504552 146.587027,391.654266 146.48949,391.783276 C146.391953,391.912288 146.27416,392.021388 146.136107,392.11058 C145.998055,392.199774 145.843498,392.271445 145.672433,392.325597 C146.092593,392.44346 146.408459,392.640955 146.620039,392.918089 C146.83162,393.195224 146.937409,393.542432 146.937409,393.959727 C146.937409,394.275087 146.881138,394.558588 146.768595,394.810239 C146.656052,395.061891 146.502246,395.276109 146.307172,395.452901 C146.112097,395.629694 145.884764,395.765074 145.625165,395.859044 C145.365566,395.953016 145.087214,396 144.790101,396 C144.447971,396 144.155364,395.954609 143.912271,395.863823 C143.669178,395.773038 143.463603,395.64801 143.295539,395.488737 C143.127475,395.329465 142.989425,395.140729 142.881383,394.922526 C142.773342,394.704322 142.681809,394.467806 142.60678,394.212969 L142.948909,394.060068 C143.011933,394.031399 143.074956,394.017065 143.13798,394.017065 C143.198003,394.017065 143.251272,394.030603 143.29779,394.057679 C143.344308,394.084756 143.379571,394.126962 143.40358,394.1843 C143.409582,394.197042 143.415584,394.21058 143.421587,394.224915 C143.427589,394.239249 143.433591,394.25438 143.439593,394.270307 C143.481609,394.362686 143.532628,394.467008 143.592651,394.583276 C143.652674,394.699546 143.733703,394.808646 143.835742,394.91058 C143.937781,395.012515 144.064578,395.098521 144.216135,395.168601 C144.367693,395.238681 144.556012,395.27372 144.781098,395.27372 C145.006183,395.27372 145.203506,395.2347 145.37307,395.156655 C145.542635,395.078612 145.683687,394.977475 145.796229,394.853242 C145.908772,394.72901 145.993553,394.590445 146.050575,394.437543 C146.107597,394.284642 146.136107,394.133334 146.136107,393.983618 C146.136107,393.798862 146.112849,393.630035 146.066331,393.477133 C146.019813,393.324232 145.935783,393.192037 145.814236,393.080546 C145.69269,392.969056 145.524628,392.881457 145.310047,392.817747 C145.095465,392.754039 144.820114,392.722184 144.483986,392.722184 L144.483986,392.105802 C144.75709,392.102617 144.990425,392.070763 145.183999,392.010239 C145.377573,391.949716 145.535881,391.866895 145.658928,391.761775 C145.781975,391.656655 145.871257,391.530832 145.926779,391.3843 C145.9823,391.23777 146.01006,391.075314 146.01006,390.896928 C146.01006,390.69943 145.980799,390.527419 145.922277,390.380887 C145.863755,390.234357 145.783475,390.113312 145.681436,390.017747 C145.579397,389.922184 145.458603,389.850513 145.31905,389.80273 C145.179497,389.754949 145.028692,389.731058 144.86663,389.731058 C144.704568,389.731058 144.554513,389.756542 144.416461,389.807509 C144.278408,389.858477 144.156113,389.929352 144.049573,390.020137 C143.943032,390.110923 143.853749,390.219226 143.781722,390.345051 C143.709694,390.470877 143.655675,390.607053 143.619661,390.753584 C143.595652,390.845962 143.559639,390.912856 143.51162,390.954266 C143.463602,390.995678 143.40208,391.016382 143.327051,391.016382 C143.312045,391.016382 143.29629,391.015586 143.279783,391.013993 C143.263277,391.0124 143.24452,391.010011 143.223512,391.006826 L142.804855,390.930375 C142.846871,390.618201 142.9279,390.341868 143.047946,390.101365 C143.167992,389.860864 143.320298,389.659387 143.504868,389.496928 C143.689438,389.334471 143.901016,389.211036 144.139607,389.126621 C144.378197,389.042207 144.635542,389 144.911647,389 Z M172.700596,393.453242 L173.677463,393.453242 L173.677463,393.940614 C173.677463,393.991582 173.663208,394.034585 173.634697,394.069625 C173.606185,394.104665 173.56192,394.122184 173.501897,394.122184 L172.700596,394.122184 L172.700596,395.923549 L171.99383,395.923549 L171.99383,394.122184 L169.135255,394.122184 C169.075232,394.122184 169.023463,394.103869 168.979947,394.067235 C168.93643,394.030603 168.90867,393.985212 168.896666,393.931058 L168.815635,393.496246 L171.953315,389.076451 L172.700596,389.076451 L172.700596,393.453242 Z M171.99383,390.629352 C171.99383,390.54653 171.996081,390.457339 172.000583,390.361775 C172.005084,390.266212 172.014837,390.167464 172.029844,390.065529 L169.684462,393.453242 L171.99383,393.453242 L171.99383,390.629352 Z M199.553192,389.449147 C199.553192,389.570194 199.517179,389.669738 199.445151,389.747782 C199.373124,389.825826 199.25158,389.864846 199.080514,389.864846 L197.054753,389.864846 L196.757641,391.661433 C197.093769,391.584983 197.404383,391.546758 197.689491,391.546758 C198.02562,391.546758 198.321978,391.599317 198.578576,391.704437 C198.835173,391.809557 199.050502,391.954494 199.224569,392.139249 C199.398635,392.324006 199.529933,392.542206 199.618467,392.793857 C199.707,393.045508 199.751267,393.319453 199.751267,393.6157 C199.751267,393.978842 199.691245,394.306939 199.571199,394.6 C199.451153,394.893062 199.286843,395.143912 199.078263,395.35256 C198.869684,395.561207 198.624344,395.721274 198.342237,395.832765 C198.06013,395.944256 197.755518,396 197.428393,396 C197.239321,396 197.057755,395.980092 196.883688,395.940273 C196.709622,395.900455 196.547563,395.8471 196.397505,395.780205 C196.247448,395.713311 196.107898,395.636861 195.978848,395.550853 C195.849799,395.464846 195.735757,395.374062 195.636719,395.278498 L195.879811,394.915358 C195.933831,394.832537 196.005858,394.791126 196.095892,394.791126 C196.152914,394.791126 196.219689,394.815813 196.296217,394.865188 C196.372746,394.914563 196.46503,394.969511 196.573071,395.030034 C196.681112,395.090559 196.807909,395.145506 196.953465,395.194881 C197.09902,395.244256 197.272333,395.268942 197.47341,395.268942 C197.698496,395.268942 197.90107,395.230718 198.081139,395.154266 C198.261207,395.077816 198.415013,394.968716 198.542562,394.826962 C198.670111,394.68521 198.768397,394.515587 198.837423,394.318089 C198.906449,394.120591 198.940962,393.899206 198.940962,393.653925 C198.940962,393.4405 198.911701,393.247783 198.853179,393.075768 C198.794657,392.903754 198.706125,392.757225 198.587579,392.636177 C198.469033,392.515131 198.32123,392.421161 198.144162,392.354266 C197.967095,392.287372 197.760019,392.253925 197.522929,392.253925 C197.360867,392.253925 197.192806,392.268259 197.018739,392.296928 C196.844673,392.325598 196.664607,392.371786 196.478536,392.435495 L195.974346,392.277816 L196.496543,389.076451 L199.553192,389.076451 L199.553192,389.449147 Z M224.591606,391.728328 C224.849705,391.728328 225.094294,391.77372 225.325382,391.864505 C225.556471,391.955291 225.759045,392.087486 225.93311,392.261092 C226.107177,392.4347 226.245228,392.648122 226.347266,392.901365 C226.449306,393.15461 226.500324,393.443685 226.500324,393.768601 C226.500324,394.083961 226.446304,394.377018 226.338263,394.647782 C226.230222,394.918546 226.079416,395.154265 225.885843,395.354949 C225.692269,395.555632 225.458934,395.713311 225.185829,395.827986 C224.912726,395.942663 224.612616,396 224.285491,396 C223.961368,396 223.668011,395.945052 223.40541,395.835154 C223.14281,395.725256 222.918478,395.569171 222.732407,395.366894 C222.546336,395.164618 222.403034,394.919342 222.302495,394.631058 C222.201957,394.342775 222.151689,394.020252 222.151689,393.663481 C222.151689,393.364049 222.214712,393.045508 222.34076,392.70785 C222.466808,392.370192 222.666381,392.007056 222.939485,391.61843 L224.573599,389.281911 C224.615616,389.224573 224.674137,389.175997 224.749165,389.136177 C224.824195,389.096359 224.909726,389.076451 225.005762,389.076451 L225.717029,389.076451 L223.479688,392.081911 C223.632746,391.970421 223.802308,391.883619 223.988379,391.821502 C224.17445,391.759386 224.375524,391.728328 224.591606,391.728328 Z M222.92598,393.811604 C222.92598,394.0314 222.955991,394.232082 223.016014,394.413652 C223.076037,394.595223 223.163819,394.751308 223.279363,394.881911 C223.394907,395.012515 223.535959,395.113652 223.702522,395.185324 C223.869085,395.256998 224.058905,395.292833 224.271986,395.292833 C224.488068,395.292833 224.68314,395.256201 224.857206,395.182935 C225.031272,395.10967 225.180578,395.007737 225.305124,394.877133 C225.429672,394.74653 225.525707,394.592037 225.593233,394.413652 C225.660759,394.235267 225.694521,394.040957 225.694521,393.830717 C225.694521,393.607735 225.661509,393.406258 225.595484,393.22628 C225.529459,393.046303 225.436425,392.893403 225.316379,392.767577 C225.196333,392.641752 225.05228,392.545394 224.884216,392.478498 C224.716153,392.411604 224.531584,392.378157 224.330508,392.378157 C224.114426,392.378157 223.919354,392.417179 223.745288,392.495222 C223.571222,392.573266 223.423418,392.678385 223.301871,392.81058 C223.180325,392.942777 223.087291,393.095677 223.022766,393.269283 C222.958242,393.442891 222.92598,393.623663 222.92598,393.811604 Z M253.060311,389.076451 L253.060311,389.458703 C253.060311,389.567009 253.049057,389.6562 253.026548,389.72628 C253.00404,389.796361 252.980781,389.85529 252.956772,389.903072 L250.287268,395.622526 C250.248253,395.705348 250.194233,395.776223 250.125207,395.835154 C250.05618,395.894085 249.963146,395.923549 249.846102,395.923549 L249.274387,395.923549 L251.984406,390.275768 C252.023421,390.196132 252.063186,390.122868 252.103701,390.055973 C252.144216,389.989078 252.189984,389.925371 252.241003,389.864846 L248.873737,389.864846 C248.822717,389.864846 248.77695,389.843346 248.736435,389.800341 C248.69592,389.757338 248.675662,389.708761 248.675662,389.654608 L248.675662,389.076451 L253.060311,389.076451 Z M277.301925,396 C276.980803,396 276.686696,395.954609 276.419593,395.863823 C276.152492,395.773038 275.922908,395.643232 275.730834,395.474403 C275.538761,395.305575 275.390207,395.100912 275.285167,394.86041 C275.180127,394.619908 275.127608,394.349945 275.127608,394.050512 C275.127608,393.610919 275.235647,393.24858 275.45173,392.963481 C275.667812,392.678383 275.976925,392.475314 276.379078,392.354266 C276.03995,392.220478 275.784105,392.020594 275.61154,391.754608 C275.438974,391.488622 275.352692,391.170878 275.352692,390.801365 C275.352692,390.549715 275.39921,390.313994 275.492245,390.094198 C275.585281,389.874402 275.717328,389.683278 275.888394,389.520819 C276.059459,389.358362 276.264284,389.230945 276.502875,389.138567 C276.741465,389.046189 277.007814,389 277.301925,389 C277.593037,389 277.858634,389.046189 278.098725,389.138567 C278.338816,389.230945 278.544391,389.358362 278.715457,389.520819 C278.886522,389.683278 279.018571,389.874402 279.111606,390.094198 C279.204642,390.313994 279.251158,390.549715 279.251158,390.801365 C279.251158,391.170878 279.164126,391.488622 278.99006,391.754608 C278.815994,392.020594 278.560901,392.220478 278.224772,392.354266 C278.626925,392.475314 278.936039,392.678383 279.152121,392.963481 C279.368203,393.24858 279.476243,393.610919 279.476243,394.050512 C279.476243,394.349945 279.422974,394.619908 279.316433,394.86041 C279.209893,395.100912 279.061338,395.305575 278.870765,395.474403 C278.680192,395.643232 278.451359,395.773038 278.184257,395.863823 C277.917156,395.954609 277.623048,396 277.301925,396 Z M277.301925,395.321502 C277.512005,395.321502 277.700324,395.290445 277.866888,395.228328 C278.033451,395.166212 278.174503,395.078613 278.290047,394.965529 C278.405591,394.852446 278.494124,394.717066 278.555647,394.559386 C278.617171,394.401706 278.647931,394.227305 278.647931,394.036177 C278.647931,393.800454 278.611169,393.598977 278.53764,393.431741 C278.464112,393.264505 278.365076,393.128329 278.240528,393.023208 C278.115981,392.918089 277.972678,392.840843 277.810616,392.791468 C277.648555,392.742093 277.478993,392.717406 277.301925,392.717406 C277.124858,392.717406 276.955296,392.742093 276.793234,392.791468 C276.631172,392.840843 276.48787,392.918089 276.363322,393.023208 C276.238775,393.128329 276.139739,393.264505 276.066211,393.431741 C275.992683,393.598977 275.955919,393.800454 275.955919,394.036177 C275.955919,394.227305 275.986681,394.401706 276.048204,394.559386 C276.109728,394.717066 276.19826,394.852446 276.313804,394.965529 C276.429348,395.078613 276.570399,395.166212 276.736963,395.228328 C276.903526,395.290445 277.091845,395.321502 277.301925,395.321502 Z M277.301925,392.03413 C277.512005,392.03413 277.691321,391.999887 277.839878,391.931399 C277.988434,391.862912 278.109229,391.772128 278.202264,391.659044 C278.2953,391.545961 278.362824,391.416156 278.40484,391.269625 C278.446856,391.123094 278.467864,390.971787 278.467864,390.8157 C278.467864,390.656428 278.443104,390.506713 278.393586,390.366553 C278.344067,390.226394 278.27054,390.103755 278.173003,389.998635 C278.075466,389.893515 277.953921,389.810695 277.808366,389.750171 C277.662811,389.689647 277.493998,389.659386 277.301925,389.659386 C277.109852,389.659386 276.941041,389.689647 276.795485,389.750171 C276.64993,389.810695 276.528385,389.893515 276.430848,389.998635 C276.333311,390.103755 276.259783,390.226394 276.210265,390.366553 C276.160746,390.506713 276.135987,390.656428 276.135987,390.8157 C276.135987,390.971787 276.156995,391.123094 276.199011,391.269625 C276.241026,391.416156 276.308552,391.545961 276.401587,391.659044 C276.494623,391.772128 276.615416,391.862912 276.763973,391.931399 C276.91253,391.999887 277.091845,392.03413 277.301925,392.03413 Z M303.681845,393.113993 C303.438751,393.113993 303.208418,393.070991 302.990835,392.984983 C302.773252,392.898976 302.581931,392.772356 302.416869,392.605119 C302.251806,392.437884 302.120508,392.232425 302.022971,391.988737 C301.925433,391.74505 301.876666,391.465531 301.876666,391.150171 C301.876666,390.850738 301.929185,390.570423 302.034225,390.309215 C302.139265,390.048008 302.286319,389.820251 302.475391,389.625939 C302.664463,389.431626 302.889545,389.278727 303.150645,389.167235 C303.411744,389.055745 303.698349,389 304.010468,389 C304.319585,389 304.600188,389.054152 304.852285,389.162457 C305.104381,389.270763 305.32046,389.422069 305.500528,389.616382 C305.680597,389.810695 305.819397,390.04323 305.916935,390.313993 C306.014472,390.584758 306.06324,390.884186 306.06324,391.212287 C306.06324,391.409785 306.045984,391.596928 306.011471,391.77372 C305.976957,391.950513 305.926689,392.123322 305.860664,392.29215 C305.794638,392.460979 305.715859,392.62901 305.624325,392.796246 C305.53279,392.963482 305.428501,393.136291 305.311457,393.314676 L303.740367,395.722867 C303.701351,395.783391 303.645831,395.831968 303.573804,395.868601 C303.501776,395.905234 303.419246,395.923549 303.326211,395.923549 L302.587933,395.923549 L304.550671,393.195222 C304.616696,393.102844 304.678218,393.015246 304.735241,392.932423 C304.792262,392.849602 304.846281,392.766781 304.897302,392.683959 C304.732239,392.824119 304.546171,392.93083 304.339092,393.004096 C304.132013,393.077362 303.912933,393.113993 303.681845,393.113993 Z M305.293451,391.111945 C305.293451,390.89852 305.261188,390.705007 305.196664,390.531399 C305.132139,390.357793 305.042856,390.210468 304.928814,390.08942 C304.81477,389.968373 304.67897,389.8752 304.52141,389.809898 C304.36385,389.744596 304.190537,389.711945 304.001465,389.711945 C303.803389,389.711945 303.622572,389.746189 303.459011,389.814676 C303.295448,389.883164 303.155897,389.977929 303.040353,390.098976 C302.924809,390.220024 302.835526,390.36496 302.772503,390.533788 C302.709478,390.702618 302.677967,390.887371 302.677967,391.088055 C302.677967,391.304665 302.707227,391.49818 302.76575,391.668601 C302.824272,391.839023 302.908303,391.983163 303.017845,392.101024 C303.127386,392.218886 303.260935,392.308077 303.418496,392.368601 C303.576055,392.429125 303.75237,392.459386 303.947444,392.459386 C304.163527,392.459386 304.354847,392.421958 304.52141,392.347099 C304.687973,392.272241 304.828275,392.172697 304.942319,392.048464 C305.056361,391.924232 305.143393,391.780888 305.203417,391.61843 C305.263439,391.455973 305.293451,391.287146 305.293451,391.111945 Z M329.01737,395.27372 L330.403892,395.27372 L330.403892,390.605461 C330.403892,390.465301 330.408393,390.323551 330.417397,390.180205 L329.264963,391.226621 C329.234952,391.252106 329.204941,391.270421 329.17493,391.28157 C329.144918,391.292719 329.116408,391.298294 329.089397,391.298294 C329.04438,391.298294 329.003865,391.287942 328.967852,391.267235 C328.931838,391.24653 328.904828,391.221844 328.886821,391.193174 L328.634726,390.825256 L330.552448,389.062116 L331.205193,389.062116 L331.205193,395.27372 L332.47467,395.27372 L332.47467,395.923549 L329.01737,395.923549 L329.01737,395.27372 Z M340,392.502389 C340,393.101255 339.939228,393.619679 339.817681,394.057679 C339.696135,394.495679 339.530324,394.858019 339.320244,395.14471 C339.110164,395.431401 338.861823,395.644824 338.575214,395.784983 C338.288605,395.925143 337.981743,395.995222 337.654618,395.995222 C337.324492,395.995222 337.01763,395.925143 336.734022,395.784983 C336.450414,395.644824 336.203573,395.431401 335.993493,395.14471 C335.783413,394.858019 335.618353,394.495679 335.498307,394.057679 C335.378261,393.619679 335.31824,393.101255 335.31824,392.502389 C335.31824,391.903525 335.378261,391.384302 335.498307,390.94471 C335.618353,390.505117 335.783413,390.141185 335.993493,389.852901 C336.203573,389.564618 336.450414,389.350399 336.734022,389.210239 C337.01763,389.07008 337.324492,389 337.654618,389 C337.981743,389 338.288605,389.07008 338.575214,389.210239 C338.861823,389.350399 339.110164,389.564618 339.320244,389.852901 C339.530324,390.141185 339.696135,390.505117 339.817681,390.94471 C339.939228,391.384302 340,391.903525 340,392.502389 Z M339.167187,392.502389 C339.167187,391.979975 339.125921,391.541185 339.04339,391.186007 C338.960859,390.830829 338.849819,390.544938 338.710265,390.328328 C338.570712,390.111717 338.409403,389.956429 338.226333,389.862457 C338.043263,389.768487 337.852694,389.721502 337.654618,389.721502 C337.456543,389.721502 337.265973,389.768487 337.082903,389.862457 C336.899833,389.956429 336.739275,390.111717 336.601222,390.328328 C336.463169,390.544938 336.352879,390.830829 336.270348,391.186007 C336.187817,391.541185 336.146551,391.979975 336.146551,392.502389 C336.146551,393.024804 336.187817,393.462798 336.270348,393.816382 C336.352879,394.169968 336.463169,394.455062 336.601222,394.671672 C336.739275,394.888283 336.899833,395.043572 337.082903,395.137543 C337.265973,395.231514 337.456543,395.278498 337.654618,395.278498 C337.852694,395.278498 338.043263,395.231514 338.226333,395.137543 C338.409403,395.043572 338.570712,394.888283 338.710265,394.671672 C338.849819,394.455062 338.960859,394.169968 339.04339,393.816382 C339.125921,393.462798 339.167187,393.024804 339.167187,392.502389 Z" id="1-2-3-4-5-6-7-8-9-10" fill="#888888" fill-rule="nonzero"></path>
        <path d="M59.9953704,45.8353105 L61,45.8353105 L61,46.2623866 C61,46.3070491 60.9853395,46.3447313 60.9560185,46.3754361 C60.9266965,46.4061419 60.8811728,46.4214934 60.8194444,46.4214934 L59.9953704,46.4214934 L59.9953704,48 L59.2685185,48 L59.2685185,46.4214934 L56.3287037,46.4214934 C56.2669743,46.4214934 56.2137346,46.4054441 56.1689815,46.3733426 C56.1242274,46.3412421 56.095679,46.3014664 56.0833333,46.2540126 L56,45.8729937 L59.2268519,42 L59.9953704,42 L59.9953704,45.8353105 Z M59.2685185,43.3607816 C59.2685185,43.2882066 59.2708333,43.2100498 59.275463,43.1263084 C59.2800926,43.042568 59.2901224,42.9560372 59.3055556,42.8667132 L56.8935185,45.8353105 L59.2685185,45.8353105 L59.2685185,43.3607816 Z" id="1-2-3-4-5-6-7-8-9-10" fill="#888888" fill-rule="nonzero"></path>
        <path d="M59.9953704,373.835311 L61,373.835311 L61,374.262387 C61,374.307049 60.9853395,374.344731 60.9560185,374.375436 C60.9266965,374.406142 60.8811728,374.421493 60.8194444,374.421493 L59.9953704,374.421493 L59.9953704,376 L59.2685185,376 L59.2685185,374.421493 L56.3287037,374.421493 C56.2669743,374.421493 56.2137346,374.405444 56.1689815,374.373343 C56.1242274,374.341242 56.095679,374.301466 56.0833333,374.254013 L56,373.872994 L59.2268519,370 L59.9953704,370 L59.9953704,373.835311 Z M59.2685185,371.360782 C59.2685185,371.288207 59.2708333,371.21005 59.275463,371.126308 C59.2800926,371.042568 59.2901224,370.956037 59.3055556,370.866713 L56.8935185,373.835311 L59.2685185,373.835311 L59.2685185,371.360782 Z" id="1-2-3-4-5-6-7-8-9-10" fill="#888888" fill-rule="nonzero"></path>
        <g id="Group-5" transform="translate(89.000000, 63.000000)">
            <g id="Oval" transform="translate(243.500000, 13.991014) scale(-1, 1) translate(-243.500000, -13.991014) translate(230.000000, 0.491014)">
                <g id="path-1-link" fill="#FFFFFF" fill-opacity="0.300000012">
                    <circle id="path-1" cx="13.992616" cy="13.6440451" r="13"></circle>
                </g>
                <circle stroke="#979797" cx="13.992616" cy="13.6440451" r="12.5"></circle>
            </g>
            <polyline id="Path-2" stroke="#3277E0" stroke-linecap="round" stroke-linejoin="round" transform="translate(123.501837, 94.970952) scale(-1, 1) translate(-123.501837, -94.970952) " points="3.996289 13.6820518 35.0200727 116.259852 61.0605765 126.259852 86.9528787 156.259852 113.035875 126.259852 138.850612 116.259852 165.035002 156.259852 191.265298 176.259852 217.029572 176.259852 243.007384 156.259852"></polyline>
            <path d="M246.32929,16.1494827 L243.638307,10.7675167 C243.514812,10.5205274 243.214475,10.4204153 242.967486,10.5439099 C242.870723,10.5922917 242.792261,10.670753 242.743879,10.7675167 L240.052896,16.1494827 C239.929402,16.396472 240.029514,16.6968085 240.276503,16.8203031 C240.345931,16.855017 240.422487,16.8730895 240.50011,16.8730895 L245.882076,16.8730895 C246.158218,16.8730895 246.382076,16.6492319 246.382076,16.3730895 C246.382076,16.295467 246.364003,16.2189104 246.32929,16.1494827 Z" id="icon/off-chart" fill="#F03E3D" fill-rule="nonzero"></path>
            <g id="Oval" transform="translate(212.000000, 116.000000) scale(-1, 1) translate(-212.000000, -116.000000) translate(208.000000, 112.000000)">
                <g id="path-2-link" fill="#3176E0">
                    <circle id="path-2" cx="4" cy="4" r="4"></circle>
                </g>
                <circle stroke="#3D83E1" cx="4" cy="4" r="3.5"></circle>
            </g>
            <g id="Oval" transform="translate(186.000000, 126.000000) scale(-1, 1) translate(-186.000000, -126.000000) translate(182.000000, 122.000000)">
                <g id="path-3-link" fill="#3176E0">
                    <circle id="path-3" cx="4" cy="4" r="4"></circle>
                </g>
                <circle stroke="#3D83E1" cx="4" cy="4" r="3.5"></circle>
            </g>
            <g id="Oval" transform="translate(160.000000, 155.000000) scale(-1, 1) translate(-160.000000, -155.000000) translate(156.000000, 151.000000)">
                <g id="path-4-link" fill="#3176E0">
                    <circle id="path-4" cx="4" cy="4" r="4"></circle>
                </g>
                <circle stroke="#3D83E1" cx="4" cy="4" r="3.5"></circle>
            </g>
            <g id="Oval" transform="translate(134.000000, 126.000000) scale(-1, 1) translate(-134.000000, -126.000000) translate(130.000000, 122.000000)">
                <g id="path-5-link" fill="#3176E0">
                    <circle id="path-5" cx="4" cy="4" r="4"></circle>
                </g>
                <circle stroke="#3D83E1" cx="4" cy="4" r="3.5"></circle>
            </g>
            <g id="Oval" transform="translate(108.000000, 116.000000) scale(-1, 1) translate(-108.000000, -116.000000) translate(104.000000, 112.000000)">
                <g id="path-6-link" fill="#3176E0">
                    <circle id="path-6" cx="4" cy="4" r="4"></circle>
                </g>
                <circle stroke="#3D83E1" cx="4" cy="4" r="3.5"></circle>
            </g>
            <g id="Oval" transform="translate(82.000000, 156.000000) scale(-1, 1) translate(-82.000000, -156.000000) translate(78.000000, 152.000000)">
                <g id="path-7-link" fill="#3176E0">
                    <circle id="path-7" cx="4" cy="4" r="4"></circle>
                </g>
                <circle stroke="#3D83E1" cx="4" cy="4" r="3.5"></circle>
            </g>
            <g id="Oval" transform="translate(56.000000, 176.000000) scale(-1, 1) translate(-56.000000, -176.000000) translate(52.000000, 172.000000)">
                <g id="path-8-link" fill="#3176E0">
                    <circle id="path-8" cx="4" cy="4" r="4"></circle>
                </g>
                <circle stroke="#3D83E1" cx="4" cy="4" r="3.5"></circle>
            </g>
            <g id="Oval" transform="translate(30.000000, 176.000000) scale(-1, 1) translate(-30.000000, -176.000000) translate(26.000000, 172.000000)">
                <g id="path-9-link" fill="#3176E0">
                    <circle id="path-9" cx="4" cy="4" r="4"></circle>
                </g>
                <circle stroke="#3D83E1" cx="4" cy="4" r="3.5"></circle>
            </g>
            <g id="Oval" transform="translate(4.000000, 156.000000) scale(-1, 1) translate(-4.000000, -156.000000) translate(0.000000, 152.000000)">
                <g id="path-10-link" fill="#3176E0">
                    <circle id="path-10" cx="4" cy="4" r="4"></circle>
                </g>
                <circle stroke="#3D83E1" cx="4" cy="4" r="3.5"></circle>
            </g>
        </g>
        <text id="Mean" font-family="Lato-Bold, Lato" font-size="9" font-weight="bold" letter-spacing="0.0634432967" fill="#000000" fill-opacity="0.6">
            <tspan x="47.4656134" y="210">Mean</tspan>
        </text>
    </g>
</svg>