<?xml version="1.0" encoding="UTF-8"?>
<svg width="469px" height="405px" viewBox="0 0 469 405" version="1.1" xmlns="http://www.w3.org/2000/svg" xmlns:xlink="http://www.w3.org/1999/xlink">
    <title>10-x Across</title>
    <g id="10-x-Across" stroke="none" stroke-width="1" fill="none" fill-rule="evenodd">
        <g id="1-3s-copy" transform="translate(39.000000, 48.000000)">
            <rect id="Rectangle-7" fill="#E6E4E2" fill-rule="nonzero" opacity="0.300000012" x="26.168896" y="43" width="273.658537" height="42.2918697"></rect>
            <rect id="Rectangle-7" fill="#FFFFFF" fill-rule="nonzero" opacity="0.5" x="26.168896" y="85.292683" width="273.658537" height="84.5853659"></rect>
            <rect id="Rectangle-7" fill="#E6E4E2" fill-rule="nonzero" x="26.168896" y="0.7073171" width="273.658537" height="42.2918697"></rect>
            <rect id="Rectangle-7" fill="#E6E4E2" fill-rule="nonzero" opacity="0.300000012" x="26.168896" y="169.878049" width="273.658537" height="42.2918697"></rect>
            <rect id="Rectangle-7" fill="#E6E4E2" fill-rule="nonzero" x="26.168896" y="212.170732" width="273.658537" height="42.2918697"></rect>
            <line x1="26.168896" y1="127.212154" x2="299.827433" y2="127.212154" id="Line-Copy-7" stroke="#979797" stroke-linecap="square"></line>
            <path d="M2.72800573,3.4847073 L2.72800573,5.4062073 L4.55950573,5.4062073 L4.55950573,6.0137073 L2.72800573,6.0137073 L2.72800573,7.9487073 L2.07100573,7.9487073 L2.07100573,6.0137073 L0.248505732,6.0137073 L0.248505732,5.4062073 L2.07100573,5.4062073 L2.07100573,3.4847073 L2.72800573,3.4847073 Z M7.80850573,2.2112073 C8.0815071,2.2112073 8.33350458,2.2502069 8.56450573,2.3282073 C8.79550689,2.4062077 8.9942549,2.5172066 9.16075573,2.6612073 C9.32725656,2.805208 9.45700527,2.9792063 9.55000573,3.1832073 C9.6430062,3.3872083 9.68950573,3.6137061 9.68950573,3.8627073 C9.68950573,4.0667083 9.66325599,4.2489565 9.61075573,4.4094573 C9.55825547,4.5699581 9.48325622,4.7109567 9.38575573,4.8324573 C9.28825524,4.9539579 9.17050642,5.0567069 9.03250573,5.1407073 C8.89450504,5.2247077 8.74000659,5.2922071 8.56900573,5.3432073 C8.98900783,5.4542079 9.30475467,5.640206 9.51625573,5.9012073 C9.72775679,6.1622086 9.83350573,6.4892054 9.83350573,6.8822073 C9.83350573,7.1792088 9.77725629,7.4462061 9.66475573,7.6832073 C9.55225517,7.9202085 9.39850671,8.1219565 9.20350573,8.2884573 C9.00850476,8.4549581 8.78125703,8.5824569 8.52175573,8.6709573 C8.26225443,8.7594578 7.98400722,8.8037073 7.68700573,8.8037073 C7.34500402,8.8037073 7.05250695,8.7609577 6.80950573,8.6754573 C6.56650452,8.5899569 6.36100657,8.4722081 6.19300573,8.3222073 C6.02500489,8.1722066 5.88700627,7.9944583 5.77900573,7.7889573 C5.67100519,7.5834563 5.57950611,7.3607085 5.50450573,7.1207073 L5.84650573,6.9767073 C5.90950605,6.9497072 5.97250542,6.9362073 6.03550573,6.9362073 C6.09550603,6.9362073 6.1487555,6.9489572 6.19525573,6.9744573 C6.24175596,6.9999574 6.27700561,7.039707 6.30100573,7.0937073 C6.30700576,7.1057074 6.3130057,7.1184572 6.31900573,7.1319573 C6.32500576,7.1454574 6.3310057,7.1597072 6.33700573,7.1747073 C6.37900594,7.2617078 6.43000543,7.3599568 6.49000573,7.4694573 C6.55000603,7.5789579 6.63100522,7.6817068 6.73300573,7.7777073 C6.83500624,7.8737078 6.96175497,7.954707 7.11325573,8.0207073 C7.26475649,8.0867076 7.45300461,8.1197073 7.67800573,8.1197073 C7.90300686,8.1197073 8.10025488,8.0829577 8.26975573,8.0094573 C8.43925658,7.9359569 8.58025517,7.8407079 8.69275573,7.7237073 C8.80525629,7.6067067 8.89000545,7.476208 8.94700573,7.3322073 C9.00400602,7.1882066 9.03250573,7.045708 9.03250573,6.9047073 C9.03250573,6.7307064 9.00925596,6.571708 8.96275573,6.4277073 C8.9162555,6.2837066 8.83225634,6.1592078 8.71075573,6.0542073 C8.58925512,5.9492068 8.4212568,5.8667076 8.20675573,5.8067073 C7.99225466,5.746707 7.71700741,5.7167073 7.38100573,5.7167073 L7.38100573,5.1362073 C7.6540071,5.1332073 7.88725476,5.1032076 8.08075573,5.0462073 C8.2742567,4.989207 8.43250512,4.9112078 8.55550573,4.8122073 C8.67850635,4.7132068 8.76775545,4.594708 8.82325573,4.4567073 C8.87875601,4.3187066 8.90650573,4.1657082 8.90650573,3.9977073 C8.90650573,3.8117064 8.87725602,3.649708 8.81875573,3.5117073 C8.76025544,3.3737066 8.68000624,3.2597078 8.57800573,3.1697073 C8.47600522,3.0797069 8.35525643,3.0122075 8.21575573,2.9672073 C8.07625503,2.9222071 7.92550654,2.8997073 7.76350573,2.8997073 C7.60150492,2.8997073 7.45150642,2.9237071 7.31350573,2.9717073 C7.17550504,3.0197076 7.05325626,3.0864569 6.94675573,3.1719573 C6.8402552,3.2574577 6.75100609,3.3594567 6.67900573,3.4779573 C6.60700537,3.5964579 6.55300591,3.7247066 6.51700573,3.8627073 C6.49300561,3.9497078 6.45700597,4.0127071 6.40900573,4.0517073 C6.36100549,4.0907075 6.29950611,4.1102073 6.22450573,4.1102073 C6.20950566,4.1102073 6.19375581,4.1094573 6.17725573,4.1079573 C6.16075565,4.1064573 6.14200584,4.1042073 6.12100573,4.1012073 L5.70250573,4.0292073 C5.74450594,3.7352058 5.82550513,3.4749584 5.94550573,3.2484573 C6.06550633,3.0219562 6.21775481,2.8322081 6.40225573,2.6792073 C6.58675665,2.5262066 6.79825454,2.4099577 7.03675573,2.3304573 C7.27525692,2.2509569 7.53250435,2.2112073 7.80850573,2.2112073 Z M13.5055057,4.9247073 C13.4695056,4.9907076 13.4140061,5.0237073 13.3390057,5.0237073 C13.2940055,5.0237073 13.243006,5.0072075 13.1860057,4.9742073 C13.1290054,4.9412072 13.0592561,4.9044575 12.9767557,4.8639573 C12.8942553,4.8234571 12.7960063,4.7859575 12.6820057,4.7514573 C12.5680052,4.7169571 12.4330065,4.6997073 12.2770057,4.6997073 C12.1420051,4.6997073 12.0205063,4.7169571 11.9125057,4.7514573 C11.8045052,4.7859575 11.7122561,4.833207 11.6357557,4.8932073 C11.5592553,4.9532076 11.5007559,5.0229569 11.4602557,5.1024573 C11.4197555,5.1819577 11.3995057,5.2682069 11.3995057,5.3612073 C11.3995057,5.4782079 11.4332554,5.5757069 11.5007557,5.6537073 C11.5682561,5.7317077 11.6575052,5.799207 11.7685057,5.8562073 C11.8795063,5.9132076 12.005505,5.9634571 12.1465057,6.0069573 C12.2875064,6.0504575 12.432255,6.0969571 12.5807557,6.1464573 C12.7292565,6.1959576 12.874005,6.250707 13.0150057,6.3107073 C13.1560064,6.3707076 13.2820052,6.4457069 13.3930057,6.5357073 C13.5040063,6.6257078 13.5932554,6.7359567 13.6607557,6.8664573 C13.7282561,6.996958 13.7620057,7.1537064 13.7620057,7.3367073 C13.7620057,7.5467084 13.7245061,7.7409564 13.6495057,7.9194573 C13.5745054,8.0979582 13.4635065,8.2524567 13.3165057,8.3829573 C13.169505,8.513458 12.9895068,8.6162069 12.7765057,8.6912073 C12.5635047,8.7662077 12.3175071,8.8037073 12.0385057,8.8037073 C11.7205041,8.8037073 11.432507,8.7519578 11.1745057,8.6484573 C10.9165044,8.5449568 10.6975066,8.4122081 10.5175057,8.2502073 L10.7065057,7.9442073 C10.7305059,7.9052071 10.7590056,7.8752074 10.7920057,7.8542073 C10.8250059,7.8332072 10.8685055,7.8227073 10.9225057,7.8227073 C10.976506,7.8227073 11.0335054,7.8437071 11.0935057,7.8857073 C11.153506,7.9277075 11.2262553,7.9742071 11.3117557,8.0252073 C11.3972562,8.0762076 11.5007551,8.1227071 11.6222557,8.1647073 C11.7437563,8.2067075 11.8960048,8.2277073 12.0790057,8.2277073 C12.2350065,8.2277073 12.3715051,8.2074575 12.4885057,8.1669573 C12.6055063,8.1264571 12.7030053,8.0717077 12.7810057,8.0027073 C12.8590061,7.933707 12.9167555,7.8542078 12.9542557,7.7642073 C12.9917559,7.6742069 13.0105057,7.5782078 13.0105057,7.4762073 C13.0105057,7.3502067 12.9767561,7.2459577 12.9092557,7.1634573 C12.8417554,7.0809569 12.7525063,7.0104576 12.6415057,6.9519573 C12.5305052,6.893457 12.4037564,6.8424575 12.2612557,6.7989573 C12.118755,6.7554571 11.9732565,6.7097076 11.8247557,6.6617073 C11.676255,6.6137071 11.5307564,6.5589576 11.3882557,6.4974573 C11.245755,6.435957 11.1190063,6.3587078 11.0080057,6.2657073 C10.8970052,6.1727069 10.8077561,6.057958 10.7402557,5.9214573 C10.6727554,5.7849566 10.6390057,5.6192083 10.6390057,5.4242073 C10.6390057,5.2502064 10.6750054,5.0829581 10.7470057,4.9224573 C10.8190061,4.7619565 10.924005,4.6209579 11.0620057,4.4994573 C11.2000064,4.3779567 11.3695047,4.2812077 11.5705057,4.2092073 C11.7715067,4.137207 12.0010044,4.1012073 12.2590057,4.1012073 C12.5590072,4.1012073 12.8282545,4.1484568 13.0667557,4.2429573 C13.3052569,4.3374578 13.5115049,4.4672065 13.6855057,4.6322073 L13.5055057,4.9247073 Z M2.72800573,44.4847073 L2.72800573,46.4062073 L4.55950573,46.4062073 L4.55950573,47.0137073 L2.72800573,47.0137073 L2.72800573,48.9487073 L2.07100573,48.9487073 L2.07100573,47.0137073 L0.248505732,47.0137073 L0.248505732,46.4062073 L2.07100573,46.4062073 L2.07100573,44.4847073 L2.72800573,44.4847073 Z M7.72300573,43.2112073 C7.9960071,43.2112073 8.25100455,43.2517069 8.48800573,43.3327073 C8.72500692,43.4137077 8.92975487,43.5314565 9.10225573,43.6859573 C9.27475659,43.8404581 9.41050524,44.0287062 9.50950573,44.2507073 C9.60850623,44.4727084 9.65800573,44.7247059 9.65800573,45.0067073 C9.65800573,45.2467085 9.62200609,45.4687063 9.55000573,45.6727073 C9.47800537,45.8767083 9.38050635,46.0724564 9.25750573,46.2599573 C9.13450512,46.4474583 8.99275653,46.6289564 8.83225573,46.8044573 C8.67175493,46.9799582 8.50150663,47.1592064 8.32150573,47.3422073 L6.62500573,49.0792073 C6.74500633,49.0462072 6.86650512,49.0199574 6.98950573,49.0004573 C7.11250635,48.9809572 7.23100516,48.9712073 7.34500573,48.9712073 L9.50500573,48.9712073 C9.59200617,48.9712073 9.66100548,48.9967071 9.71200573,49.0477073 C9.76300599,49.0987076 9.78850573,49.1647069 9.78850573,49.2457073 L9.78850573,49.7317073 L5.48650573,49.7317073 L5.48650573,49.4572073 C5.48650573,49.400207 5.49775562,49.3417076 5.52025573,49.2817073 C5.54275584,49.221707 5.57950548,49.1662076 5.63050573,49.1152073 L7.69600573,47.0407073 C7.86700659,46.8667064 8.02300503,46.6994581 8.16400573,46.5389573 C8.30500644,46.3784565 8.42575523,46.2172081 8.52625573,46.0552073 C8.62675623,45.8932065 8.70400546,45.7289581 8.75800573,45.5624573 C8.812006,45.3959565 8.83900573,45.2182083 8.83900573,45.0292073 C8.83900573,44.8402064 8.80900603,44.674458 8.74900573,44.5319573 C8.68900543,44.3894566 8.60650626,44.2717078 8.50150573,44.1787073 C8.39650521,44.0857069 8.27350644,44.0159575 8.13250573,43.9694573 C7.99150503,43.9229571 7.84000654,43.8997073 7.67800573,43.8997073 C7.51600492,43.8997073 7.36600642,43.9237071 7.22800573,43.9717073 C7.09000504,44.0197076 6.96775626,44.0864569 6.86125573,44.1719573 C6.7547552,44.2574577 6.6647561,44.3587067 6.59125573,44.4757073 C6.51775536,44.5927079 6.46600588,44.7217066 6.43600573,44.8627073 C6.41200561,44.9497078 6.37600597,45.0127071 6.32800573,45.0517073 C6.28000549,45.0907075 6.21700612,45.1102073 6.13900573,45.1102073 C6.12400566,45.1102073 6.10825581,45.1094573 6.09175573,45.1079573 C6.07525565,45.1064573 6.05650584,45.1042073 6.03550573,45.1012073 L5.61700573,45.0292073 C5.65900594,44.7352058 5.74000513,44.4749584 5.86000573,44.2484573 C5.98000633,44.0219562 6.13225481,43.8322081 6.31675573,43.6792073 C6.50125665,43.5262066 6.71275454,43.4099577 6.95125573,43.3304573 C7.18975692,43.2509569 7.44700435,43.2112073 7.72300573,43.2112073 Z M13.5055057,45.9247073 C13.4695056,45.9907076 13.4140061,46.0237073 13.3390057,46.0237073 C13.2940055,46.0237073 13.243006,46.0072075 13.1860057,45.9742073 C13.1290054,45.9412072 13.0592561,45.9044575 12.9767557,45.8639573 C12.8942553,45.8234571 12.7960063,45.7859575 12.6820057,45.7514573 C12.5680052,45.7169571 12.4330065,45.6997073 12.2770057,45.6997073 C12.1420051,45.6997073 12.0205063,45.7169571 11.9125057,45.7514573 C11.8045052,45.7859575 11.7122561,45.833207 11.6357557,45.8932073 C11.5592553,45.9532076 11.5007559,46.0229569 11.4602557,46.1024573 C11.4197555,46.1819577 11.3995057,46.2682069 11.3995057,46.3612073 C11.3995057,46.4782079 11.4332554,46.5757069 11.5007557,46.6537073 C11.5682561,46.7317077 11.6575052,46.799207 11.7685057,46.8562073 C11.8795063,46.9132076 12.005505,46.9634571 12.1465057,47.0069573 C12.2875064,47.0504575 12.432255,47.0969571 12.5807557,47.1464573 C12.7292565,47.1959576 12.874005,47.250707 13.0150057,47.3107073 C13.1560064,47.3707076 13.2820052,47.4457069 13.3930057,47.5357073 C13.5040063,47.6257078 13.5932554,47.7359567 13.6607557,47.8664573 C13.7282561,47.996958 13.7620057,48.1537064 13.7620057,48.3367073 C13.7620057,48.5467084 13.7245061,48.7409564 13.6495057,48.9194573 C13.5745054,49.0979582 13.4635065,49.2524567 13.3165057,49.3829573 C13.169505,49.513458 12.9895068,49.6162069 12.7765057,49.6912073 C12.5635047,49.7662077 12.3175071,49.8037073 12.0385057,49.8037073 C11.7205041,49.8037073 11.432507,49.7519578 11.1745057,49.6484573 C10.9165044,49.5449568 10.6975066,49.4122081 10.5175057,49.2502073 L10.7065057,48.9442073 C10.7305059,48.9052071 10.7590056,48.8752074 10.7920057,48.8542073 C10.8250059,48.8332072 10.8685055,48.8227073 10.9225057,48.8227073 C10.976506,48.8227073 11.0335054,48.8437071 11.0935057,48.8857073 C11.153506,48.9277075 11.2262553,48.9742071 11.3117557,49.0252073 C11.3972562,49.0762076 11.5007551,49.1227071 11.6222557,49.1647073 C11.7437563,49.2067075 11.8960048,49.2277073 12.0790057,49.2277073 C12.2350065,49.2277073 12.3715051,49.2074575 12.4885057,49.1669573 C12.6055063,49.1264571 12.7030053,49.0717077 12.7810057,49.0027073 C12.8590061,48.933707 12.9167555,48.8542078 12.9542557,48.7642073 C12.9917559,48.6742069 13.0105057,48.5782078 13.0105057,48.4762073 C13.0105057,48.3502067 12.9767561,48.2459577 12.9092557,48.1634573 C12.8417554,48.0809569 12.7525063,48.0104576 12.6415057,47.9519573 C12.5305052,47.893457 12.4037564,47.8424575 12.2612557,47.7989573 C12.118755,47.7554571 11.9732565,47.7097076 11.8247557,47.6617073 C11.676255,47.6137071 11.5307564,47.5589576 11.3882557,47.4974573 C11.245755,47.435957 11.1190063,47.3587078 11.0080057,47.2657073 C10.8970052,47.1727069 10.8077561,47.057958 10.7402557,46.9214573 C10.6727554,46.7849566 10.6390057,46.6192083 10.6390057,46.4242073 C10.6390057,46.2502064 10.6750054,46.0829581 10.7470057,45.9224573 C10.8190061,45.7619565 10.924005,45.6209579 11.0620057,45.4994573 C11.2000064,45.3779567 11.3695047,45.2812077 11.5705057,45.2092073 C11.7715067,45.137207 12.0010044,45.1012073 12.2590057,45.1012073 C12.5590072,45.1012073 12.8282545,45.1484568 13.0667557,45.2429573 C13.3052569,45.3374578 13.5115049,45.4672065 13.6855057,45.6322073 L13.5055057,45.9247073 Z M2.72800573,85.484707 L2.72800573,87.406207 L4.55950573,87.406207 L4.55950573,88.013707 L2.72800573,88.013707 L2.72800573,89.948707 L2.07100573,89.948707 L2.07100573,88.013707 L0.248505732,88.013707 L0.248505732,87.406207 L2.07100573,87.406207 L2.07100573,85.484707 L2.72800573,85.484707 Z M6.31000573,90.119707 L7.69600573,90.119707 L7.69600573,85.723207 C7.69600573,85.591207 7.70050569,85.457708 7.70950573,85.322707 L6.55750573,86.308207 C6.52750558,86.332207 6.49750588,86.349457 6.46750573,86.359957 C6.43750558,86.370457 6.40900587,86.375707 6.38200573,86.375707 C6.33700551,86.375707 6.29650591,86.365957 6.26050573,86.346457 C6.22450555,86.326957 6.19750582,86.303707 6.17950573,86.276707 L5.92750573,85.930207 L7.84450573,84.269707 L8.49700573,84.269707 L8.49700573,90.119707 L9.76600573,90.119707 L9.76600573,90.731707 L6.31000573,90.731707 L6.31000573,90.119707 Z M13.5055057,86.924707 C13.4695056,86.990708 13.4140061,87.023707 13.3390057,87.023707 C13.2940055,87.023707 13.243006,87.007207 13.1860057,86.974207 C13.1290054,86.941207 13.0592561,86.904458 12.9767557,86.863957 C12.8942553,86.823457 12.7960063,86.785957 12.6820057,86.751457 C12.5680052,86.716957 12.4330065,86.699707 12.2770057,86.699707 C12.1420051,86.699707 12.0205063,86.716957 11.9125057,86.751457 C11.8045052,86.785957 11.7122561,86.833207 11.6357557,86.893207 C11.5592553,86.953208 11.5007559,87.022957 11.4602557,87.102457 C11.4197555,87.181958 11.3995057,87.268207 11.3995057,87.361207 C11.3995057,87.478208 11.4332554,87.575707 11.5007557,87.653707 C11.5682561,87.731708 11.6575052,87.799207 11.7685057,87.856207 C11.8795063,87.913208 12.005505,87.963457 12.1465057,88.006957 C12.2875064,88.050458 12.432255,88.096957 12.5807557,88.146457 C12.7292565,88.195958 12.874005,88.250707 13.0150057,88.310707 C13.1560064,88.370708 13.2820052,88.445707 13.3930057,88.535707 C13.5040063,88.625708 13.5932554,88.735957 13.6607557,88.866457 C13.7282561,88.996958 13.7620057,89.153706 13.7620057,89.336707 C13.7620057,89.546708 13.7245061,89.740956 13.6495057,89.919457 C13.5745054,90.097958 13.4635065,90.252457 13.3165057,90.382957 C13.169505,90.513458 12.9895068,90.616207 12.7765057,90.691207 C12.5635047,90.766208 12.3175071,90.803707 12.0385057,90.803707 C11.7205041,90.803707 11.432507,90.751958 11.1745057,90.648457 C10.9165044,90.544957 10.6975066,90.412208 10.5175057,90.250207 L10.7065057,89.944207 C10.7305059,89.905207 10.7590056,89.875207 10.7920057,89.854207 C10.8250059,89.833207 10.8685055,89.822707 10.9225057,89.822707 C10.976506,89.822707 11.0335054,89.843707 11.0935057,89.885707 C11.153506,89.927708 11.2262553,89.974207 11.3117557,90.025207 C11.3972562,90.076208 11.5007551,90.122707 11.6222557,90.164707 C11.7437563,90.206708 11.8960048,90.227707 12.0790057,90.227707 C12.2350065,90.227707 12.3715051,90.207458 12.4885057,90.166957 C12.6055063,90.126457 12.7030053,90.071708 12.7810057,90.002707 C12.8590061,89.933707 12.9167555,89.854208 12.9542557,89.764207 C12.9917559,89.674207 13.0105057,89.578208 13.0105057,89.476207 C13.0105057,89.350207 12.9767561,89.245958 12.9092557,89.163457 C12.8417554,89.080957 12.7525063,89.010458 12.6415057,88.951957 C12.5305052,88.893457 12.4037564,88.842458 12.2612557,88.798957 C12.118755,88.755457 11.9732565,88.709708 11.8247557,88.661707 C11.676255,88.613707 11.5307564,88.558958 11.3882557,88.497457 C11.245755,88.435957 11.1190063,88.358708 11.0080057,88.265707 C10.8970052,88.172707 10.8077561,88.057958 10.7402557,87.921457 C10.6727554,87.784957 10.6390057,87.619208 10.6390057,87.424207 C10.6390057,87.250206 10.6750054,87.082958 10.7470057,86.922457 C10.8190061,86.761957 10.924005,86.620958 11.0620057,86.499457 C11.2000064,86.377957 11.3695047,86.281208 11.5705057,86.209207 C11.7715067,86.137207 12.0010044,86.101207 12.2590057,86.101207 C12.5590072,86.101207 12.8282545,86.148457 13.0667557,86.242957 C13.3052569,86.337458 13.5115049,86.467206 13.6855057,86.632207 L13.5055057,86.924707 Z M2.34550573,169.694207 L4.56850573,169.694207 L4.56850573,170.373707 L2.34550573,170.373707 L2.34550573,169.694207 Z M6.31000573,172.119707 L7.69600573,172.119707 L7.69600573,167.723207 C7.69600573,167.591207 7.70050569,167.457708 7.70950573,167.322707 L6.55750573,168.308207 C6.52750558,168.332207 6.49750588,168.349457 6.46750573,168.359957 C6.43750558,168.370457 6.40900587,168.375707 6.38200573,168.375707 C6.33700551,168.375707 6.29650591,168.365957 6.26050573,168.346457 C6.22450555,168.326957 6.19750582,168.303707 6.17950573,168.276707 L5.92750573,167.930207 L7.84450573,166.269707 L8.49700573,166.269707 L8.49700573,172.119707 L9.76600573,172.119707 L9.76600573,172.731707 L6.31000573,172.731707 L6.31000573,172.119707 Z M13.5055057,168.924707 C13.4695056,168.990708 13.4140061,169.023707 13.3390057,169.023707 C13.2940055,169.023707 13.243006,169.007207 13.1860057,168.974207 C13.1290054,168.941207 13.0592561,168.904458 12.9767557,168.863957 C12.8942553,168.823457 12.7960063,168.785957 12.6820057,168.751457 C12.5680052,168.716957 12.4330065,168.699707 12.2770057,168.699707 C12.1420051,168.699707 12.0205063,168.716957 11.9125057,168.751457 C11.8045052,168.785957 11.7122561,168.833207 11.6357557,168.893207 C11.5592553,168.953208 11.5007559,169.022957 11.4602557,169.102457 C11.4197555,169.181958 11.3995057,169.268207 11.3995057,169.361207 C11.3995057,169.478208 11.4332554,169.575707 11.5007557,169.653707 C11.5682561,169.731708 11.6575052,169.799207 11.7685057,169.856207 C11.8795063,169.913208 12.005505,169.963457 12.1465057,170.006957 C12.2875064,170.050458 12.432255,170.096957 12.5807557,170.146457 C12.7292565,170.195958 12.874005,170.250707 13.0150057,170.310707 C13.1560064,170.370708 13.2820052,170.445707 13.3930057,170.535707 C13.5040063,170.625708 13.5932554,170.735957 13.6607557,170.866457 C13.7282561,170.996958 13.7620057,171.153706 13.7620057,171.336707 C13.7620057,171.546708 13.7245061,171.740956 13.6495057,171.919457 C13.5745054,172.097958 13.4635065,172.252457 13.3165057,172.382957 C13.169505,172.513458 12.9895068,172.616207 12.7765057,172.691207 C12.5635047,172.766208 12.3175071,172.803707 12.0385057,172.803707 C11.7205041,172.803707 11.432507,172.751958 11.1745057,172.648457 C10.9165044,172.544957 10.6975066,172.412208 10.5175057,172.250207 L10.7065057,171.944207 C10.7305059,171.905207 10.7590056,171.875207 10.7920057,171.854207 C10.8250059,171.833207 10.8685055,171.822707 10.9225057,171.822707 C10.976506,171.822707 11.0335054,171.843707 11.0935057,171.885707 C11.153506,171.927708 11.2262553,171.974207 11.3117557,172.025207 C11.3972562,172.076208 11.5007551,172.122707 11.6222557,172.164707 C11.7437563,172.206708 11.8960048,172.227707 12.0790057,172.227707 C12.2350065,172.227707 12.3715051,172.207458 12.4885057,172.166957 C12.6055063,172.126457 12.7030053,172.071708 12.7810057,172.002707 C12.8590061,171.933707 12.9167555,171.854208 12.9542557,171.764207 C12.9917559,171.674207 13.0105057,171.578208 13.0105057,171.476207 C13.0105057,171.350207 12.9767561,171.245958 12.9092557,171.163457 C12.8417554,171.080957 12.7525063,171.010458 12.6415057,170.951957 C12.5305052,170.893457 12.4037564,170.842458 12.2612557,170.798957 C12.118755,170.755457 11.9732565,170.709708 11.8247557,170.661707 C11.676255,170.613707 11.5307564,170.558958 11.3882557,170.497457 C11.245755,170.435957 11.1190063,170.358708 11.0080057,170.265707 C10.8970052,170.172707 10.8077561,170.057958 10.7402557,169.921457 C10.6727554,169.784957 10.6390057,169.619208 10.6390057,169.424207 C10.6390057,169.250206 10.6750054,169.082958 10.7470057,168.922457 C10.8190061,168.761957 10.924005,168.620958 11.0620057,168.499457 C11.2000064,168.377957 11.3695047,168.281208 11.5705057,168.209207 C11.7715067,168.137207 12.0010044,168.101207 12.2590057,168.101207 C12.5590072,168.101207 12.8282545,168.148457 13.0667557,168.242957 C13.3052569,168.337458 13.5115049,168.467206 13.6855057,168.632207 L13.5055057,168.924707 Z M2.34550573,210.694207 L4.56850573,210.694207 L4.56850573,211.373707 L2.34550573,211.373707 L2.34550573,210.694207 Z M7.72300573,207.211207 C7.9960071,207.211207 8.25100455,207.251707 8.48800573,207.332707 C8.72500692,207.413708 8.92975487,207.531457 9.10225573,207.685957 C9.27475659,207.840458 9.41050524,208.028706 9.50950573,208.250707 C9.60850623,208.472708 9.65800573,208.724706 9.65800573,209.006707 C9.65800573,209.246709 9.62200609,209.468706 9.55000573,209.672707 C9.47800537,209.876708 9.38050635,210.072456 9.25750573,210.259957 C9.13450512,210.447458 8.99275653,210.628956 8.83225573,210.804457 C8.67175493,210.979958 8.50150663,211.159206 8.32150573,211.342207 L6.62500573,213.079207 C6.74500633,213.046207 6.86650512,213.019957 6.98950573,213.000457 C7.11250635,212.980957 7.23100516,212.971207 7.34500573,212.971207 L9.50500573,212.971207 C9.59200617,212.971207 9.66100548,212.996707 9.71200573,213.047707 C9.76300599,213.098708 9.78850573,213.164707 9.78850573,213.245707 L9.78850573,213.731707 L5.48650573,213.731707 L5.48650573,213.457207 C5.48650573,213.400207 5.49775562,213.341708 5.52025573,213.281707 C5.54275584,213.221707 5.57950548,213.166208 5.63050573,213.115207 L7.69600573,211.040707 C7.86700659,210.866706 8.02300503,210.699458 8.16400573,210.538957 C8.30500644,210.378457 8.42575523,210.217208 8.52625573,210.055207 C8.62675623,209.893207 8.70400546,209.728958 8.75800573,209.562457 C8.812006,209.395956 8.83900573,209.218208 8.83900573,209.029207 C8.83900573,208.840206 8.80900603,208.674458 8.74900573,208.531957 C8.68900543,208.389457 8.60650626,208.271708 8.50150573,208.178707 C8.39650521,208.085707 8.27350644,208.015958 8.13250573,207.969457 C7.99150503,207.922957 7.84000654,207.899707 7.67800573,207.899707 C7.51600492,207.899707 7.36600642,207.923707 7.22800573,207.971707 C7.09000504,208.019708 6.96775626,208.086457 6.86125573,208.171957 C6.7547552,208.257458 6.6647561,208.358707 6.59125573,208.475707 C6.51775536,208.592708 6.46600588,208.721707 6.43600573,208.862707 C6.41200561,208.949708 6.37600597,209.012707 6.32800573,209.051707 C6.28000549,209.090708 6.21700612,209.110207 6.13900573,209.110207 C6.12400566,209.110207 6.10825581,209.109457 6.09175573,209.107957 C6.07525565,209.106457 6.05650584,209.104207 6.03550573,209.101207 L5.61700573,209.029207 C5.65900594,208.735206 5.74000513,208.474958 5.86000573,208.248457 C5.98000633,208.021956 6.13225481,207.832208 6.31675573,207.679207 C6.50125665,207.526207 6.71275454,207.409958 6.95125573,207.330457 C7.18975692,207.250957 7.44700435,207.211207 7.72300573,207.211207 Z M13.5055057,209.924707 C13.4695056,209.990708 13.4140061,210.023707 13.3390057,210.023707 C13.2940055,210.023707 13.243006,210.007207 13.1860057,209.974207 C13.1290054,209.941207 13.0592561,209.904458 12.9767557,209.863957 C12.8942553,209.823457 12.7960063,209.785957 12.6820057,209.751457 C12.5680052,209.716957 12.4330065,209.699707 12.2770057,209.699707 C12.1420051,209.699707 12.0205063,209.716957 11.9125057,209.751457 C11.8045052,209.785957 11.7122561,209.833207 11.6357557,209.893207 C11.5592553,209.953208 11.5007559,210.022957 11.4602557,210.102457 C11.4197555,210.181958 11.3995057,210.268207 11.3995057,210.361207 C11.3995057,210.478208 11.4332554,210.575707 11.5007557,210.653707 C11.5682561,210.731708 11.6575052,210.799207 11.7685057,210.856207 C11.8795063,210.913208 12.005505,210.963457 12.1465057,211.006957 C12.2875064,211.050458 12.432255,211.096957 12.5807557,211.146457 C12.7292565,211.195958 12.874005,211.250707 13.0150057,211.310707 C13.1560064,211.370708 13.2820052,211.445707 13.3930057,211.535707 C13.5040063,211.625708 13.5932554,211.735957 13.6607557,211.866457 C13.7282561,211.996958 13.7620057,212.153706 13.7620057,212.336707 C13.7620057,212.546708 13.7245061,212.740956 13.6495057,212.919457 C13.5745054,213.097958 13.4635065,213.252457 13.3165057,213.382957 C13.169505,213.513458 12.9895068,213.616207 12.7765057,213.691207 C12.5635047,213.766208 12.3175071,213.803707 12.0385057,213.803707 C11.7205041,213.803707 11.432507,213.751958 11.1745057,213.648457 C10.9165044,213.544957 10.6975066,213.412208 10.5175057,213.250207 L10.7065057,212.944207 C10.7305059,212.905207 10.7590056,212.875207 10.7920057,212.854207 C10.8250059,212.833207 10.8685055,212.822707 10.9225057,212.822707 C10.976506,212.822707 11.0335054,212.843707 11.0935057,212.885707 C11.153506,212.927708 11.2262553,212.974207 11.3117557,213.025207 C11.3972562,213.076208 11.5007551,213.122707 11.6222557,213.164707 C11.7437563,213.206708 11.8960048,213.227707 12.0790057,213.227707 C12.2350065,213.227707 12.3715051,213.207458 12.4885057,213.166957 C12.6055063,213.126457 12.7030053,213.071708 12.7810057,213.002707 C12.8590061,212.933707 12.9167555,212.854208 12.9542557,212.764207 C12.9917559,212.674207 13.0105057,212.578208 13.0105057,212.476207 C13.0105057,212.350207 12.9767561,212.245958 12.9092557,212.163457 C12.8417554,212.080957 12.7525063,212.010458 12.6415057,211.951957 C12.5305052,211.893457 12.4037564,211.842458 12.2612557,211.798957 C12.118755,211.755457 11.9732565,211.709708 11.8247557,211.661707 C11.676255,211.613707 11.5307564,211.558958 11.3882557,211.497457 C11.245755,211.435957 11.1190063,211.358708 11.0080057,211.265707 C10.8970052,211.172707 10.8077561,211.057958 10.7402557,210.921457 C10.6727554,210.784957 10.6390057,210.619208 10.6390057,210.424207 C10.6390057,210.250206 10.6750054,210.082958 10.7470057,209.922457 C10.8190061,209.761957 10.924005,209.620958 11.0620057,209.499457 C11.2000064,209.377957 11.3695047,209.281208 11.5705057,209.209207 C11.7715067,209.137207 12.0010044,209.101207 12.2590057,209.101207 C12.5590072,209.101207 12.8282545,209.148457 13.0667557,209.242957 C13.3052569,209.337458 13.5115049,209.467206 13.6855057,209.632207 L13.5055057,209.924707 Z M2.34550573,251.694207 L4.56850573,251.694207 L4.56850573,252.373707 L2.34550573,252.373707 L2.34550573,251.694207 Z M7.80850573,248.211207 C8.0815071,248.211207 8.33350458,248.250207 8.56450573,248.328207 C8.79550689,248.406208 8.9942549,248.517207 9.16075573,248.661207 C9.32725656,248.805208 9.45700527,248.979206 9.55000573,249.183207 C9.6430062,249.387208 9.68950573,249.613706 9.68950573,249.862707 C9.68950573,250.066708 9.66325599,250.248957 9.61075573,250.409457 C9.55825547,250.569958 9.48325622,250.710957 9.38575573,250.832457 C9.28825524,250.953958 9.17050642,251.056707 9.03250573,251.140707 C8.89450504,251.224708 8.74000659,251.292207 8.56900573,251.343207 C8.98900783,251.454208 9.30475467,251.640206 9.51625573,251.901207 C9.72775679,252.162209 9.83350573,252.489205 9.83350573,252.882207 C9.83350573,253.179209 9.77725629,253.446206 9.66475573,253.683207 C9.55225517,253.920209 9.39850671,254.121956 9.20350573,254.288457 C9.00850476,254.454958 8.78125703,254.582457 8.52175573,254.670957 C8.26225443,254.759458 7.98400722,254.803707 7.68700573,254.803707 C7.34500402,254.803707 7.05250695,254.760958 6.80950573,254.675457 C6.56650452,254.589957 6.36100657,254.472208 6.19300573,254.322207 C6.02500489,254.172207 5.88700627,253.994458 5.77900573,253.788957 C5.67100519,253.583456 5.57950611,253.360709 5.50450573,253.120707 L5.84650573,252.976707 C5.90950605,252.949707 5.97250542,252.936207 6.03550573,252.936207 C6.09550603,252.936207 6.1487555,252.948957 6.19525573,252.974457 C6.24175596,252.999957 6.27700561,253.039707 6.30100573,253.093707 C6.30700576,253.105707 6.3130057,253.118457 6.31900573,253.131957 C6.32500576,253.145457 6.3310057,253.159707 6.33700573,253.174707 C6.37900594,253.261708 6.43000543,253.359957 6.49000573,253.469457 C6.55000603,253.578958 6.63100522,253.681707 6.73300573,253.777707 C6.83500624,253.873708 6.96175497,253.954707 7.11325573,254.020707 C7.26475649,254.086708 7.45300461,254.119707 7.67800573,254.119707 C7.90300686,254.119707 8.10025488,254.082958 8.26975573,254.009457 C8.43925658,253.935957 8.58025517,253.840708 8.69275573,253.723707 C8.80525629,253.606707 8.89000545,253.476208 8.94700573,253.332207 C9.00400602,253.188207 9.03250573,253.045708 9.03250573,252.904707 C9.03250573,252.730706 9.00925596,252.571708 8.96275573,252.427707 C8.9162555,252.283707 8.83225634,252.159208 8.71075573,252.054207 C8.58925512,251.949207 8.4212568,251.866708 8.20675573,251.806707 C7.99225466,251.746707 7.71700741,251.716707 7.38100573,251.716707 L7.38100573,251.136207 C7.6540071,251.133207 7.88725476,251.103208 8.08075573,251.046207 C8.2742567,250.989207 8.43250512,250.911208 8.55550573,250.812207 C8.67850635,250.713207 8.76775545,250.594708 8.82325573,250.456707 C8.87875601,250.318707 8.90650573,250.165708 8.90650573,249.997707 C8.90650573,249.811706 8.87725602,249.649708 8.81875573,249.511707 C8.76025544,249.373707 8.68000624,249.259708 8.57800573,249.169707 C8.47600522,249.079707 8.35525643,249.012208 8.21575573,248.967207 C8.07625503,248.922207 7.92550654,248.899707 7.76350573,248.899707 C7.60150492,248.899707 7.45150642,248.923707 7.31350573,248.971707 C7.17550504,249.019708 7.05325626,249.086457 6.94675573,249.171957 C6.8402552,249.257458 6.75100609,249.359457 6.67900573,249.477957 C6.60700537,249.596458 6.55300591,249.724707 6.51700573,249.862707 C6.49300561,249.949708 6.45700597,250.012707 6.40900573,250.051707 C6.36100549,250.090708 6.29950611,250.110207 6.22450573,250.110207 C6.20950566,250.110207 6.19375581,250.109457 6.17725573,250.107957 C6.16075565,250.106457 6.14200584,250.104207 6.12100573,250.101207 L5.70250573,250.029207 C5.74450594,249.735206 5.82550513,249.474958 5.94550573,249.248457 C6.06550633,249.021956 6.21775481,248.832208 6.40225573,248.679207 C6.58675665,248.526207 6.79825454,248.409958 7.03675573,248.330457 C7.27525692,248.250957 7.53250435,248.211207 7.80850573,248.211207 Z M13.5055057,250.924707 C13.4695056,250.990708 13.4140061,251.023707 13.3390057,251.023707 C13.2940055,251.023707 13.243006,251.007207 13.1860057,250.974207 C13.1290054,250.941207 13.0592561,250.904458 12.9767557,250.863957 C12.8942553,250.823457 12.7960063,250.785957 12.6820057,250.751457 C12.5680052,250.716957 12.4330065,250.699707 12.2770057,250.699707 C12.1420051,250.699707 12.0205063,250.716957 11.9125057,250.751457 C11.8045052,250.785957 11.7122561,250.833207 11.6357557,250.893207 C11.5592553,250.953208 11.5007559,251.022957 11.4602557,251.102457 C11.4197555,251.181958 11.3995057,251.268207 11.3995057,251.361207 C11.3995057,251.478208 11.4332554,251.575707 11.5007557,251.653707 C11.5682561,251.731708 11.6575052,251.799207 11.7685057,251.856207 C11.8795063,251.913208 12.005505,251.963457 12.1465057,252.006957 C12.2875064,252.050458 12.432255,252.096957 12.5807557,252.146457 C12.7292565,252.195958 12.874005,252.250707 13.0150057,252.310707 C13.1560064,252.370708 13.2820052,252.445707 13.3930057,252.535707 C13.5040063,252.625708 13.5932554,252.735957 13.6607557,252.866457 C13.7282561,252.996958 13.7620057,253.153706 13.7620057,253.336707 C13.7620057,253.546708 13.7245061,253.740956 13.6495057,253.919457 C13.5745054,254.097958 13.4635065,254.252457 13.3165057,254.382957 C13.169505,254.513458 12.9895068,254.616207 12.7765057,254.691207 C12.5635047,254.766208 12.3175071,254.803707 12.0385057,254.803707 C11.7205041,254.803707 11.432507,254.751958 11.1745057,254.648457 C10.9165044,254.544957 10.6975066,254.412208 10.5175057,254.250207 L10.7065057,253.944207 C10.7305059,253.905207 10.7590056,253.875207 10.7920057,253.854207 C10.8250059,253.833207 10.8685055,253.822707 10.9225057,253.822707 C10.976506,253.822707 11.0335054,253.843707 11.0935057,253.885707 C11.153506,253.927708 11.2262553,253.974207 11.3117557,254.025207 C11.3972562,254.076208 11.5007551,254.122707 11.6222557,254.164707 C11.7437563,254.206708 11.8960048,254.227707 12.0790057,254.227707 C12.2350065,254.227707 12.3715051,254.207458 12.4885057,254.166957 C12.6055063,254.126457 12.7030053,254.071708 12.7810057,254.002707 C12.8590061,253.933707 12.9167555,253.854208 12.9542557,253.764207 C12.9917559,253.674207 13.0105057,253.578208 13.0105057,253.476207 C13.0105057,253.350207 12.9767561,253.245958 12.9092557,253.163457 C12.8417554,253.080957 12.7525063,253.010458 12.6415057,252.951957 C12.5305052,252.893457 12.4037564,252.842458 12.2612557,252.798957 C12.118755,252.755457 11.9732565,252.709708 11.8247557,252.661707 C11.676255,252.613707 11.5307564,252.558958 11.3882557,252.497457 C11.245755,252.435957 11.1190063,252.358708 11.0080057,252.265707 C10.8970052,252.172707 10.8077561,252.057958 10.7402557,251.921457 C10.6727554,251.784957 10.6390057,251.619208 10.6390057,251.424207 C10.6390057,251.250206 10.6750054,251.082958 10.7470057,250.922457 C10.8190061,250.761957 10.924005,250.620958 11.0620057,250.499457 C11.2000064,250.377957 11.3695047,250.281208 11.5705057,250.209207 C11.7715067,250.137207 12.0010044,250.101207 12.2590057,250.101207 C12.5590072,250.101207 12.8282545,250.148457 13.0667557,250.242957 C13.3052569,250.337458 13.5115049,250.467206 13.6855057,250.632207 L13.5055057,250.924707 Z" id="+3s-+2s-+1s-X--1s--2" fill="#888888" fill-rule="nonzero"></path>
            <path d="M39.3872252,273.729463 L40.7732252,273.729463 L40.7732252,269.332963 C40.7732252,269.200963 40.7777252,269.067464 40.7867252,268.932463 L39.6347252,269.917963 C39.6047251,269.941964 39.5747254,269.959213 39.5447252,269.969713 C39.5147251,269.980213 39.4862254,269.985463 39.4592252,269.985463 C39.414225,269.985463 39.3737254,269.975714 39.3377252,269.956213 C39.3017251,269.936713 39.2747253,269.913464 39.2567252,269.886463 L39.0047252,269.539963 L40.9217252,267.879463 L41.5742252,267.879463 L41.5742252,273.729463 L42.8432252,273.729463 L42.8432252,274.341463 L39.3872252,274.341463 L39.3872252,273.729463 Z M67.3052247,267.820963 C67.578226,267.820963 67.8332235,267.861463 68.0702247,267.942463 C68.3072259,268.023464 68.5119738,268.141213 68.6844747,268.295713 C68.8569755,268.450214 68.9927242,268.638462 69.0917247,268.860463 C69.1907252,269.082465 69.2402247,269.334462 69.2402247,269.616463 C69.2402247,269.856465 69.204225,270.078462 69.1322247,270.282463 C69.0602243,270.486464 68.9627253,270.682212 68.8397247,270.869713 C68.7167241,271.057214 68.5749755,271.238713 68.4144747,271.414213 C68.2539739,271.589714 68.0837256,271.768962 67.9037247,271.951963 L66.2072247,273.688963 C66.3272253,273.655963 66.4487241,273.629714 66.5717247,273.610213 C66.6947253,273.590713 66.8132241,273.580963 66.9272247,273.580963 L69.0872247,273.580963 C69.1742251,273.580963 69.2432244,273.606463 69.2942247,273.657463 C69.3452249,273.708464 69.3707247,273.774463 69.3707247,273.855463 L69.3707247,274.341463 L65.0687247,274.341463 L65.0687247,274.066963 C65.0687247,274.009963 65.0799746,273.951464 65.1024747,273.891463 C65.1249748,273.831463 65.1617244,273.775964 65.2127247,273.724963 L67.2782247,271.650463 C67.4492255,271.476463 67.605224,271.309214 67.7462247,271.148713 C67.8872254,270.988213 68.0079742,270.826964 68.1084747,270.664963 C68.2089752,270.502963 68.2862244,270.338714 68.3402247,270.172213 C68.3942249,270.005713 68.4212247,269.827964 68.4212247,269.638963 C68.4212247,269.449962 68.391225,269.284214 68.3312247,269.141713 C68.2712244,268.999213 68.1887252,268.881464 68.0837247,268.788463 C67.9787241,268.695463 67.8557254,268.625714 67.7147247,268.579213 C67.573724,268.532713 67.4222255,268.509463 67.2602247,268.509463 C67.0982239,268.509463 66.9482254,268.533463 66.8102247,268.581463 C66.672224,268.629464 66.5499752,268.696213 66.4434747,268.781713 C66.3369741,268.867214 66.246975,268.968463 66.1734747,269.085463 C66.0999743,269.202464 66.0482248,269.331463 66.0182247,269.472463 C65.9942246,269.559464 65.9582249,269.622463 65.9102247,269.661463 C65.8622244,269.700464 65.7992251,269.719963 65.7212247,269.719963 C65.7062246,269.719963 65.6904748,269.719213 65.6739747,269.717713 C65.6574746,269.716213 65.6387248,269.713963 65.6177247,269.710963 L65.1992247,269.638963 C65.2412249,269.344962 65.3222241,269.084715 65.4422247,268.858213 C65.5622253,268.631712 65.7144737,268.441964 65.8989747,268.288963 C66.0834756,268.135963 66.2949735,268.019714 66.5334747,267.940213 C66.7719759,267.860713 67.0292233,267.820963 67.3052247,267.820963 Z M93.8957241,267.820963 C94.1687255,267.820963 94.4207229,267.859963 94.6517241,267.937963 C94.8827253,268.015964 95.0814733,268.126963 95.2479741,268.270963 C95.4144749,268.414964 95.5442236,268.588962 95.6372241,268.792963 C95.7302246,268.996964 95.7767241,269.223462 95.7767241,269.472463 C95.7767241,269.676464 95.7504744,269.858713 95.6979741,270.019213 C95.6454738,270.179714 95.5704746,270.320713 95.4729741,270.442213 C95.3754736,270.563714 95.2577248,270.666463 95.1197241,270.750463 C94.9817234,270.834464 94.827225,270.901963 94.6562241,270.952963 C95.0762262,271.063964 95.391973,271.249962 95.6034741,271.510963 C95.8149752,271.771965 95.9207241,272.098961 95.9207241,272.491963 C95.9207241,272.788965 95.8644747,273.055962 95.7519741,273.292963 C95.6394735,273.529965 95.4857251,273.731713 95.2907241,273.898213 C95.0957231,274.064714 94.8684754,274.192213 94.6089741,274.280713 C94.3494728,274.369214 94.0712256,274.413463 93.7742241,274.413463 C93.4322224,274.413463 93.1397253,274.370714 92.8967241,274.285213 C92.6537229,274.199713 92.4482249,274.081964 92.2802241,273.931963 C92.1122233,273.781963 91.9742246,273.604214 91.8662241,273.398713 C91.7582236,273.193212 91.6667245,272.970465 91.5917241,272.730463 L91.9337241,272.586463 C91.9967244,272.559463 92.0597238,272.545963 92.1227241,272.545963 C92.1827244,272.545963 92.2359739,272.558713 92.2824741,272.584213 C92.3289743,272.609714 92.364224,272.649463 92.3882241,272.703463 C92.3942241,272.715463 92.4002241,272.728213 92.4062241,272.741713 C92.4122241,272.755213 92.4182241,272.769463 92.4242241,272.784463 C92.4662243,272.871464 92.5172238,272.969713 92.5772241,273.079213 C92.6372244,273.188714 92.7182236,273.291463 92.8202241,273.387463 C92.9222246,273.483464 93.0489733,273.564463 93.2004741,273.630463 C93.3519749,273.696464 93.540223,273.729463 93.7652241,273.729463 C93.9902252,273.729463 94.1874733,273.692714 94.3569741,273.619213 C94.5264749,273.545713 94.6674735,273.450464 94.7799741,273.333463 C94.8924747,273.216463 94.9772238,273.085964 95.0342241,272.941963 C95.0912244,272.797963 95.1197241,272.655464 95.1197241,272.514463 C95.1197241,272.340463 95.0964743,272.181464 95.0499741,272.037463 C95.0034739,271.893463 94.9194747,271.768964 94.7979741,271.663963 C94.6764735,271.558963 94.5084752,271.476464 94.2939741,271.416463 C94.079473,271.356463 93.8042258,271.326463 93.4682241,271.326463 L93.4682241,270.745963 C93.7412255,270.742963 93.9744731,270.712964 94.1679741,270.655963 C94.3614751,270.598963 94.5197235,270.520964 94.6427241,270.421963 C94.7657247,270.322963 94.8549738,270.204464 94.9104741,270.066463 C94.9659744,269.928463 94.9937241,269.775464 94.9937241,269.607463 C94.9937241,269.421462 94.9644744,269.259464 94.9059741,269.121463 C94.8474738,268.983463 94.7672246,268.869464 94.6652241,268.779463 C94.5632236,268.689463 94.4424748,268.621964 94.3029741,268.576963 C94.1634734,268.531963 94.0127249,268.509463 93.8507241,268.509463 C93.6887233,268.509463 93.5387248,268.533463 93.4007241,268.581463 C93.2627234,268.629464 93.1404746,268.696213 93.0339741,268.781713 C92.9274736,268.867214 92.8382245,268.969213 92.7662241,269.087713 C92.6942237,269.206214 92.6402243,269.334463 92.6042241,269.472463 C92.580224,269.559464 92.5442243,269.622463 92.4962241,269.661463 C92.4482239,269.700464 92.3867245,269.719963 92.3117241,269.719963 C92.296724,269.719963 92.2809742,269.719213 92.2644741,269.717713 C92.247974,269.716213 92.2292242,269.713963 92.2082241,269.710963 L91.7897241,269.638963 C91.8317243,269.344962 91.9127235,269.084715 92.0327241,268.858213 C92.1527247,268.631712 92.3049732,268.441964 92.4894741,268.288963 C92.673975,268.135963 92.8854729,268.019714 93.1239741,267.940213 C93.3624753,267.860713 93.6197227,267.820963 93.8957241,267.820963 Z M121.674224,272.014963 L122.650724,272.014963 L122.650724,272.473963 C122.650724,272.521964 122.636474,272.562463 122.607974,272.595463 C122.579473,272.628464 122.535224,272.644963 122.475224,272.644963 L121.674224,272.644963 L121.674224,274.341463 L120.967724,274.341463 L120.967724,272.644963 L118.110224,272.644963 C118.050223,272.644963 117.998474,272.627714 117.954974,272.593213 C117.911473,272.558713 117.883724,272.515964 117.871724,272.464963 L117.790724,272.055463 L120.927224,267.892963 L121.674224,267.892963 L121.674224,272.014963 Z M120.967724,269.355463 C120.967724,269.277463 120.969974,269.193464 120.974474,269.103463 C120.978974,269.013463 120.988723,268.920464 121.003724,268.824463 L118.659224,272.014963 L120.967724,272.014963 L120.967724,269.355463 Z M148.516723,268.243963 C148.516723,268.357964 148.480723,268.451713 148.408723,268.525213 C148.336723,268.598714 148.215224,268.635463 148.044223,268.635463 L146.019223,268.635463 L145.722223,270.327463 C146.058225,270.255463 146.368722,270.219463 146.653723,270.219463 C146.989725,270.219463 147.285972,270.268963 147.542473,270.367963 C147.798974,270.466964 148.014222,270.603463 148.188223,270.777463 C148.362224,270.951464 148.493473,271.156962 148.581973,271.393963 C148.670473,271.630965 148.714723,271.888962 148.714723,272.167963 C148.714723,272.509965 148.654724,272.818962 148.534723,273.094963 C148.414722,273.370965 148.250474,273.607212 148.041973,273.803713 C147.833472,274.000214 147.588224,274.150963 147.306223,274.255963 C147.024222,274.360964 146.719725,274.413463 146.392723,274.413463 C146.203722,274.413463 146.022224,274.394714 145.848223,274.357213 C145.674222,274.319713 145.512224,274.269464 145.362223,274.206463 C145.212222,274.143463 145.072724,274.071464 144.943723,273.990463 C144.814722,273.909463 144.700723,273.823964 144.601723,273.733963 L144.844723,273.391963 C144.898723,273.313963 144.970723,273.274963 145.060723,273.274963 C145.117723,273.274963 145.184473,273.298213 145.260973,273.344713 C145.337473,273.391214 145.429722,273.442963 145.537723,273.499963 C145.645723,273.556964 145.772472,273.608713 145.917973,273.655213 C146.063474,273.701714 146.236722,273.724963 146.437723,273.724963 C146.662724,273.724963 146.865222,273.688964 147.045223,273.616963 C147.225224,273.544963 147.378972,273.442214 147.506473,273.308713 C147.633974,273.175213 147.732223,273.015464 147.801223,272.829463 C147.870223,272.643462 147.904723,272.434965 147.904723,272.203963 C147.904723,272.002962 147.875473,271.821464 147.816973,271.659463 C147.758473,271.497463 147.669974,271.359464 147.551473,271.245463 C147.432972,271.131463 147.285224,271.042964 147.108223,270.979963 C146.931222,270.916963 146.724224,270.885463 146.487223,270.885463 C146.325222,270.885463 146.157224,270.898963 145.983223,270.925963 C145.809222,270.952964 145.629224,270.996463 145.443223,271.056463 L144.939223,270.907963 L145.461223,267.892963 L148.516723,267.892963 L148.516723,268.243963 Z M173.545722,270.390463 C173.803724,270.390463 174.048221,270.433213 174.279222,270.518713 C174.510224,270.604214 174.712722,270.728713 174.886722,270.892213 C175.060723,271.055714 175.198722,271.256712 175.300722,271.495213 C175.402723,271.733715 175.453722,272.005962 175.453722,272.311963 C175.453722,272.608965 175.399723,272.884962 175.291722,273.139963 C175.183722,273.394965 175.032973,273.616962 174.839472,273.805963 C174.645971,273.994964 174.412724,274.143463 174.139722,274.251463 C173.866721,274.359464 173.566724,274.413463 173.239722,274.413463 C172.915721,274.413463 172.622474,274.361714 172.359972,274.258213 C172.097471,274.154713 171.873223,274.007714 171.687222,273.817213 C171.501221,273.626712 171.357973,273.395715 171.257472,273.124213 C171.156972,272.852712 171.106722,272.548965 171.106722,272.212963 C171.106722,271.930962 171.169722,271.630965 171.295722,271.312963 C171.421723,270.994962 171.621221,270.652965 171.894222,270.286963 L173.527722,268.086463 C173.569723,268.032463 173.628222,267.986714 173.703222,267.949213 C173.778223,267.911713 173.863722,267.892963 173.959722,267.892963 L174.670722,267.892963 L172.434222,270.723463 C172.587223,270.618463 172.756721,270.536714 172.942722,270.478213 C173.128723,270.419713 173.329721,270.390463 173.545722,270.390463 Z M171.880722,272.352463 C171.880722,272.559464 171.910722,272.748463 171.970722,272.919463 C172.030723,273.090464 172.118472,273.237463 172.233972,273.360463 C172.349473,273.483464 172.490472,273.578713 172.656972,273.646213 C172.823473,273.713714 173.013221,273.747463 173.226222,273.747463 C173.442223,273.747463 173.637222,273.712964 173.811222,273.643963 C173.985223,273.574963 174.134472,273.478964 174.258972,273.355963 C174.383473,273.232963 174.479472,273.087464 174.546972,272.919463 C174.614473,272.751463 174.648222,272.568464 174.648222,272.370463 C174.648222,272.160462 174.615223,271.970714 174.549222,271.801213 C174.483222,271.631713 174.390223,271.487714 174.270222,271.369213 C174.150222,271.250713 174.006223,271.159964 173.838222,271.096963 C173.670222,271.033963 173.485723,271.002463 173.284722,271.002463 C173.068721,271.002463 172.873723,271.039213 172.699722,271.112713 C172.525722,271.186214 172.377973,271.285213 172.256472,271.409713 C172.134972,271.534214 172.041973,271.678213 171.977472,271.841713 C171.912972,272.005214 171.880722,272.175463 171.880722,272.352463 Z M202.003722,267.892963 L202.003722,268.252963 C202.003722,268.354964 201.992472,268.438963 201.969972,268.504963 C201.947472,268.570964 201.924222,268.626463 201.900222,268.671463 L199.231722,274.057963 C199.192722,274.135964 199.138722,274.202713 199.069722,274.258213 C199.000721,274.313714 198.907722,274.341463 198.790722,274.341463 L198.219222,274.341463 L200.928222,269.022463 C200.967222,268.947463 201.006972,268.878464 201.047472,268.815463 C201.087972,268.752463 201.133722,268.692464 201.184722,268.635463 L197.818722,268.635463 C197.767722,268.635463 197.721972,268.615214 197.681472,268.574713 C197.640972,268.534213 197.620722,268.488464 197.620722,268.437463 L197.620722,267.892963 L202.003722,267.892963 Z M226.236221,274.413463 C225.91522,274.413463 225.621223,274.370714 225.354221,274.285213 C225.08722,274.199713 224.857722,274.077464 224.665721,273.918463 C224.47372,273.759463 224.325222,273.566715 224.220221,273.340213 C224.115221,273.113712 224.062721,272.859465 224.062721,272.577463 C224.062721,272.163461 224.17072,271.822215 224.386721,271.553713 C224.602722,271.285212 224.911719,271.093964 225.313721,270.979963 C224.97472,270.853963 224.718972,270.665715 224.546471,270.415213 C224.37397,270.164712 224.287721,269.865465 224.287721,269.517463 C224.287721,269.280462 224.334221,269.058464 224.427221,268.851463 C224.520222,268.644462 224.65222,268.464464 224.823221,268.311463 C224.994222,268.158463 225.19897,268.038464 225.437471,267.951463 C225.675972,267.864463 225.94222,267.820963 226.236221,267.820963 C226.527223,267.820963 226.79272,267.864463 227.032721,267.951463 C227.272722,268.038464 227.47822,268.158463 227.649221,268.311463 C227.820222,268.464464 227.952221,268.644462 228.045221,268.851463 C228.138222,269.058464 228.184721,269.280462 228.184721,269.517463 C228.184721,269.865465 228.097722,270.164712 227.923721,270.415213 C227.74972,270.665715 227.494723,270.853963 227.158721,270.979963 C227.560723,271.093964 227.86972,271.285212 228.085721,271.553713 C228.301722,271.822215 228.409721,272.163461 228.409721,272.577463 C228.409721,272.859465 228.356472,273.113712 228.249971,273.340213 C228.143471,273.566715 227.994972,273.759463 227.804471,273.918463 C227.61397,274.077464 227.385223,274.199713 227.118221,274.285213 C226.85122,274.370714 226.557223,274.413463 226.236221,274.413463 Z M226.236221,273.774463 C226.446222,273.774463 226.63447,273.745214 226.800971,273.686713 C226.967472,273.628213 227.108471,273.545714 227.223971,273.439213 C227.339472,273.332713 227.427971,273.205214 227.489471,273.056713 C227.550972,272.908213 227.581721,272.743964 227.581721,272.563963 C227.581721,272.341962 227.544972,272.152214 227.471471,271.994713 C227.397971,271.837213 227.298972,271.708964 227.174471,271.609963 C227.049971,271.510963 226.906722,271.438214 226.744721,271.391713 C226.58272,271.345213 226.413222,271.321963 226.236221,271.321963 C226.05922,271.321963 225.889722,271.345213 225.727721,271.391713 C225.56572,271.438214 225.422472,271.510963 225.297971,271.609963 C225.173471,271.708964 225.074472,271.837213 225.000971,271.994713 C224.927471,272.152214 224.890721,272.341962 224.890721,272.563963 C224.890721,272.743964 224.921471,272.908213 224.982971,273.056713 C225.044472,273.205214 225.132971,273.332713 225.248471,273.439213 C225.363972,273.545714 225.50497,273.628213 225.671471,273.686713 C225.837972,273.745214 226.02622,273.774463 226.236221,273.774463 Z M226.236221,270.678463 C226.446222,270.678463 226.62547,270.646214 226.773971,270.581713 C226.922472,270.517213 227.043221,270.431714 227.136221,270.325213 C227.229222,270.218713 227.296721,270.096464 227.338721,269.958463 C227.380721,269.820463 227.401721,269.677964 227.401721,269.530963 C227.401721,269.380963 227.376971,269.239964 227.327471,269.107963 C227.277971,268.975963 227.204472,268.860464 227.106971,268.761463 C227.009471,268.662463 226.887972,268.584464 226.742471,268.527463 C226.596971,268.470463 226.428222,268.441963 226.236221,268.441963 C226.04422,268.441963 225.875472,268.470463 225.729971,268.527463 C225.584471,268.584464 225.462972,268.662463 225.365471,268.761463 C225.267971,268.860464 225.194471,268.975963 225.144971,269.107963 C225.095471,269.239964 225.070721,269.380963 225.070721,269.530963 C225.070721,269.677964 225.091721,269.820463 225.133721,269.958463 C225.175721,270.096464 225.243221,270.218713 225.336221,270.325213 C225.429222,270.431714 225.54997,270.517213 225.698471,270.581713 C225.846972,270.646214 226.02622,270.678463 226.236221,270.678463 Z M252.606221,271.695463 C252.363219,271.695463 252.132972,271.654964 251.915471,271.573963 C251.69797,271.492963 251.506721,271.373714 251.341721,271.216213 C251.17672,271.058713 251.045471,270.865215 250.947971,270.635713 C250.85047,270.406212 250.801721,270.142965 250.801721,269.845963 C250.801721,269.563962 250.85422,269.299965 250.959221,269.053963 C251.064221,268.807962 251.21122,268.593464 251.400221,268.410463 C251.589222,268.227462 251.814219,268.083464 252.075221,267.978463 C252.336222,267.873463 252.622719,267.820963 252.934721,267.820963 C253.243722,267.820963 253.524219,267.871963 253.776221,267.973963 C254.028222,268.075964 254.24422,268.218462 254.424221,268.401463 C254.604222,268.584464 254.74297,268.803462 254.840471,269.058463 C254.937971,269.313465 254.986721,269.595462 254.986721,269.904463 C254.986721,270.090464 254.969471,270.266713 254.934971,270.433213 C254.90047,270.599714 254.850221,270.762463 254.784221,270.921463 C254.71822,271.080464 254.639471,271.238713 254.547971,271.396213 C254.45647,271.553714 254.352221,271.716463 254.235221,271.884463 L252.664721,274.152463 C252.62572,274.209464 252.570221,274.255213 252.498221,274.289713 C252.42622,274.324214 252.343721,274.341463 252.250721,274.341463 L251.512721,274.341463 L253.474721,271.771963 C253.540721,271.684963 253.60222,271.602464 253.659221,271.524463 C253.716221,271.446463 253.77022,271.368464 253.821221,271.290463 C253.65622,271.422464 253.470222,271.522963 253.263221,271.591963 C253.05622,271.660964 252.837222,271.695463 252.606221,271.695463 Z M254.217221,269.809963 C254.217221,269.608962 254.184971,269.426714 254.120471,269.263213 C254.05597,269.099713 253.966721,268.960964 253.852721,268.846963 C253.73872,268.732963 253.602971,268.645214 253.445471,268.583713 C253.28797,268.522213 253.114722,268.491463 252.925721,268.491463 C252.72772,268.491463 252.546971,268.523713 252.383471,268.588213 C252.21997,268.652714 252.080471,268.741963 251.964971,268.855963 C251.84947,268.969964 251.760221,269.106463 251.697221,269.265463 C251.63422,269.424464 251.602721,269.598462 251.602721,269.787463 C251.602721,269.991463 251.63197,270.173713 251.690471,270.334213 C251.748971,270.494714 251.83297,270.630463 251.942471,270.741463 C252.051971,270.852464 252.18547,270.936463 252.342971,270.993463 C252.500471,271.050464 252.67672,271.078963 252.871721,271.078963 C253.087722,271.078963 253.27897,271.043714 253.445471,270.973213 C253.611971,270.902713 253.75222,270.808964 253.866221,270.691963 C253.980221,270.574963 254.06722,270.439964 254.127221,270.286963 C254.187221,270.133963 254.217221,269.974964 254.217221,269.809963 Z M277.93222,273.729463 L279.31822,273.729463 L279.31822,269.332963 C279.31822,269.200963 279.32272,269.067464 279.33172,268.932463 L278.17972,269.917963 C278.14972,269.941964 278.11972,269.959213 278.08972,269.969713 C278.05972,269.980213 278.03122,269.985463 278.00422,269.985463 C277.95922,269.985463 277.91872,269.975714 277.88272,269.956213 C277.84672,269.936713 277.81972,269.913464 277.80172,269.886463 L277.54972,269.539963 L279.46672,267.879463 L280.11922,267.879463 L280.11922,273.729463 L281.38822,273.729463 L281.38822,274.341463 L277.93222,274.341463 L277.93222,273.729463 Z M288.91072,271.119463 C288.91072,271.683466 288.849971,272.171711 288.72847,272.584213 C288.606969,272.996715 288.441221,273.337962 288.23122,273.607963 C288.021219,273.877965 287.772971,274.078963 287.48647,274.210963 C287.199969,274.342964 286.893222,274.408963 286.56622,274.408963 C286.236218,274.408963 285.929471,274.342964 285.64597,274.210963 C285.362469,274.078963 285.115721,273.877965 284.90572,273.607963 C284.695719,273.337962 284.530721,272.996715 284.41072,272.584213 C284.290719,272.171711 284.23072,271.683466 284.23072,271.119463 C284.23072,270.555461 284.290719,270.066465 284.41072,269.652463 C284.530721,269.238461 284.695719,268.895715 284.90572,268.624213 C285.115721,268.352712 285.362469,268.150964 285.64597,268.018963 C285.929471,267.886963 286.236218,267.820963 286.56622,267.820963 C286.893222,267.820963 287.199969,267.886963 287.48647,268.018963 C287.772971,268.150964 288.021219,268.352712 288.23122,268.624213 C288.441221,268.895715 288.606969,269.238461 288.72847,269.652463 C288.849971,270.066465 288.91072,270.555461 288.91072,271.119463 Z M288.07822,271.119463 C288.07822,270.627461 288.03697,270.214215 287.95447,269.879713 C287.87197,269.545212 287.760971,269.275964 287.62147,269.071963 C287.481969,268.867962 287.320721,268.721714 287.13772,268.633213 C286.954719,268.544713 286.764221,268.500463 286.56622,268.500463 C286.368219,268.500463 286.177721,268.544713 285.99472,268.633213 C285.811719,268.721714 285.651221,268.867962 285.51322,269.071963 C285.375219,269.275964 285.26497,269.545212 285.18247,269.879713 C285.09997,270.214215 285.05872,270.627461 285.05872,271.119463 C285.05872,271.611466 285.09997,272.023962 285.18247,272.356963 C285.26497,272.689965 285.375219,272.958462 285.51322,273.162463 C285.651221,273.366464 285.811719,273.512713 285.99472,273.601213 C286.177721,273.689714 286.368219,273.733963 286.56622,273.733963 C286.764221,273.733963 286.954719,273.689714 287.13772,273.601213 C287.320721,273.512713 287.481969,273.366464 287.62147,273.162463 C287.760971,272.958462 287.87197,272.689965 287.95447,272.356963 C288.03697,272.023962 288.07822,271.611466 288.07822,271.119463 Z" id="1-2-3-4-5-6-7-8-9-10" fill="#888888" fill-rule="nonzero"></path>
            <g id="Group-5" transform="translate(38.000000, 40.508986)">
                <g id="Oval" transform="translate(112.000000, 21.491014) scale(-1, 1) translate(-112.000000, -21.491014) translate(91.000000, 0.491014)">
                    <g id="path-1-link" fill="#FFFFFF" fill-opacity="0.300000012">
                        <circle id="path-1" cx="21.7662916" cy="21.2240702" r="20.2222222"></circle>
                    </g>
                    <circle stroke="#979797" cx="21.7662916" cy="21.2240702" r="19.4444444"></circle>
                </g>
                <polyline id="Path-2" stroke="#3277E0" stroke-linecap="round" stroke-linejoin="round" transform="translate(58.095519, 56.741014) scale(-1, 1) translate(-58.095519, -56.741014) " points="4 32.991014 33.1873138 36.6979854 60.1910378 57.259852 84.8203131 80.491014 112.191038 75.491014"></polyline>
                <path d="M115.32929,35.1494827 L112.638307,29.7675167 C112.514812,29.5205274 112.214475,29.4204153 111.967486,29.5439099 C111.870723,29.5922917 111.792261,29.670753 111.743879,29.7675167 L109.052896,35.1494827 C108.929402,35.396472 109.029514,35.6968085 109.276503,35.8203031 C109.345931,35.855017 109.422487,35.8730895 109.50011,35.8730895 L114.882076,35.8730895 C115.158218,35.8730895 115.382076,35.6492319 115.382076,35.3730895 C115.382076,35.295467 115.364003,35.2189104 115.32929,35.1494827 Z" id="icon/off-chart" fill="#F03E3D" fill-rule="nonzero"></path>
                <g id="Oval" transform="translate(56.000000, 56.491014) scale(-1, 1) translate(-56.000000, -56.491014) translate(52.000000, 52.491014)">
                    <g id="path-8-link" fill="#3176E0">
                        <circle id="path-8" cx="4" cy="4" r="4"></circle>
                    </g>
                    <circle stroke="#3D83E1" cx="4" cy="4" r="3.5"></circle>
                </g>
                <g id="Oval-Copy-3" transform="translate(83.000000, 36.491014) scale(-1, 1) translate(-83.000000, -36.491014) translate(79.000000, 32.491014)">
                    <g id="path-8-link" fill="#3176E0">
                        <circle id="path-8" cx="4" cy="4" r="4"></circle>
                    </g>
                    <circle id="Oval" stroke="#3D83E1" cx="4" cy="4" r="3.5"></circle>
                </g>
                <g id="Oval" transform="translate(30.000000, 80.491014) scale(-1, 1) translate(-30.000000, -80.491014) translate(26.000000, 76.491014)">
                    <g id="path-9-link" fill="#3176E0">
                        <circle id="path-9" cx="4" cy="4" r="4"></circle>
                    </g>
                    <circle stroke="#3D83E1" cx="4" cy="4" r="3.5"></circle>
                </g>
                <g id="Oval" transform="translate(4.000000, 75.491014) scale(-1, 1) translate(-4.000000, -75.491014) translate(0.000000, 71.491014)">
                    <g id="path-10-link" fill="#3176E0">
                        <circle id="path-10" cx="4" cy="4" r="4"></circle>
                    </g>
                    <circle stroke="#3D83E1" cx="4" cy="4" r="3.5"></circle>
                </g>
            </g>
        </g>
        <polyline id="Path" stroke="#417505" points="80 153 105.954511 141.051253 131.909022 115.181672 159.863752 101.646711 189 98"></polyline>
        <text id="Mean-Copy" font-family="Lato-Bold, Lato" font-size="9" font-weight="bold" letter-spacing="0.0634432967" fill="#000000" fill-opacity="0.6">
            <tspan x="35.4656134" y="177">Mean</tspan>
        </text>
        <path d="M191.950374,99.3197133 L189.420492,94.2599493 C189.30439,94.0277466 189.022034,93.9336279 188.789831,94.0497292 C188.698861,94.0952145 188.625096,94.1689786 188.579611,94.2599493 L186.049729,99.3197133 C185.933628,99.5519161 186.027747,99.8342724 186.259949,99.9503738 C186.325221,99.9830094 186.397194,100 186.47017,100 L191.529933,100 C191.789544,100 192,99.7895441 192,99.5299335 C192,99.456958 191.983009,99.3849846 191.950374,99.3197133 Z" id="icon/off-chart-copy" fill="#F03E3D" fill-rule="nonzero"></path>
        <text id="Level-1" font-family="Lato-Bold, Lato" font-size="9" font-weight="bold" letter-spacing="0.0634432967" fill="#000000" fill-opacity="0.6">
            <tspan x="389.683948" y="76">Level 1</tspan>
        </text>
        <text id="Level-2" font-family="Lato-Bold, Lato" font-size="9" font-weight="bold" letter-spacing="0.0634432967" fill="#000000" fill-opacity="0.6">
            <tspan x="389.683948" y="92">Level 2</tspan>
        </text>
        <g id="Oval" transform="translate(359.000000, 73.000000) scale(-1, 1) translate(-359.000000, -73.000000) translate(355.000000, 69.000000)">
            <g id="path-3-link" fill="#3176E0">
                <circle id="path-3" cx="4" cy="4" r="4"></circle>
            </g>
            <circle stroke="#3D83E1" cx="4" cy="4" r="3.5"></circle>
        </g>
        <rect id="Rectangle" fill="#417505" x="355" y="84" width="8" height="8"></rect>
        <rect id="Rectangle-Copy" fill="#417505" x="128" y="110" width="8" height="8"></rect>
        <rect id="Rectangle-Copy-4" fill="#417505" x="156" y="97" width="8" height="8"></rect>
        <rect id="Rectangle-Copy-2" fill="#417505" x="102" y="137" width="8" height="8"></rect>
        <rect id="Rectangle-Copy-3" fill="#417505" x="77" y="149" width="8" height="8"></rect>
    </g>
</svg>