<?xml version="1.0" encoding="UTF-8"?>
<svg width="74px" height="55px" viewBox="0 0 74 55" version="1.1" xmlns="http://www.w3.org/2000/svg" xmlns:xlink="http://www.w3.org/1999/xlink">
    <!-- Generator: Sketch 47 (45396) - http://www.bohemiancoding.com/sketch -->
    <title>menu/icon/activity log</title>
    <desc>Created with Sketch.</desc>
    <defs></defs>
    <g id="Symbols" stroke="none" stroke-width="1" fill="none" fill-rule="evenodd">
        <g id="menu/icon/activity-log">
            <g id="icon-color/menu-background-default" fill="#414756">
                <rect id="Rectangle" x="9.09494702e-13" y="0" width="74" height="55"></rect>
            </g>
            <g id="Group" transform="translate(26.000000, 17.000000)" fill="#FFFFFF">
                <path d="M11.375,10.3633372 L11.375,6.7 C11.375,6.3129 11.0676875,6 10.6875,6 C10.3073125,6 10,6.3129 10,6.7 L10,10.6812726 C10,10.7111618 10.0081976,10.7387432 10.0233268,10.7640167 C10.083586,10.9726459 10.2835651,11.2094812 10.430963,11.3981421 L12.8820792,14.5354277 C13.1204017,14.8404666 13.5552078,14.8978347 13.8547996,14.6637679 C14.1543914,14.4297011 14.2039165,13.9939321 13.965594,13.6888931 L11.375,10.3633372 Z" id="Combined-Shape"></path>
                <path d="M18.5046092,2.95750405 C16.5392484,1.12280046 13.9007463,0 11,0 C4.92486775,0 0,4.92486775 0,11 C0,17.0751322 4.92486775,22 11,22 C17.0751322,22 22,17.0751322 22,11 C22,9.56835107 21.7265007,8.20058132 21.2289007,6.94608923 C21.1198188,6.75626044 20.7975711,6.36785801 20.0941188,6.65968935 C19.3736526,6.95857898 19.4677223,7.64403566 19.523693,7.90276005 C19.8932471,8.94045027 20.0766065,10.0190041 20.0789609,11.0514338 C20.0883876,15.1849709 17.1508739,20.0853271 11.0050333,20.061935 C4.85919279,20.0385429 2.00733377,14.991666 1.99197179,11.0283908 C1.97660981,7.06511558 4.86792119,1.98588542 11.0132962,2.0154456 C13.6233958,2.02800057 15.6500152,2.91425385 17.1186737,4.24647601 C17.3353057,4.40743993 17.8086173,4.65847643 18.3096966,4.17924153 C18.9354481,3.58076933 18.5735808,3.05109005 18.5046092,2.95750405 Z" id="Combined-Shape"></path>
            </g>
        </g>
    </g>
</svg>