<?xml version="1.0" encoding="UTF-8"?>
<svg width="74px" height="55px" viewBox="0 0 74 55" version="1.1" xmlns="http://www.w3.org/2000/svg" xmlns:xlink="http://www.w3.org/1999/xlink">
    <!-- Generator: Sketch 47 (45396) - http://www.bohemiancoding.com/sketch -->
    <title>menu/icon/home</title>
    <desc>Created with Sketch.</desc>
    <defs></defs>
    <g id="Symbols" stroke="none" stroke-width="1" fill="none" fill-rule="evenodd">
        <g id="menu/icon/home">
            <g id="icon-color/menu-background-default" fill="#414756">
                <rect id="Rectangle" x="9.09494702e-13" y="0" width="74" height="55"></rect>
            </g>
            <path d="M35.9374758,38.1039757 C35.9374758,38.4841632 36.2455618,39 36.6250618,39 L43.8750618,39 C44.6333743,39 45.2500618,38.3833125 45.2500618,37.625 L45.2500618,29.9203792 L47.3125618,29.9203792 C47.5765618,29.9203792 47.8178743,29.7684417 47.9319993,29.5305667 C48.0468118,29.2920042 48.0144993,28.463375 47.8494993,28.2564375 L45.2500618,25.0073125 L45.2500618,19.748625 C45.2500618,18.9965 44.6429993,18.3853125 43.8936243,18.375 L42.4601868,18.375 C41.7224993,18.3853125 41.1250618,18.9965 41.1250618,19.748625 L41.1250618,20.5743125 L38.8233118,17.763125 C38.8047493,17.7404375 38.7841243,17.719125 38.7628118,17.6991875 C37.7741868,16.7669375 36.2252493,16.7669375 35.2373118,17.6991875 C35.2201243,17.715 35.2029368,17.7321875 35.1871243,17.75075 L26.1664368,28.237875 C25.9911243,28.4420625 25.9505618,29.2130491 26.0626243,29.4571116 C26.1746868,29.7018616 26.4187493,29.8586116 26.6875618,29.8586116 L28.7500618,29.8586116 L28.7500618,37.625 C28.7500618,38.3833125 29.3667493,39 30.1250618,39 L32.1875618,39 C32.5670618,39 32.8749758,38.4841632 32.8749758,38.1039757 C32.8749758,37.7237882 32.5670618,37.1079353 32.1875618,37.1079353 L30.7141552,37.1079353 L30.7222184,28.6868125 C30.7222184,28.306625 30.4142184,27.998625 30.0347184,27.998625 L28.9003789,27.998625 L36.9106282,18.6775 C36.9392981,18.6692282 37.0592776,18.466212 37.2346306,18.6856025 L40.7250681,22.9467275 C40.9093181,23.1708525 41.7713118,23.24525 42.0435618,23.14625 C42.3171868,23.048625 42.6708992,22.7894375 42.6708992,22.498625 L42.6708992,20.0784904 L43.5300693,20.0784904 L43.5300693,25.248625 C43.5300693,25.405375 43.5830068,25.5559375 43.6806318,25.6783125 L45.4364184,27.998625 L44.1171059,27.998625 C43.7376059,27.998625 43.4296059,28.306625 43.4296059,28.6868125 L43.4732692,37.1079353 C43.4732692,37.1079353 37.3633874,37.1109996 36.6327774,37.1149224 C35.9021674,37.1188452 35.9374758,38.1039757 35.9374758,38.1039757 Z" id="Fill-1" fill="#FFFFFF"></path>
        </g>
    </g>
</svg>