<?xml version="1.0" encoding="UTF-8"?>
<svg width="74px" height="55px" viewBox="0 0 74 55" version="1.1" xmlns="http://www.w3.org/2000/svg" xmlns:xlink="http://www.w3.org/1999/xlink">
    <!-- Generator: Sketch 47 (45396) - http://www.bohemiancoding.com/sketch -->
    <title>menu/icon/lab</title>
    <desc>Created with Sketch.</desc>
    <defs></defs>
    <g id="Symbols" stroke="none" stroke-width="1" fill="none" fill-rule="evenodd">
        <g id="menu/icon/lab">
            <g id="icon-color/menu-background-default" fill="#414756">
                <rect id="Rectangle" x="9.09494702e-13" y="0" width="74" height="55"></rect>
            </g>
            <path d="M45.1094994,35.2625721 L45.0246599,35.1620172 L38.8207889,24.4725487 L38.8207889,21.0765262 L39.6065711,20.6510536 C40.0374404,20.4177535 40.2739356,19.9306135 40.1867221,19.4431948 C40.0888691,18.8963132 39.6126229,18.4986623 39.0536089,18.5000094 L35.8198666,18.5000034 C35.2656876,18.498663 34.7895101,18.8963949 34.6916717,19.4431948 C34.6044582,19.9306135 34.8409534,20.4177535 35.2718227,20.6510536 L36.0576049,21.0765262 L36.0576049,24.4722233 L29.809205,35.2540077 L29.7215229,35.3882199 C29.5863708,35.572745 29.4992475,35.8484212 29.5000104,36.1324895 C29.5000095,36.4942372 29.6442965,36.8424305 29.9009354,37.0990954 C30.1576097,37.3557959 30.505714,37.5 30.8686748,37.5 L44.0730181,37.5000106 C44.6078219,37.4980006 45.0905764,37.1849656 45.3097245,36.6988848 C45.525059,36.2212629 45.4469078,35.6624809 45.1094994,35.2625721 Z M46.677173,37.315395 C46.2164804,38.3372327 45.2014477,38.9957801 44.0786556,39 L30.8686748,39 C30.1078572,39 29.3782007,38.6977357 28.8402214,38.1597018 C28.3022421,37.6216679 28.0000085,36.8919373 28.0000104,36.1324857 C27.9983823,35.5305814 28.1878027,34.9436899 28.5113952,34.5018841 L34.5576049,24.0689845 L34.5576049,21.9701036 C33.5679516,21.4342422 33.0119097,20.3147095 33.2151218,19.1789969 C33.4411734,17.9156393 34.5414923,16.996907 35.8234948,17.0000078 L39.0536096,17.0000094 C40.3369015,16.996907 41.4372204,17.9156393 41.663272,19.1789969 C41.8664841,20.3147095 41.3104422,21.4342422 40.3207889,21.9701036 L40.3207889,24.0688048 L46.2559574,34.2952903 C46.964935,35.1355966 47.1303841,36.3101514 46.677173,37.315395 Z M36.4583256,29.5361645 L38.6547974,29.5361645 L38.6547974,29.5361645 C38.9744227,29.5361645 39.2700692,29.7056845 39.4315271,29.9815317 L41.9544236,34.2918424 L41.9544236,34.2918424 C42.2055104,34.7208184 42.0613027,35.2721182 41.6323267,35.5232049 C41.4944135,35.6039278 41.3374945,35.6464752 41.1776939,35.6464752 L33.965855,35.6464752 L33.965855,35.6464752 C33.4687987,35.6464752 33.065855,35.2435315 33.065855,34.7464752 C33.065855,34.5882846 33.10755,34.4328883 33.1867385,34.2959451 L35.6792091,29.9856343 L35.6792091,29.9856343 C35.8400585,29.7074722 36.1370054,29.5361645 36.4583256,29.5361645 Z" id="Combined-Shape" fill="#FFFFFF" fill-rule="nonzero"></path>
        </g>
    </g>
</svg>