<?xml version="1.0" encoding="UTF-8"?>
<svg width="74px" height="55px" viewBox="0 0 74 55" version="1.1" xmlns="http://www.w3.org/2000/svg" xmlns:xlink="http://www.w3.org/1999/xlink">
    <!-- Generator: Sketch 47 (45396) - http://www.bohemiancoding.com/sketch -->
    <title>menu/icon/notifications</title>
    <desc>Created with Sketch.</desc>
    <defs></defs>
    <g id="Symbols" stroke="none" stroke-width="1" fill="none" fill-rule="evenodd">
        <g id="menu/icon/notifications">
            <g id="icon-color/menu-background-default" fill="#414756">
                <rect id="Rectangle" x="9.09494702e-13" y="0" width="74" height="55"></rect>
            </g>
            <path d="M37.2317728,37.774029 C38.3551576,37.774029 39.2782171,36.9092258 39.3760829,35.8118326 L35.088093,35.8118326 C35.1889937,36.9126555 36.1106179,37.774029 37.2317728,37.774029 Z M40.7278554,35.7737194 C40.6430438,37.6360486 39.1109136,39.1209677 37.2317728,39.1209677 C35.3550259,39.1209677 33.8244059,37.6398294 33.7360625,35.7737194 L30.457585,35.7737194 C29.6385975,35.7737194 28.8872905,35.3194808 28.5052569,34.594128 C28.1241705,33.8705736 28.1726686,32.9952936 28.6314329,32.3184786 L30.5693018,29.4594133 C30.5693018,29.3357167 30.5693018,29.280365 30.5693018,29.1393056 L30.5693018,25.881074 C30.5693018,23.0682057 32.3463959,20.5925813 34.9366631,19.6723291 L34.9366631,19.3211909 C34.9366631,18.1067072 35.9190085,17.1209677 37.1322546,17.1209677 C38.3454729,17.1209677 39.3278002,18.106661 39.3278896,19.3211909 L39.3278896,19.6722732 C41.9181579,20.5924941 43.695251,23.0681249 43.695251,25.8810303 L43.695251,29.0957486 C43.695251,29.2412916 43.695251,29.2961544 43.695251,29.3920518 L45.633146,32.3184735 C46.0918765,32.9953696 46.1403501,33.8706316 45.7592255,34.5941789 C45.3771714,35.3194811 44.6258672,35.7737194 43.8069243,35.7737194 L40.7278554,35.7737194 Z M42.3483122,29.8456274 L42.3483122,25.8810303 C42.3483122,23.5013162 40.750481,21.4254302 38.4804048,20.8182544 L37.9809508,20.6846658 L37.9809508,20.167655 L37.9809508,19.3212405 C37.9809161,18.8495636 37.6005623,18.4679065 37.1322546,18.4679065 C36.6639442,18.4679065 36.2836019,18.8495629 36.2836019,19.3211909 L36.2836019,20.6847077 L35.7841571,20.8183014 C33.514074,21.4255132 31.9162405,23.5013996 31.9162405,25.881074 L31.9162405,29.8728768 L29.7463848,33.0742076 C29.566645,33.3393776 29.5476159,33.6828099 29.6970054,33.9664501 C29.8462487,34.2498127 30.1389522,34.4267807 30.457585,34.4267807 L43.8069243,34.4267807 C44.1255232,34.4267807 44.4182497,34.2497983 44.5675072,33.9664436 C44.7169133,33.682803 44.697893,33.3393637 44.5166812,33.0719612 L42.3483122,29.8456274 Z" id="Combined-Shape" fill="#FFFFFF" fill-rule="nonzero"></path>
            <g id="number" transform="translate(40.000000, 12.000000)">
                <circle id="Oval-5" fill="#F69B44" cx="8.55267102" cy="9.44680419" r="8.33538459"></circle>
                <circle id="Oval-5" stroke="#FFFFFF" stroke-width="1.5" cx="8.55267102" cy="9.44680419" r="8.33538459"></circle>
                <path d="M4.06091721,11.5835904 L5.52386826,11.5835904 L5.52386826,7.37448548 C5.52386826,7.21137977 5.52886122,7.03995491 5.53884728,6.86020576 L4.50030183,7.72898898 C4.45702888,7.76560455 4.41292443,7.79056933 4.36798714,7.80388409 C4.32304985,7.81719884 4.2789454,7.82385611 4.23567246,7.82385611 C4.1690987,7.82385611 4.10835105,7.8097094 4.0534277,7.78141555 C3.99850435,7.75312171 3.95772853,7.72066749 3.93109903,7.68405192 L3.54164448,7.14980017 L5.74356057,5.27742255 L6.75714099,5.27742255 L6.75714099,11.5835904 L8.05532281,11.5835904 L8.05532281,12.5072967 L4.06091721,12.5072967 L4.06091721,11.5835904 Z M14.0519242,8.89735262 C14.0519242,9.52647464 13.9845193,10.0732034 13.8497074,10.5375554 C13.7148956,11.0019074 13.5284918,11.3855329 13.2904906,11.6884435 C13.0524894,11.9913541 12.7712195,12.2168694 12.4466725,12.364996 C12.1221254,12.5131226 11.7717862,12.5871848 11.3956445,12.5871848 C11.0195027,12.5871848 10.6708279,12.5131226 10.3496095,12.364996 C10.0283911,12.2168694 9.74961769,11.9913541 9.51328085,11.6884435 C9.276944,11.3855329 9.09220459,11.0019074 8.95905707,10.5375554 C8.82590955,10.0732034 8.75933679,9.52647464 8.75933679,8.89735262 C8.75933679,8.2649019 8.82590955,7.71734095 8.95905707,7.25465332 C9.09220459,6.79196569 9.276944,6.40917231 9.51328085,6.10626171 C9.74961769,5.8033511 10.0283911,5.57783588 10.3496095,5.42970926 C10.6708279,5.28158265 11.0195027,5.20752045 11.3956445,5.20752045 C11.7717862,5.20752045 12.1221254,5.28158265 12.4466725,5.42970926 C12.7712195,5.57783588 13.0524894,5.8033511 13.2904906,6.10626171 C13.5284918,6.40917231 13.7148956,6.79196569 13.8497074,7.25465332 C13.9845193,7.71734095 14.0519242,8.2649019 14.0519242,8.89735262 Z M12.7787074,8.89735262 C12.7787074,8.37474861 12.7404281,7.94202566 12.6638683,7.5991708 C12.5873084,7.25631594 12.4849528,6.98336762 12.3567983,6.78031765 C12.2286438,6.57726769 12.0813516,6.43496841 11.9149172,6.35341555 C11.7484828,6.2718627 11.5753936,6.23108688 11.3956445,6.23108688 C11.219224,6.23108688 11.0486313,6.2718627 10.8838613,6.35341555 C10.7190912,6.43496841 10.5734633,6.57726769 10.4469732,6.78031765 C10.320483,6.98336762 10.2197917,7.25631594 10.1448962,7.5991708 C10.0700008,7.94202566 10.0325536,8.37474861 10.0325536,8.89735262 C10.0325536,9.41995663 10.0700008,9.85267957 10.1448962,10.1955344 C10.2197917,10.5383893 10.320483,10.8113376 10.4469732,11.0143876 C10.5734633,11.2174375 10.7190912,11.3597368 10.8838613,11.4412897 C11.0486313,11.5228425 11.219224,11.5636184 11.3956445,11.5636184 C11.5753936,11.5636184 11.7484828,11.5228425 11.9149172,11.4412897 C12.0813516,11.3597368 12.2286438,11.2174375 12.3567983,11.0143876 C12.4849528,10.8113376 12.5873084,10.5383893 12.6638683,10.1955344 C12.7404281,9.85267957 12.7787074,9.41995663 12.7787074,8.89735262 Z" id="10" fill="#FFFFFF"></path>
            </g>
        </g>
    </g>
</svg>