<?xml version="1.0" encoding="UTF-8"?>
<svg width="74px" height="55px" viewBox="0 0 74 55" version="1.1" xmlns="http://www.w3.org/2000/svg" xmlns:xlink="http://www.w3.org/1999/xlink">
    <!-- Generator: Sketch 47 (45396) - http://www.bohemiancoding.com/sketch -->
    <title>menu/icon/QC Plan</title>
    <desc>Created with Sketch.</desc>
    <defs></defs>
    <g id="Symbols" stroke="none" stroke-width="1" fill="none" fill-rule="evenodd">
        <g id="menu/icon/QC-Plan">
            <g id="icon-color/menu-background-default" fill="#414756">
                <rect id="Rectangle" x="9.09494702e-13" y="0" width="74" height="55"></rect>
            </g>
            <g id="Group" transform="translate(26.000000, 15.000000)" fill="#FFFFFF">
                <path d="M8.9375,0.992955751 C8.558,0.992955751 8.25,1.6426998 8.25,2.0228873 C8.25,2.4030748 8.558,2.93802477 8.9375,2.93802477 L19.0304836,2.93802477 L19.0304836,21.0044055 L10.3125,21.0044055 C10.1440625,21.0044055 4.5045,21.0044055 4.125,21.0044055 L1.92874727,21.0044055 L1.92874727,2.93802477 L4.125,2.93802477 C4.5045,2.93802477 4.8125,2.4030748 4.8125,2.0228873 C4.8125,1.6426998 4.5045,0.992955751 4.125,0.992955751 L1.375,0.992955751 C0.6166875,0.992955751 0,1.60964325 0,2.36795575 L0,21.625 C1.19279066e-18,22.3833125 0.6166875,23 1.375,23 L3.4375,23 L10.57375,23 L19.6576024,23 C20.4159149,23 21.0326024,22.3833125 21.0326024,21.625 L21.0326024,2.36795575 C21.0326024,1.60964325 20.4159149,0.992955751 19.6576024,0.992955751 L8.9375,0.992955751 Z" id="Fill-1-Copy" transform="translate(10.516301, 11.996478) rotate(360.000000) translate(-10.516301, -11.996478) "></path>
                <path d="M5.5,8.99295575 C4.67157288,8.99295575 4,8.32138288 4,7.49295575 C4,6.66452863 4.67157288,5.99295575 5.5,5.99295575 C6.32842712,5.99295575 7,6.66452863 7,7.49295575 C7,8.32138288 6.32842712,8.99295575 5.5,8.99295575 Z M5.5,8.24295575 C5.91421356,8.24295575 6.25,7.90716931 6.25,7.49295575 C6.25,7.07874219 5.91421356,6.74295575 5.5,6.74295575 C5.08578644,6.74295575 4.75,7.07874219 4.75,7.49295575 C4.75,7.90716931 5.08578644,8.24295575 5.5,8.24295575 Z" id="Combined-Shape"></path>
                <path d="M5.5,13.9929558 C4.67157288,13.9929558 4,13.3213829 4,12.4929558 C4,11.6645286 4.67157288,10.9929558 5.5,10.9929558 C6.32842712,10.9929558 7,11.6645286 7,12.4929558 C7,13.3213829 6.32842712,13.9929558 5.5,13.9929558 Z M5.5,13.2429558 C5.91421356,13.2429558 6.25,12.9071693 6.25,12.4929558 C6.25,12.0787422 5.91421356,11.7429558 5.5,11.7429558 C5.08578644,11.7429558 4.75,12.0787422 4.75,12.4929558 C4.75,12.9071693 5.08578644,13.2429558 5.5,13.2429558 Z" id="Combined-Shape-Copy"></path>
                <path d="M5.5,18.9929558 C4.67157288,18.9929558 4,18.3213829 4,17.4929558 C4,16.6645286 4.67157288,15.9929558 5.5,15.9929558 C6.32842712,15.9929558 7,16.6645286 7,17.4929558 C7,18.3213829 6.32842712,18.9929558 5.5,18.9929558 Z M5.5,18.2429558 C5.91421356,18.2429558 6.25,17.9071693 6.25,17.4929558 C6.25,17.0787422 5.91421356,16.7429558 5.5,16.7429558 C5.08578644,16.7429558 4.75,17.0787422 4.75,17.4929558 C4.75,17.9071693 5.08578644,18.2429558 5.5,18.2429558 Z" id="Combined-Shape-Copy-2"></path>
                <path d="M8.7,6.99295575 C8.3129,6.99295575 8,7.30026825 8,7.68045575 C8,8.06064325 8.3129,8.36795575 8.7,8.36795575 L15.6812726,8.36795575 C16.0683726,8.36795575 16.3812726,8.06064325 16.3812726,7.68045575 C16.3812726,7.30026825 16.0683726,6.99295575 15.6812726,6.99295575 L8.7,6.99295575 Z" id="Fill-7-Copy-2"></path>
                <path d="M8.7,11.9929558 C8.3129,11.9929558 8,12.3002683 8,12.6804558 C8,13.0606433 8.3129,13.3679558 8.7,13.3679558 L15.6812726,13.3679558 C16.0683726,13.3679558 16.3812726,13.0606433 16.3812726,12.6804558 C16.3812726,12.3002683 16.0683726,11.9929558 15.6812726,11.9929558 L8.7,11.9929558 Z" id="Fill-7-Copy-3"></path>
                <path d="M8.7,16.9929558 C8.3129,16.9929558 8,17.3002683 8,17.6804558 C8,18.0606433 8.3129,18.3679558 8.7,18.3679558 L15.6812726,18.3679558 C16.0683726,18.3679558 16.3812726,18.0606433 16.3812726,17.6804558 C16.3812726,17.3002683 16.0683726,16.9929558 15.6812726,16.9929558 L8.7,16.9929558 Z" id="Fill-7-Copy-4"></path>
            </g>
        </g>
    </g>
</svg>