<?xml version="1.0" encoding="UTF-8"?>
<svg width="74px" height="55px" viewBox="0 0 74 55" version="1.1" xmlns="http://www.w3.org/2000/svg" xmlns:xlink="http://www.w3.org/1999/xlink">
    <!-- Generator: Sketch 47 (45396) - http://www.bohemiancoding.com/sketch -->
    <title>menu/icon/recommended updates</title>
    <desc>Created with Sketch.</desc>
    <defs></defs>
    <g id="Symbols" stroke="none" stroke-width="1" fill="none" fill-rule="evenodd">
        <g id="menu/icon/recommended-updates">
            <g id="icon-color/menu-background-default" fill="#414756">
                <rect id="Rectangle" x="9.09494702e-13" y="0" width="74" height="55"></rect>
            </g>
            <g id="Group" transform="translate(26.000000, 17.000000)" fill="#FFFFFF">
                <path d="M8.9375,0 C8.558,0 8.27237286,0.623644272 8.27237286,1.00383177 C8.27237286,1.38401927 8.558,2.05726244 8.9375,2.05726244 L20.0746894,2.05726244 L20.0746894,14.4334251 L10.3125,14.4334251 C10.1440625,14.4334251 9.9818125,14.4953001 9.8553125,14.6073626 L5.50077577,18.5568712 L5.47900245,15.105918 C5.47900245,14.7257305 5.17100245,14.418418 4.79150245,14.418418 L2.05861865,14.4334251 L2.05861865,2.05726244 L4.125,2.05726244 C4.5045,2.05726244 4.83487286,1.38401927 4.83487286,1.00383177 C4.83487286,0.623644272 4.5045,0 4.125,0 L1.375,0 C0.6166875,0 0,0.6166875 0,1.375 L0,15.125 C0,15.8833125 0.6166875,16.5 1.375,16.5 L3.4375,16.5 L3.4375,21.3125 C3.4375,21.583375 3.5963125,21.8288125 3.843125,21.9395 C3.933875,21.98075 4.0294375,22 4.125,22 C4.29,22 4.4529375,21.9401875 4.5821875,21.8260625 L10.57375,16.5 L20.625,16.5 C21.3833125,16.5 22,15.8833125 22,15.125 L22,1.375 C22,0.6166875 21.3833125,0 20.625,0 L8.9375,0 Z" id="Fill-1"></path>
                <path d="M16.5,5.5 C16.8795,5.5 17.1875,5.1926875 17.1875,4.8125 C17.1875,4.4323125 16.8795,4.125 16.5,4.125 L5.5,4.125 C5.1205,4.125 4.8125,4.4323125 4.8125,4.8125 C4.8125,5.1926875 5.1205,5.5 5.5,5.5 L16.5,5.5 Z" id="Fill-4"></path>
                <path d="M16.5,7.5625 L5.5,7.5625 C5.1205,7.5625 4.8125,7.8698125 4.8125,8.25 C4.8125,8.6301875 5.1205,8.9375 5.5,8.9375 L16.5,8.9375 C16.8795,8.9375 17.1875,8.6301875 17.1875,8.25 C17.1875,7.8698125 16.8795,7.5625 16.5,7.5625" id="Fill-5"></path>
                <path d="M16.5,11 L5.5,11 C5.1205,11 4.8125,11.3073125 4.8125,11.6875 C4.8125,12.0676875 5.1205,12.375 5.5,12.375 L16.5,12.375 C16.8795,12.375 17.1875,12.0676875 17.1875,11.6875 C17.1875,11.3073125 16.8795,11 16.5,11" id="Fill-6"></path>
            </g>
        </g>
    </g>
</svg>