<?xml version="1.0" encoding="UTF-8"?>
<svg width="74px" height="55px" viewBox="0 0 74 55" version="1.1" xmlns="http://www.w3.org/2000/svg" xmlns:xlink="http://www.w3.org/1999/xlink">
    <!-- Generator: Sketch 47 (45396) - http://www.bohemiancoding.com/sketch -->
    <title>menu/icon/settings</title>
    <desc>Created with Sketch.</desc>
    <defs>
        <path d="M39.063117,27.7168163 C38.383381,26.6425912 36.9515449,26.3172275 35.8660717,26.9914246 C34.7826277,27.6643228 34.4553672,29.0781367 35.1338291,30.1504517 C35.813573,31.2246892 37.2454092,31.5500529 38.3308625,30.8758681 C39.4143373,30.2028472 39.7415815,28.7891353 39.063117,27.7168163 Z M40.527572,26.7922818 C41.7166963,28.6708217 41.1428579,31.1486702 39.2477088,32.3253259 C37.3551381,33.5002673 34.8598282,32.9335107 33.6723123,31.0576928 C32.483187,29.1791513 33.0570523,26.7011306 34.9521861,25.5246655 C36.8447569,24.349724 39.3400668,24.9164807 40.527572,26.7922818 Z M45.4025999,21.81033 L47.1847929,24.6259526 L45.9388391,26.6904554 C46.0726649,27.2104915 46.1587675,27.7403633 46.1969019,28.2745317 L48,29.7712951 L47.2492834,33.0128605 L44.9022614,33.5981389 C44.6232983,34.0549151 44.3028806,34.4871824 43.9441852,34.8898808 L44.1516437,37.2233152 L41.3127019,38.9858844 L39.1668211,37.715793 C38.6830165,37.8268348 38.1899794,37.8977969 37.6917608,37.9289393 L36.1131831,39.7941624 L35.8212005,39.7278206 L34.4827401,39.4237066 L32.8498487,39.0529546 L32.2087705,36.532034 C31.8420553,36.3006097 31.4919951,36.0427924 31.1611311,35.7601153 L28.5975955,35.9838046 L26.8152052,33.1679963 L28.2083205,30.8597597 C28.1225923,30.4756261 28.0623771,30.0904655 28.0283573,29.7063619 L26,28.0228506 L26.750718,24.781279 L29.3871843,24.1236763 C29.5980281,23.7893891 29.8289525,23.4707994 30.0794565,23.1696867 L29.8483575,20.5706172 L32.6873253,18.8082434 L34.9470708,20.1457939 C35.3769457,20.0418462 35.8136718,19.9695249 36.2543075,19.9288663 L37.8867939,18 L38.1787321,18.0662853 L39.517454,18.3702454 L41.1501699,18.7410061 L41.7641207,21.1555848 C42.1929425,21.4079562 42.6022359,21.6973354 42.9880881,22.0209061 L45.4025999,21.81033 Z M42.2383018,23.4807584 L42.0917643,23.3520078 C41.6892083,22.9983144 41.2545719,22.6911829 40.7947488,22.4353745 L40.6228106,22.339722 L40.0958525,20.2672725 L39.1288737,20.0476888 L38.1596421,19.8276224 L36.759205,21.4823105 L36.5669288,21.4956366 C36.0862981,21.5289477 35.6109496,21.6075453 35.1462969,21.7313243 L34.9612076,21.7806304 L33.0180504,20.6304696 L31.3370124,21.674024 L31.5354274,23.9055109 L31.4072231,24.0521971 C31.1200164,24.3808072 30.8617363,24.7370382 30.6334767,25.1174328 L30.5361468,25.279633 L28.2730205,25.8441151 L27.8310429,27.7525576 L29.5763194,29.2011153 L29.5887349,29.3977056 C29.6157929,29.8261457 29.68307,30.2581754 29.7893958,30.6894367 L29.8346034,30.8728 L28.6425954,32.847824 L29.6940719,34.5089395 L31.9051025,34.3160091 L32.0523672,34.4480282 C32.4066003,34.7655894 32.7891045,35.0475494 33.1950964,35.2910405 L33.3563218,35.3877345 L33.9041403,37.5419287 L34.8713608,37.7615385 L35.8403892,37.9817131 L37.2013326,36.3736434 L37.4020951,36.3658112 C37.9331527,36.3450936 38.4571079,36.2701804 38.9670442,36.1407535 L39.1496384,36.0944094 L40.9819344,37.178898 L42.6629966,36.1352034 L42.4848356,34.1312985 L42.6242719,33.9823093 C43.01072,33.5693854 43.3466863,33.1165234 43.6269333,32.6322044 L43.7238155,32.4647741 L45.7269881,31.9652416 L46.1689671,30.0567934 L44.6253327,28.7754125 L44.6159372,28.5742118 C44.589768,28.0138157 44.4997464,27.4583492 44.3462798,26.9169692 L44.2922428,26.7263442 L45.3574163,24.9613881 L44.3060813,23.3004218 L42.2383018,23.4807584 Z" id="path-1"></path>
    </defs>
    <g id="Symbols" stroke="none" stroke-width="1" fill="none" fill-rule="evenodd">
        <g id="menu/icon/settings">
            <g id="icon-color/menu-background-default" fill="#414756">
                <rect id="Rectangle" x="9.09494702e-13" y="0" width="74" height="55"></rect>
            </g>
            <mask id="mask-2" fill="white">
                <use xlink:href="#path-1"></use>
            </mask>
            <use id="Fill-5-Copy" fill="#FFFFFF" fill-rule="nonzero" xlink:href="#path-1"></use>
        </g>
    </g>
</svg>