<?xml version="1.0" encoding="utf-8"?>
<!-- Generator: Adobe Illustrator 21.1.0, SVG Export Plug-In . SVG Version: 6.00 Build 0)  -->
<svg version="1.1" id="Layer_1" xmlns="http://www.w3.org/2000/svg" xmlns:xlink="http://www.w3.org/1999/xlink" x="0px" y="0px"
	 viewBox="0 0 24 24" style="enable-background:new 0 0 24 24;" xml:space="preserve">
<style type="text/css">
	.st0{fill:#19495D;}
</style>
<g id="Mission-Control-Latest">
	<g id="Home" transform="translate(-45.000000, -454.000000)">
		<g id="Desktop---Analyte-Review-Page" transform="translate(-13.000000, -3.000000)">
			<g id="side-nav" transform="translate(13.000000, 3.000000)">
				<g id="log_3" transform="translate(29.000000, 0.000000)">
					<g id="log-icon-blue" transform="translate(16.000000, 454.000000)">
						<path id="Combined-Shape" class="st0" d="M12.5,11.3V7.4c0-0.4-0.4-0.8-0.8-0.8C11.4,6.6,11,7,11,7.4v4.3c0,0,0,0,0,0.1
							c0.1,0.3,0.3,0.5,0.4,0.6l2.7,3.4c0.3,0.4,0.8,0.4,1,0.1c0.4-0.3,0.4-0.8,0.1-1L12.5,11.3z"/>
						<path id="Combined-Shape_1_" class="st0" d="M20.2,3.3c-2.2-2-5.1-3.3-8.1-3.3c-6.6,0-12,5.3-12,12S5.4,24,12,24
							s11.9-5.3,11.9-11.9c0-1.5-0.3-3-0.9-4.4c-0.1-0.3-0.5-0.6-1.3-0.3c-0.6,0.3-0.5,1-0.4,1.3c0.4,1.1,0.6,2.3,0.6,3.4
							c0,4.4-3.2,9.7-9.9,9.7s-9.7-5.4-9.9-9.7C2.2,7.8,5.4,2.3,12,2.3c2.8,0,5.1,1,6.6,2.4c0.3,0.1,0.8,0.5,1.3-0.1
							C20.7,4,20.4,3.3,20.2,3.3z"/>
					</g>
				</g>
			</g>
		</g>
	</g>
</g>
</svg>
