<?xml version="1.0" encoding="utf-8"?>
<!-- Generator: Adobe Illustrator 21.1.0, SVG Export Plug-In . SVG Version: 6.00 Build 0)  -->
<svg version="1.1" id="Layer_1" xmlns="http://www.w3.org/2000/svg" xmlns:xlink="http://www.w3.org/1999/xlink" x="0px" y="0px"
	 viewBox="0 0 39 56" style="enable-background:new 0 0 39 56;" xml:space="preserve">
<style type="text/css">
	.st0{filter:url(#Adobe_OpacityMaskFilter);}
	.st1{fill:#FFFFFF;}
	.st2{mask:url(#mask-2);fill:#17485D;}
</style>
<title>home</title>
<desc>Created with Sketch.</desc>
<g id="home">
	<g>
		<g id="home-icon-blue" transform="translate(5.000000, 0.000000)">
			<g id="Clip-2">
			</g>
			<defs>
				<filter id="Adobe_OpacityMaskFilter" filterUnits="userSpaceOnUse" x="-3" y="11" width="34" height="34">
					<feColorMatrix  type="matrix" values="1 0 0 0 0  0 1 0 0 0  0 0 1 0 0  0 0 0 1 0"/>
				</filter>
			</defs>
			<mask maskUnits="userSpaceOnUse" x="-3" y="11" width="34" height="34" id="mask-2">
				<g class="st0">
					<polygon id="path-1" class="st1" points="-2.9,45 -2.9,11 31,11 31,45 					"/>
				</g>
			</mask>
			<path id="Fill-1" class="st2" d="M12.4,43.6c0,0.6,0.5,1.4,1.1,1.4h11.2c1.2,0,2.1-1,2.1-2.1V31h3.2c0.4,0,0.8-0.2,1-0.6
				c0.2-0.4,0.1-1.6-0.1-2l-4-5v-8.1c0-1.2-0.9-2.1-2.1-2.1h-2.2c-1.1,0-2.1,1-2.1,2.1v1.3l-3.6-4.3c0,0-0.1-0.1-0.1-0.1
				c-1.5-1.4-3.9-1.4-5.4,0c0,0-0.1,0.1-0.1,0.1L-2.7,28.4c-0.3,0.3-0.3,1.5-0.2,1.9c0.2,0.4,0.6,0.6,1,0.6h3.2v12
				c0,1.2,1,2.1,2.1,2.1h3.2c0.6,0,1.1-0.8,1.1-1.4s-0.5-1.5-1.1-1.5H4.3l0-13c0-0.6-0.5-1.1-1.1-1.1H1.5l12.4-14.4
				c0,0,0.2-0.3,0.5,0l5.4,6.6c0.3,0.3,1.6,0.5,2,0.3c0.4-0.2,1-0.6,1-1v-3.7h1.3v8c0,0.2,0.1,0.5,0.2,0.7L27,28h-2
				c-0.6,0-1.1,0.5-1.1,1.1l0.1,13c0,0-9.4,0-10.6,0C12.3,42.1,12.4,43.6,12.4,43.6z"/>
		</g>
	</g>
</g>
</svg>
