<?xml version="1.0" encoding="UTF-8"?>
<svg width="19px" height="21px" viewBox="0 0 19 21" version="1.1" xmlns="http://www.w3.org/2000/svg" xmlns:xlink="http://www.w3.org/1999/xlink">
    <!-- Generator: Sketch 46 (44423) - http://www.bohemiancoding.com/sketch -->
    <title>lab_icon</title>
    <desc>Created with Sketch.</desc>
    <defs></defs>
    <g id="Lab-setup-Copy" stroke="none" stroke-width="1" fill="none" fill-rule="evenodd">
        <g id="Assets" transform="translate(-204.000000, -499.000000)" stroke="#17485D" fill-rule="nonzero">
            <g id="lab_icon" transform="translate(190.000000, 485.000000)">
                <path d="M31.2103846,30.6384615 L31.2103846,30.6384615 C31.7737922,31.2810418 31.9099442,32.1934901 31.5586691,32.9725558 C31.2073939,33.7516215 30.433438,34.2537086 29.5788462,34.2569231 L17.1969231,34.2569231 C16.616405,34.2569231 16.0596634,34.0263132 15.6491751,33.6158249 C15.2386868,33.2053366 15.0080769,32.648595 15.0080769,32.0680769 C15.0068372,31.6098132 15.1510683,31.1629796 15.42,30.7919231 L21.1546154,20.8976923 L21.1546154,18.4746154 C20.2531725,18.1437956 19.7193228,17.21356 19.8884665,16.268345 C20.0576103,15.3231301 20.880927,14.6357558 21.8411538,14.6380769 L24.87,14.6380769 C25.8302268,14.6357558 26.6535436,15.3231301 26.8226873,16.268345 C26.991831,17.21356 26.4579813,18.1437956 25.5565385,18.4746154 L25.5565385,20.8976923 L31.2103846,30.6384615 Z M25.0880769,25.6469231 C25.0163731,25.5227224 24.8841795,25.4458656 24.7407692,25.445 L22.0107692,25.445 C21.867359,25.4458656 21.7351654,25.5227224 21.6634615,25.6469231 L18.6023077,30.9534615 C18.5303811,31.0780361 18.530148,31.2314661 18.6016957,31.3562586 C18.6732434,31.4810511 18.80577,31.5583655 18.9496154,31.5592308 L27.8342308,31.5592308 C27.9780762,31.5583655 28.1106028,31.4810511 28.1821505,31.3562586 C28.2536982,31.2314661 28.2534651,31.0780361 28.1815385,30.9534615 L25.0880769,25.6469231 Z" id="Shape"></path>
                <path d="M25.0880769,25.6469231 L28.1815385,30.9534615 C28.2534651,31.0780361 28.2536982,31.2314661 28.1821505,31.3562586 C28.1106028,31.4810511 27.9780762,31.5583655 27.8342308,31.5592308 L18.9496154,31.5592308 C18.80577,31.5583655 18.6732434,31.4810511 18.6016957,31.3562586 C18.530148,31.2314661 18.5303811,31.0780361 18.6023077,30.9534615 L21.6634615,25.6469231 C21.7351654,25.5227224 21.867359,25.4458656 22.0107692,25.445 L24.7407692,25.445 C24.8841795,25.4458656 25.0163731,25.5227224 25.0880769,25.6469231 Z" id="Shape" fill="#17485D"></path>
            </g>
        </g>
    </g>
</svg>