<?xml version="1.0" encoding="UTF-8"?>
<svg width="32px" height="34px" viewBox="0 0 32 34" version="1.1" xmlns="http://www.w3.org/2000/svg" xmlns:xlink="http://www.w3.org/1999/xlink">
    <!-- Generator: Sketch 44 (41411) - http://www.bohemiancoding.com/sketch -->
    <title>QC Plan</title>
    <desc>Created with Sketch.</desc>
    <defs></defs>
    <g id="Symbols" stroke="none" stroke-width="1" fill="none" fill-rule="evenodd">
        <g id="QC-Plan" fill="#17485D">
            <g id="plan-icon-blue">
                <path d="M13.6190476,0 C13.0407619,0 12.5714286,1.0041499 12.5714286,1.5917124 C12.5714286,2.1792749 13.0407619,3.00601575 13.6190476,3.00601575 L28.9988321,3.00601575 L28.9988321,30.9267859 L15.7142857,30.9267859 C15.457619,30.9267859 6.864,30.9267859 6.28571429,30.9267859 L2.93904345,30.9267859 L2.93904345,3.00601575 L6.28571429,3.00601575 C6.864,3.00601575 7.33333333,2.1792749 7.33333333,1.5917124 C7.33333333,1.0041499 6.864,0 6.28571429,0 L2.0952381,0 C0.939714286,0 0,0.9530625 0,2.125 L0,31.8858866 C1.81758577e-18,33.0578241 0.939714286,34.0108866 2.0952381,34.0108866 L5.23809524,34.0108866 L16.112381,34.0108866 L29.9544417,34.0108866 C31.1099655,34.0108866 32.0496798,33.0578241 32.0496798,31.8858866 L32.0496798,2.125 C32.0496798,0.9530625 31.1099655,0 29.9544417,0 L13.6190476,0 Z" id="Fill-1-Copy" transform="translate(16.024840, 17.005443) rotate(360.000000) translate(-16.024840, -17.005443) "></path>
                <path d="M8.38095238,12.3636364 C7.11858724,12.3636364 6.0952381,11.325751 6.0952381,10.0454545 C6.0952381,8.76515808 7.11858724,7.72727273 8.38095238,7.72727273 C9.64331752,7.72727273 10.6666667,8.76515808 10.6666667,10.0454545 C10.6666667,11.325751 9.64331752,12.3636364 8.38095238,12.3636364 Z M8.38095238,11.2045455 C9.01213495,11.2045455 9.52380952,10.6856028 9.52380952,10.0454545 C9.52380952,9.40530631 9.01213495,8.88636364 8.38095238,8.88636364 C7.74976981,8.88636364 7.23809524,9.40530631 7.23809524,10.0454545 C7.23809524,10.6856028 7.74976981,11.2045455 8.38095238,11.2045455 Z" id="Combined-Shape"></path>
                <path d="M8.38095238,20.0909091 C7.11858724,20.0909091 6.0952381,19.0530237 6.0952381,17.7727273 C6.0952381,16.4924308 7.11858724,15.4545455 8.38095238,15.4545455 C9.64331752,15.4545455 10.6666667,16.4924308 10.6666667,17.7727273 C10.6666667,19.0530237 9.64331752,20.0909091 8.38095238,20.0909091 Z M8.38095238,18.9318182 C9.01213495,18.9318182 9.52380952,18.4128755 9.52380952,17.7727273 C9.52380952,17.132579 9.01213495,16.6136364 8.38095238,16.6136364 C7.74976981,16.6136364 7.23809524,17.132579 7.23809524,17.7727273 C7.23809524,18.4128755 7.74976981,18.9318182 8.38095238,18.9318182 Z" id="Combined-Shape-Copy"></path>
                <path d="M8.38095238,27.8181818 C7.11858724,27.8181818 6.0952381,26.7802965 6.0952381,25.5 C6.0952381,24.2197035 7.11858724,23.1818182 8.38095238,23.1818182 C9.64331752,23.1818182 10.6666667,24.2197035 10.6666667,25.5 C10.6666667,26.7802965 9.64331752,27.8181818 8.38095238,27.8181818 Z M8.38095238,26.6590909 C9.01213495,26.6590909 9.52380952,26.1401482 9.52380952,25.5 C9.52380952,24.8598518 9.01213495,24.3409091 8.38095238,24.3409091 C7.74976981,24.3409091 7.23809524,24.8598518 7.23809524,25.5 C7.23809524,26.1401482 7.74976981,26.6590909 8.38095238,26.6590909 Z" id="Combined-Shape-Copy-2"></path>
                <path d="M13.2571429,9.27272727 C12.6672762,9.27272727 12.1904762,9.74766477 12.1904762,10.3352273 C12.1904762,10.9227898 12.6672762,11.3977273 13.2571429,11.3977273 L23.8952725,11.3977273 C24.4851392,11.3977273 24.9619392,10.9227898 24.9619392,10.3352273 C24.9619392,9.74766477 24.4851392,9.27272727 23.8952725,9.27272727 L13.2571429,9.27272727 Z" id="Fill-7-Copy-2"></path>
                <path d="M13.2571429,17 C12.6672762,17 12.1904762,17.4749375 12.1904762,18.0625 C12.1904762,18.6500625 12.6672762,19.125 13.2571429,19.125 L23.8952725,19.125 C24.4851392,19.125 24.9619392,18.6500625 24.9619392,18.0625 C24.9619392,17.4749375 24.4851392,17 23.8952725,17 L13.2571429,17 Z" id="Fill-7-Copy-3"></path>
                <path d="M13.2571429,24.7272727 C12.6672762,24.7272727 12.1904762,25.2022102 12.1904762,25.7897727 C12.1904762,26.3773352 12.6672762,26.8522727 13.2571429,26.8522727 L23.8952725,26.8522727 C24.4851392,26.8522727 24.9619392,26.3773352 24.9619392,25.7897727 C24.9619392,25.2022102 24.4851392,24.7272727 23.8952725,24.7272727 L13.2571429,24.7272727 Z" id="Fill-7-Copy-4"></path>
            </g>
        </g>
    </g>
</svg>