<?xml version="1.0" encoding="UTF-8"?>
<svg width="34px" height="34px" viewBox="0 0 34 34" version="1.1" xmlns="http://www.w3.org/2000/svg" xmlns:xlink="http://www.w3.org/1999/xlink">
    <!-- Generator: Sketch 44 (41411) - http://www.bohemiancoding.com/sketch -->
    <title>recommendations</title>
    <desc>Created with Sketch.</desc>
    <defs>
        <polygon id="path-1" points="0.06375 34 0.06375 0 34 0 34 34"></polygon>
    </defs>
    <g id="Symbols" stroke="none" stroke-width="1" fill="none" fill-rule="evenodd">
        <g id="recommendations">
            <g id="recommendations-icon-blue">
                <mask id="mask-2" fill="white">
                    <use xlink:href="#path-1"></use>
                </mask>
                <g id="Clip-2"></g>
                <path d="M13.8125,0 C13.226,0 12.7845762,0.963813874 12.7845762,1.55137637 C12.7845762,2.13893887 13.226,3.17940559 13.8125,3.17940559 L31.02452,3.17940559 L31.02452,22.3062024 L15.9375,22.3062024 C15.6771875,22.3062024 15.4264375,22.4018274 15.2309375,22.5750149 L8.50119892,28.678801 L8.46754923,23.3455097 C8.46754923,22.7579472 7.99154923,22.2830097 7.40504923,22.2830097 L3.18150155,22.3062024 L3.18150155,3.17940559 L6.375,3.17940559 C6.9615,3.17940559 7.47207623,2.13893887 7.47207623,1.55137637 C7.47207623,0.963813874 6.9615,0 6.375,0 L2.125,0 C0.9530625,0 0,0.9530625 0,2.125 L0,23.375 C0,24.5469375 0.9530625,25.5 2.125,25.5 L5.3125,25.5 L5.3125,32.9375 C5.3125,33.356125 5.5579375,33.7354375 5.939375,33.9065 C6.079625,33.97025 6.2273125,34 6.375,34 C6.63,34 6.8818125,33.9075625 7.0815625,33.7311875 L16.34125,25.5 L31.875,25.5 C33.0469375,25.5 34,24.5469375 34,23.375 L34,2.125 C34,0.9530625 33.0469375,0 31.875,0 L13.8125,0 Z" id="Fill-1" fill="#17485D" fill-rule="evenodd" mask="url(#mask-2)"></path>
                <path d="M25.5,8.5 C26.0865,8.5 26.5625,8.0250625 26.5625,7.4375 C26.5625,6.8499375 26.0865,6.375 25.5,6.375 L8.5,6.375 C7.9135,6.375 7.4375,6.8499375 7.4375,7.4375 C7.4375,8.0250625 7.9135,8.5 8.5,8.5 L25.5,8.5 Z" id="Fill-4" fill="#17485D" fill-rule="evenodd" mask="url(#mask-2)"></path>
                <path d="M25.5,11.6875 L8.5,11.6875 C7.9135,11.6875 7.4375,12.1624375 7.4375,12.75 C7.4375,13.3375625 7.9135,13.8125 8.5,13.8125 L25.5,13.8125 C26.0865,13.8125 26.5625,13.3375625 26.5625,12.75 C26.5625,12.1624375 26.0865,11.6875 25.5,11.6875" id="Fill-5" fill="#17485D" fill-rule="evenodd" mask="url(#mask-2)"></path>
                <path d="M25.5,17 L8.5,17 C7.9135,17 7.4375,17.4749375 7.4375,18.0625 C7.4375,18.6500625 7.9135,19.125 8.5,19.125 L25.5,19.125 C26.0865,19.125 26.5625,18.6500625 26.5625,18.0625 C26.5625,17.4749375 26.0865,17 25.5,17" id="Fill-6" fill="#17485D" fill-rule="evenodd" mask="url(#mask-2)"></path>
            </g>
        </g>
    </g>
</svg>